M48
INCH,LZ
;FILE_FORMAT=2:4
;TYPE=PLATED
;Layer: PTH_Through_Via
;EasyEDA v6.5.23, 2023-05-27 11:47:03
;dba0e08a7a4f4acbaa45d03accf02bcc,0a61cb7f7b51421fbede6d33e3e5ec82,10
;Gerber Generator version 0.2
;Holesize 1 = 0.0120 inch
T01C0.0120
%
G05
G90
T01
X011050Y019250
X030080Y025120
X012560Y016870
X022920Y017000
X023670Y021660
X027500Y022050
X030800Y024830
X012050Y019600
X024480Y025340
X026650Y025400
X029260Y025190
X007890Y022020
X007500Y019200
X026970Y014920
X012850Y013500
X012550Y013850
X024600Y013000
X014950Y014900
X025250Y012700
X015400Y014700
X024600Y014700
X017300Y016260
X012050Y026050
X005350Y024500
X006600Y022950
X023810Y016610
X025890Y017620
X025800Y020650
X025800Y020650
X025800Y021950
X026380Y017930
X026650Y020650
X026650Y022050
X025600Y019100
X005360Y021400
X004450Y024200
X005750Y017650
X004250Y020750
X003250Y024150
X003150Y022945
X018530Y019910
X025900Y026520
X025380Y013990
X026200Y014690
X011750Y016800
X010100Y013200
X010640Y013200
X027050Y025100
X029600Y025100
X009750Y014250
X009100Y013150
X012350Y011800
X012200Y012250
X005000Y012150
X015200Y011650
X013700Y013550
X029450Y020350
X028900Y020350
X028900Y019800
X029450Y019800
X025340Y022330
X023500Y025650
X026250Y025800
X007850Y012350
X003250Y015900
X004800Y016200
X006400Y015400
X003150Y021100
X004660Y020820
X010000Y023900
X009150Y015350
X016250Y025900
X007100Y016900
X004550Y022900
X005650Y022900
X006100Y024600
X029790Y011510
X024200Y020520
X025120Y011340
X014650Y021860
X020580Y025370
X006150Y022880
X003700Y021390
X006443Y012785
X008411Y012785
X011030Y012630
X029800Y026600
X028010Y026550
X031750Y023830
X025940Y019850
X024130Y023710
X028260Y023610
X018010Y020795
X018010Y023980
X016330Y020190
X016710Y024520
X017860Y018950
X021180Y018840
X021440Y013590
X031780Y013440
X010840Y018640
X030600Y025230
X013880Y018330
X009780Y018420
X021120Y018040
X021130Y014250
X024670Y013680
X029220Y014040
X031230Y014060
X029040Y016760
X029250Y015030
X011200Y017980
X020690Y017840
X021170Y013140
X023960Y013050
X023960Y014220
X023960Y014220
X027320Y014570
X010490Y017760
X023210Y017850
X029700Y017100
X029320Y014460
X012380Y017500
X023250Y017320
X028150Y017010
X028270Y014130
X025560Y024480
X025230Y016550
X026190Y022070
X012480Y011260
X007350Y018750
M30
