G04 Layer: BottomSilkscreenLayer*
G04 EasyEDA v6.5.23, 2023-05-27 11:47:03*
G04 dba0e08a7a4f4acbaa45d03accf02bcc,0a61cb7f7b51421fbede6d33e3e5ec82,10*
G04 Gerber Generator version 0.2*
G04 Scale: 100 percent, Rotated: No, Reflected: No *
G04 Dimensions in inches *
G04 leading zeros omitted , absolute positions ,3 integer and 6 decimal *
%FSLAX36Y36*%
%MOIN*%

%ADD10C,0.0080*%
%ADD11C,0.0060*%
%ADD12C,0.0100*%
%ADD13C,0.0051*%
%ADD14C,0.0039*%
%ADD15C,0.0110*%

%LPD*%
D10*
X3107727Y1226999D02*
G01*
X3031364Y1226999D01*
X3107727Y1226999D02*
G01*
X3107727Y1259726D01*
X3104090Y1270635D01*
X3100455Y1274272D01*
X3093181Y1277908D01*
X3085909Y1277908D01*
X3078635Y1274272D01*
X3075000Y1270635D01*
X3071364Y1259726D01*
X3071364Y1226999D02*
G01*
X3071364Y1259726D01*
X3067727Y1270635D01*
X3064090Y1274272D01*
X3056818Y1277908D01*
X3045909Y1277908D01*
X3038635Y1274272D01*
X3035000Y1270635D01*
X3031364Y1259726D01*
X3031364Y1226999D01*
X3107727Y1327363D02*
G01*
X3031364Y1327363D01*
X3107727Y1301909D02*
G01*
X3107727Y1352818D01*
X3150726Y2405000D02*
G01*
X3074363Y2405000D01*
X3150726Y2405000D02*
G01*
X3150726Y2437727D01*
X3147091Y2448636D01*
X3143455Y2452273D01*
X3136181Y2455909D01*
X3128909Y2455909D01*
X3121635Y2452273D01*
X3118000Y2448636D01*
X3114363Y2437727D01*
X3114363Y2405000D01*
X3114363Y2430455D02*
G01*
X3074363Y2455909D01*
X3139817Y2530817D02*
G01*
X3147091Y2523544D01*
X3150726Y2512636D01*
X3150726Y2498090D01*
X3147091Y2487181D01*
X3139817Y2479908D01*
X3132545Y2479908D01*
X3125272Y2483544D01*
X3121635Y2487181D01*
X3118000Y2494454D01*
X3110726Y2516273D01*
X3107091Y2523544D01*
X3103455Y2527181D01*
X3096181Y2530817D01*
X3085272Y2530817D01*
X3078000Y2523544D01*
X3074363Y2512636D01*
X3074363Y2498090D01*
X3078000Y2487181D01*
X3085272Y2479908D01*
X3150726Y2580273D02*
G01*
X3074363Y2580273D01*
X3150726Y2554818D02*
G01*
X3150726Y2605727D01*
X1352182Y1185545D02*
G01*
X1333999Y1233272D01*
X1352182Y1185545D02*
G01*
X1370363Y1233272D01*
X1340817Y1217363D02*
G01*
X1363545Y1217363D01*
X1385363Y1185545D02*
G01*
X1385363Y1233272D01*
X1385363Y1185545D02*
G01*
X1405817Y1185545D01*
X1412636Y1187818D01*
X1414908Y1190091D01*
X1417182Y1194636D01*
X1417182Y1199182D01*
X1414908Y1203726D01*
X1412636Y1205999D01*
X1405817Y1208272D01*
X1385363Y1208272D02*
G01*
X1405817Y1208272D01*
X1412636Y1210545D01*
X1414908Y1212818D01*
X1417182Y1217363D01*
X1417182Y1224182D01*
X1414908Y1228726D01*
X1412636Y1230999D01*
X1405817Y1233272D01*
X1385363Y1233272D01*
X1432182Y1185545D02*
G01*
X1432182Y1233272D01*
X1432182Y1185545D02*
G01*
X1448091Y1185545D01*
X1454908Y1187818D01*
X1459454Y1192363D01*
X1461727Y1196909D01*
X1463999Y1203726D01*
X1463999Y1215091D01*
X1461727Y1221909D01*
X1459454Y1226455D01*
X1454908Y1230999D01*
X1448091Y1233272D01*
X1432182Y1233272D01*
X1478999Y1185545D02*
G01*
X1478999Y1219636D01*
X1481273Y1226455D01*
X1485817Y1230999D01*
X1492636Y1233272D01*
X1497182Y1233272D01*
X1503999Y1230999D01*
X1508545Y1226455D01*
X1510817Y1219636D01*
X1510817Y1185545D01*
X1525817Y1185545D02*
G01*
X1525817Y1233272D01*
X1525817Y1233272D02*
G01*
X1553091Y1233272D01*
X1568091Y1185545D02*
G01*
X1568091Y1233272D01*
X1568091Y1185545D02*
G01*
X1588545Y1185545D01*
X1595363Y1187818D01*
X1597636Y1190091D01*
X1599908Y1194636D01*
X1599908Y1199182D01*
X1597636Y1203726D01*
X1595363Y1205999D01*
X1588545Y1208272D01*
X1568091Y1208272D01*
X1583999Y1208272D02*
G01*
X1599908Y1233272D01*
X1633091Y1185545D02*
G01*
X1614908Y1233272D01*
X1633091Y1185545D02*
G01*
X1651273Y1233272D01*
X1621727Y1217363D02*
G01*
X1644454Y1217363D01*
X1666273Y1185545D02*
G01*
X1666273Y1233272D01*
X1698091Y1185545D02*
G01*
X1698091Y1233272D01*
X1666273Y1208272D02*
G01*
X1698091Y1208272D01*
X1713091Y1185545D02*
G01*
X1713091Y1233272D01*
X1713091Y1185545D02*
G01*
X1731273Y1233272D01*
X1749454Y1185545D02*
G01*
X1731273Y1233272D01*
X1749454Y1185545D02*
G01*
X1749454Y1233272D01*
X1782636Y1185545D02*
G01*
X1764454Y1233272D01*
X1782636Y1185545D02*
G01*
X1800817Y1233272D01*
X1771273Y1217363D02*
G01*
X1793999Y1217363D01*
X1815817Y1185545D02*
G01*
X1815817Y1233272D01*
X1815817Y1185545D02*
G01*
X1847636Y1233272D01*
X1847636Y1185545D02*
G01*
X1847636Y1233272D01*
X1368000Y1279544D02*
G01*
X1368000Y1327273D01*
X1368000Y1279544D02*
G01*
X1388455Y1279544D01*
X1395272Y1281817D01*
X1397545Y1284090D01*
X1399817Y1288636D01*
X1399817Y1293182D01*
X1397545Y1297726D01*
X1395272Y1300000D01*
X1388455Y1302273D01*
X1368000Y1302273D02*
G01*
X1388455Y1302273D01*
X1395272Y1304544D01*
X1397545Y1306817D01*
X1399817Y1311363D01*
X1399817Y1318182D01*
X1397545Y1322726D01*
X1395272Y1325000D01*
X1388455Y1327273D01*
X1368000Y1327273D01*
X1414817Y1279544D02*
G01*
X1414817Y1327273D01*
X1429817Y1279544D02*
G01*
X1429817Y1327273D01*
X1429817Y1279544D02*
G01*
X1461635Y1327273D01*
X1461635Y1279544D02*
G01*
X1461635Y1327273D01*
X1476635Y1279544D02*
G01*
X1476635Y1327273D01*
X1476635Y1279544D02*
G01*
X1494817Y1327273D01*
X1513000Y1279544D02*
G01*
X1494817Y1327273D01*
X1513000Y1279544D02*
G01*
X1513000Y1327273D01*
X1546181Y1279544D02*
G01*
X1528000Y1327273D01*
X1546181Y1279544D02*
G01*
X1564363Y1327273D01*
X1534817Y1311363D02*
G01*
X1557545Y1311363D01*
X1579363Y1279544D02*
G01*
X1579363Y1327273D01*
X1611181Y1279544D02*
G01*
X1611181Y1327273D01*
X1579363Y1302273D02*
G01*
X1611181Y1302273D01*
X1626181Y1279544D02*
G01*
X1626181Y1327273D01*
X1626181Y1279544D02*
G01*
X1655726Y1279544D01*
X1626181Y1302273D02*
G01*
X1644363Y1302273D01*
X1670726Y1279544D02*
G01*
X1670726Y1313636D01*
X1673000Y1320455D01*
X1677545Y1325000D01*
X1684363Y1327273D01*
X1688909Y1327273D01*
X1695726Y1325000D01*
X1700272Y1320455D01*
X1702545Y1313636D01*
X1702545Y1279544D01*
X1733455Y1279544D02*
G01*
X1733455Y1327273D01*
X1717545Y1279544D02*
G01*
X1749363Y1279544D01*
X1764363Y1279544D02*
G01*
X1764363Y1327273D01*
X1796181Y1279544D02*
G01*
X1796181Y1327273D01*
X1764363Y1302273D02*
G01*
X1796181Y1302273D01*
X1373000Y2613726D02*
G01*
X1373000Y2642363D01*
X1373000Y2613726D02*
G01*
X1390726Y2613726D01*
X1373000Y2627363D02*
G01*
X1383909Y2627363D01*
X1373000Y2642363D02*
G01*
X1390726Y2642363D01*
X1418818Y2617818D02*
G01*
X1416090Y2615091D01*
X1411999Y2613726D01*
X1406544Y2613726D01*
X1402455Y2615091D01*
X1399727Y2617818D01*
X1399727Y2620545D01*
X1401090Y2623272D01*
X1402455Y2624636D01*
X1405182Y2625999D01*
X1413364Y2628726D01*
X1416090Y2630091D01*
X1417455Y2631455D01*
X1418818Y2634182D01*
X1418818Y2638272D01*
X1416090Y2640999D01*
X1411999Y2642363D01*
X1406544Y2642363D01*
X1402455Y2640999D01*
X1399727Y2638272D01*
X1427817Y2613726D02*
G01*
X1427817Y2642363D01*
X1427817Y2613726D02*
G01*
X1440091Y2613726D01*
X1444182Y2615091D01*
X1445545Y2616455D01*
X1446908Y2619182D01*
X1446908Y2623272D01*
X1445545Y2625999D01*
X1444182Y2627363D01*
X1440091Y2628726D01*
X1427817Y2628726D01*
X1455909Y2630091D02*
G01*
X1480455Y2630091D01*
X1509908Y2620545D02*
G01*
X1508545Y2617818D01*
X1505817Y2615091D01*
X1503091Y2613726D01*
X1497636Y2613726D01*
X1494908Y2615091D01*
X1492182Y2617818D01*
X1490817Y2620545D01*
X1489454Y2624636D01*
X1489454Y2631455D01*
X1490817Y2635545D01*
X1492182Y2638272D01*
X1494908Y2640999D01*
X1497636Y2642363D01*
X1503091Y2642363D01*
X1505817Y2640999D01*
X1508545Y2638272D01*
X1509908Y2635545D01*
X1529817Y2613726D02*
G01*
X1518909Y2642363D01*
X1529817Y2613726D02*
G01*
X1540726Y2642363D01*
X1523000Y2632818D02*
G01*
X1536635Y2632818D01*
X1549727Y2613726D02*
G01*
X1549727Y2642363D01*
X1549727Y2613726D02*
G01*
X1560636Y2642363D01*
X1571544Y2613726D02*
G01*
X1560636Y2642363D01*
X1571544Y2613726D02*
G01*
X1571544Y2642363D01*
X1580545Y2630091D02*
G01*
X1605091Y2630091D01*
X1623635Y2613726D02*
G01*
X1623635Y2642363D01*
X1614090Y2613726D02*
G01*
X1633181Y2613726D01*
X1642182Y2613726D02*
G01*
X1642182Y2642363D01*
X1642182Y2613726D02*
G01*
X1659908Y2613726D01*
X1642182Y2627363D02*
G01*
X1653091Y2627363D01*
X1678455Y2613726D02*
G01*
X1678455Y2642363D01*
X1668909Y2613726D02*
G01*
X1688000Y2613726D01*
X1718000Y2613726D02*
G01*
X1728909Y2642363D01*
X1739817Y2613726D02*
G01*
X1728909Y2642363D01*
X1750182Y2620545D02*
G01*
X1750182Y2619182D01*
X1751544Y2616455D01*
X1752908Y2615091D01*
X1755636Y2613726D01*
X1761090Y2613726D01*
X1763818Y2615091D01*
X1765182Y2616455D01*
X1766544Y2619182D01*
X1766544Y2621909D01*
X1765182Y2624636D01*
X1762455Y2628726D01*
X1748818Y2642363D01*
X1767908Y2642363D01*
X1293635Y2009544D02*
G01*
X1289090Y2011817D01*
X1284544Y2016363D01*
X1282272Y2020909D01*
X1280000Y2027726D01*
X1280000Y2039090D01*
X1282272Y2045909D01*
X1284544Y2050455D01*
X1289090Y2055000D01*
X1293635Y2057273D01*
X1302727Y2057273D01*
X1307272Y2055000D01*
X1311818Y2050455D01*
X1314090Y2045909D01*
X1316364Y2039090D01*
X1316364Y2027726D01*
X1314090Y2020909D01*
X1311818Y2016363D01*
X1307272Y2011817D01*
X1302727Y2009544D01*
X1293635Y2009544D01*
X1300455Y2048182D02*
G01*
X1314090Y2061817D01*
X1349544Y2009544D02*
G01*
X1331364Y2057273D01*
X1349544Y2009544D02*
G01*
X1367727Y2057273D01*
X1338181Y2041363D02*
G01*
X1360909Y2041363D01*
X1382727Y2009544D02*
G01*
X1394090Y2057273D01*
X1405455Y2009544D02*
G01*
X1394090Y2057273D01*
X1405455Y2009544D02*
G01*
X1416818Y2057273D01*
X1428181Y2009544D02*
G01*
X1416818Y2057273D01*
X1461364Y2009544D02*
G01*
X1443181Y2057273D01*
X1461364Y2009544D02*
G01*
X1479544Y2057273D01*
X1450000Y2041363D02*
G01*
X1472727Y2041363D01*
X1526364Y2016363D02*
G01*
X1521818Y2011817D01*
X1515000Y2009544D01*
X1505909Y2009544D01*
X1499090Y2011817D01*
X1494544Y2016363D01*
X1494544Y2020909D01*
X1496818Y2025455D01*
X1499090Y2027726D01*
X1503635Y2030000D01*
X1517272Y2034544D01*
X1521818Y2036817D01*
X1524090Y2039090D01*
X1526364Y2043636D01*
X1526364Y2050455D01*
X1521818Y2055000D01*
X1515000Y2057273D01*
X1505909Y2057273D01*
X1499090Y2055000D01*
X1494544Y2050455D01*
X1541364Y2009544D02*
G01*
X1541364Y2057273D01*
X1573181Y2009544D02*
G01*
X1573181Y2057273D01*
X1541364Y2032273D02*
G01*
X1573181Y2032273D01*
X1623181Y2009544D02*
G01*
X1623181Y2057273D01*
X1623181Y2009544D02*
G01*
X1639090Y2009544D01*
X1645909Y2011817D01*
X1650455Y2016363D01*
X1652727Y2020909D01*
X1655000Y2027726D01*
X1655000Y2039090D01*
X1652727Y2045909D01*
X1650455Y2050455D01*
X1645909Y2055000D01*
X1639090Y2057273D01*
X1623181Y2057273D01*
X1670000Y2009544D02*
G01*
X1670000Y2057273D01*
X1670000Y2009544D02*
G01*
X1699544Y2009544D01*
X1670000Y2032273D02*
G01*
X1688181Y2032273D01*
X1670000Y2057273D02*
G01*
X1699544Y2057273D01*
X1746364Y2016363D02*
G01*
X1741818Y2011817D01*
X1735000Y2009544D01*
X1725909Y2009544D01*
X1719090Y2011817D01*
X1714544Y2016363D01*
X1714544Y2020909D01*
X1716818Y2025455D01*
X1719090Y2027726D01*
X1723635Y2030000D01*
X1737272Y2034544D01*
X1741818Y2036817D01*
X1744090Y2039090D01*
X1746364Y2043636D01*
X1746364Y2050455D01*
X1741818Y2055000D01*
X1735000Y2057273D01*
X1725909Y2057273D01*
X1719090Y2055000D01*
X1714544Y2050455D01*
X1761364Y2009544D02*
G01*
X1761364Y2057273D01*
X1810455Y2020909D02*
G01*
X1808181Y2016363D01*
X1803635Y2011817D01*
X1799090Y2009544D01*
X1790000Y2009544D01*
X1785455Y2011817D01*
X1780909Y2016363D01*
X1778635Y2020909D01*
X1776364Y2027726D01*
X1776364Y2039090D01*
X1778635Y2045909D01*
X1780909Y2050455D01*
X1785455Y2055000D01*
X1790000Y2057273D01*
X1799090Y2057273D01*
X1803635Y2055000D01*
X1808181Y2050455D01*
X1810455Y2045909D01*
X1810455Y2039090D01*
X1799090Y2039090D02*
G01*
X1810455Y2039090D01*
X1825455Y2009544D02*
G01*
X1825455Y2057273D01*
X1825455Y2009544D02*
G01*
X1857272Y2057273D01*
X1857272Y2009544D02*
G01*
X1857272Y2057273D01*
X1486364Y1956545D02*
G01*
X1486364Y1955181D01*
X1487727Y1952455D01*
X1489090Y1951091D01*
X1491818Y1949726D01*
X1497272Y1949726D01*
X1500000Y1951091D01*
X1501364Y1952455D01*
X1502727Y1955181D01*
X1502727Y1957908D01*
X1501364Y1960635D01*
X1498635Y1964726D01*
X1485000Y1978364D01*
X1504090Y1978364D01*
X1521273Y1949726D02*
G01*
X1517182Y1951091D01*
X1514454Y1955181D01*
X1513091Y1961999D01*
X1513091Y1966091D01*
X1514454Y1972908D01*
X1517182Y1976999D01*
X1521273Y1978364D01*
X1523999Y1978364D01*
X1528091Y1976999D01*
X1530817Y1972908D01*
X1532182Y1966091D01*
X1532182Y1961999D01*
X1530817Y1955181D01*
X1528091Y1951091D01*
X1523999Y1949726D01*
X1521273Y1949726D01*
X1542545Y1956545D02*
G01*
X1542545Y1955181D01*
X1543909Y1952455D01*
X1545272Y1951091D01*
X1548000Y1949726D01*
X1553455Y1949726D01*
X1556181Y1951091D01*
X1557545Y1952455D01*
X1558909Y1955181D01*
X1558909Y1957908D01*
X1557545Y1960635D01*
X1554817Y1964726D01*
X1541181Y1978364D01*
X1560272Y1978364D01*
X1571999Y1949726D02*
G01*
X1586999Y1949726D01*
X1578818Y1960635D01*
X1582908Y1960635D01*
X1585636Y1961999D01*
X1586999Y1963364D01*
X1588364Y1967455D01*
X1588364Y1970181D01*
X1586999Y1974272D01*
X1584273Y1976999D01*
X1580182Y1978364D01*
X1576090Y1978364D01*
X1571999Y1976999D01*
X1570636Y1975635D01*
X1569273Y1972908D01*
X2762817Y1760909D02*
G01*
X2770091Y1753636D01*
X2773726Y1742726D01*
X2773726Y1728182D01*
X2770091Y1717273D01*
X2762817Y1710000D01*
X2755545Y1710000D01*
X2748272Y1713636D01*
X2744636Y1717273D01*
X2741000Y1724544D01*
X2733726Y1746363D01*
X2730091Y1753636D01*
X2726454Y1757273D01*
X2719182Y1760909D01*
X2708272Y1760909D01*
X2701000Y1753636D01*
X2697363Y1742726D01*
X2697363Y1728182D01*
X2701000Y1717273D01*
X2708272Y1710000D01*
X2773726Y1810363D02*
G01*
X2697363Y1810363D01*
X2773726Y1784908D02*
G01*
X2773726Y1835817D01*
X2773726Y1910727D02*
G01*
X2697363Y1874364D01*
X2773726Y1859818D02*
G01*
X2773726Y1910727D01*
X2773726Y1985635D02*
G01*
X2697363Y1949272D01*
X2773726Y1934726D02*
G01*
X2773726Y1985635D01*
X2773726Y2016909D02*
G01*
X2773726Y2056909D01*
X2744636Y2035091D01*
X2744636Y2045999D01*
X2741000Y2053272D01*
X2737363Y2056909D01*
X2726454Y2060545D01*
X2719182Y2060545D01*
X2708272Y2056909D01*
X2701000Y2049636D01*
X2697363Y2038726D01*
X2697363Y2027818D01*
X2701000Y2016909D01*
X2704636Y2013272D01*
X2711908Y2009636D01*
X2773726Y2128182D02*
G01*
X2773726Y2091817D01*
X2741000Y2088182D01*
X2744636Y2091817D01*
X2748272Y2102727D01*
X2748272Y2113636D01*
X2744636Y2124544D01*
X2737363Y2131817D01*
X2726454Y2135455D01*
X2719182Y2135455D01*
X2708272Y2131817D01*
X2701000Y2124544D01*
X2697363Y2113636D01*
X2697363Y2102727D01*
X2701000Y2091817D01*
X2704636Y2088182D01*
X2711908Y2084544D01*
X2570545Y1695999D02*
G01*
X2571454Y1697818D01*
X2574182Y1700545D01*
X2555091Y1700545D01*
X2563545Y2100000D02*
G01*
X2564454Y2101817D01*
X2567182Y2104544D01*
X2548091Y2104544D01*
X2567182Y2119636D02*
G01*
X2554454Y2110545D01*
X2554454Y2124182D01*
X2567182Y2119636D02*
G01*
X2548091Y2119636D01*
G36*
X649000Y1624000D02*
G01*
X660000Y1615000D01*
X671000Y1624000D01*
G37*
G36*
X660000Y1615000D02*
G01*
X649000Y1606000D01*
X671000Y1606000D01*
G37*
G36*
X389000Y2341000D02*
G01*
X380000Y2330000D01*
X389000Y2319000D01*
G37*
G36*
X371000Y2341000D02*
G01*
X371000Y2319000D01*
X380000Y2330000D01*
G37*
G36*
X599000Y1624000D02*
G01*
X610000Y1615000D01*
X621000Y1624000D01*
G37*
G36*
X610000Y1615000D02*
G01*
X599000Y1606000D01*
X621000Y1606000D01*
G37*
D11*
X600000Y2325000D02*
G01*
X590000Y2325000D01*
D12*
X2943046Y2407015D02*
G01*
X2943046Y2421538D01*
X2943046Y2644461D02*
G01*
X2943046Y2658984D01*
X2698954Y2658984D02*
G01*
X2943046Y2658984D01*
X2698954Y2407015D02*
G01*
X2943046Y2407015D01*
X2698954Y2407015D02*
G01*
X2698954Y2421538D01*
X2698954Y2486981D02*
G01*
X2698954Y2579018D01*
X2698954Y2644461D02*
G01*
X2698954Y2658984D01*
X2943046Y2486981D02*
G01*
X2943046Y2579018D01*
X2678953Y1402984D02*
G01*
X2678953Y1388461D01*
X2678953Y1165538D02*
G01*
X2678953Y1151015D01*
X2923046Y1151015D02*
G01*
X2678953Y1151015D01*
X2923046Y1402984D02*
G01*
X2678953Y1402984D01*
X2923046Y1402984D02*
G01*
X2923046Y1388461D01*
X2923046Y1323018D02*
G01*
X2923046Y1230981D01*
X2923046Y1165538D02*
G01*
X2923046Y1151015D01*
X2678953Y1323018D02*
G01*
X2678953Y1230981D01*
D11*
X371093Y1559630D02*
G01*
X342824Y1559630D01*
X342824Y1520369D01*
X371093Y1520369D01*
X388906Y1559630D02*
G01*
X417175Y1559630D01*
X417175Y1520369D01*
X388906Y1520369D01*
X2530370Y2581093D02*
G01*
X2530370Y2552824D01*
X2569629Y2552824D01*
X2569629Y2581093D01*
X2530370Y2598906D02*
G01*
X2530370Y2627175D01*
X2569629Y2627175D01*
X2569629Y2598906D01*
D13*
X679684Y1589409D02*
G01*
X679684Y1640590D01*
X640315Y1589409D02*
G01*
X640315Y1640590D01*
D14*
X669000Y1615000D02*
G01*
X650000Y1615000D01*
D11*
X339987Y2350369D02*
G01*
X371093Y2350369D01*
X388906Y2389630D02*
G01*
X420012Y2389630D01*
X420012Y2350369D02*
G01*
X388906Y2350369D01*
X426012Y2383629D02*
G01*
X426012Y2356370D01*
X371093Y2389630D02*
G01*
X339987Y2389630D01*
X333987Y2383629D02*
G01*
X333987Y2356370D01*
X2480370Y2635012D02*
G01*
X2480370Y2603906D01*
X2519629Y2586093D02*
G01*
X2519629Y2554987D01*
X2480370Y2554987D02*
G01*
X2480370Y2586093D01*
X2513630Y2548987D02*
G01*
X2486369Y2548987D01*
X2519629Y2603906D02*
G01*
X2519629Y2635012D01*
X2513630Y2641012D02*
G01*
X2486369Y2641012D01*
D13*
X354409Y2310315D02*
G01*
X405590Y2310315D01*
X354409Y2349684D02*
G01*
X405590Y2349684D01*
D14*
X380000Y2320999D02*
G01*
X380000Y2340000D01*
D13*
X629684Y1589409D02*
G01*
X629684Y1640590D01*
X590315Y1589409D02*
G01*
X590315Y1640590D01*
D14*
X619000Y1615000D02*
G01*
X600000Y1615000D01*
D11*
X575369Y2041093D02*
G01*
X575369Y2012824D01*
X614630Y2012824D01*
X614630Y2041093D01*
X575369Y2058906D02*
G01*
X575369Y2087175D01*
X614630Y2087175D01*
X614630Y2058906D01*
D12*
X367905Y2044998D02*
G01*
X442561Y2044998D01*
X281929Y1684998D02*
G01*
X219996Y1684998D01*
X219996Y2044998D01*
X281929Y2044998D01*
X442561Y1684998D02*
G01*
X367905Y1684998D01*
D11*
G75*
G01*
X420012Y2389630D02*
G02*
X426012Y2383630I0J-6000D01*
G75*
G01*
X426012Y2356370D02*
G02*
X420012Y2350370I-6000J0D01*
G75*
G01*
X339988Y2389630D02*
G03*
X333988Y2383630I0J-6000D01*
G75*
G01*
X333988Y2356370D02*
G03*
X339988Y2350370I6000J0D01*
G75*
G01*
X2519630Y2554988D02*
G02*
X2513630Y2548988I-6000J0D01*
G75*
G01*
X2486370Y2548988D02*
G02*
X2480370Y2554988I0J6000D01*
G75*
G01*
X2519630Y2635012D02*
G03*
X2513630Y2641012I-6000J0D01*
G75*
G01*
X2486370Y2641012D02*
G03*
X2480370Y2635012I0J-6000D01*
D12*
G75*
G01
X2897320Y2533000D02*
G03X2897320Y2533000I-76320J0D01*
G75*
G01
X2879310Y2533000D02*
G03X2879310Y2533000I-58310J0D01*
G75*
G01
X2877320Y1277000D02*
G03X2877320Y1277000I-76320J0D01*
G75*
G01
X2859310Y1277000D02*
G03X2859310Y1277000I-58310J0D01*
M02*
