G04 Layer: TopPasteMaskLayer*
G04 EasyEDA v6.5.23, 2023-05-27 11:47:03*
G04 dba0e08a7a4f4acbaa45d03accf02bcc,0a61cb7f7b51421fbede6d33e3e5ec82,10*
G04 Gerber Generator version 0.2*
G04 Scale: 100 percent, Rotated: No, Reflected: No *
G04 Dimensions in inches *
G04 leading zeros omitted , absolute positions ,3 integer and 6 decimal *
%FSLAX36Y36*%
%MOIN*%

%AMMACRO1*21,1,$1,$2,0,0,$3*%
%ADD10R,0.0591X0.0118*%
%ADD11MACRO1,0.0118X0.0591X-90.0000*%
%ADD12R,0.1181X0.0787*%
%ADD13R,0.0394X0.0551*%
%ADD14R,0.0236X0.0421*%
%ADD15R,0.0354X0.0787*%
%ADD16R,0.0354X0.0354*%
%ADD17R,0.0433X0.0984*%
%ADD18MACRO1,0.1417X0.0921X0.0000*%
%ADD19R,0.0422X0.0209*%
%ADD20R,0.0190X0.0209*%

%LPD*%
G36*
X2765940Y2433180D02*
G01*
X2764360Y2431600D01*
X2764360Y2411880D01*
X2765940Y2410320D01*
X2784060Y2410320D01*
X2785640Y2411880D01*
X2785640Y2431600D01*
X2784060Y2433180D01*
G37*
G36*
X2765940Y2399680D02*
G01*
X2764360Y2398120D01*
X2764360Y2378400D01*
X2765940Y2376820D01*
X2784060Y2376820D01*
X2785640Y2378400D01*
X2785640Y2398120D01*
X2784060Y2399680D01*
G37*
G36*
X2619940Y2433180D02*
G01*
X2618380Y2431600D01*
X2618380Y2411880D01*
X2619940Y2410320D01*
X2638060Y2410320D01*
X2639620Y2411880D01*
X2639620Y2431600D01*
X2638060Y2433180D01*
G37*
G36*
X2619940Y2399680D02*
G01*
X2618380Y2398120D01*
X2618380Y2378400D01*
X2619940Y2376820D01*
X2638060Y2376820D01*
X2639620Y2378400D01*
X2639620Y2398120D01*
X2638060Y2399680D01*
G37*
G36*
X2717940Y2433180D02*
G01*
X2716360Y2431600D01*
X2716360Y2411880D01*
X2717940Y2410320D01*
X2736060Y2410320D01*
X2737620Y2411880D01*
X2737620Y2431600D01*
X2736060Y2433180D01*
G37*
G36*
X2717940Y2399680D02*
G01*
X2716360Y2398120D01*
X2716360Y2378400D01*
X2717940Y2376820D01*
X2736060Y2376820D01*
X2737620Y2378400D01*
X2737620Y2398120D01*
X2736060Y2399680D01*
G37*
G36*
X2666940Y2433180D02*
G01*
X2665380Y2431600D01*
X2665380Y2411880D01*
X2666940Y2410320D01*
X2685059Y2410320D01*
X2686620Y2411880D01*
X2686620Y2431600D01*
X2685059Y2433180D01*
G37*
G36*
X2666940Y2399680D02*
G01*
X2665380Y2398120D01*
X2665380Y2378400D01*
X2666940Y2376820D01*
X2685059Y2376820D01*
X2686620Y2378400D01*
X2686620Y2398120D01*
X2685059Y2399680D01*
G37*
G36*
X1901900Y2625640D02*
G01*
X1900320Y2624060D01*
X1900320Y2605940D01*
X1901900Y2604360D01*
X1921600Y2604360D01*
X1923180Y2605940D01*
X1923180Y2624060D01*
X1921600Y2625640D01*
G37*
G36*
X1868400Y2625640D02*
G01*
X1866819Y2624060D01*
X1866819Y2605940D01*
X1868400Y2604360D01*
X1888100Y2604360D01*
X1889680Y2605940D01*
X1889680Y2624060D01*
X1888100Y2625640D01*
G37*
G36*
X2366900Y1200640D02*
G01*
X2365320Y1199060D01*
X2365320Y1180940D01*
X2366900Y1179360D01*
X2386600Y1179360D01*
X2388180Y1180940D01*
X2388180Y1199060D01*
X2386600Y1200640D01*
G37*
G36*
X2333400Y1200640D02*
G01*
X2331820Y1199060D01*
X2331820Y1180940D01*
X2333400Y1179360D01*
X2353100Y1179360D01*
X2354680Y1180940D01*
X2354680Y1199060D01*
X2353100Y1200640D01*
G37*
G36*
X1196140Y1292120D02*
G01*
X1194180Y1290160D01*
X1194180Y1269300D01*
X1196140Y1267320D01*
X1213860Y1267320D01*
X1215820Y1269300D01*
X1215820Y1290160D01*
X1213860Y1292120D01*
G37*
G36*
X1196140Y1332680D02*
G01*
X1194180Y1330700D01*
X1194180Y1309840D01*
X1196140Y1307880D01*
X1213860Y1307880D01*
X1215820Y1309840D01*
X1215820Y1330700D01*
X1213860Y1332680D01*
G37*
G36*
X569840Y1930820D02*
G01*
X567880Y1928860D01*
X567880Y1911140D01*
X569840Y1909180D01*
X590700Y1909180D01*
X592680Y1911140D01*
X592680Y1928860D01*
X590700Y1930820D01*
G37*
G36*
X529300Y1930820D02*
G01*
X527320Y1928860D01*
X527320Y1911140D01*
X529300Y1909180D01*
X550160Y1909180D01*
X552120Y1911140D01*
X552120Y1928860D01*
X550160Y1930820D01*
G37*
G36*
X456140Y2202120D02*
G01*
X454180Y2200160D01*
X454180Y2179300D01*
X456140Y2177320D01*
X473860Y2177320D01*
X475820Y2179300D01*
X475820Y2200160D01*
X473860Y2202120D01*
G37*
G36*
X456140Y2242680D02*
G01*
X454180Y2240700D01*
X454180Y2219840D01*
X456140Y2217880D01*
X473860Y2217880D01*
X475820Y2219840D01*
X475820Y2240700D01*
X473860Y2242680D01*
G37*
G36*
X2756139Y2637679D02*
G01*
X2754180Y2635700D01*
X2754180Y2614840D01*
X2756139Y2612880D01*
X2773860Y2612880D01*
X2775820Y2614840D01*
X2775820Y2635700D01*
X2773860Y2637679D01*
G37*
G36*
X2756139Y2597120D02*
G01*
X2754180Y2595160D01*
X2754180Y2574300D01*
X2756139Y2572320D01*
X2773860Y2572320D01*
X2775820Y2574300D01*
X2775820Y2595160D01*
X2773860Y2597120D01*
G37*
G36*
X1291140Y2610700D02*
G01*
X1289180Y2608740D01*
X1289180Y2589840D01*
X1291140Y2587080D01*
X1308860Y2587080D01*
X1310820Y2589840D01*
X1310820Y2608740D01*
X1308860Y2610700D01*
G37*
G36*
X1291140Y2572919D02*
G01*
X1289180Y2570160D01*
X1289180Y2551260D01*
X1291140Y2549300D01*
X1308860Y2549300D01*
X1310820Y2551260D01*
X1310820Y2570160D01*
X1308860Y2572919D01*
G37*
G36*
X1469840Y2645820D02*
G01*
X1467080Y2643860D01*
X1467080Y2626139D01*
X1469840Y2624180D01*
X1488740Y2624180D01*
X1490700Y2626139D01*
X1490700Y2643860D01*
X1488740Y2645820D01*
G37*
G36*
X1431260Y2645820D02*
G01*
X1429300Y2643860D01*
X1429300Y2626139D01*
X1431260Y2624180D01*
X1450160Y2624180D01*
X1452920Y2626139D01*
X1452920Y2643860D01*
X1450160Y2645820D01*
G37*
G36*
X1151140Y1330700D02*
G01*
X1149180Y1328740D01*
X1149180Y1309840D01*
X1151140Y1307080D01*
X1168860Y1307080D01*
X1170820Y1309840D01*
X1170820Y1328740D01*
X1168860Y1330700D01*
G37*
G36*
X1151140Y1292920D02*
G01*
X1149180Y1290160D01*
X1149180Y1271260D01*
X1151140Y1269300D01*
X1168860Y1269300D01*
X1170820Y1271260D01*
X1170820Y1290160D01*
X1168860Y1292920D01*
G37*
G36*
X661140Y2455700D02*
G01*
X659180Y2453740D01*
X659180Y2434840D01*
X661140Y2432080D01*
X678860Y2432080D01*
X680819Y2434840D01*
X680819Y2453740D01*
X678860Y2455700D01*
G37*
G36*
X661140Y2417920D02*
G01*
X659180Y2415160D01*
X659180Y2396260D01*
X661140Y2394300D01*
X678860Y2394300D01*
X680819Y2396260D01*
X680819Y2415160D01*
X678860Y2417920D01*
G37*
G36*
X661140Y2527920D02*
G01*
X659180Y2525160D01*
X659180Y2506260D01*
X661140Y2504300D01*
X678860Y2504300D01*
X680819Y2506260D01*
X680819Y2525160D01*
X678860Y2527920D01*
G37*
G36*
X661140Y2565700D02*
G01*
X659180Y2563740D01*
X659180Y2544840D01*
X661140Y2542080D01*
X678860Y2542080D01*
X680819Y2544840D01*
X680819Y2563740D01*
X678860Y2565700D01*
G37*
G36*
X911140Y2412920D02*
G01*
X909180Y2410160D01*
X909180Y2391260D01*
X911140Y2389300D01*
X928860Y2389300D01*
X930819Y2391260D01*
X930819Y2410160D01*
X928860Y2412920D01*
G37*
G36*
X911140Y2450700D02*
G01*
X909180Y2448740D01*
X909180Y2429840D01*
X911140Y2427080D01*
X928860Y2427080D01*
X930819Y2429840D01*
X930819Y2448740D01*
X928860Y2450700D01*
G37*
G36*
X706140Y2245700D02*
G01*
X704180Y2243740D01*
X704180Y2224840D01*
X706140Y2222080D01*
X723860Y2222080D01*
X725819Y2224840D01*
X725819Y2243740D01*
X723860Y2245700D01*
G37*
G36*
X706140Y2207920D02*
G01*
X704180Y2205160D01*
X704180Y2186260D01*
X706140Y2184300D01*
X723860Y2184300D01*
X725819Y2186260D01*
X725819Y2205160D01*
X723860Y2207920D01*
G37*
G36*
X531260Y1880820D02*
G01*
X529300Y1878860D01*
X529300Y1861140D01*
X531260Y1859180D01*
X550160Y1859180D01*
X552920Y1861140D01*
X552920Y1878860D01*
X550160Y1880820D01*
G37*
G36*
X569840Y1880820D02*
G01*
X567080Y1878860D01*
X567080Y1861140D01*
X569840Y1859180D01*
X588740Y1859180D01*
X590700Y1861140D01*
X590700Y1878860D01*
X588740Y1880820D01*
G37*
G36*
X2957400Y2634020D02*
G01*
X2953460Y2630080D01*
X2953460Y2615500D01*
X2957400Y2611560D01*
X2969400Y2611560D01*
X2973340Y2607620D01*
X2973340Y2592380D01*
X2969400Y2588440D01*
X2957400Y2588440D01*
X2953460Y2584500D01*
X2953460Y2569920D01*
X2957400Y2565980D01*
X3008000Y2565980D01*
X3011920Y2569920D01*
X3011920Y2630080D01*
X3008000Y2634020D01*
G37*
G36*
X2832000Y2634020D02*
G01*
X2828080Y2630080D01*
X2828080Y2569920D01*
X2832000Y2565980D01*
X2882600Y2565980D01*
X2886540Y2569920D01*
X2886540Y2584500D01*
X2882600Y2588440D01*
X2870600Y2588440D01*
X2866660Y2592380D01*
X2866660Y2607620D01*
X2870600Y2611560D01*
X2882600Y2611560D01*
X2886540Y2615500D01*
X2886540Y2630080D01*
X2882600Y2634020D01*
G37*
G36*
X1283400Y1140640D02*
G01*
X1281819Y1139060D01*
X1281819Y1120940D01*
X1283400Y1119360D01*
X1303100Y1119360D01*
X1304680Y1120940D01*
X1304680Y1139060D01*
X1303100Y1140640D01*
G37*
G36*
X1316900Y1140640D02*
G01*
X1315320Y1139060D01*
X1315320Y1120940D01*
X1316900Y1119360D01*
X1336600Y1119360D01*
X1338180Y1120940D01*
X1338180Y1139060D01*
X1336600Y1140640D01*
G37*
G36*
X1316900Y1230640D02*
G01*
X1315320Y1229060D01*
X1315320Y1210940D01*
X1316900Y1209360D01*
X1336600Y1209360D01*
X1338180Y1210940D01*
X1338180Y1229060D01*
X1336600Y1230640D01*
G37*
G36*
X1283400Y1230640D02*
G01*
X1281819Y1229060D01*
X1281819Y1210940D01*
X1283400Y1209360D01*
X1303100Y1209360D01*
X1304680Y1210940D01*
X1304680Y1229060D01*
X1303100Y1230640D01*
G37*
G36*
X1316900Y1190640D02*
G01*
X1315320Y1189060D01*
X1315320Y1170940D01*
X1316900Y1169360D01*
X1336600Y1169360D01*
X1338180Y1170940D01*
X1338180Y1189060D01*
X1336600Y1190640D01*
G37*
G36*
X1283400Y1190640D02*
G01*
X1281819Y1189060D01*
X1281819Y1170940D01*
X1283400Y1169360D01*
X1303100Y1169360D01*
X1304680Y1170940D01*
X1304680Y1189060D01*
X1303100Y1190640D01*
G37*
G36*
X3065940Y1480680D02*
G01*
X3064360Y1479120D01*
X3064360Y1459400D01*
X3065940Y1457820D01*
X3084060Y1457820D01*
X3085640Y1459400D01*
X3085640Y1479120D01*
X3084060Y1480680D01*
G37*
G36*
X3065940Y1514180D02*
G01*
X3064360Y1512600D01*
X3064360Y1492900D01*
X3065940Y1491320D01*
X3084060Y1491320D01*
X3085640Y1492900D01*
X3085640Y1512600D01*
X3084060Y1514180D01*
G37*
G36*
X3017940Y1480680D02*
G01*
X3016360Y1479120D01*
X3016360Y1459400D01*
X3017940Y1457820D01*
X3036060Y1457820D01*
X3037620Y1459400D01*
X3037620Y1479120D01*
X3036060Y1480680D01*
G37*
G36*
X3017940Y1514180D02*
G01*
X3016360Y1512600D01*
X3016360Y1492900D01*
X3017940Y1491320D01*
X3036060Y1491320D01*
X3037620Y1492900D01*
X3037620Y1512600D01*
X3036060Y1514180D01*
G37*
G36*
X1788400Y1445640D02*
G01*
X1786819Y1444060D01*
X1786819Y1425940D01*
X1788400Y1424360D01*
X1808100Y1424360D01*
X1809680Y1425940D01*
X1809680Y1444060D01*
X1808100Y1445640D01*
G37*
G36*
X1821900Y1445640D02*
G01*
X1820320Y1444060D01*
X1820320Y1425940D01*
X1821900Y1424360D01*
X1841600Y1424360D01*
X1843180Y1425940D01*
X1843180Y1444060D01*
X1841600Y1445640D01*
G37*
G36*
X1806940Y1363180D02*
G01*
X1805380Y1361600D01*
X1805380Y1341879D01*
X1806940Y1340320D01*
X1825060Y1340320D01*
X1826620Y1341879D01*
X1826620Y1361600D01*
X1825060Y1363180D01*
G37*
G36*
X1806940Y1329680D02*
G01*
X1805380Y1328120D01*
X1805380Y1308400D01*
X1806940Y1306819D01*
X1825060Y1306819D01*
X1826620Y1308400D01*
X1826620Y1328120D01*
X1825060Y1329680D01*
G37*
G36*
X2194400Y2078620D02*
G01*
X2192820Y2077060D01*
X2192820Y2058940D01*
X2194400Y2057380D01*
X2214120Y2057380D01*
X2215680Y2058940D01*
X2215680Y2077060D01*
X2214120Y2078620D01*
G37*
G36*
X2227880Y2078620D02*
G01*
X2226320Y2077060D01*
X2226320Y2058940D01*
X2227880Y2057380D01*
X2247600Y2057380D01*
X2249180Y2058940D01*
X2249180Y2077060D01*
X2247600Y2078620D01*
G37*
G36*
X3167940Y1480680D02*
G01*
X3166360Y1479120D01*
X3166360Y1459400D01*
X3167940Y1457820D01*
X3186060Y1457820D01*
X3187620Y1459400D01*
X3187620Y1479120D01*
X3186060Y1480680D01*
G37*
G36*
X3167940Y1514180D02*
G01*
X3166360Y1512600D01*
X3166360Y1492900D01*
X3167940Y1491320D01*
X3186060Y1491320D01*
X3187620Y1492900D01*
X3187620Y1512600D01*
X3186060Y1514180D01*
G37*
G36*
X2648940Y1480680D02*
G01*
X2647380Y1479120D01*
X2647380Y1459400D01*
X2648940Y1457820D01*
X2667060Y1457820D01*
X2668639Y1459400D01*
X2668639Y1479120D01*
X2667060Y1480680D01*
G37*
G36*
X2648940Y1514180D02*
G01*
X2647380Y1512600D01*
X2647380Y1492900D01*
X2648940Y1491320D01*
X2667060Y1491320D01*
X2668639Y1492900D01*
X2668639Y1512600D01*
X2667060Y1514180D01*
G37*
G36*
X3116940Y1481680D02*
G01*
X3115380Y1480100D01*
X3115380Y1460400D01*
X3116940Y1458820D01*
X3135059Y1458820D01*
X3136620Y1460400D01*
X3136620Y1480100D01*
X3135059Y1481680D01*
G37*
G36*
X3116940Y1515180D02*
G01*
X3115380Y1513600D01*
X3115380Y1493899D01*
X3116940Y1492320D01*
X3135059Y1492320D01*
X3136620Y1493899D01*
X3136620Y1513600D01*
X3135059Y1515180D01*
G37*
G36*
X2966940Y1480680D02*
G01*
X2965380Y1479120D01*
X2965380Y1459400D01*
X2966940Y1457820D01*
X2985059Y1457820D01*
X2986620Y1459400D01*
X2986620Y1479120D01*
X2985059Y1480680D01*
G37*
G36*
X2966940Y1514180D02*
G01*
X2965380Y1512600D01*
X2965380Y1492900D01*
X2966940Y1491320D01*
X2985059Y1491320D01*
X2986620Y1492900D01*
X2986620Y1512600D01*
X2985059Y1514180D01*
G37*
G36*
X2765940Y1483680D02*
G01*
X2764360Y1482100D01*
X2764360Y1462400D01*
X2765940Y1460820D01*
X2784060Y1460820D01*
X2785640Y1462400D01*
X2785640Y1482100D01*
X2784060Y1483680D01*
G37*
G36*
X2765940Y1517180D02*
G01*
X2764360Y1515600D01*
X2764360Y1495880D01*
X2765940Y1494319D01*
X2784060Y1494319D01*
X2785640Y1495880D01*
X2785640Y1515600D01*
X2784060Y1517180D01*
G37*
G36*
X3067940Y2436180D02*
G01*
X3066360Y2434600D01*
X3066360Y2414900D01*
X3067940Y2413320D01*
X3086060Y2413320D01*
X3087620Y2414900D01*
X3087620Y2434600D01*
X3086060Y2436180D01*
G37*
G36*
X3067940Y2402680D02*
G01*
X3066360Y2401100D01*
X3066360Y2381400D01*
X3067940Y2379820D01*
X3086060Y2379820D01*
X3087620Y2381400D01*
X3087620Y2401100D01*
X3086060Y2402680D01*
G37*
G36*
X3014940Y2436180D02*
G01*
X3013380Y2434600D01*
X3013380Y2414900D01*
X3014940Y2413320D01*
X3033060Y2413320D01*
X3034620Y2414900D01*
X3034620Y2434600D01*
X3033060Y2436180D01*
G37*
G36*
X3014940Y2402680D02*
G01*
X3013380Y2401100D01*
X3013380Y2381400D01*
X3014940Y2379820D01*
X3033060Y2379820D01*
X3034620Y2381400D01*
X3034620Y2401100D01*
X3033060Y2402680D01*
G37*
G36*
X2967940Y2435180D02*
G01*
X2966360Y2433600D01*
X2966360Y2413900D01*
X2967940Y2412320D01*
X2986060Y2412320D01*
X2987620Y2413900D01*
X2987620Y2433600D01*
X2986060Y2435180D01*
G37*
G36*
X2967940Y2401680D02*
G01*
X2966360Y2400100D01*
X2966360Y2380400D01*
X2967940Y2378820D01*
X2986060Y2378820D01*
X2987620Y2380400D01*
X2987620Y2400100D01*
X2986060Y2401680D01*
G37*
G36*
X2913940Y2434180D02*
G01*
X2912380Y2432600D01*
X2912380Y2412900D01*
X2913940Y2411320D01*
X2932060Y2411320D01*
X2933639Y2412900D01*
X2933639Y2432600D01*
X2932060Y2434180D01*
G37*
G36*
X2913940Y2400680D02*
G01*
X2912380Y2399120D01*
X2912380Y2379400D01*
X2913940Y2377820D01*
X2932060Y2377820D01*
X2933639Y2379400D01*
X2933639Y2399120D01*
X2932060Y2400680D01*
G37*
G36*
X2815940Y1483680D02*
G01*
X2814360Y1482100D01*
X2814360Y1462400D01*
X2815940Y1460820D01*
X2834060Y1460820D01*
X2835640Y1462400D01*
X2835640Y1482100D01*
X2834060Y1483680D01*
G37*
G36*
X2815940Y1517180D02*
G01*
X2814360Y1515600D01*
X2814360Y1495880D01*
X2815940Y1494319D01*
X2834060Y1494319D01*
X2835640Y1495880D01*
X2835640Y1515600D01*
X2834060Y1517180D01*
G37*
G36*
X2864940Y1483680D02*
G01*
X2863380Y1482100D01*
X2863380Y1462400D01*
X2864940Y1460820D01*
X2883060Y1460820D01*
X2884620Y1462400D01*
X2884620Y1482100D01*
X2883060Y1483680D01*
G37*
G36*
X2864940Y1517180D02*
G01*
X2863380Y1515600D01*
X2863380Y1495880D01*
X2864940Y1494319D01*
X2883060Y1494319D01*
X2884620Y1495880D01*
X2884620Y1515600D01*
X2883060Y1517180D01*
G37*
G36*
X571880Y1975640D02*
G01*
X570320Y1974060D01*
X570320Y1955940D01*
X571880Y1954360D01*
X591600Y1954360D01*
X593180Y1955940D01*
X593180Y1974060D01*
X591600Y1975640D01*
G37*
G36*
X538400Y1975640D02*
G01*
X536820Y1974060D01*
X536820Y1955940D01*
X538400Y1954360D01*
X558120Y1954360D01*
X559680Y1955940D01*
X559680Y1974060D01*
X558120Y1975640D01*
G37*
G36*
X650939Y2204680D02*
G01*
X649360Y2203120D01*
X649360Y2183400D01*
X650939Y2181820D01*
X669060Y2181820D01*
X670639Y2183400D01*
X670639Y2203120D01*
X669060Y2204680D01*
G37*
G36*
X650939Y2238180D02*
G01*
X649360Y2236600D01*
X649360Y2216880D01*
X650939Y2215320D01*
X669060Y2215320D01*
X670639Y2216880D01*
X670639Y2236600D01*
X669060Y2238180D01*
G37*
G36*
X550940Y2204680D02*
G01*
X549360Y2203120D01*
X549360Y2183400D01*
X550940Y2181820D01*
X569060Y2181820D01*
X570640Y2183400D01*
X570640Y2203120D01*
X569060Y2204680D01*
G37*
G36*
X550940Y2238180D02*
G01*
X549360Y2236600D01*
X549360Y2216880D01*
X550940Y2215320D01*
X569060Y2215320D01*
X570640Y2216880D01*
X570640Y2236600D01*
X569060Y2238180D01*
G37*
G36*
X605940Y2204680D02*
G01*
X604360Y2203120D01*
X604360Y2183400D01*
X605940Y2181820D01*
X624060Y2181820D01*
X625640Y2183400D01*
X625640Y2203120D01*
X624060Y2204680D01*
G37*
G36*
X605940Y2238180D02*
G01*
X604360Y2236600D01*
X604360Y2216880D01*
X605940Y2215320D01*
X624060Y2215320D01*
X625640Y2216880D01*
X625640Y2236600D01*
X624060Y2238180D01*
G37*
G36*
X500940Y2204680D02*
G01*
X499360Y2203120D01*
X499360Y2183400D01*
X500940Y2181820D01*
X519060Y2181820D01*
X520640Y2183400D01*
X520640Y2203120D01*
X519060Y2204680D01*
G37*
G36*
X500940Y2238180D02*
G01*
X499360Y2236600D01*
X499360Y2216880D01*
X500940Y2215320D01*
X519060Y2215320D01*
X520640Y2216880D01*
X520640Y2236600D01*
X519060Y2238180D01*
G37*
G36*
X2565940Y1479680D02*
G01*
X2564360Y1478120D01*
X2564360Y1458400D01*
X2565940Y1456819D01*
X2584060Y1456819D01*
X2585640Y1458400D01*
X2585640Y1478120D01*
X2584060Y1479680D01*
G37*
G36*
X2565940Y1513180D02*
G01*
X2564360Y1511600D01*
X2564360Y1491879D01*
X2565940Y1490320D01*
X2584060Y1490320D01*
X2585640Y1491879D01*
X2585640Y1511600D01*
X2584060Y1513180D01*
G37*
G36*
X2520940Y1479680D02*
G01*
X2519360Y1478120D01*
X2519360Y1458400D01*
X2520940Y1456819D01*
X2539060Y1456819D01*
X2540640Y1458400D01*
X2540640Y1478120D01*
X2539060Y1479680D01*
G37*
G36*
X2520940Y1513180D02*
G01*
X2519360Y1511600D01*
X2519360Y1491879D01*
X2520940Y1490320D01*
X2539060Y1490320D01*
X2540640Y1491879D01*
X2540640Y1511600D01*
X2539060Y1513180D01*
G37*
G36*
X1466860Y1363140D02*
G01*
X1466860Y1256840D01*
X1573140Y1256840D01*
X1573140Y1363140D01*
G37*
G36*
X1455440Y1421420D02*
G01*
X1455440Y1385780D01*
X1466459Y1385780D01*
X1466459Y1421420D01*
G37*
G36*
X1475120Y1421420D02*
G01*
X1475120Y1385780D01*
X1486140Y1385780D01*
X1486140Y1421420D01*
G37*
G36*
X1494800Y1421420D02*
G01*
X1494800Y1385780D01*
X1505840Y1385780D01*
X1505840Y1421420D01*
G37*
G36*
X1514480Y1421420D02*
G01*
X1514480Y1385780D01*
X1525520Y1385780D01*
X1525520Y1421420D01*
G37*
G36*
X1534180Y1421420D02*
G01*
X1534180Y1385780D01*
X1545200Y1385780D01*
X1545200Y1421420D01*
G37*
G36*
X1553860Y1421420D02*
G01*
X1553860Y1385780D01*
X1564880Y1385780D01*
X1564880Y1421420D01*
G37*
G36*
X1573540Y1421420D02*
G01*
X1573540Y1385780D01*
X1584580Y1385780D01*
X1584580Y1421420D01*
G37*
G36*
X1595780Y1374560D02*
G01*
X1595780Y1363540D01*
X1631420Y1363540D01*
X1631420Y1374560D01*
G37*
G36*
X1595780Y1354880D02*
G01*
X1595780Y1343860D01*
X1631420Y1343860D01*
X1631420Y1354880D01*
G37*
G36*
X1595780Y1335200D02*
G01*
X1595780Y1324160D01*
X1631420Y1324160D01*
X1631420Y1335200D01*
G37*
G36*
X1595780Y1315520D02*
G01*
X1595780Y1304480D01*
X1631420Y1304480D01*
X1631420Y1315520D01*
G37*
G36*
X1595780Y1295820D02*
G01*
X1595780Y1284800D01*
X1631420Y1284800D01*
X1631420Y1295820D01*
G37*
G36*
X1595780Y1276140D02*
G01*
X1595780Y1265120D01*
X1631420Y1265120D01*
X1631420Y1276140D01*
G37*
G36*
X1595780Y1256460D02*
G01*
X1595780Y1245420D01*
X1631420Y1245420D01*
X1631420Y1256460D01*
G37*
G36*
X1573540Y1234220D02*
G01*
X1573540Y1198580D01*
X1584580Y1198580D01*
X1584580Y1234220D01*
G37*
G36*
X1553860Y1234220D02*
G01*
X1553860Y1198580D01*
X1564880Y1198580D01*
X1564880Y1234220D01*
G37*
G36*
X1534180Y1234220D02*
G01*
X1534180Y1198580D01*
X1545200Y1198580D01*
X1545200Y1234220D01*
G37*
G36*
X1514480Y1234220D02*
G01*
X1514480Y1198580D01*
X1525520Y1198580D01*
X1525520Y1234220D01*
G37*
G36*
X1494800Y1234220D02*
G01*
X1494800Y1198580D01*
X1505840Y1198580D01*
X1505840Y1234220D01*
G37*
G36*
X1475120Y1234220D02*
G01*
X1475120Y1198580D01*
X1486140Y1198580D01*
X1486140Y1234220D01*
G37*
G36*
X1455440Y1234220D02*
G01*
X1455440Y1198580D01*
X1466459Y1198580D01*
X1466459Y1234220D01*
G37*
G36*
X1408580Y1256460D02*
G01*
X1408580Y1245420D01*
X1444220Y1245420D01*
X1444220Y1256460D01*
G37*
G36*
X1408580Y1276140D02*
G01*
X1408580Y1265120D01*
X1444220Y1265120D01*
X1444220Y1276140D01*
G37*
G36*
X1408580Y1295820D02*
G01*
X1408580Y1284800D01*
X1444220Y1284800D01*
X1444220Y1295820D01*
G37*
G36*
X1408580Y1315520D02*
G01*
X1408580Y1304480D01*
X1444220Y1304480D01*
X1444220Y1315520D01*
G37*
G36*
X1408580Y1335200D02*
G01*
X1408580Y1324160D01*
X1444220Y1324160D01*
X1444220Y1335200D01*
G37*
G36*
X1408580Y1354880D02*
G01*
X1408580Y1343860D01*
X1444220Y1343860D01*
X1444220Y1354880D01*
G37*
G36*
X1408580Y1374560D02*
G01*
X1408580Y1363540D01*
X1444220Y1363540D01*
X1444220Y1374560D01*
G37*
D10*
G01*
X806559Y2155180D03*
D11*
G01*
X806560Y2135514D03*
G01*
X806560Y2115834D03*
G01*
X806560Y2096144D03*
G01*
X806560Y2076465D03*
G01*
X806560Y2056774D03*
G01*
X806560Y2037094D03*
G01*
X806560Y2017404D03*
G01*
X806560Y1997725D03*
G01*
X806560Y1978035D03*
G01*
X806560Y1958354D03*
G01*
X806560Y1938665D03*
D10*
G01*
X806559Y1918989D03*
D11*
G01*
X806560Y1899294D03*
G01*
X806510Y1879764D03*
D10*
G01*
X806530Y1859949D03*
G01*
X806570Y1840250D03*
G01*
X806559Y1820580D03*
G01*
X806559Y1800900D03*
G01*
X806440Y1781129D03*
G01*
X806440Y1761430D03*
G01*
X806440Y1741759D03*
G01*
X806440Y1722060D03*
G01*
X806440Y1702370D03*
D12*
G01*
X895309Y2220369D03*
G01*
X895559Y1637620D03*
D13*
G01*
X2020649Y2616999D03*
G01*
X2103350Y2616999D03*
G01*
X2470649Y1206999D03*
G01*
X2553350Y1206999D03*
D14*
G01*
X1762399Y1388620D03*
G01*
X1687600Y1388620D03*
G01*
X1725000Y1291379D03*
G01*
X1942399Y1388620D03*
G01*
X1867600Y1388620D03*
G01*
X1905000Y1291379D03*
D15*
G01*
X3225010Y2299330D03*
G01*
X3175010Y2299330D03*
G01*
X3125010Y2299330D03*
G01*
X3075010Y2299330D03*
G01*
X3025010Y2299330D03*
G01*
X2975010Y2299330D03*
G01*
X2925010Y2299330D03*
G01*
X2875010Y2299330D03*
G01*
X2825010Y2299330D03*
G01*
X2775010Y2299330D03*
G01*
X2725010Y2299330D03*
G01*
X2675010Y2299330D03*
G01*
X2625010Y2299330D03*
G01*
X2575010Y2299330D03*
G01*
X2525010Y2299330D03*
G01*
X2475010Y2299330D03*
G01*
X2425010Y2299330D03*
G01*
X2375010Y2299330D03*
G01*
X2325010Y2299330D03*
G01*
X2325010Y1590670D03*
G01*
X2375010Y1590670D03*
G01*
X2425010Y1590670D03*
G01*
X2475010Y1590670D03*
G01*
X2525010Y1590670D03*
G01*
X2575010Y1590670D03*
G01*
X2625010Y1590670D03*
G01*
X2675010Y1590670D03*
G01*
X2725010Y1590670D03*
G01*
X2775010Y1590670D03*
G01*
X2825010Y1590670D03*
G01*
X2875010Y1590670D03*
G01*
X2925010Y1590670D03*
G01*
X2975010Y1590670D03*
G01*
X3025010Y1590670D03*
G01*
X3075010Y1590670D03*
G01*
X3125010Y1590670D03*
G01*
X3175010Y1590670D03*
G01*
X3225010Y1590670D03*
D16*
G01*
X2917529Y2004050D03*
G01*
X2917529Y2058980D03*
G01*
X2917529Y1949130D03*
G01*
X2972439Y2058980D03*
G01*
X2972439Y2004050D03*
G01*
X2972439Y1949130D03*
G01*
X2862610Y2058980D03*
G01*
X2862610Y2004050D03*
G01*
X2862610Y1949130D03*
D17*
G01*
X1555550Y2516930D03*
G01*
X1465000Y2516930D03*
G01*
X1374449Y2516930D03*
D18*
G01*
X1465000Y2283070D03*
D19*
G01*
X835240Y2477600D03*
G01*
X835240Y2515000D03*
G01*
X835240Y2552399D03*
G01*
X744760Y2552399D03*
G01*
X744760Y2515000D03*
G01*
X744760Y2477600D03*
M02*
