G04 Layer: BottomSolderMaskLayer*
G04 EasyEDA v6.5.23, 2023-05-27 11:47:03*
G04 dba0e08a7a4f4acbaa45d03accf02bcc,0a61cb7f7b51421fbede6d33e3e5ec82,10*
G04 Gerber Generator version 0.2*
G04 Scale: 100 percent, Rotated: No, Reflected: No *
G04 Dimensions in inches *
G04 leading zeros omitted , absolute positions ,3 integer and 6 decimal *
%FSLAX36Y36*%
%MOIN*%

%AMMACRO1*1,1,$1,$2,$3*1,1,$1,$4,$5*1,1,$1,0-$2,0-$3*1,1,$1,0-$4,0-$5*20,1,$1,$2,$3,$4,$5,0*20,1,$1,$4,$5,0-$2,0-$3,0*20,1,$1,0-$2,0-$3,0-$4,0-$5,0*20,1,$1,0-$4,0-$5,$2,$3,0*4,1,4,$2,$3,$4,$5,0-$2,0-$3,0-$4,0-$5,$2,$3,0*%
%ADD10MACRO1,0.004X0.0295X-0.0059X0.0295X0.0059*%
%ADD11MACRO1,0.004X-0.0295X-0.0059X-0.0295X0.0059*%
%ADD12MACRO1,0.004X-0.0413X-0.0236X0.0413X-0.0236*%
%ADD13MACRO1,0.004X0.0413X0.0236X-0.0413X0.0236*%
%ADD14MACRO1,0.004X-0.0111X0.0106X-0.0111X-0.0106*%
%ADD15MACRO1,0.004X0.0111X0.0106X0.0111X-0.0106*%
%ADD16MACRO1,0.004X-0.0106X-0.0111X0.0106X-0.0111*%
%ADD17MACRO1,0.004X-0.0106X0.0111X0.0106X0.0111*%
%ADD18MACRO1,0.004X-0.0118X0.0118X-0.0118X-0.0118*%
%ADD19MACRO1,0.004X0.0118X-0.0118X0.0118X0.0118*%
%ADD20MACRO1,0.004X-0.0156X0.0106X-0.0156X-0.0106*%
%ADD21MACRO1,0.004X0.0156X0.0106X0.0156X-0.0106*%
%ADD22MACRO1,0.004X0.0106X0.0156X-0.0106X0.0156*%
%ADD23MACRO1,0.004X0.0106X-0.0156X-0.0106X-0.0156*%
%ADD24MACRO1,0.004X0.0118X0.0118X-0.0118X0.0118*%
%ADD25MACRO1,0.004X-0.0118X-0.0118X0.0118X-0.0118*%
%ADD26MACRO1,0.0039X0.0256X-0.0059X0.0256X0.0059*%
%ADD27O,0.074866X0.051244000000000005*%
%ADD28O,0.08274000000000001X0.051244000000000005*%
%ADD29MACRO1,0.004X-0.0335X0.0335X0.0335X0.0335*%
%ADD30C,0.0709*%

%LPD*%
D10*
G01*
X2490004Y1701557D03*
G01*
X2490004Y1733047D03*
G01*
X2490004Y1764547D03*
G01*
X2490004Y1890527D03*
G01*
X2490004Y1922027D03*
G01*
X2490004Y1953517D03*
G01*
X2490004Y1985017D03*
G01*
X2490004Y2016517D03*
G01*
X2490004Y2048007D03*
G01*
X2490004Y2079507D03*
G01*
X2490003Y2110997D03*
G01*
X2488004Y1794997D03*
D11*
G01*
X2489995Y1860497D03*
G01*
X2489995Y1828997D03*
D12*
G01*
X2939110Y2611740D03*
G01*
X2702890Y2611740D03*
G01*
X2939110Y2454259D03*
G01*
X2702890Y2454259D03*
D13*
G01*
X2682889Y1198260D03*
G01*
X2919110Y1198260D03*
G01*
X2682889Y1355740D03*
G01*
X2919110Y1355740D03*
D14*
G01*
X397040Y1540000D03*
D15*
G01*
X362959Y1540000D03*
D16*
G01*
X2550000Y2607040D03*
D17*
G01*
X2550000Y2572959D03*
D18*
G01*
X660000Y1644529D03*
D19*
G01*
X660000Y1585471D03*
D20*
G01*
X401458Y2370000D03*
D21*
G01*
X358541Y2370000D03*
D22*
G01*
X2500000Y2573541D03*
D23*
G01*
X2500000Y2616459D03*
D24*
G01*
X409529Y2330000D03*
D25*
G01*
X350471Y2330000D03*
D18*
G01*
X610000Y1644529D03*
D19*
G01*
X610000Y1585471D03*
D16*
G01*
X595000Y2067040D03*
D17*
G01*
X595000Y2032959D03*
D26*
G01*
X515082Y1733109D03*
G01*
X515082Y1744919D03*
G01*
X515082Y1764609D03*
G01*
X515082Y1776419D03*
G01*
X515081Y1796099D03*
G01*
X515081Y1815789D03*
G01*
X515082Y1835469D03*
G01*
X515081Y1855159D03*
G01*
X515082Y1874839D03*
G01*
X515081Y1894529D03*
G01*
X515081Y1933899D03*
G01*
X515073Y1953579D03*
G01*
X515073Y1965399D03*
G01*
X515081Y1985078D03*
G01*
X515081Y1996889D03*
G01*
X515081Y1914199D03*
D27*
G01*
X324920Y1694920D03*
G01*
X324920Y2035079D03*
D28*
G01*
X489490Y2035079D03*
G01*
X489490Y1694920D03*
D29*
G01*
X615000Y1160000D03*
D30*
G01*
X715000Y1160000D03*
G01*
X815000Y1160000D03*
G01*
X915000Y1160000D03*
G01*
X1015000Y1160000D03*
G01*
X1115000Y1160000D03*
M02*
