G04 Layer: TopLayer*
G04 EasyEDA v6.5.23, 2023-05-27 11:47:03*
G04 dba0e08a7a4f4acbaa45d03accf02bcc,0a61cb7f7b51421fbede6d33e3e5ec82,10*
G04 Gerber Generator version 0.2*
G04 Scale: 100 percent, Rotated: No, Reflected: No *
G04 Dimensions in inches *
G04 leading zeros omitted , absolute positions ,3 integer and 6 decimal *
%FSLAX36Y36*%
%MOIN*%

%AMMACRO1*21,1,$1,$2,0,0,$3*%
%ADD10C,0.0200*%
%ADD11C,0.0120*%
%ADD12C,0.0100*%
%ADD13C,0.0160*%
%ADD14C,0.0060*%
%ADD15C,0.0150*%
%ADD16MACRO1,0.0213X0.0223X0.0000*%
%ADD17R,0.0213X0.0223*%
%ADD18R,0.0591X0.0118*%
%ADD19MACRO1,0.0118X0.0591X-90.0000*%
%ADD20R,0.1181X0.0787*%
%ADD21R,0.0394X0.0551*%
%ADD22MACRO1,0.0213X0.0223X90.0000*%
%ADD23MACRO1,0.0213X0.0311X0.0000*%
%ADD24R,0.0213X0.0311*%
%ADD25MACRO1,0.0213X0.0311X90.0000*%
%ADD26MACRO1,0.0213X0.0311X-90.0000*%
%ADD27MACRO1,0.068X0.0585X90.0000*%
%ADD28R,0.0236X0.0421*%
%ADD29MACRO1,0.0213X0.0223X-90.0000*%
%ADD30R,0.0354X0.0787*%
%ADD31R,0.0354X0.0354*%
%ADD32R,0.0433X0.0984*%
%ADD33MACRO1,0.1417X0.0921X0.0000*%
%ADD34R,0.0356X0.0110*%
%ADD35R,0.0110X0.0356*%
%ADD36R,0.1319X0.1319*%
%ADD37R,0.0422X0.0209*%
%ADD38O,0.070866X0.047244*%
%ADD39O,0.07873999999999999X0.047244*%
%ADD40R,0.0669X0.0669*%
%ADD41C,0.0669*%
%ADD42C,0.0240*%
%ADD43C,0.0143*%

%LPD*%
G36*
X2855240Y1925000D02*
G01*
X2853720Y1925300D01*
X2852420Y1926180D01*
X2851560Y1927460D01*
X2851240Y1929000D01*
X2851240Y1937780D01*
X2843460Y1937780D01*
X2841960Y1938060D01*
X2840680Y1938899D01*
X2839800Y1940160D01*
X2839460Y1941639D01*
X2838980Y1956360D01*
X2839260Y1957920D01*
X2840120Y1959259D01*
X2841420Y1960180D01*
X2842980Y1960480D01*
X2851240Y1960480D01*
X2851240Y1992700D01*
X2841680Y1992700D01*
X2840179Y1992980D01*
X2838900Y1993820D01*
X2838039Y1995080D01*
X2837700Y1996560D01*
X2837220Y2011279D01*
X2837480Y2012860D01*
X2838340Y2014199D01*
X2839660Y2015100D01*
X2841220Y2015420D01*
X2851240Y2015420D01*
X2851240Y2047620D01*
X2839920Y2047620D01*
X2838420Y2047920D01*
X2837140Y2048740D01*
X2836259Y2050000D01*
X2835920Y2051480D01*
X2835440Y2066200D01*
X2835720Y2067780D01*
X2836560Y2069120D01*
X2837880Y2070020D01*
X2839440Y2070340D01*
X2851240Y2070340D01*
X2851240Y2076000D01*
X2851560Y2077540D01*
X2852420Y2078820D01*
X2853720Y2079700D01*
X2855240Y2080000D01*
X2869960Y2080000D01*
X2871500Y2079700D01*
X2872799Y2078820D01*
X2873660Y2077540D01*
X2873960Y2076000D01*
X2873960Y2070340D01*
X2906180Y2070340D01*
X2906180Y2076000D01*
X2906480Y2077540D01*
X2907340Y2078820D01*
X2908639Y2079700D01*
X2910179Y2080000D01*
X2924880Y2080000D01*
X2926420Y2079700D01*
X2927720Y2078820D01*
X2928580Y2077540D01*
X2928880Y2076000D01*
X2928880Y2070340D01*
X2961080Y2070340D01*
X2961080Y2076000D01*
X2961400Y2077540D01*
X2962260Y2078820D01*
X2963560Y2079700D01*
X2965080Y2080000D01*
X2979800Y2080000D01*
X2981340Y2079700D01*
X2982640Y2078820D01*
X2983500Y2077540D01*
X2983800Y2076000D01*
X2983800Y2070340D01*
X2991000Y2070340D01*
X2992540Y2070040D01*
X2993820Y2069160D01*
X2994700Y2067860D01*
X2995000Y2066339D01*
X2995000Y2051620D01*
X2994700Y2050080D01*
X2993820Y2048800D01*
X2992540Y2047920D01*
X2991000Y2047620D01*
X2983800Y2047620D01*
X2983800Y2015420D01*
X2991000Y2015420D01*
X2992540Y2015100D01*
X2993820Y2014240D01*
X2994700Y2012940D01*
X2995000Y2011420D01*
X2995000Y1996699D01*
X2994700Y1995160D01*
X2993820Y1993860D01*
X2992540Y1993000D01*
X2991000Y1992700D01*
X2983800Y1992700D01*
X2983800Y1960480D01*
X2991000Y1960480D01*
X2992540Y1960180D01*
X2993820Y1959319D01*
X2994700Y1958020D01*
X2995000Y1956480D01*
X2995000Y1941780D01*
X2994700Y1940240D01*
X2993820Y1938940D01*
X2992540Y1938080D01*
X2991000Y1937780D01*
X2983800Y1937780D01*
X2983800Y1929000D01*
X2983500Y1927460D01*
X2982640Y1926180D01*
X2981340Y1925300D01*
X2979800Y1925000D01*
X2965080Y1925000D01*
X2963560Y1925300D01*
X2962260Y1926180D01*
X2961400Y1927460D01*
X2961080Y1929000D01*
X2961080Y1937780D01*
X2928880Y1937780D01*
X2928880Y1929000D01*
X2928580Y1927460D01*
X2927720Y1926180D01*
X2926420Y1925300D01*
X2924880Y1925000D01*
X2910179Y1925000D01*
X2908639Y1925300D01*
X2907340Y1926180D01*
X2906480Y1927460D01*
X2906180Y1929000D01*
X2906180Y1937780D01*
X2873960Y1937780D01*
X2873960Y1929000D01*
X2873660Y1927460D01*
X2872799Y1926180D01*
X2871500Y1925300D01*
X2869960Y1925000D01*
G37*

%LPC*%
G36*
X2928880Y1960480D02*
G01*
X2961080Y1960480D01*
X2961080Y1992700D01*
X2928880Y1992700D01*
G37*
G36*
X2873960Y1960480D02*
G01*
X2906180Y1960480D01*
X2906180Y1992700D01*
X2873960Y1992700D01*
G37*
G36*
X2928880Y2015420D02*
G01*
X2961080Y2015420D01*
X2961080Y2047620D01*
X2928880Y2047620D01*
G37*
G36*
X2873960Y2015420D02*
G01*
X2906180Y2015420D01*
X2906180Y2047620D01*
X2873960Y2047620D01*
G37*

%LPD*%
D10*
X644277Y1278501D02*
G01*
X715000Y1207777D01*
X715000Y1160000D01*
X841084Y1278499D02*
G01*
X915000Y1204583D01*
X915000Y1160000D01*
X2972439Y1949135D02*
G01*
X3225000Y1696574D01*
X3225000Y1590675D01*
D11*
X2525000Y2299326D02*
G01*
X2525000Y2241999D01*
X2533999Y2233000D01*
D10*
X3225000Y2299324D02*
G01*
X3225000Y2145000D01*
X3138975Y2058975D01*
X2972439Y2058975D01*
D11*
X2765000Y2583539D02*
G01*
X2761459Y2580000D01*
X2625000Y2580000D01*
D10*
X1877960Y2615000D02*
G01*
X1779881Y2516921D01*
X1555550Y2516921D01*
X1555600Y2516900D02*
G01*
X1555600Y2579400D01*
X1500000Y2635000D01*
X1481499Y2635000D01*
X1300000Y2601460D02*
G01*
X1291459Y2610000D01*
X1205000Y2610000D01*
X1205000Y2605000D01*
X920000Y2398539D02*
G01*
X928540Y2390000D01*
X1000000Y2390000D01*
D12*
X744760Y2477600D02*
G01*
X735000Y2467840D01*
X735000Y2420000D01*
X718539Y2403539D01*
X670000Y2403539D01*
X744760Y2552399D02*
G01*
X740700Y2556460D01*
X670000Y2556460D01*
X670000Y2556460D02*
G01*
X641460Y2556460D01*
X535000Y2450000D01*
D11*
X670000Y2446460D02*
G01*
X656460Y2460000D01*
X610000Y2460000D01*
D10*
X560000Y2227040D02*
G01*
X565000Y2232040D01*
X565000Y2290000D01*
D12*
X806559Y2135509D02*
G01*
X771491Y2135509D01*
X756001Y2151001D01*
X756001Y2171999D01*
X786000Y2201999D01*
X788999Y2201999D01*
D11*
X538539Y1920000D02*
G01*
X538539Y1870000D01*
D10*
X615000Y1160000D02*
G01*
X560000Y1215000D01*
X500000Y1215000D01*
X815000Y1160000D02*
G01*
X785000Y1190000D01*
X785000Y1235000D01*
D11*
X1426400Y1329699D02*
G01*
X1390000Y1330000D01*
X1370000Y1350000D01*
X1370000Y1355000D01*
X1520000Y1216399D02*
G01*
X1520000Y1170000D01*
X1292960Y1220000D02*
G01*
X1287960Y1225000D01*
X1220000Y1225000D01*
D12*
X1205000Y1278499D02*
G01*
X1212899Y1270599D01*
X1426400Y1270599D01*
D13*
X615000Y2227040D02*
G01*
X615000Y2288000D01*
D10*
X920000Y2441460D02*
G01*
X978540Y2500000D01*
X1195000Y2500000D01*
X1253540Y2558539D01*
X1300000Y2558539D01*
X2103350Y2616999D02*
G01*
X2103350Y2582350D01*
X2058000Y2536999D01*
X1465000Y2283099D02*
G01*
X1465000Y2215900D01*
X1465000Y2215900D01*
X1465000Y2210000D01*
X1465000Y2210000D01*
X1465000Y2185999D01*
X1465000Y2516921D02*
G01*
X1465000Y2283072D01*
D14*
X715000Y2193501D02*
G01*
X665000Y2193501D01*
X665000Y2151999D01*
X720859Y2096140D01*
X806559Y2096140D01*
D12*
X919203Y2221374D02*
G01*
X896305Y2221374D01*
X895299Y2220369D01*
X876930Y2201999D01*
X788999Y2201999D01*
X715000Y2236460D02*
G01*
X718539Y2240000D01*
X760000Y2240000D01*
X788999Y2210999D01*
X788999Y2201999D01*
D14*
X581999Y1965000D02*
G01*
X581999Y1958350D01*
X806559Y1958350D01*
X2588999Y1761999D02*
G01*
X2510000Y1840999D01*
X2510000Y1995000D01*
X2580000Y2065000D01*
X3080000Y2483000D02*
G01*
X3080000Y2428040D01*
X3076999Y2425039D01*
X1912002Y2615000D02*
G01*
X1914002Y2616999D01*
X2020649Y2616999D01*
X560000Y2193000D02*
G01*
X565000Y2188000D01*
X565000Y2126999D01*
X674600Y2017399D01*
X806559Y2017399D01*
X510000Y2193000D02*
G01*
X510000Y2130000D01*
X661970Y1978029D01*
X806559Y1978029D01*
X3075000Y1468960D02*
G01*
X3075000Y1410000D01*
X2935000Y1270000D01*
X2525000Y1270000D01*
X2448000Y2534000D02*
G01*
X2453999Y2540000D01*
X2665000Y2540000D01*
X660000Y2193000D02*
G01*
X715000Y2193499D01*
X2697002Y1491999D02*
G01*
X2673962Y1468960D01*
X2658000Y1468960D01*
X615000Y2193000D02*
G01*
X615000Y2145000D01*
X615000Y2140000D01*
X465000Y2188539D02*
G01*
X469420Y2192959D01*
X510000Y2192959D01*
X581460Y1870000D02*
G01*
X581460Y1920000D01*
X581460Y1920000D01*
X1255000Y1385000D02*
G01*
X1295000Y1385000D01*
X1370000Y1310000D01*
X1426400Y1310000D01*
X3026999Y1468960D02*
G01*
X3025000Y1466959D01*
X3025000Y1410000D01*
X2915000Y1300000D01*
X2460000Y1300000D01*
X1540000Y1470000D02*
G01*
X1520000Y1450000D01*
X1520000Y1403600D01*
X1495000Y1490000D02*
G01*
X1500320Y1484679D01*
X1500320Y1403600D01*
X1942399Y1388600D02*
G01*
X1942399Y1387399D01*
X1906999Y1351999D01*
X1816000Y1351999D01*
X1816000Y1317959D02*
G01*
X1813959Y1320000D01*
X1775000Y1320000D01*
X1750000Y1345000D01*
X1720000Y1345000D01*
X1687600Y1377399D01*
X1687600Y1388625D01*
X1867600Y1388625D02*
G01*
X1870000Y1391024D01*
X1870000Y1425000D01*
X1860000Y1435000D01*
X1832039Y1435000D01*
X1797960Y1435000D02*
G01*
X1765000Y1435000D01*
X1760000Y1430000D01*
X1760000Y1415000D01*
X1762399Y1388625D01*
X1762399Y1388625D01*
X1687600Y1388625D02*
G01*
X1636225Y1440000D01*
X1565000Y1440000D01*
X1560000Y1440000D01*
X1550000Y1435000D01*
X1539690Y1429690D01*
X1539690Y1403600D01*
X2460000Y1470000D02*
G01*
X2462040Y1467959D01*
X2530000Y1467959D01*
X2530000Y1502040D02*
G01*
X2575000Y1502040D01*
X1460951Y1216399D02*
G01*
X1457350Y1220000D01*
X1327039Y1220000D01*
X2366999Y2165999D02*
G01*
X2368000Y2165000D01*
X2715000Y2165000D01*
X2750000Y2200000D01*
X2750000Y2205000D01*
X1480630Y1216399D02*
G01*
X1480630Y1175630D01*
X1435000Y1130000D01*
X1327039Y1130000D01*
D10*
X1465000Y2516921D02*
G01*
X1438540Y2543382D01*
X1438540Y2635000D01*
X1374449Y2516921D02*
G01*
X1332831Y2558539D01*
X1300000Y2558539D01*
D11*
X744760Y2515000D02*
G01*
X743299Y2513539D01*
X670000Y2513539D01*
X670000Y2446460D02*
G01*
X670000Y2513539D01*
D10*
X835240Y2477600D02*
G01*
X871379Y2441460D01*
X920000Y2441460D01*
X835240Y2515000D02*
G01*
X835240Y2477600D01*
X835240Y2552399D02*
G01*
X835240Y2515000D01*
D12*
X660000Y2295000D02*
G01*
X660000Y2227040D01*
D14*
X510000Y2192959D02*
G01*
X505579Y2188539D01*
X465000Y2188539D01*
X581460Y1870000D02*
G01*
X581460Y1920000D01*
X581999Y1965000D02*
G01*
X581500Y1920000D01*
D12*
X670000Y2403499D02*
G01*
X583499Y2403499D01*
X510000Y2330000D01*
X510000Y2226999D01*
D14*
X1160000Y1278539D02*
G01*
X1205000Y1278539D01*
X1285000Y1350000D02*
G01*
X1305000Y1350000D01*
X1364700Y1290300D01*
X1426400Y1290300D01*
X1426400Y1250940D02*
G01*
X1426400Y1270630D01*
X2665000Y2205000D02*
G01*
X2625000Y2245000D01*
X2625000Y2299324D01*
X2638000Y1793000D02*
G01*
X2680000Y1835000D01*
X2680000Y2050000D01*
X2665000Y2065000D01*
X2538000Y1399000D02*
G01*
X2515000Y1421999D01*
X2515000Y1440000D01*
X2530000Y1455000D01*
X2530000Y1467959D01*
X2575000Y1467959D02*
G01*
X2576040Y1469000D01*
X2620000Y1469000D01*
X1175000Y1680000D02*
G01*
X1010000Y1515000D01*
X1010000Y1320000D01*
X1327039Y1180000D02*
G01*
X1327040Y1180000D01*
X1327040Y1220000D01*
X1520000Y1310000D02*
G01*
X1520000Y1216399D01*
X1520000Y1310000D02*
G01*
X1500320Y1329679D01*
X1426400Y1329679D01*
X2862610Y2058975D02*
G01*
X2886584Y2035000D01*
X2890000Y2035000D01*
X2917520Y2058975D02*
G01*
X2941495Y2035000D01*
X2945000Y2035000D01*
X2972439Y2004054D02*
G01*
X2948384Y1980000D01*
X2945000Y1980000D01*
X2972439Y2058975D02*
G01*
X2948464Y2035000D01*
X2945000Y2035000D01*
X2945000Y2035000D02*
G01*
X2972439Y2007559D01*
X2972439Y2004054D01*
X2945000Y2035000D02*
G01*
X2917529Y2007530D01*
X2917529Y2004045D01*
X2890000Y2035000D02*
G01*
X2913975Y2058975D01*
X2917520Y2058975D01*
X2890000Y2035000D02*
G01*
X2862610Y2007609D01*
X2862610Y2004045D01*
X2890000Y2035000D02*
G01*
X2917529Y2007469D01*
X2917529Y2004045D01*
X2862610Y1949135D02*
G01*
X2890000Y1976525D01*
X2890000Y1980000D01*
X2890000Y1980000D02*
G01*
X2914044Y2004045D01*
X2917529Y2004045D01*
X2890000Y1980000D02*
G01*
X2917520Y1952480D01*
X2917520Y1949135D01*
X2917520Y1949135D02*
G01*
X2945000Y1976615D01*
X2945000Y1980000D01*
X2945000Y1980000D02*
G01*
X2920955Y2004045D01*
X2917529Y2004045D01*
X2945000Y1980000D02*
G01*
X2972439Y1952559D01*
X2972439Y1949135D01*
D11*
X2857299Y2600000D02*
G01*
X2840839Y2583539D01*
X2765000Y2583539D01*
D14*
X1205000Y1321460D02*
G01*
X1160000Y1321460D01*
X1160000Y1321460D02*
G01*
X1158540Y1320000D01*
X1063999Y1320000D01*
X919214Y1638625D02*
G01*
X896565Y1638625D01*
X895559Y1637620D01*
X915000Y1618180D01*
X915000Y1535000D01*
D10*
X1555551Y2516921D02*
G01*
X1555551Y2520551D01*
X1625000Y2590000D01*
X1620000Y2590000D01*
D11*
X538499Y1870000D02*
G01*
X538499Y1851500D01*
X700000Y1690000D01*
X710000Y1690000D01*
D10*
X575000Y1765000D02*
G01*
X575000Y1720000D01*
X870000Y1425000D01*
X975000Y1425000D01*
X465000Y2231460D02*
G01*
X455000Y2241460D01*
X455000Y2290000D01*
D14*
X2342960Y1190000D02*
G01*
X2342960Y1442959D01*
X2410000Y1510000D01*
X2530000Y1510000D01*
X2530000Y1501999D01*
X615000Y2140000D02*
G01*
X670000Y2085000D01*
X685000Y2085000D01*
X713229Y2056770D01*
X806559Y2056770D01*
X807565Y2057775D01*
X820785Y2057775D01*
D10*
X575000Y1765000D02*
G01*
X530000Y1765000D01*
X425000Y1870000D01*
X425000Y2075000D01*
X548000Y1965000D02*
G01*
X548000Y2053000D01*
X461999Y2139000D01*
X370000Y2139000D01*
D14*
X1160000Y1278539D02*
G01*
X1118540Y1278539D01*
X1103000Y1263000D01*
D10*
X2765000Y2626498D02*
G01*
X2793500Y2655000D01*
X2801000Y2655000D01*
X2980000Y2660000D02*
G01*
X2982700Y2657300D01*
X2982700Y2600000D01*
X3175010Y2299330D02*
G01*
X3175010Y2383000D01*
D14*
X1725000Y1291399D02*
G01*
X1766400Y1250000D01*
X1975000Y1250000D01*
X2025000Y1300000D01*
X2025000Y1480000D01*
X1853000Y1651999D01*
X1853000Y1990999D01*
X1905000Y1291399D02*
G01*
X1980000Y1366399D01*
X1980000Y1410000D01*
X1763999Y1625999D01*
X1730000Y1625999D01*
D10*
X2553299Y1206999D02*
G01*
X2553299Y1152399D01*
X2535000Y1134000D01*
X2511999Y1134000D01*
D14*
X806559Y1938659D02*
G01*
X1053659Y1938659D01*
X1075000Y1960000D01*
X1205000Y1960000D01*
X820785Y1919985D02*
G01*
X820785Y1918989D01*
X806559Y1918989D01*
X750000Y1918989D01*
X750000Y1920000D01*
X2926000Y2518998D02*
G01*
X2923000Y2518998D01*
X2923000Y2423040D01*
X2726999Y2387959D02*
G01*
X2775000Y2387959D01*
X2726999Y2387959D02*
G01*
X2725010Y2385970D01*
X2725010Y2299330D01*
X2676000Y2388000D02*
G01*
X2675000Y2299299D01*
X2628999Y2387959D02*
G01*
X2676000Y2387959D01*
X2676000Y2422040D02*
G01*
X2726999Y2422040D01*
X2580000Y2195000D02*
G01*
X2503000Y2195000D01*
X2475000Y2223000D01*
X2475000Y2299299D01*
X806559Y2115830D02*
G01*
X2002831Y2115830D01*
X2258002Y2371001D01*
X2412997Y2371001D01*
X2826000Y2360999D02*
G01*
X2826000Y2406001D01*
X2809961Y2422040D01*
X2775000Y2422040D01*
X3008000Y2511999D02*
G01*
X2977002Y2481001D01*
X2977002Y2424041D01*
X2358770Y2133000D02*
G01*
X2366400Y2133000D01*
X2758999Y2133000D01*
X2798999Y2173000D01*
X2798999Y2211999D01*
X2775000Y2235999D01*
X2775000Y2299299D01*
X2238000Y2068000D02*
G01*
X2303000Y2133000D01*
X2366400Y2133000D01*
X806559Y2017399D02*
G01*
X808158Y2018998D01*
X1632997Y2018998D01*
X806559Y1997719D02*
G01*
X1683280Y1997719D01*
X1786000Y1895000D01*
X2118000Y1884000D02*
G01*
X2143999Y1858000D01*
X2143999Y1359000D01*
X3177002Y1343998D02*
G01*
X3176999Y1344000D01*
X3176999Y1468960D01*
X806559Y1899290D02*
G01*
X1079290Y1899290D01*
X1105000Y1925000D01*
X806530Y1859949D02*
G01*
X810578Y1863998D01*
X1083999Y1863998D01*
X3060000Y2523000D02*
G01*
X3056000Y2519000D01*
X3056000Y2490999D01*
X3023999Y2459000D01*
X3023999Y2425039D01*
X806580Y1840250D02*
G01*
X808329Y1841999D01*
X977997Y1841999D01*
X3123000Y1405999D02*
G01*
X3126000Y1409000D01*
X3126000Y1469960D01*
X2925000Y1503000D02*
G01*
X2893959Y1471959D01*
X2873999Y1471959D01*
X2112002Y1803998D02*
G01*
X2112002Y1425000D01*
X2113000Y1425000D01*
X2396000Y1305000D02*
G01*
X2396000Y1421999D01*
X2471000Y1370000D02*
G01*
X2838999Y1370000D01*
X2838999Y1370000D02*
G01*
X2886000Y1370000D01*
X2920000Y1404000D01*
X2921999Y1404000D01*
X2732002Y1456999D02*
G01*
X2746962Y1471959D01*
X2775000Y1471959D01*
X806440Y1781129D02*
G01*
X1043869Y1781129D01*
X1048999Y1776001D01*
X2932002Y1446001D02*
G01*
X2954961Y1468960D01*
X2976000Y1468960D01*
X806559Y1820580D02*
G01*
X1375577Y1820580D01*
X1387997Y1833000D01*
X1387997Y1833000D01*
X806559Y1800900D02*
G01*
X809459Y1798000D01*
X1120000Y1798000D01*
X806440Y1761430D02*
G01*
X808010Y1763000D01*
X982997Y1763000D01*
X996000Y1750000D01*
X1237997Y1750000D01*
X1256000Y1686999D02*
G01*
X1226000Y1686999D01*
X1182997Y1730000D01*
X860000Y1730000D01*
X848239Y1741759D01*
X806440Y1741759D01*
X2291999Y1700000D02*
G01*
X2401000Y1700000D01*
X2425000Y1675999D01*
X2903999Y1675999D01*
X2325000Y1731999D02*
G01*
X2331999Y1725000D01*
X2416000Y1725000D01*
X2440000Y1700999D01*
X2815000Y1700999D01*
X2827002Y1413000D02*
G01*
X2825000Y1415001D01*
X2825000Y1471959D01*
X2381000Y1660999D02*
G01*
X2391999Y1650000D01*
X2443000Y1650000D01*
X2475010Y1617989D01*
X2475010Y1590670D01*
X2068999Y1784000D02*
G01*
X2068999Y1369000D01*
X2116999Y1320999D01*
X2116999Y1314000D01*
X1831999Y1435000D02*
G01*
X1831999Y1453000D01*
X1810000Y1475000D01*
X1595000Y1475000D01*
X1545000Y1525000D01*
X1490000Y1525000D01*
X1461000Y1495999D01*
X1461000Y1403600D01*
D10*
X835200Y2552399D02*
G01*
X840000Y2557199D01*
X788199Y2609000D01*
X564000Y2609000D01*
X445000Y2490000D01*
X445000Y2420000D01*
D14*
X2376999Y1190000D02*
G01*
X2380000Y1193000D01*
X2470600Y1193000D01*
X2470600Y1206999D01*
X3176999Y1503040D02*
G01*
X3175010Y1505030D01*
X3175010Y1590668D01*
X3126000Y1504000D02*
G01*
X3125000Y1590700D01*
X3075000Y1503000D02*
G01*
X3075000Y1590700D01*
X3026999Y1503040D02*
G01*
X3025010Y1505030D01*
X3025010Y1590670D01*
X2873999Y1506039D02*
G01*
X2875010Y1507049D01*
X2875010Y1590670D01*
X2825000Y1505999D02*
G01*
X2825000Y1590700D01*
X2775000Y1506039D02*
G01*
X2775000Y1590659D01*
X2775010Y1590668D01*
X2658000Y1503000D02*
G01*
X2575000Y1501999D01*
X2575000Y1501999D02*
G01*
X2575000Y1590700D01*
X3076999Y2390960D02*
G01*
X3075010Y2388969D01*
X3075010Y2299330D01*
X3023999Y2390960D02*
G01*
X3025010Y2389949D01*
X3025010Y2299330D01*
X2976999Y2389960D02*
G01*
X2975010Y2387970D01*
X2975010Y2299330D01*
X2923000Y2388960D02*
G01*
X2925010Y2386950D01*
X2925010Y2299330D01*
X1671000Y2451999D02*
G01*
X1706000Y2486999D01*
X2791999Y2486999D01*
X2875000Y2404000D01*
X2875000Y2299299D01*
D12*
X2676000Y2422040D02*
G01*
X2671999Y2426039D01*
X2671999Y2455999D01*
X2665000Y2463000D01*
X2571000Y2463000D01*
X2556000Y2448000D01*
X2553999Y2448000D01*
D14*
X1801000Y2398000D02*
G01*
X2571999Y2398000D01*
X2598000Y2424000D01*
X2628999Y2424000D01*
X2628999Y2421999D01*
X2960000Y2510000D02*
G01*
X2960000Y2536999D01*
X2968000Y2545000D01*
X2745000Y2545000D01*
X2710000Y2510000D01*
X2705000Y2510000D01*
X2968000Y2545000D02*
G01*
X3093000Y2545000D01*
X3131999Y2505999D01*
X3131999Y2299299D01*
X3125000Y2299299D01*
X2523000Y1655000D02*
G01*
X2525010Y1652989D01*
X2525010Y1590670D01*
X2618999Y2206999D02*
G01*
X2575010Y2250990D01*
X2575010Y2299330D01*
X2976000Y1503040D02*
G01*
X2975010Y1504029D01*
X2975010Y1590668D01*
D12*
X1293000Y1130000D02*
G01*
X1293000Y1125999D01*
X1248000Y1125999D01*
D11*
X1235000Y1180000D02*
G01*
X1292960Y1180000D01*
D15*
X1235000Y1180000D02*
G01*
X1215000Y1160000D01*
X1115000Y1160000D01*
D12*
X806509Y1879760D02*
G01*
X739760Y1879760D01*
X735000Y1875000D01*
D14*
X2321000Y1785000D02*
G01*
X2453000Y1785000D01*
X2511999Y1725999D01*
X2961000Y1725999D01*
X2970000Y1716999D01*
X2970000Y1710000D01*
X806559Y2076460D02*
G01*
X1798001Y2076460D01*
X1801000Y2079459D01*
X2203959Y2068000D02*
G01*
X2125000Y2068000D01*
X2125000Y2068000D02*
G01*
X2108000Y2050999D01*
X920000Y2050999D01*
X906090Y2037089D01*
X806559Y2037089D01*
D16*
G01*
X2775000Y2422040D03*
D17*
G01*
X2775000Y2387959D03*
D16*
G01*
X2629000Y2422040D03*
D17*
G01*
X2628999Y2387959D03*
D16*
G01*
X2726999Y2422040D03*
D17*
G01*
X2726999Y2387959D03*
D16*
G01*
X2675999Y2422040D03*
D17*
G01*
X2676000Y2387959D03*
D18*
G01*
X806559Y2155180D03*
D19*
G01*
X806560Y2135515D03*
G01*
X806560Y2115834D03*
G01*
X806560Y2096144D03*
G01*
X806560Y2076465D03*
G01*
X806560Y2056775D03*
G01*
X806560Y2037094D03*
G01*
X806560Y2017404D03*
G01*
X806560Y1997725D03*
G01*
X806560Y1978034D03*
G01*
X806560Y1958354D03*
G01*
X806560Y1938665D03*
D18*
G01*
X806559Y1918989D03*
D19*
G01*
X806560Y1899294D03*
G01*
X806510Y1879764D03*
D18*
G01*
X806530Y1859949D03*
G01*
X806570Y1840250D03*
G01*
X806559Y1820580D03*
G01*
X806559Y1800900D03*
G01*
X806440Y1781129D03*
G01*
X806440Y1761430D03*
G01*
X806440Y1741759D03*
G01*
X806440Y1722060D03*
G01*
X806440Y1702370D03*
D20*
G01*
X895309Y2220369D03*
G01*
X895559Y1637620D03*
D21*
G01*
X2020649Y2616999D03*
G01*
X2103350Y2616999D03*
G01*
X2470649Y1206999D03*
G01*
X2553350Y1206999D03*
D22*
G01*
X1912040Y2615000D03*
G01*
X1877959Y2615000D03*
G01*
X2377040Y1190000D03*
G01*
X2342959Y1190000D03*
D23*
G01*
X1205000Y1278541D03*
D24*
G01*
X1205000Y1321460D03*
D25*
G01*
X581458Y1920000D03*
G01*
X538541Y1920000D03*
D23*
G01*
X465000Y2188541D03*
D24*
G01*
X465000Y2231460D03*
D23*
G01*
X2765000Y2626459D03*
D24*
G01*
X2765000Y2583539D03*
D23*
G01*
X1300000Y2558541D03*
D24*
G01*
X1300000Y2601460D03*
D26*
G01*
X1438540Y2635000D03*
G01*
X1481459Y2635000D03*
D23*
G01*
X1160000Y1278541D03*
D24*
G01*
X1160000Y1321460D03*
D23*
G01*
X670000Y2403541D03*
D24*
G01*
X670000Y2446460D03*
D23*
G01*
X670000Y2556459D03*
D24*
G01*
X670000Y2513539D03*
D23*
G01*
X920000Y2441459D03*
D24*
G01*
X920000Y2398539D03*
D23*
G01*
X715000Y2193541D03*
D24*
G01*
X715000Y2236460D03*
D25*
G01*
X581458Y1870000D03*
G01*
X538541Y1870000D03*
D27*
G01*
X2982696Y2600000D03*
G01*
X2857303Y2600000D03*
D28*
G01*
X1762399Y1388620D03*
G01*
X1687600Y1388620D03*
G01*
X1725000Y1291379D03*
G01*
X1942399Y1388620D03*
G01*
X1867600Y1388620D03*
G01*
X1905000Y1291379D03*
D29*
G01*
X1292959Y1130000D03*
G01*
X1327040Y1130000D03*
D22*
G01*
X1327040Y1220000D03*
G01*
X1292959Y1220000D03*
G01*
X1327040Y1180000D03*
G01*
X1292959Y1180000D03*
D16*
G01*
X3075000Y1468959D03*
D17*
G01*
X3075000Y1503040D03*
D16*
G01*
X3026999Y1468959D03*
D17*
G01*
X3026999Y1503040D03*
D29*
G01*
X1797959Y1435000D03*
G01*
X1832040Y1435000D03*
D16*
G01*
X1815999Y1352040D03*
D17*
G01*
X1816000Y1317959D03*
D29*
G01*
X2203959Y2067999D03*
G01*
X2238040Y2067999D03*
D16*
G01*
X3176999Y1468959D03*
D17*
G01*
X3176999Y1503040D03*
D16*
G01*
X2658000Y1468959D03*
D17*
G01*
X2658000Y1503040D03*
D16*
G01*
X3125999Y1469959D03*
D17*
G01*
X3126000Y1504040D03*
D16*
G01*
X2975999Y1468959D03*
D17*
G01*
X2976000Y1503040D03*
D16*
G01*
X2775000Y1471959D03*
D17*
G01*
X2775000Y1506039D03*
D16*
G01*
X3076999Y2425040D03*
D17*
G01*
X3076999Y2390960D03*
D16*
G01*
X3024000Y2425040D03*
D17*
G01*
X3023999Y2390960D03*
D16*
G01*
X2976999Y2424040D03*
D17*
G01*
X2976999Y2389960D03*
D16*
G01*
X2923000Y2423040D03*
D17*
G01*
X2923000Y2388960D03*
D16*
G01*
X2825000Y1471959D03*
D17*
G01*
X2825000Y1506039D03*
D16*
G01*
X2874000Y1471959D03*
D17*
G01*
X2873999Y1506039D03*
D22*
G01*
X582040Y1965000D03*
G01*
X547959Y1965000D03*
D16*
G01*
X660000Y2192959D03*
D17*
G01*
X660000Y2227040D03*
D16*
G01*
X560000Y2192959D03*
D17*
G01*
X560000Y2227040D03*
D16*
G01*
X615000Y2192959D03*
D17*
G01*
X615000Y2227040D03*
D16*
G01*
X510000Y2192959D03*
D17*
G01*
X510000Y2227040D03*
D16*
G01*
X2575000Y1467959D03*
D17*
G01*
X2575000Y1502040D03*
D16*
G01*
X2530000Y1467959D03*
D17*
G01*
X2530000Y1502040D03*
D30*
G01*
X3225010Y2299330D03*
G01*
X3175010Y2299330D03*
G01*
X3125010Y2299330D03*
G01*
X3075010Y2299330D03*
G01*
X3025010Y2299330D03*
G01*
X2975010Y2299330D03*
G01*
X2925010Y2299330D03*
G01*
X2875010Y2299330D03*
G01*
X2825010Y2299330D03*
G01*
X2775010Y2299330D03*
G01*
X2725010Y2299330D03*
G01*
X2675010Y2299330D03*
G01*
X2625010Y2299330D03*
G01*
X2575010Y2299330D03*
G01*
X2525010Y2299330D03*
G01*
X2475010Y2299330D03*
G01*
X2425010Y2299330D03*
G01*
X2375010Y2299330D03*
G01*
X2325010Y2299330D03*
G01*
X2325010Y1590670D03*
G01*
X2375010Y1590670D03*
G01*
X2425010Y1590670D03*
G01*
X2475010Y1590670D03*
G01*
X2525010Y1590670D03*
G01*
X2575010Y1590670D03*
G01*
X2625010Y1590670D03*
G01*
X2675010Y1590670D03*
G01*
X2725010Y1590670D03*
G01*
X2775010Y1590670D03*
G01*
X2825010Y1590670D03*
G01*
X2875010Y1590670D03*
G01*
X2925010Y1590670D03*
G01*
X2975010Y1590670D03*
G01*
X3025010Y1590670D03*
G01*
X3075010Y1590670D03*
G01*
X3125010Y1590670D03*
G01*
X3175010Y1590670D03*
G01*
X3225010Y1590670D03*
D31*
G01*
X2917529Y2004050D03*
G01*
X2917529Y2058980D03*
G01*
X2917529Y1949130D03*
G01*
X2972439Y2058980D03*
G01*
X2972439Y2004050D03*
G01*
X2972439Y1949130D03*
G01*
X2862610Y2058980D03*
G01*
X2862610Y2004050D03*
G01*
X2862610Y1949130D03*
D32*
G01*
X1555550Y2516930D03*
G01*
X1465000Y2516930D03*
G01*
X1374449Y2516930D03*
D33*
G01*
X1465000Y2283070D03*
D34*
G01*
X1426400Y1369050D03*
G01*
X1426400Y1349369D03*
G01*
X1426400Y1329679D03*
G01*
X1426400Y1310000D03*
G01*
X1426400Y1290309D03*
G01*
X1426400Y1270630D03*
G01*
X1426400Y1250940D03*
D35*
G01*
X1460950Y1216399D03*
G01*
X1480630Y1216399D03*
G01*
X1500320Y1216399D03*
G01*
X1520000Y1216399D03*
G01*
X1539690Y1216399D03*
G01*
X1559369Y1216399D03*
G01*
X1579059Y1216399D03*
D34*
G01*
X1613599Y1250940D03*
G01*
X1613599Y1270630D03*
G01*
X1613599Y1290309D03*
G01*
X1613599Y1310000D03*
G01*
X1613599Y1329679D03*
G01*
X1613599Y1349369D03*
G01*
X1613599Y1369050D03*
D35*
G01*
X1579059Y1403600D03*
G01*
X1559369Y1403600D03*
G01*
X1539690Y1403600D03*
G01*
X1520000Y1403600D03*
G01*
X1500320Y1403600D03*
G01*
X1480630Y1403600D03*
G01*
X1460950Y1403600D03*
D36*
G01*
X1520000Y1310000D03*
D37*
G01*
X835240Y2477600D03*
G01*
X835240Y2515000D03*
G01*
X835240Y2552399D03*
G01*
X744760Y2552399D03*
G01*
X744760Y2515000D03*
G01*
X744760Y2477600D03*
D38*
G01*
X324920Y1694920D03*
G01*
X324920Y2035079D03*
D39*
G01*
X489490Y2035079D03*
G01*
X489490Y1694920D03*
D40*
G01*
X615000Y1160000D03*
D41*
G01*
X715000Y1160000D03*
G01*
X815000Y1160000D03*
G01*
X915000Y1160000D03*
G01*
X1015000Y1160000D03*
G01*
X1115000Y1160000D03*
D42*
G01*
X1105000Y1925000D03*
G01*
X3008000Y2511999D03*
G01*
X1256000Y1686999D03*
G01*
X2291999Y1700000D03*
G01*
X2366999Y2165999D03*
G01*
X2750000Y2205000D03*
G01*
X3080000Y2483000D03*
G01*
X1205000Y1960000D03*
G01*
X2448000Y2534000D03*
G01*
X2665000Y2540000D03*
G01*
X2926000Y2519000D03*
G01*
X788999Y2201999D03*
G01*
X750000Y1920000D03*
G01*
X2696999Y1491999D03*
G01*
X1285000Y1350000D03*
G01*
X1255000Y1385000D03*
G01*
X2460000Y1300000D03*
G01*
X1495000Y1490000D03*
G01*
X2525000Y1270000D03*
G01*
X1540000Y1470000D03*
G01*
X2460000Y1470000D03*
G01*
X1730000Y1625999D03*
G01*
X1205000Y2605000D03*
G01*
X535000Y2450000D03*
G01*
X660000Y2295000D03*
G01*
X2381000Y1660999D03*
G01*
X2588999Y1761999D03*
G01*
X2580000Y2065000D03*
G01*
X2580000Y2065000D03*
G01*
X2580000Y2195000D03*
G01*
X2638000Y1793000D03*
G01*
X2665000Y2065000D03*
G01*
X2665000Y2205000D03*
G01*
X2560000Y1910000D03*
G01*
X535999Y2140000D03*
G01*
X445000Y2420000D03*
G01*
X575000Y1765000D03*
G01*
X425000Y2075000D03*
G01*
X325000Y2415000D03*
G01*
X315000Y2294520D03*
G01*
X1853000Y1990999D03*
G01*
X2590000Y2651999D03*
G01*
X2538000Y1399000D03*
G01*
X2620000Y1469000D03*
G01*
X1175000Y1680000D03*
G01*
X1010000Y1320000D03*
G01*
X1063999Y1320000D03*
G01*
X2705000Y2510000D03*
G01*
X2960000Y2510000D03*
G01*
X975000Y1425000D03*
G01*
X910000Y1315000D03*
G01*
X1235000Y1180000D03*
G01*
X1220000Y1225000D03*
G01*
X500000Y1215000D03*
G01*
X1520000Y1165000D03*
G01*
X1370000Y1355000D03*
G01*
X2945000Y2035000D03*
G01*
X2890000Y2035000D03*
G01*
X2890000Y1980000D03*
G01*
X2945000Y1980000D03*
G01*
X2533999Y2233000D03*
G01*
X2350000Y2565000D03*
G01*
X2625000Y2580000D03*
G01*
X785000Y1235000D03*
G01*
X325000Y1590000D03*
G01*
X480000Y1620000D03*
G01*
X640000Y1540000D03*
G01*
X315000Y2110000D03*
G01*
X465999Y2081999D03*
G01*
X1000000Y2390000D03*
G01*
X915000Y1535000D03*
G01*
X1625000Y2590000D03*
G01*
X710000Y1690000D03*
G01*
X455000Y2290000D03*
G01*
X565000Y2290000D03*
G01*
X610000Y2460000D03*
G01*
X2978999Y1150999D03*
G01*
X2420000Y2051999D03*
G01*
X2511999Y1134000D03*
G01*
X1465000Y2185999D03*
G01*
X2058000Y2536999D03*
G01*
X615000Y2288000D03*
G01*
X370000Y2139000D03*
G01*
X644279Y1278499D03*
G01*
X841080Y1278499D03*
G01*
X1103000Y1263000D03*
G01*
X2980000Y2660000D03*
G01*
X2801000Y2655000D03*
G01*
X3175010Y2383000D03*
G01*
X2593999Y1985019D03*
G01*
X2413000Y2370999D03*
G01*
X2826000Y2360999D03*
G01*
X1801000Y2079459D03*
G01*
X1801000Y2398000D03*
G01*
X1633000Y2019000D03*
G01*
X1671000Y2451999D03*
G01*
X1786000Y1895000D03*
G01*
X2118000Y1884000D03*
G01*
X2143999Y1359000D03*
G01*
X3178000Y1344000D03*
G01*
X1083999Y1864000D03*
G01*
X3060000Y2523000D03*
G01*
X1388000Y1833000D03*
G01*
X978000Y1841999D03*
G01*
X2111999Y1804000D03*
G01*
X2113000Y1425000D03*
G01*
X2466999Y1368000D03*
G01*
X2921999Y1404000D03*
G01*
X3123000Y1405999D03*
G01*
X2903999Y1675999D03*
G01*
X2925000Y1503000D03*
G01*
X1120000Y1798000D03*
G01*
X2068999Y1784000D03*
G01*
X2116999Y1314000D03*
G01*
X2396000Y1305000D03*
G01*
X2396000Y1421999D03*
G01*
X2396000Y1421999D03*
G01*
X2731999Y1456999D03*
G01*
X1048999Y1775999D03*
G01*
X2321000Y1785000D03*
G01*
X2970000Y1710000D03*
G01*
X2931999Y1445999D03*
G01*
X1238000Y1750000D03*
G01*
X2325000Y1731999D03*
G01*
X2815000Y1700999D03*
G01*
X2826999Y1413000D03*
G01*
X2556000Y2448000D03*
G01*
X2523000Y1655000D03*
G01*
X2618999Y2206999D03*
G01*
X1248000Y1125999D03*
G01*
X735000Y1875000D03*
M02*
