M48
INCH,LZ
;FILE_FORMAT=2:4
;TYPE=PLATED
;Layer: PTH_Through_Via
;EasyEDA v6.5.22, 2023-04-19 21:06:07
;0b1144c6aaf7448fb0b14bab58411d50,0a61cb7f7b51421fbede6d33e3e5ec82,10
;Gerber Generator version 0.2
;Holesize 1 = 0.0120 inch
T01C0.0120
%
G05
G90
T01
X011050Y019250
X024500Y024250
X011100Y019987
X026250Y024700
X011000Y018850
X027600Y025100
X011150Y017624
X028550Y025150
X011200Y017200
X022000Y018250
X012550Y017900
X023000Y021100
X029200Y022000
X029100Y025150
X011950Y018250
X019650Y018300
X019650Y018300
X010800Y018350
X023650Y022000
X027500Y022050
X031150Y022250
X029610Y025250
X030570Y025250
X012050Y019600
X023800Y024350
X026650Y025400
X031010Y025200
X008100Y022000
X007400Y018600
X029150Y014550
X007550Y019200
X026850Y014600
X007300Y021300
X006700Y020600
X031750Y013500
X024750Y013400
X024050Y013050
X012850Y013500
X012550Y013850
X024600Y013000
X014950Y014900
X025250Y012700
X015400Y014700
X024600Y014700
X017450Y016650
X022800Y011750
X031800Y014150
X031800Y014150
X031800Y014150
X029400Y014100
X012050Y026050
X005350Y024500
X006600Y022950
X030900Y016750
X029250Y016550
X024150Y016850
X025450Y017963
X025800Y020650
X025800Y020650
X025800Y021950
X026750Y017950
X026650Y020650
X026650Y022050
X031950Y022050
X026300Y020200
X025600Y019100
X005360Y021400
X004450Y024200
X005750Y017650
X004250Y020750
X003250Y024150
X003150Y022945
X015650Y020350
X026240Y026610
X025650Y026600
X023950Y014000
X026100Y014700
X011750Y016800
X010100Y013200
X010550Y013200
X027050Y025100
X030100Y024900
X009750Y014250
X009100Y013150
X012350Y011800
X012200Y012250
X005000Y012150
X015200Y011650
X013700Y013550
X029450Y020350
X028900Y020350
X028900Y019800
X029450Y019800
X024900Y023750
X023500Y025650
X026250Y025800
X007850Y012350
X003250Y015900
X004800Y016200
X006400Y015400
X003150Y021100
X004660Y020820
X010000Y023900
X009300Y018650
X009150Y015350
X016250Y025900
X007100Y016900
X004550Y022900
X005650Y022900
X006100Y024600
X025150Y017250
X008950Y020775
X029790Y011510
M30
