G04 Layer: InnerLayer1*
G04 EasyEDA v6.5.22, 2023-04-19 21:06:07*
G04 0b1144c6aaf7448fb0b14bab58411d50,0a61cb7f7b51421fbede6d33e3e5ec82,10*
G04 Gerber Generator version 0.2*
G04 Scale: 100 percent, Rotated: No, Reflected: No *
G04 Dimensions in inches *
G04 leading zeros omitted , absolute positions ,3 integer and 6 decimal *
%FSLAX36Y36*%
%MOIN*%

%ADD10R,0.0669X0.0669*%
%ADD11C,0.0669*%
%ADD12O,0.070866X0.047244*%
%ADD13O,0.07873999999999999X0.047244*%
%ADD14C,0.0240*%
%ADD15C,0.0168*%

%LPD*%
G36*
X574810Y1099998D02*
G01*
X569918Y1100037D01*
X565028Y1100158D01*
X560140Y1100358D01*
X555255Y1100637D01*
X550376Y1100997D01*
X545502Y1101437D01*
X540639Y1101956D01*
X535783Y1102554D01*
X530938Y1103231D01*
X526104Y1103989D01*
X521284Y1104825D01*
X516478Y1105738D01*
X511687Y1106732D01*
X506912Y1107804D01*
X502157Y1108953D01*
X497422Y1110178D01*
X492705Y1111482D01*
X488013Y1112863D01*
X483341Y1114322D01*
X478697Y1115855D01*
X474077Y1117465D01*
X469483Y1119149D01*
X464917Y1120909D01*
X460383Y1122743D01*
X455877Y1124650D01*
X451404Y1126631D01*
X446963Y1128687D01*
X442557Y1130812D01*
X438186Y1133011D01*
X433852Y1135281D01*
X429556Y1137620D01*
X425299Y1140030D01*
X421080Y1142510D01*
X416905Y1145057D01*
X412770Y1147674D01*
X408679Y1150356D01*
X404632Y1153105D01*
X400632Y1155922D01*
X396676Y1158802D01*
X392770Y1161747D01*
X388912Y1164755D01*
X385102Y1167826D01*
X381345Y1170958D01*
X377638Y1174153D01*
X373985Y1177406D01*
X370385Y1180720D01*
X366840Y1184092D01*
X363350Y1187521D01*
X359918Y1191006D01*
X356543Y1194547D01*
X353225Y1198144D01*
X349967Y1201793D01*
X346770Y1205497D01*
X343634Y1209250D01*
X340558Y1213056D01*
X337546Y1216911D01*
X334596Y1220814D01*
X331712Y1224767D01*
X328892Y1228764D01*
X326138Y1232808D01*
X323451Y1236896D01*
X320830Y1241028D01*
X318279Y1245201D01*
X315794Y1249416D01*
X313380Y1253672D01*
X311035Y1257966D01*
X308762Y1262298D01*
X306559Y1266666D01*
X304427Y1271069D01*
X302368Y1275507D01*
X300381Y1279978D01*
X298470Y1284481D01*
X296631Y1289016D01*
X294866Y1293578D01*
X293175Y1298170D01*
X291561Y1302788D01*
X290023Y1307433D01*
X288560Y1312101D01*
X287175Y1316792D01*
X285866Y1321507D01*
X284634Y1326242D01*
X283479Y1330997D01*
X282404Y1335769D01*
X281404Y1340558D01*
X280486Y1345363D01*
X279645Y1350183D01*
X278881Y1355016D01*
X278198Y1359861D01*
X277595Y1364715D01*
X277071Y1369580D01*
X276626Y1374452D01*
X276262Y1379331D01*
X275976Y1384214D01*
X275772Y1389103D01*
X275646Y1393993D01*
X275601Y1398886D01*
X275601Y2377990D01*
X275641Y2382881D01*
X275761Y2387773D01*
X275961Y2392660D01*
X276241Y2397546D01*
X276599Y2402424D01*
X277040Y2407298D01*
X277559Y2412161D01*
X278157Y2417017D01*
X278834Y2421862D01*
X279591Y2426696D01*
X280428Y2431516D01*
X281341Y2436323D01*
X282334Y2441113D01*
X283407Y2445888D01*
X284555Y2450643D01*
X285781Y2455378D01*
X287085Y2460095D01*
X288467Y2464787D01*
X289924Y2469459D01*
X291457Y2474104D01*
X293067Y2478724D01*
X294753Y2483317D01*
X296511Y2487883D01*
X298346Y2492417D01*
X300253Y2496923D01*
X302235Y2501397D01*
X304290Y2505837D01*
X306415Y2510243D01*
X308613Y2514614D01*
X310884Y2518948D01*
X313224Y2523243D01*
X315634Y2527501D01*
X318112Y2531720D01*
X320661Y2535895D01*
X323276Y2540030D01*
X325960Y2544122D01*
X328708Y2548168D01*
X331525Y2552168D01*
X334405Y2556124D01*
X337350Y2560030D01*
X340358Y2563888D01*
X343429Y2567698D01*
X346561Y2571455D01*
X349756Y2575162D01*
X353009Y2578814D01*
X356323Y2582415D01*
X359695Y2585960D01*
X363123Y2589450D01*
X366608Y2592881D01*
X370151Y2596257D01*
X373746Y2599575D01*
X377397Y2602833D01*
X381100Y2606030D01*
X384854Y2609167D01*
X388658Y2612242D01*
X392514Y2615255D01*
X396417Y2618204D01*
X400369Y2621087D01*
X404367Y2623908D01*
X408411Y2626662D01*
X412500Y2629349D01*
X416631Y2631970D01*
X420805Y2634522D01*
X425019Y2637006D01*
X429274Y2639421D01*
X433569Y2641765D01*
X437901Y2644038D01*
X442269Y2646242D01*
X446673Y2648373D01*
X451111Y2650432D01*
X455581Y2652419D01*
X460084Y2654331D01*
X464618Y2656170D01*
X469182Y2657935D01*
X473773Y2659625D01*
X478391Y2661239D01*
X483036Y2662777D01*
X487705Y2664240D01*
X492395Y2665626D01*
X497109Y2666934D01*
X501844Y2668166D01*
X506599Y2669321D01*
X511372Y2670396D01*
X516161Y2671395D01*
X520967Y2672314D01*
X525785Y2673155D01*
X530619Y2673919D01*
X535464Y2674602D01*
X540318Y2675205D01*
X545183Y2675729D01*
X550055Y2676174D01*
X554933Y2676538D01*
X559818Y2676824D01*
X564706Y2677029D01*
X569596Y2677154D01*
X574488Y2677199D01*
X2968491Y2677199D01*
X2973383Y2677159D01*
X2978274Y2677040D01*
X2983162Y2676840D01*
X2988046Y2676559D01*
X2992925Y2676201D01*
X2997799Y2675761D01*
X3002663Y2675241D01*
X3007519Y2674643D01*
X3012363Y2673966D01*
X3017197Y2673209D01*
X3022017Y2672372D01*
X3026823Y2671459D01*
X3031615Y2670466D01*
X3036388Y2669394D01*
X3041144Y2668245D01*
X3045879Y2667019D01*
X3050595Y2665715D01*
X3055289Y2664333D01*
X3059960Y2662876D01*
X3064605Y2661343D01*
X3069224Y2659733D01*
X3073819Y2658047D01*
X3078383Y2656289D01*
X3082919Y2654454D01*
X3087424Y2652546D01*
X3091898Y2650565D01*
X3096337Y2648510D01*
X3100744Y2646385D01*
X3105114Y2644187D01*
X3109449Y2641916D01*
X3113744Y2639576D01*
X3118002Y2637166D01*
X3122220Y2634688D01*
X3126396Y2632139D01*
X3130532Y2629524D01*
X3134623Y2626840D01*
X3138669Y2624092D01*
X3142669Y2621275D01*
X3146625Y2618395D01*
X3150532Y2615450D01*
X3154390Y2612442D01*
X3158199Y2609371D01*
X3161957Y2606239D01*
X3165663Y2603045D01*
X3169315Y2599791D01*
X3172915Y2596478D01*
X3176460Y2593105D01*
X3179951Y2589677D01*
X3183383Y2586192D01*
X3186759Y2582649D01*
X3190075Y2579054D01*
X3193334Y2575403D01*
X3196531Y2571700D01*
X3199668Y2567946D01*
X3202743Y2564142D01*
X3205756Y2560286D01*
X3208705Y2556383D01*
X3211589Y2552431D01*
X3214408Y2548433D01*
X3217163Y2544389D01*
X3219850Y2540300D01*
X3222470Y2536170D01*
X3225023Y2531995D01*
X3227506Y2527781D01*
X3229921Y2523526D01*
X3232265Y2519232D01*
X3234539Y2514899D01*
X3236742Y2510531D01*
X3238874Y2506127D01*
X3240933Y2501689D01*
X3242920Y2497219D01*
X3244831Y2492716D01*
X3246670Y2488182D01*
X3248436Y2483618D01*
X3250126Y2479027D01*
X3251740Y2474409D01*
X3253279Y2469765D01*
X3254741Y2465095D01*
X3256126Y2460405D01*
X3257435Y2455691D01*
X3258667Y2450956D01*
X3259822Y2446201D01*
X3260897Y2441428D01*
X3261896Y2436639D01*
X3262816Y2431833D01*
X3263657Y2427015D01*
X3264420Y2422181D01*
X3265102Y2417337D01*
X3265706Y2412482D01*
X3266229Y2407618D01*
X3266674Y2402746D01*
X3267039Y2397867D01*
X3267325Y2392982D01*
X3267529Y2388094D01*
X3267655Y2383204D01*
X3267700Y2378312D01*
X3267700Y1399207D01*
X3267660Y1394315D01*
X3267541Y1389425D01*
X3267340Y1384537D01*
X3267061Y1379652D01*
X3266701Y1374773D01*
X3266261Y1369899D01*
X3265743Y1365036D01*
X3265145Y1360180D01*
X3264467Y1355335D01*
X3263710Y1350500D01*
X3262874Y1345680D01*
X3261959Y1340875D01*
X3260967Y1336084D01*
X3259894Y1331309D01*
X3258746Y1326554D01*
X3257520Y1321819D01*
X3256216Y1317103D01*
X3254835Y1312409D01*
X3253377Y1307739D01*
X3251844Y1303094D01*
X3250234Y1298474D01*
X3248549Y1293879D01*
X3246790Y1289315D01*
X3244956Y1284780D01*
X3243047Y1280275D01*
X3241067Y1275801D01*
X3239012Y1271361D01*
X3236886Y1266954D01*
X3234687Y1262584D01*
X3232417Y1258249D01*
X3230078Y1253953D01*
X3227668Y1249695D01*
X3225189Y1245477D01*
X3222641Y1241302D01*
X3220024Y1237166D01*
X3217341Y1233076D01*
X3214593Y1229029D01*
X3211777Y1225028D01*
X3208896Y1221073D01*
X3205951Y1217166D01*
X3202943Y1213308D01*
X3199872Y1209499D01*
X3196740Y1205742D01*
X3193545Y1202035D01*
X3190291Y1198382D01*
X3186979Y1194783D01*
X3183607Y1191237D01*
X3180177Y1187748D01*
X3176692Y1184315D01*
X3173150Y1180940D01*
X3169555Y1177622D01*
X3165905Y1174364D01*
X3162201Y1171167D01*
X3158447Y1168031D01*
X3154642Y1164956D01*
X3150788Y1161943D01*
X3146884Y1158993D01*
X3142932Y1156109D01*
X3138933Y1153290D01*
X3134890Y1150536D01*
X3130802Y1147847D01*
X3126670Y1145228D01*
X3122497Y1142676D01*
X3118281Y1140192D01*
X3114026Y1137777D01*
X3109732Y1135432D01*
X3105401Y1133159D01*
X3101032Y1130956D01*
X3096629Y1128823D01*
X3092191Y1126765D01*
X3087719Y1124778D01*
X3083217Y1122867D01*
X3078683Y1121028D01*
X3074120Y1119263D01*
X3069529Y1117573D01*
X3064910Y1115958D01*
X3060266Y1114420D01*
X3055596Y1112957D01*
X3050906Y1111572D01*
X3046192Y1110263D01*
X3041457Y1109031D01*
X3036701Y1107876D01*
X3031930Y1106801D01*
X3027139Y1105801D01*
X3022335Y1104882D01*
X3017515Y1104041D01*
X3012682Y1103279D01*
X3007838Y1102595D01*
X3002983Y1101993D01*
X2998118Y1101469D01*
X2993247Y1101024D01*
X2988368Y1100659D01*
X2983483Y1100374D01*
X2978595Y1100169D01*
X2973705Y1100043D01*
X2968813Y1099998D01*
G37*

%LPC*%
G36*
X1114143Y1123445D02*
G01*
X1115856Y1123445D01*
X1117569Y1123526D01*
X1119275Y1123685D01*
X1120973Y1123926D01*
X1122658Y1124245D01*
X1124326Y1124645D01*
X1125972Y1125120D01*
X1127595Y1125673D01*
X1129189Y1126300D01*
X1130753Y1127004D01*
X1132283Y1127777D01*
X1133774Y1128623D01*
X1135225Y1129537D01*
X1136630Y1130520D01*
X1137988Y1131565D01*
X1139296Y1132674D01*
X1140550Y1133843D01*
X1141747Y1135070D01*
X1142887Y1136350D01*
X1143964Y1137683D01*
X1144979Y1139065D01*
X1145927Y1140495D01*
X1146808Y1141966D01*
X1147618Y1143476D01*
X1148356Y1145023D01*
X1149022Y1146603D01*
X1149612Y1148213D01*
X1150127Y1149848D01*
X1150564Y1151505D01*
X1150923Y1153182D01*
X1151202Y1154872D01*
X1151404Y1156576D01*
X1151523Y1158285D01*
X1151565Y1160000D01*
X1151523Y1161714D01*
X1151404Y1163424D01*
X1151202Y1165127D01*
X1150923Y1166817D01*
X1150564Y1168494D01*
X1150127Y1170151D01*
X1149612Y1171786D01*
X1149022Y1173397D01*
X1148356Y1174976D01*
X1147618Y1176523D01*
X1146808Y1178033D01*
X1145927Y1179504D01*
X1144979Y1180934D01*
X1143964Y1182316D01*
X1142887Y1183649D01*
X1141747Y1184929D01*
X1140550Y1186156D01*
X1139296Y1187325D01*
X1137988Y1188434D01*
X1136630Y1189479D01*
X1135225Y1190462D01*
X1133774Y1191376D01*
X1132283Y1192222D01*
X1130753Y1192995D01*
X1129189Y1193699D01*
X1127595Y1194326D01*
X1125972Y1194879D01*
X1124326Y1195354D01*
X1122658Y1195754D01*
X1120973Y1196073D01*
X1119275Y1196314D01*
X1117569Y1196473D01*
X1115856Y1196554D01*
X1114143Y1196554D01*
X1112430Y1196473D01*
X1110724Y1196314D01*
X1109026Y1196073D01*
X1107341Y1195754D01*
X1105673Y1195354D01*
X1104027Y1194879D01*
X1102404Y1194326D01*
X1100810Y1193699D01*
X1099246Y1192995D01*
X1097716Y1192222D01*
X1096225Y1191376D01*
X1094774Y1190462D01*
X1093369Y1189479D01*
X1092011Y1188434D01*
X1090703Y1187325D01*
X1089449Y1186156D01*
X1088252Y1184929D01*
X1087112Y1183649D01*
X1086035Y1182316D01*
X1085020Y1180934D01*
X1084072Y1179504D01*
X1083191Y1178033D01*
X1082381Y1176523D01*
X1081643Y1174976D01*
X1080977Y1173397D01*
X1080387Y1171786D01*
X1079872Y1170151D01*
X1079435Y1168494D01*
X1079076Y1166817D01*
X1078797Y1165127D01*
X1078595Y1163424D01*
X1078476Y1161714D01*
X1078434Y1160000D01*
X1078476Y1158285D01*
X1078595Y1156576D01*
X1078797Y1154872D01*
X1079076Y1153182D01*
X1079435Y1151505D01*
X1079872Y1149848D01*
X1080387Y1148213D01*
X1080977Y1146603D01*
X1081643Y1145023D01*
X1082381Y1143476D01*
X1083191Y1141966D01*
X1084072Y1140495D01*
X1085020Y1139065D01*
X1086035Y1137683D01*
X1087112Y1136350D01*
X1088252Y1135070D01*
X1089449Y1133843D01*
X1090703Y1132674D01*
X1092011Y1131565D01*
X1093369Y1130520D01*
X1094774Y1129537D01*
X1096225Y1128623D01*
X1097716Y1127777D01*
X1099246Y1127004D01*
X1100810Y1126300D01*
X1102404Y1125673D01*
X1104027Y1125120D01*
X1105673Y1124645D01*
X1107341Y1124245D01*
X1109026Y1123926D01*
X1110724Y1123685D01*
X1112430Y1123526D01*
G37*
G36*
X1014143Y1123445D02*
G01*
X1015856Y1123445D01*
X1017569Y1123526D01*
X1019275Y1123685D01*
X1020973Y1123926D01*
X1022658Y1124245D01*
X1024326Y1124645D01*
X1025972Y1125120D01*
X1027595Y1125673D01*
X1029189Y1126300D01*
X1030753Y1127004D01*
X1032283Y1127777D01*
X1033774Y1128623D01*
X1035225Y1129537D01*
X1036630Y1130520D01*
X1037988Y1131565D01*
X1039296Y1132674D01*
X1040550Y1133843D01*
X1041747Y1135070D01*
X1042887Y1136350D01*
X1043964Y1137683D01*
X1044979Y1139065D01*
X1045927Y1140495D01*
X1046808Y1141966D01*
X1047618Y1143476D01*
X1048356Y1145023D01*
X1049022Y1146603D01*
X1049612Y1148213D01*
X1050127Y1149848D01*
X1050564Y1151505D01*
X1050923Y1153182D01*
X1051202Y1154872D01*
X1051404Y1156576D01*
X1051523Y1158285D01*
X1051565Y1160000D01*
X1051523Y1161714D01*
X1051404Y1163424D01*
X1051202Y1165127D01*
X1050923Y1166817D01*
X1050564Y1168494D01*
X1050127Y1170151D01*
X1049612Y1171786D01*
X1049022Y1173397D01*
X1048356Y1174976D01*
X1047618Y1176523D01*
X1046808Y1178033D01*
X1045927Y1179504D01*
X1044979Y1180934D01*
X1043964Y1182316D01*
X1042887Y1183649D01*
X1041747Y1184929D01*
X1040550Y1186156D01*
X1039296Y1187325D01*
X1037988Y1188434D01*
X1036630Y1189479D01*
X1035225Y1190462D01*
X1033774Y1191376D01*
X1032283Y1192222D01*
X1030753Y1192995D01*
X1029189Y1193699D01*
X1027595Y1194326D01*
X1025972Y1194879D01*
X1024326Y1195354D01*
X1022658Y1195754D01*
X1020973Y1196073D01*
X1019275Y1196314D01*
X1017569Y1196473D01*
X1015856Y1196554D01*
X1014143Y1196554D01*
X1012430Y1196473D01*
X1010724Y1196314D01*
X1009026Y1196073D01*
X1007341Y1195754D01*
X1005673Y1195354D01*
X1004027Y1194879D01*
X1002404Y1194326D01*
X1000810Y1193699D01*
X999246Y1192995D01*
X997716Y1192222D01*
X996225Y1191376D01*
X994774Y1190462D01*
X993369Y1189479D01*
X992011Y1188434D01*
X990703Y1187325D01*
X989449Y1186156D01*
X988252Y1184929D01*
X987112Y1183649D01*
X986035Y1182316D01*
X985020Y1180934D01*
X984072Y1179504D01*
X983191Y1178033D01*
X982381Y1176523D01*
X981643Y1174976D01*
X980977Y1173397D01*
X980387Y1171786D01*
X979872Y1170151D01*
X979435Y1168494D01*
X979076Y1166817D01*
X978797Y1165127D01*
X978595Y1163424D01*
X978476Y1161714D01*
X978434Y1160000D01*
X978476Y1158285D01*
X978595Y1156576D01*
X978797Y1154872D01*
X979076Y1153182D01*
X979435Y1151505D01*
X979872Y1149848D01*
X980387Y1148213D01*
X980977Y1146603D01*
X981643Y1145023D01*
X982381Y1143476D01*
X983191Y1141966D01*
X984072Y1140495D01*
X985020Y1139065D01*
X986035Y1137683D01*
X987112Y1136350D01*
X988252Y1135070D01*
X989449Y1133843D01*
X990703Y1132674D01*
X992011Y1131565D01*
X993369Y1130520D01*
X994774Y1129537D01*
X996225Y1128623D01*
X997716Y1127777D01*
X999246Y1127004D01*
X1000810Y1126300D01*
X1002404Y1125673D01*
X1004027Y1125120D01*
X1005673Y1124645D01*
X1007341Y1124245D01*
X1009026Y1123926D01*
X1010724Y1123685D01*
X1012430Y1123526D01*
G37*
G36*
X914143Y1123445D02*
G01*
X915856Y1123445D01*
X917569Y1123526D01*
X919275Y1123685D01*
X920973Y1123926D01*
X922658Y1124245D01*
X924326Y1124645D01*
X925972Y1125120D01*
X927595Y1125673D01*
X929189Y1126300D01*
X930753Y1127004D01*
X932283Y1127777D01*
X933774Y1128623D01*
X935225Y1129537D01*
X936630Y1130520D01*
X937988Y1131565D01*
X939296Y1132674D01*
X940550Y1133843D01*
X941747Y1135070D01*
X942887Y1136350D01*
X943964Y1137683D01*
X944979Y1139065D01*
X945927Y1140495D01*
X946808Y1141966D01*
X947618Y1143476D01*
X948356Y1145023D01*
X949022Y1146603D01*
X949612Y1148213D01*
X950127Y1149848D01*
X950564Y1151505D01*
X950923Y1153182D01*
X951202Y1154872D01*
X951404Y1156576D01*
X951523Y1158285D01*
X951565Y1160000D01*
X951523Y1161714D01*
X951404Y1163424D01*
X951202Y1165127D01*
X950923Y1166817D01*
X950564Y1168494D01*
X950127Y1170151D01*
X949612Y1171786D01*
X949022Y1173397D01*
X948356Y1174976D01*
X947618Y1176523D01*
X946808Y1178033D01*
X945927Y1179504D01*
X944979Y1180934D01*
X943964Y1182316D01*
X942887Y1183649D01*
X941747Y1184929D01*
X940550Y1186156D01*
X939296Y1187325D01*
X937988Y1188434D01*
X936630Y1189479D01*
X935225Y1190462D01*
X933774Y1191376D01*
X932283Y1192222D01*
X930753Y1192995D01*
X929189Y1193699D01*
X927595Y1194326D01*
X925972Y1194879D01*
X924326Y1195354D01*
X922658Y1195754D01*
X920973Y1196073D01*
X919275Y1196314D01*
X917569Y1196473D01*
X915856Y1196554D01*
X914143Y1196554D01*
X912430Y1196473D01*
X910724Y1196314D01*
X909026Y1196073D01*
X907341Y1195754D01*
X905673Y1195354D01*
X904027Y1194879D01*
X902404Y1194326D01*
X900810Y1193699D01*
X899246Y1192995D01*
X897716Y1192222D01*
X896225Y1191376D01*
X894774Y1190462D01*
X893369Y1189479D01*
X892011Y1188434D01*
X890703Y1187325D01*
X889449Y1186156D01*
X888252Y1184929D01*
X887112Y1183649D01*
X886035Y1182316D01*
X885020Y1180934D01*
X884072Y1179504D01*
X883191Y1178033D01*
X882381Y1176523D01*
X881643Y1174976D01*
X880977Y1173397D01*
X880387Y1171786D01*
X879872Y1170151D01*
X879435Y1168494D01*
X879076Y1166817D01*
X878797Y1165127D01*
X878595Y1163424D01*
X878476Y1161714D01*
X878434Y1160000D01*
X878476Y1158285D01*
X878595Y1156576D01*
X878797Y1154872D01*
X879076Y1153182D01*
X879435Y1151505D01*
X879872Y1149848D01*
X880387Y1148213D01*
X880977Y1146603D01*
X881643Y1145023D01*
X882381Y1143476D01*
X883191Y1141966D01*
X884072Y1140495D01*
X885020Y1139065D01*
X886035Y1137683D01*
X887112Y1136350D01*
X888252Y1135070D01*
X889449Y1133843D01*
X890703Y1132674D01*
X892011Y1131565D01*
X893369Y1130520D01*
X894774Y1129537D01*
X896225Y1128623D01*
X897716Y1127777D01*
X899246Y1127004D01*
X900810Y1126300D01*
X902404Y1125673D01*
X904027Y1125120D01*
X905673Y1124645D01*
X907341Y1124245D01*
X909026Y1123926D01*
X910724Y1123685D01*
X912430Y1123526D01*
G37*
G36*
X714142Y1123445D02*
G01*
X715857Y1123445D01*
X717570Y1123526D01*
X719275Y1123685D01*
X720974Y1123926D01*
X722658Y1124245D01*
X724326Y1124645D01*
X725972Y1125120D01*
X727595Y1125673D01*
X729189Y1126300D01*
X730754Y1127004D01*
X732283Y1127777D01*
X733775Y1128623D01*
X735225Y1129537D01*
X736631Y1130520D01*
X737988Y1131565D01*
X739295Y1132674D01*
X740549Y1133843D01*
X741747Y1135070D01*
X742887Y1136350D01*
X743964Y1137683D01*
X744978Y1139065D01*
X745927Y1140495D01*
X746808Y1141966D01*
X747618Y1143476D01*
X748357Y1145023D01*
X749021Y1146603D01*
X749612Y1148213D01*
X750127Y1149848D01*
X750563Y1151505D01*
X750922Y1153182D01*
X751203Y1154872D01*
X751404Y1156576D01*
X751523Y1158285D01*
X751565Y1160000D01*
X751523Y1161714D01*
X751404Y1163424D01*
X751203Y1165127D01*
X750922Y1166817D01*
X750563Y1168494D01*
X750127Y1170151D01*
X749612Y1171786D01*
X749021Y1173397D01*
X748357Y1174976D01*
X747618Y1176523D01*
X746808Y1178033D01*
X745927Y1179504D01*
X744978Y1180934D01*
X743964Y1182316D01*
X742887Y1183649D01*
X741747Y1184929D01*
X740549Y1186156D01*
X739295Y1187325D01*
X737988Y1188434D01*
X736631Y1189479D01*
X735225Y1190462D01*
X733775Y1191376D01*
X732283Y1192222D01*
X730754Y1192995D01*
X729189Y1193699D01*
X727595Y1194326D01*
X725972Y1194879D01*
X724326Y1195354D01*
X722658Y1195754D01*
X720974Y1196073D01*
X719275Y1196314D01*
X717570Y1196473D01*
X715857Y1196554D01*
X714142Y1196554D01*
X712429Y1196473D01*
X710724Y1196314D01*
X709025Y1196073D01*
X707341Y1195754D01*
X705673Y1195354D01*
X704027Y1194879D01*
X702404Y1194326D01*
X700810Y1193699D01*
X699245Y1192995D01*
X697716Y1192222D01*
X696224Y1191376D01*
X694774Y1190462D01*
X693368Y1189479D01*
X692011Y1188434D01*
X690704Y1187325D01*
X689450Y1186156D01*
X688252Y1184929D01*
X687112Y1183649D01*
X686035Y1182316D01*
X685021Y1180934D01*
X684072Y1179504D01*
X683191Y1178033D01*
X682381Y1176523D01*
X681642Y1174976D01*
X680978Y1173397D01*
X680387Y1171786D01*
X679872Y1170151D01*
X679436Y1168494D01*
X679077Y1166817D01*
X678796Y1165127D01*
X678595Y1163424D01*
X678476Y1161714D01*
X678436Y1160000D01*
X678476Y1158285D01*
X678595Y1156576D01*
X678796Y1154872D01*
X679077Y1153182D01*
X679436Y1151505D01*
X679872Y1149848D01*
X680387Y1148213D01*
X680978Y1146603D01*
X681642Y1145023D01*
X682381Y1143476D01*
X683191Y1141966D01*
X684072Y1140495D01*
X685021Y1139065D01*
X686035Y1137683D01*
X687112Y1136350D01*
X688252Y1135070D01*
X689450Y1133843D01*
X690704Y1132674D01*
X692011Y1131565D01*
X693368Y1130520D01*
X694774Y1129537D01*
X696224Y1128623D01*
X697716Y1127777D01*
X699245Y1127004D01*
X700810Y1126300D01*
X702404Y1125673D01*
X704027Y1125120D01*
X705673Y1124645D01*
X707341Y1124245D01*
X709025Y1123926D01*
X710724Y1123685D01*
X712429Y1123526D01*
G37*
G36*
X631732Y1123535D02*
G01*
X648465Y1123535D01*
X648699Y1123544D01*
X648933Y1123571D01*
X649164Y1123618D01*
X649391Y1123681D01*
X649612Y1123762D01*
X649827Y1123861D01*
X650032Y1123976D01*
X650228Y1124108D01*
X650412Y1124254D01*
X650585Y1124414D01*
X650745Y1124587D01*
X650891Y1124771D01*
X651023Y1124967D01*
X651138Y1125172D01*
X651237Y1125387D01*
X651318Y1125608D01*
X651381Y1125835D01*
X651428Y1126066D01*
X651455Y1126300D01*
X651464Y1126534D01*
X651464Y1143267D01*
X631732Y1143267D01*
G37*
G36*
X581534Y1123535D02*
G01*
X598267Y1123535D01*
X598267Y1143267D01*
X578535Y1143267D01*
X578535Y1126534D01*
X578544Y1126300D01*
X578571Y1126066D01*
X578618Y1125835D01*
X578681Y1125608D01*
X578762Y1125387D01*
X578861Y1125172D01*
X578976Y1124967D01*
X579108Y1124771D01*
X579254Y1124587D01*
X579414Y1124414D01*
X579587Y1124254D01*
X579771Y1124108D01*
X579967Y1123976D01*
X580172Y1123861D01*
X580387Y1123762D01*
X580608Y1123681D01*
X580835Y1123618D01*
X581066Y1123571D01*
X581300Y1123544D01*
G37*
G36*
X831732Y1127498D02*
G01*
X832283Y1127777D01*
X833774Y1128623D01*
X835225Y1129537D01*
X836630Y1130520D01*
X837988Y1131565D01*
X839296Y1132674D01*
X840550Y1133843D01*
X841747Y1135070D01*
X842887Y1136350D01*
X843964Y1137683D01*
X844979Y1139065D01*
X845927Y1140495D01*
X846808Y1141966D01*
X847506Y1143267D01*
X831732Y1143267D01*
G37*
G36*
X798267Y1127498D02*
G01*
X798267Y1143267D01*
X782493Y1143267D01*
X783191Y1141966D01*
X784072Y1140495D01*
X785020Y1139065D01*
X786035Y1137683D01*
X787112Y1136350D01*
X788252Y1135070D01*
X789449Y1133843D01*
X790703Y1132674D01*
X792011Y1131565D01*
X793369Y1130520D01*
X794774Y1129537D01*
X796225Y1128623D01*
X797716Y1127777D01*
G37*
G36*
X2279449Y1159909D02*
G01*
X2280550Y1159909D01*
X2281652Y1159991D01*
X2282743Y1160151D01*
X2283819Y1160390D01*
X2284875Y1160709D01*
X2285906Y1161102D01*
X2286904Y1161570D01*
X2287866Y1162110D01*
X2288786Y1162719D01*
X2289659Y1163393D01*
X2290481Y1164128D01*
X2291246Y1164922D01*
X2291952Y1165770D01*
X2292592Y1166667D01*
X2293167Y1167609D01*
X2293671Y1168591D01*
X2294103Y1169605D01*
X2294459Y1170650D01*
X2294738Y1171716D01*
X2294939Y1172800D01*
X2295060Y1173897D01*
X2295100Y1175000D01*
X2295060Y1176102D01*
X2294939Y1177199D01*
X2294738Y1178283D01*
X2294459Y1179349D01*
X2294103Y1180394D01*
X2293671Y1181408D01*
X2293167Y1182390D01*
X2292592Y1183332D01*
X2291952Y1184229D01*
X2291246Y1185077D01*
X2290481Y1185871D01*
X2289659Y1186606D01*
X2288786Y1187280D01*
X2287866Y1187889D01*
X2286904Y1188429D01*
X2285906Y1188897D01*
X2284875Y1189290D01*
X2283819Y1189609D01*
X2282743Y1189848D01*
X2281652Y1190009D01*
X2280550Y1190090D01*
X2279449Y1190090D01*
X2278347Y1190009D01*
X2277256Y1189848D01*
X2276180Y1189609D01*
X2275124Y1189290D01*
X2274093Y1188897D01*
X2273095Y1188429D01*
X2272133Y1187889D01*
X2271214Y1187280D01*
X2270340Y1186606D01*
X2269519Y1185871D01*
X2268753Y1185077D01*
X2268047Y1184229D01*
X2267407Y1183332D01*
X2266832Y1182390D01*
X2266328Y1181408D01*
X2265896Y1180394D01*
X2265540Y1179349D01*
X2265261Y1178283D01*
X2265060Y1177199D01*
X2264939Y1176102D01*
X2264899Y1175000D01*
X2264939Y1173897D01*
X2265060Y1172800D01*
X2265261Y1171716D01*
X2265540Y1170650D01*
X2265896Y1169605D01*
X2266328Y1168591D01*
X2266832Y1167609D01*
X2267407Y1166667D01*
X2268047Y1165770D01*
X2268753Y1164922D01*
X2269519Y1164128D01*
X2270340Y1163393D01*
X2271214Y1162719D01*
X2272133Y1162110D01*
X2273095Y1161570D01*
X2274093Y1161102D01*
X2275124Y1160709D01*
X2276180Y1160390D01*
X2277256Y1160151D01*
X2278347Y1159991D01*
G37*
G36*
X1234449Y1164909D02*
G01*
X1235550Y1164909D01*
X1236652Y1164991D01*
X1237743Y1165151D01*
X1238819Y1165390D01*
X1239875Y1165709D01*
X1240906Y1166102D01*
X1241904Y1166570D01*
X1242866Y1167110D01*
X1243786Y1167719D01*
X1244659Y1168393D01*
X1245480Y1169128D01*
X1246246Y1169922D01*
X1246952Y1170770D01*
X1247592Y1171667D01*
X1248167Y1172609D01*
X1248671Y1173591D01*
X1249103Y1174605D01*
X1249459Y1175650D01*
X1249738Y1176716D01*
X1249939Y1177800D01*
X1250060Y1178897D01*
X1250100Y1180000D01*
X1250060Y1181102D01*
X1249939Y1182199D01*
X1249738Y1183283D01*
X1249459Y1184349D01*
X1249103Y1185394D01*
X1248671Y1186408D01*
X1248167Y1187390D01*
X1247592Y1188332D01*
X1246952Y1189229D01*
X1246246Y1190077D01*
X1245480Y1190871D01*
X1244659Y1191606D01*
X1243786Y1192280D01*
X1242866Y1192889D01*
X1241904Y1193429D01*
X1240906Y1193897D01*
X1239875Y1194290D01*
X1238819Y1194609D01*
X1237743Y1194848D01*
X1236652Y1195009D01*
X1235550Y1195090D01*
X1234449Y1195090D01*
X1233347Y1195009D01*
X1232256Y1194848D01*
X1231180Y1194609D01*
X1230124Y1194290D01*
X1229093Y1193897D01*
X1228095Y1193429D01*
X1227133Y1192889D01*
X1226214Y1192280D01*
X1225340Y1191606D01*
X1224519Y1190871D01*
X1223753Y1190077D01*
X1223047Y1189229D01*
X1222407Y1188332D01*
X1221832Y1187390D01*
X1221328Y1186408D01*
X1220896Y1185394D01*
X1220540Y1184349D01*
X1220261Y1183283D01*
X1220060Y1182199D01*
X1219939Y1181102D01*
X1219899Y1180000D01*
X1219939Y1178897D01*
X1220060Y1177800D01*
X1220261Y1176716D01*
X1220540Y1175650D01*
X1220896Y1174605D01*
X1221328Y1173591D01*
X1221832Y1172609D01*
X1222407Y1171667D01*
X1223047Y1170770D01*
X1223753Y1169922D01*
X1224519Y1169128D01*
X1225340Y1168393D01*
X1226214Y1167719D01*
X1227133Y1167110D01*
X1228095Y1166570D01*
X1229093Y1166102D01*
X1230124Y1165709D01*
X1231180Y1165390D01*
X1232256Y1165151D01*
X1233347Y1164991D01*
G37*
G36*
X831732Y1176732D02*
G01*
X847506Y1176732D01*
X846808Y1178033D01*
X845927Y1179504D01*
X844979Y1180934D01*
X843964Y1182316D01*
X842887Y1183649D01*
X841747Y1184929D01*
X840550Y1186156D01*
X839296Y1187325D01*
X837988Y1188434D01*
X836630Y1189479D01*
X835225Y1190462D01*
X833774Y1191376D01*
X832283Y1192222D01*
X831732Y1192501D01*
G37*
G36*
X782493Y1176732D02*
G01*
X798267Y1176732D01*
X798267Y1192501D01*
X797716Y1192222D01*
X796225Y1191376D01*
X794774Y1190462D01*
X793369Y1189479D01*
X792011Y1188434D01*
X790703Y1187325D01*
X789449Y1186156D01*
X788252Y1184929D01*
X787112Y1183649D01*
X786035Y1182316D01*
X785020Y1180934D01*
X784072Y1179504D01*
X783191Y1178033D01*
G37*
G36*
X631732Y1176732D02*
G01*
X651464Y1176732D01*
X651464Y1193465D01*
X651455Y1193699D01*
X651428Y1193933D01*
X651381Y1194164D01*
X651318Y1194391D01*
X651237Y1194612D01*
X651138Y1194827D01*
X651023Y1195032D01*
X650891Y1195228D01*
X650745Y1195412D01*
X650585Y1195585D01*
X650412Y1195745D01*
X650228Y1195891D01*
X650032Y1196023D01*
X649827Y1196138D01*
X649612Y1196237D01*
X649391Y1196318D01*
X649164Y1196381D01*
X648933Y1196428D01*
X648699Y1196455D01*
X648465Y1196464D01*
X631732Y1196464D01*
G37*
G36*
X578535Y1176732D02*
G01*
X598267Y1176732D01*
X598267Y1196464D01*
X581534Y1196464D01*
X581300Y1196455D01*
X581066Y1196428D01*
X580835Y1196381D01*
X580608Y1196318D01*
X580387Y1196237D01*
X580172Y1196138D01*
X579967Y1196023D01*
X579771Y1195891D01*
X579587Y1195745D01*
X579414Y1195585D01*
X579254Y1195412D01*
X579108Y1195228D01*
X578976Y1195032D01*
X578861Y1194827D01*
X578762Y1194612D01*
X578681Y1194391D01*
X578618Y1194164D01*
X578571Y1193933D01*
X578544Y1193699D01*
X578535Y1193465D01*
G37*
G36*
X2524449Y1254909D02*
G01*
X2525550Y1254909D01*
X2526652Y1254991D01*
X2527743Y1255151D01*
X2528819Y1255390D01*
X2529875Y1255709D01*
X2530906Y1256102D01*
X2531904Y1256570D01*
X2532866Y1257110D01*
X2533786Y1257719D01*
X2534659Y1258393D01*
X2535481Y1259128D01*
X2536246Y1259922D01*
X2536952Y1260770D01*
X2537592Y1261667D01*
X2538167Y1262609D01*
X2538671Y1263591D01*
X2539103Y1264605D01*
X2539459Y1265650D01*
X2539738Y1266716D01*
X2539939Y1267800D01*
X2540060Y1268897D01*
X2540100Y1270000D01*
X2540060Y1271102D01*
X2539939Y1272199D01*
X2539738Y1273283D01*
X2539459Y1274349D01*
X2539103Y1275394D01*
X2538671Y1276408D01*
X2538167Y1277390D01*
X2537592Y1278332D01*
X2536952Y1279229D01*
X2536246Y1280077D01*
X2535481Y1280871D01*
X2534659Y1281606D01*
X2533786Y1282280D01*
X2532866Y1282889D01*
X2531904Y1283429D01*
X2530906Y1283897D01*
X2529875Y1284290D01*
X2528819Y1284609D01*
X2527743Y1284848D01*
X2526652Y1285009D01*
X2525550Y1285090D01*
X2524449Y1285090D01*
X2523347Y1285009D01*
X2522256Y1284848D01*
X2521180Y1284609D01*
X2520124Y1284290D01*
X2519093Y1283897D01*
X2518095Y1283429D01*
X2517133Y1282889D01*
X2516214Y1282280D01*
X2515340Y1281606D01*
X2514519Y1280871D01*
X2513753Y1280077D01*
X2513047Y1279229D01*
X2512407Y1278332D01*
X2511832Y1277390D01*
X2511328Y1276408D01*
X2510896Y1275394D01*
X2510540Y1274349D01*
X2510261Y1273283D01*
X2510060Y1272199D01*
X2509939Y1271102D01*
X2509899Y1270000D01*
X2509939Y1268897D01*
X2510060Y1267800D01*
X2510261Y1266716D01*
X2510540Y1265650D01*
X2510896Y1264605D01*
X2511328Y1263591D01*
X2511832Y1262609D01*
X2512407Y1261667D01*
X2513047Y1260770D01*
X2513753Y1259922D01*
X2514519Y1259128D01*
X2515340Y1258393D01*
X2516214Y1257719D01*
X2517133Y1257110D01*
X2518095Y1256570D01*
X2519093Y1256102D01*
X2520124Y1255709D01*
X2521180Y1255390D01*
X2522256Y1255151D01*
X2523347Y1254991D01*
G37*
G36*
X2459449Y1284909D02*
G01*
X2460550Y1284909D01*
X2461652Y1284991D01*
X2462743Y1285151D01*
X2463819Y1285390D01*
X2464875Y1285709D01*
X2465906Y1286102D01*
X2466904Y1286570D01*
X2467866Y1287110D01*
X2468786Y1287719D01*
X2469659Y1288393D01*
X2470481Y1289128D01*
X2471246Y1289922D01*
X2471952Y1290770D01*
X2472592Y1291667D01*
X2473167Y1292609D01*
X2473671Y1293591D01*
X2474103Y1294605D01*
X2474459Y1295650D01*
X2474738Y1296716D01*
X2474939Y1297800D01*
X2475060Y1298897D01*
X2475100Y1300000D01*
X2475060Y1301102D01*
X2474939Y1302199D01*
X2474738Y1303283D01*
X2474459Y1304349D01*
X2474103Y1305394D01*
X2473671Y1306408D01*
X2473167Y1307390D01*
X2472592Y1308332D01*
X2471952Y1309229D01*
X2471246Y1310077D01*
X2470481Y1310871D01*
X2469659Y1311606D01*
X2468786Y1312280D01*
X2467866Y1312889D01*
X2466904Y1313429D01*
X2465906Y1313897D01*
X2464875Y1314290D01*
X2463819Y1314609D01*
X2462743Y1314848D01*
X2461652Y1315009D01*
X2460550Y1315090D01*
X2459449Y1315090D01*
X2458347Y1315009D01*
X2457256Y1314848D01*
X2456180Y1314609D01*
X2455124Y1314290D01*
X2454093Y1313897D01*
X2453095Y1313429D01*
X2452133Y1312889D01*
X2451214Y1312280D01*
X2450340Y1311606D01*
X2449519Y1310871D01*
X2448753Y1310077D01*
X2448047Y1309229D01*
X2447407Y1308332D01*
X2446832Y1307390D01*
X2446328Y1306408D01*
X2445896Y1305394D01*
X2445540Y1304349D01*
X2445261Y1303283D01*
X2445060Y1302199D01*
X2444939Y1301102D01*
X2444899Y1300000D01*
X2444939Y1298897D01*
X2445060Y1297800D01*
X2445261Y1296716D01*
X2445540Y1295650D01*
X2445896Y1294605D01*
X2446328Y1293591D01*
X2446832Y1292609D01*
X2447407Y1291667D01*
X2448047Y1290770D01*
X2448753Y1289922D01*
X2449519Y1289128D01*
X2450340Y1288393D01*
X2451214Y1287719D01*
X2452133Y1287110D01*
X2453095Y1286570D01*
X2454093Y1286102D01*
X2455124Y1285709D01*
X2456180Y1285390D01*
X2457256Y1285151D01*
X2458347Y1284991D01*
G37*
G36*
X2404449Y1289909D02*
G01*
X2405550Y1289909D01*
X2406652Y1289991D01*
X2407743Y1290151D01*
X2408819Y1290390D01*
X2409875Y1290709D01*
X2410906Y1291102D01*
X2411904Y1291570D01*
X2412866Y1292110D01*
X2413786Y1292719D01*
X2414659Y1293393D01*
X2415481Y1294128D01*
X2416246Y1294922D01*
X2416952Y1295770D01*
X2417592Y1296667D01*
X2418167Y1297609D01*
X2418671Y1298591D01*
X2419103Y1299605D01*
X2419459Y1300650D01*
X2419738Y1301716D01*
X2419939Y1302800D01*
X2420060Y1303897D01*
X2420100Y1305000D01*
X2420060Y1306102D01*
X2419939Y1307199D01*
X2419738Y1308283D01*
X2419459Y1309349D01*
X2419103Y1310394D01*
X2418671Y1311408D01*
X2418167Y1312390D01*
X2417592Y1313332D01*
X2416952Y1314229D01*
X2416246Y1315077D01*
X2415481Y1315871D01*
X2414659Y1316606D01*
X2413786Y1317280D01*
X2412866Y1317889D01*
X2411904Y1318429D01*
X2410906Y1318897D01*
X2409875Y1319290D01*
X2408819Y1319609D01*
X2407743Y1319848D01*
X2406652Y1320009D01*
X2405550Y1320090D01*
X2404449Y1320090D01*
X2403347Y1320009D01*
X2402256Y1319848D01*
X2401180Y1319609D01*
X2400124Y1319290D01*
X2399093Y1318897D01*
X2398095Y1318429D01*
X2397133Y1317889D01*
X2396214Y1317280D01*
X2395340Y1316606D01*
X2394519Y1315871D01*
X2393753Y1315077D01*
X2393047Y1314229D01*
X2392407Y1313332D01*
X2391832Y1312390D01*
X2391328Y1311408D01*
X2390896Y1310394D01*
X2390540Y1309349D01*
X2390261Y1308283D01*
X2390060Y1307199D01*
X2389939Y1306102D01*
X2389899Y1305000D01*
X2389939Y1303897D01*
X2390060Y1302800D01*
X2390261Y1301716D01*
X2390540Y1300650D01*
X2390896Y1299605D01*
X2391328Y1298591D01*
X2391832Y1297609D01*
X2392407Y1296667D01*
X2393047Y1295770D01*
X2393753Y1294922D01*
X2394519Y1294128D01*
X2395340Y1293393D01*
X2396214Y1292719D01*
X2397133Y1292110D01*
X2398095Y1291570D01*
X2399093Y1291102D01*
X2400124Y1290709D01*
X2401180Y1290390D01*
X2402256Y1290151D01*
X2403347Y1289991D01*
G37*
G36*
X1009449Y1304909D02*
G01*
X1010550Y1304909D01*
X1011652Y1304991D01*
X1012743Y1305151D01*
X1013819Y1305390D01*
X1014875Y1305709D01*
X1015906Y1306102D01*
X1016904Y1306570D01*
X1017866Y1307110D01*
X1018786Y1307719D01*
X1019659Y1308393D01*
X1020480Y1309128D01*
X1021246Y1309922D01*
X1021952Y1310770D01*
X1022592Y1311667D01*
X1023167Y1312609D01*
X1023671Y1313591D01*
X1024103Y1314605D01*
X1024459Y1315650D01*
X1024738Y1316716D01*
X1024939Y1317800D01*
X1025060Y1318897D01*
X1025100Y1320000D01*
X1025060Y1321102D01*
X1024939Y1322199D01*
X1024738Y1323283D01*
X1024459Y1324349D01*
X1024103Y1325394D01*
X1023671Y1326408D01*
X1023167Y1327390D01*
X1022592Y1328332D01*
X1021952Y1329229D01*
X1021246Y1330077D01*
X1020480Y1330871D01*
X1019659Y1331606D01*
X1018786Y1332280D01*
X1017866Y1332889D01*
X1016904Y1333429D01*
X1015906Y1333897D01*
X1014875Y1334290D01*
X1013819Y1334609D01*
X1012743Y1334848D01*
X1011652Y1335009D01*
X1010550Y1335090D01*
X1009449Y1335090D01*
X1008347Y1335009D01*
X1007256Y1334848D01*
X1006180Y1334609D01*
X1005124Y1334290D01*
X1004093Y1333897D01*
X1003095Y1333429D01*
X1002133Y1332889D01*
X1001214Y1332280D01*
X1000340Y1331606D01*
X999519Y1330871D01*
X998753Y1330077D01*
X998047Y1329229D01*
X997407Y1328332D01*
X996832Y1327390D01*
X996328Y1326408D01*
X995896Y1325394D01*
X995540Y1324349D01*
X995261Y1323283D01*
X995060Y1322199D01*
X994939Y1321102D01*
X994899Y1320000D01*
X994939Y1318897D01*
X995060Y1317800D01*
X995261Y1316716D01*
X995540Y1315650D01*
X995896Y1314605D01*
X996328Y1313591D01*
X996832Y1312609D01*
X997407Y1311667D01*
X998047Y1310770D01*
X998753Y1309922D01*
X999519Y1309128D01*
X1000340Y1308393D01*
X1001214Y1307719D01*
X1002133Y1307110D01*
X1003095Y1306570D01*
X1004093Y1306102D01*
X1005124Y1305709D01*
X1006180Y1305390D01*
X1007256Y1305151D01*
X1008347Y1304991D01*
G37*
G36*
X2474449Y1324909D02*
G01*
X2475550Y1324909D01*
X2476652Y1324991D01*
X2477743Y1325151D01*
X2478819Y1325390D01*
X2479875Y1325709D01*
X2480906Y1326102D01*
X2481904Y1326570D01*
X2482866Y1327110D01*
X2483786Y1327719D01*
X2484659Y1328393D01*
X2485481Y1329128D01*
X2486246Y1329922D01*
X2486952Y1330770D01*
X2487592Y1331667D01*
X2488167Y1332609D01*
X2488671Y1333591D01*
X2489103Y1334605D01*
X2489459Y1335650D01*
X2489738Y1336716D01*
X2489939Y1337800D01*
X2490060Y1338897D01*
X2490100Y1340000D01*
X2490060Y1341102D01*
X2489939Y1342199D01*
X2489738Y1343283D01*
X2489459Y1344349D01*
X2489103Y1345394D01*
X2488671Y1346408D01*
X2488167Y1347390D01*
X2487592Y1348332D01*
X2486952Y1349229D01*
X2486246Y1350077D01*
X2485481Y1350871D01*
X2484659Y1351606D01*
X2483786Y1352280D01*
X2482866Y1352889D01*
X2481904Y1353429D01*
X2480906Y1353897D01*
X2479875Y1354290D01*
X2478819Y1354609D01*
X2477743Y1354848D01*
X2476652Y1355009D01*
X2475550Y1355090D01*
X2474449Y1355090D01*
X2473347Y1355009D01*
X2472256Y1354848D01*
X2471180Y1354609D01*
X2470124Y1354290D01*
X2469093Y1353897D01*
X2468095Y1353429D01*
X2467133Y1352889D01*
X2466214Y1352280D01*
X2465340Y1351606D01*
X2464519Y1350871D01*
X2463753Y1350077D01*
X2463047Y1349229D01*
X2462407Y1348332D01*
X2461832Y1347390D01*
X2461328Y1346408D01*
X2460896Y1345394D01*
X2460540Y1344349D01*
X2460261Y1343283D01*
X2460060Y1342199D01*
X2459939Y1341102D01*
X2459899Y1340000D01*
X2459939Y1338897D01*
X2460060Y1337800D01*
X2460261Y1336716D01*
X2460540Y1335650D01*
X2460896Y1334605D01*
X2461328Y1333591D01*
X2461832Y1332609D01*
X2462407Y1331667D01*
X2463047Y1330770D01*
X2463753Y1329922D01*
X2464519Y1329128D01*
X2465340Y1328393D01*
X2466214Y1327719D01*
X2467133Y1327110D01*
X2468095Y1326570D01*
X2469093Y1326102D01*
X2470124Y1325709D01*
X2471180Y1325390D01*
X2472256Y1325151D01*
X2473347Y1324991D01*
G37*
G36*
X1284449Y1334909D02*
G01*
X1285550Y1334909D01*
X1286652Y1334991D01*
X1287743Y1335151D01*
X1288819Y1335390D01*
X1289875Y1335709D01*
X1290906Y1336102D01*
X1291904Y1336570D01*
X1292866Y1337110D01*
X1293786Y1337719D01*
X1294659Y1338393D01*
X1295480Y1339128D01*
X1296246Y1339922D01*
X1296952Y1340770D01*
X1297592Y1341667D01*
X1298167Y1342609D01*
X1298671Y1343591D01*
X1299103Y1344605D01*
X1299459Y1345650D01*
X1299738Y1346716D01*
X1299939Y1347800D01*
X1300060Y1348897D01*
X1300100Y1350000D01*
X1300060Y1351102D01*
X1299939Y1352199D01*
X1299738Y1353283D01*
X1299459Y1354349D01*
X1299103Y1355394D01*
X1298671Y1356408D01*
X1298167Y1357390D01*
X1297592Y1358332D01*
X1296952Y1359229D01*
X1296246Y1360077D01*
X1295480Y1360871D01*
X1294659Y1361606D01*
X1293786Y1362280D01*
X1292866Y1362889D01*
X1291904Y1363429D01*
X1290906Y1363897D01*
X1289875Y1364290D01*
X1288819Y1364609D01*
X1287743Y1364848D01*
X1286652Y1365009D01*
X1285550Y1365090D01*
X1284449Y1365090D01*
X1283347Y1365009D01*
X1282256Y1364848D01*
X1281180Y1364609D01*
X1280124Y1364290D01*
X1279093Y1363897D01*
X1278095Y1363429D01*
X1277133Y1362889D01*
X1276214Y1362280D01*
X1275340Y1361606D01*
X1274519Y1360871D01*
X1273753Y1360077D01*
X1273047Y1359229D01*
X1272407Y1358332D01*
X1271832Y1357390D01*
X1271328Y1356408D01*
X1270896Y1355394D01*
X1270540Y1354349D01*
X1270261Y1353283D01*
X1270060Y1352199D01*
X1269939Y1351102D01*
X1269899Y1350000D01*
X1269939Y1348897D01*
X1270060Y1347800D01*
X1270261Y1346716D01*
X1270540Y1345650D01*
X1270896Y1344605D01*
X1271328Y1343591D01*
X1271832Y1342609D01*
X1272407Y1341667D01*
X1273047Y1340770D01*
X1273753Y1339922D01*
X1274519Y1339128D01*
X1275340Y1338393D01*
X1276214Y1337719D01*
X1277133Y1337110D01*
X1278095Y1336570D01*
X1279093Y1336102D01*
X1280124Y1335709D01*
X1281180Y1335390D01*
X1282256Y1335151D01*
X1283347Y1334991D01*
G37*
G36*
X3174449Y1334909D02*
G01*
X3175550Y1334909D01*
X3176652Y1334991D01*
X3177743Y1335151D01*
X3178819Y1335390D01*
X3179875Y1335709D01*
X3180906Y1336102D01*
X3181904Y1336570D01*
X3182866Y1337110D01*
X3183786Y1337719D01*
X3184659Y1338393D01*
X3185481Y1339128D01*
X3186246Y1339922D01*
X3186952Y1340770D01*
X3187592Y1341667D01*
X3188167Y1342609D01*
X3188671Y1343591D01*
X3189103Y1344605D01*
X3189459Y1345650D01*
X3189738Y1346716D01*
X3189939Y1347800D01*
X3190060Y1348897D01*
X3190100Y1350000D01*
X3190060Y1351102D01*
X3189939Y1352199D01*
X3189738Y1353283D01*
X3189459Y1354349D01*
X3189103Y1355394D01*
X3188671Y1356408D01*
X3188167Y1357390D01*
X3187592Y1358332D01*
X3186952Y1359229D01*
X3186246Y1360077D01*
X3185481Y1360871D01*
X3184659Y1361606D01*
X3183786Y1362280D01*
X3182866Y1362889D01*
X3181904Y1363429D01*
X3180906Y1363897D01*
X3179875Y1364290D01*
X3178819Y1364609D01*
X3177743Y1364848D01*
X3176652Y1365009D01*
X3175550Y1365090D01*
X3174449Y1365090D01*
X3173347Y1365009D01*
X3172256Y1364848D01*
X3171180Y1364609D01*
X3170124Y1364290D01*
X3169093Y1363897D01*
X3168095Y1363429D01*
X3167133Y1362889D01*
X3166214Y1362280D01*
X3165340Y1361606D01*
X3164519Y1360871D01*
X3163753Y1360077D01*
X3163047Y1359229D01*
X3162407Y1358332D01*
X3161832Y1357390D01*
X3161328Y1356408D01*
X3160896Y1355394D01*
X3160540Y1354349D01*
X3160261Y1353283D01*
X3160060Y1352199D01*
X3159939Y1351102D01*
X3159899Y1350000D01*
X3159939Y1348897D01*
X3160060Y1347800D01*
X3160261Y1346716D01*
X3160540Y1345650D01*
X3160896Y1344605D01*
X3161328Y1343591D01*
X3161832Y1342609D01*
X3162407Y1341667D01*
X3163047Y1340770D01*
X3163753Y1339922D01*
X3164519Y1339128D01*
X3165340Y1338393D01*
X3166214Y1337719D01*
X3167133Y1337110D01*
X3168095Y1336570D01*
X3169093Y1336102D01*
X3170124Y1335709D01*
X3171180Y1335390D01*
X3172256Y1335151D01*
X3173347Y1334991D01*
G37*
G36*
X1254449Y1369909D02*
G01*
X1255550Y1369909D01*
X1256652Y1369991D01*
X1257743Y1370151D01*
X1258819Y1370390D01*
X1259875Y1370709D01*
X1260906Y1371102D01*
X1261904Y1371570D01*
X1262866Y1372110D01*
X1263786Y1372719D01*
X1264659Y1373393D01*
X1265480Y1374128D01*
X1266246Y1374922D01*
X1266952Y1375770D01*
X1267592Y1376667D01*
X1268167Y1377609D01*
X1268671Y1378591D01*
X1269103Y1379605D01*
X1269459Y1380650D01*
X1269738Y1381716D01*
X1269939Y1382800D01*
X1270060Y1383897D01*
X1270100Y1385000D01*
X1270060Y1386102D01*
X1269939Y1387199D01*
X1269738Y1388283D01*
X1269459Y1389349D01*
X1269103Y1390394D01*
X1268671Y1391408D01*
X1268167Y1392390D01*
X1267592Y1393332D01*
X1266952Y1394229D01*
X1266246Y1395077D01*
X1265480Y1395871D01*
X1264659Y1396606D01*
X1263786Y1397280D01*
X1262866Y1397889D01*
X1261904Y1398429D01*
X1260906Y1398897D01*
X1259875Y1399290D01*
X1258819Y1399609D01*
X1257743Y1399848D01*
X1256652Y1400009D01*
X1255550Y1400090D01*
X1254449Y1400090D01*
X1253347Y1400009D01*
X1252256Y1399848D01*
X1251180Y1399609D01*
X1250124Y1399290D01*
X1249093Y1398897D01*
X1248095Y1398429D01*
X1247133Y1397889D01*
X1246214Y1397280D01*
X1245340Y1396606D01*
X1244519Y1395871D01*
X1243753Y1395077D01*
X1243047Y1394229D01*
X1242407Y1393332D01*
X1241832Y1392390D01*
X1241328Y1391408D01*
X1240896Y1390394D01*
X1240540Y1389349D01*
X1240261Y1388283D01*
X1240060Y1387199D01*
X1239939Y1386102D01*
X1239899Y1385000D01*
X1239939Y1383897D01*
X1240060Y1382800D01*
X1240261Y1381716D01*
X1240540Y1380650D01*
X1240896Y1379605D01*
X1241328Y1378591D01*
X1241832Y1377609D01*
X1242407Y1376667D01*
X1243047Y1375770D01*
X1243753Y1374922D01*
X1244519Y1374128D01*
X1245340Y1373393D01*
X1246214Y1372719D01*
X1247133Y1372110D01*
X1248095Y1371570D01*
X1249093Y1371102D01*
X1250124Y1370709D01*
X1251180Y1370390D01*
X1252256Y1370151D01*
X1253347Y1369991D01*
G37*
G36*
X2394449Y1384909D02*
G01*
X2395550Y1384909D01*
X2396652Y1384991D01*
X2397743Y1385151D01*
X2398819Y1385390D01*
X2399875Y1385709D01*
X2400906Y1386102D01*
X2401904Y1386570D01*
X2402866Y1387110D01*
X2403786Y1387719D01*
X2404659Y1388393D01*
X2405481Y1389128D01*
X2406246Y1389922D01*
X2406952Y1390770D01*
X2407592Y1391667D01*
X2408167Y1392609D01*
X2408671Y1393591D01*
X2409103Y1394605D01*
X2409459Y1395650D01*
X2409738Y1396716D01*
X2409939Y1397800D01*
X2410060Y1398897D01*
X2410100Y1400000D01*
X2410060Y1401102D01*
X2409939Y1402199D01*
X2409738Y1403283D01*
X2409459Y1404349D01*
X2409103Y1405394D01*
X2408671Y1406408D01*
X2408167Y1407390D01*
X2407592Y1408332D01*
X2406952Y1409229D01*
X2406246Y1410077D01*
X2405481Y1410871D01*
X2404659Y1411606D01*
X2403786Y1412280D01*
X2402866Y1412889D01*
X2401904Y1413429D01*
X2400906Y1413897D01*
X2399875Y1414290D01*
X2398819Y1414609D01*
X2397743Y1414848D01*
X2396652Y1415009D01*
X2395550Y1415090D01*
X2394449Y1415090D01*
X2393347Y1415009D01*
X2392256Y1414848D01*
X2391180Y1414609D01*
X2390124Y1414290D01*
X2389093Y1413897D01*
X2388095Y1413429D01*
X2387133Y1412889D01*
X2386214Y1412280D01*
X2385340Y1411606D01*
X2384519Y1410871D01*
X2383753Y1410077D01*
X2383047Y1409229D01*
X2382407Y1408332D01*
X2381832Y1407390D01*
X2381328Y1406408D01*
X2380896Y1405394D01*
X2380540Y1404349D01*
X2380261Y1403283D01*
X2380060Y1402199D01*
X2379939Y1401102D01*
X2379899Y1400000D01*
X2379939Y1398897D01*
X2380060Y1397800D01*
X2380261Y1396716D01*
X2380540Y1395650D01*
X2380896Y1394605D01*
X2381328Y1393591D01*
X2381832Y1392609D01*
X2382407Y1391667D01*
X2383047Y1390770D01*
X2383753Y1389922D01*
X2384519Y1389128D01*
X2385340Y1388393D01*
X2386214Y1387719D01*
X2387133Y1387110D01*
X2388095Y1386570D01*
X2389093Y1386102D01*
X2390124Y1385709D01*
X2391180Y1385390D01*
X2392256Y1385151D01*
X2393347Y1384991D01*
G37*
G36*
X2939449Y1394909D02*
G01*
X2940550Y1394909D01*
X2941652Y1394991D01*
X2942743Y1395151D01*
X2943819Y1395390D01*
X2944875Y1395709D01*
X2945906Y1396102D01*
X2946904Y1396570D01*
X2947866Y1397110D01*
X2948786Y1397719D01*
X2949659Y1398393D01*
X2950481Y1399128D01*
X2951246Y1399922D01*
X2951952Y1400770D01*
X2952592Y1401667D01*
X2953167Y1402609D01*
X2953671Y1403591D01*
X2954103Y1404605D01*
X2954459Y1405650D01*
X2954738Y1406716D01*
X2954939Y1407800D01*
X2955060Y1408897D01*
X2955100Y1410000D01*
X2955060Y1411102D01*
X2954939Y1412199D01*
X2954738Y1413283D01*
X2954459Y1414349D01*
X2954103Y1415394D01*
X2953671Y1416408D01*
X2953167Y1417390D01*
X2952592Y1418332D01*
X2951952Y1419229D01*
X2951246Y1420077D01*
X2950481Y1420871D01*
X2949659Y1421606D01*
X2948786Y1422280D01*
X2947866Y1422889D01*
X2946904Y1423429D01*
X2945906Y1423897D01*
X2944875Y1424290D01*
X2943819Y1424609D01*
X2942743Y1424848D01*
X2941652Y1425009D01*
X2940550Y1425090D01*
X2939449Y1425090D01*
X2938347Y1425009D01*
X2937256Y1424848D01*
X2936180Y1424609D01*
X2935124Y1424290D01*
X2934093Y1423897D01*
X2933095Y1423429D01*
X2932133Y1422889D01*
X2931214Y1422280D01*
X2930340Y1421606D01*
X2929519Y1420871D01*
X2928753Y1420077D01*
X2928047Y1419229D01*
X2927407Y1418332D01*
X2926832Y1417390D01*
X2926328Y1416408D01*
X2925896Y1415394D01*
X2925540Y1414349D01*
X2925261Y1413283D01*
X2925060Y1412199D01*
X2924939Y1411102D01*
X2924899Y1410000D01*
X2924939Y1408897D01*
X2925060Y1407800D01*
X2925261Y1406716D01*
X2925540Y1405650D01*
X2925896Y1404605D01*
X2926328Y1403591D01*
X2926832Y1402609D01*
X2927407Y1401667D01*
X2928047Y1400770D01*
X2928753Y1399922D01*
X2929519Y1399128D01*
X2930340Y1398393D01*
X2931214Y1397719D01*
X2932133Y1397110D01*
X2933095Y1396570D01*
X2934093Y1396102D01*
X2935124Y1395709D01*
X2936180Y1395390D01*
X2937256Y1395151D01*
X2938347Y1394991D01*
G37*
G36*
X3179449Y1399909D02*
G01*
X3180550Y1399909D01*
X3181652Y1399991D01*
X3182743Y1400151D01*
X3183819Y1400390D01*
X3184875Y1400709D01*
X3185906Y1401102D01*
X3186904Y1401570D01*
X3187866Y1402110D01*
X3188786Y1402719D01*
X3189659Y1403393D01*
X3190481Y1404128D01*
X3191246Y1404922D01*
X3191952Y1405770D01*
X3192592Y1406667D01*
X3193167Y1407609D01*
X3193671Y1408591D01*
X3194103Y1409605D01*
X3194459Y1410650D01*
X3194738Y1411716D01*
X3194939Y1412800D01*
X3195060Y1413897D01*
X3195100Y1415000D01*
X3195060Y1416102D01*
X3194939Y1417199D01*
X3194738Y1418283D01*
X3194459Y1419349D01*
X3194103Y1420394D01*
X3193671Y1421408D01*
X3193167Y1422390D01*
X3192592Y1423332D01*
X3191952Y1424229D01*
X3191246Y1425077D01*
X3190481Y1425871D01*
X3189659Y1426606D01*
X3188786Y1427280D01*
X3187866Y1427889D01*
X3186904Y1428429D01*
X3185906Y1428897D01*
X3184875Y1429290D01*
X3183819Y1429609D01*
X3182743Y1429848D01*
X3181652Y1430009D01*
X3180550Y1430090D01*
X3179449Y1430090D01*
X3178347Y1430009D01*
X3177256Y1429848D01*
X3176180Y1429609D01*
X3175124Y1429290D01*
X3174093Y1428897D01*
X3173095Y1428429D01*
X3172133Y1427889D01*
X3171214Y1427280D01*
X3170340Y1426606D01*
X3169519Y1425871D01*
X3168753Y1425077D01*
X3168047Y1424229D01*
X3167407Y1423332D01*
X3166832Y1422390D01*
X3166328Y1421408D01*
X3165896Y1420394D01*
X3165540Y1419349D01*
X3165261Y1418283D01*
X3165060Y1417199D01*
X3164939Y1416102D01*
X3164899Y1415000D01*
X3164939Y1413897D01*
X3165060Y1412800D01*
X3165261Y1411716D01*
X3165540Y1410650D01*
X3165896Y1409605D01*
X3166328Y1408591D01*
X3166832Y1407609D01*
X3167407Y1406667D01*
X3168047Y1405770D01*
X3168753Y1404922D01*
X3169519Y1404128D01*
X3170340Y1403393D01*
X3171214Y1402719D01*
X3172133Y1402110D01*
X3173095Y1401570D01*
X3174093Y1401102D01*
X3175124Y1400709D01*
X3176180Y1400390D01*
X3177256Y1400151D01*
X3178347Y1399991D01*
G37*
G36*
X974449Y1409909D02*
G01*
X975550Y1409909D01*
X976652Y1409991D01*
X977743Y1410151D01*
X978819Y1410390D01*
X979875Y1410709D01*
X980906Y1411102D01*
X981904Y1411570D01*
X982866Y1412110D01*
X983786Y1412719D01*
X984659Y1413393D01*
X985480Y1414128D01*
X986246Y1414922D01*
X986952Y1415770D01*
X987592Y1416667D01*
X988167Y1417609D01*
X988671Y1418591D01*
X989103Y1419605D01*
X989459Y1420650D01*
X989738Y1421716D01*
X989939Y1422800D01*
X990060Y1423897D01*
X990100Y1425000D01*
X990060Y1426102D01*
X989939Y1427199D01*
X989738Y1428283D01*
X989459Y1429349D01*
X989103Y1430394D01*
X988671Y1431408D01*
X988167Y1432390D01*
X987592Y1433332D01*
X986952Y1434229D01*
X986246Y1435077D01*
X985480Y1435871D01*
X984659Y1436606D01*
X983786Y1437280D01*
X982866Y1437889D01*
X981904Y1438429D01*
X980906Y1438897D01*
X979875Y1439290D01*
X978819Y1439609D01*
X977743Y1439848D01*
X976652Y1440009D01*
X975550Y1440090D01*
X974449Y1440090D01*
X973347Y1440009D01*
X972256Y1439848D01*
X971180Y1439609D01*
X970124Y1439290D01*
X969093Y1438897D01*
X968095Y1438429D01*
X967133Y1437889D01*
X966214Y1437280D01*
X965340Y1436606D01*
X964519Y1435871D01*
X963753Y1435077D01*
X963047Y1434229D01*
X962407Y1433332D01*
X961832Y1432390D01*
X961328Y1431408D01*
X960896Y1430394D01*
X960540Y1429349D01*
X960261Y1428283D01*
X960060Y1427199D01*
X959939Y1426102D01*
X959899Y1425000D01*
X959939Y1423897D01*
X960060Y1422800D01*
X960261Y1421716D01*
X960540Y1420650D01*
X960896Y1419605D01*
X961328Y1418591D01*
X961832Y1417609D01*
X962407Y1416667D01*
X963047Y1415770D01*
X963753Y1414922D01*
X964519Y1414128D01*
X965340Y1413393D01*
X966214Y1412719D01*
X967133Y1412110D01*
X968095Y1411570D01*
X969093Y1411102D01*
X970124Y1410709D01*
X971180Y1410390D01*
X972256Y1410151D01*
X973347Y1409991D01*
G37*
G36*
X2914449Y1439909D02*
G01*
X2915550Y1439909D01*
X2916652Y1439991D01*
X2917743Y1440151D01*
X2918819Y1440390D01*
X2919875Y1440709D01*
X2920906Y1441102D01*
X2921904Y1441570D01*
X2922866Y1442110D01*
X2923786Y1442719D01*
X2924659Y1443393D01*
X2925481Y1444128D01*
X2926246Y1444922D01*
X2926952Y1445770D01*
X2927592Y1446667D01*
X2928167Y1447609D01*
X2928671Y1448591D01*
X2929103Y1449605D01*
X2929459Y1450650D01*
X2929738Y1451716D01*
X2929939Y1452800D01*
X2930060Y1453897D01*
X2930100Y1455000D01*
X2930060Y1456102D01*
X2929939Y1457199D01*
X2929738Y1458283D01*
X2929459Y1459349D01*
X2929103Y1460394D01*
X2928671Y1461408D01*
X2928167Y1462390D01*
X2927592Y1463332D01*
X2926952Y1464229D01*
X2926246Y1465077D01*
X2925481Y1465871D01*
X2924659Y1466606D01*
X2923786Y1467280D01*
X2922866Y1467889D01*
X2921904Y1468429D01*
X2920906Y1468897D01*
X2919875Y1469290D01*
X2918819Y1469609D01*
X2917743Y1469848D01*
X2916652Y1470009D01*
X2915550Y1470090D01*
X2914449Y1470090D01*
X2913347Y1470009D01*
X2912256Y1469848D01*
X2911180Y1469609D01*
X2910124Y1469290D01*
X2909093Y1468897D01*
X2908095Y1468429D01*
X2907133Y1467889D01*
X2906214Y1467280D01*
X2905340Y1466606D01*
X2904519Y1465871D01*
X2903753Y1465077D01*
X2903047Y1464229D01*
X2902407Y1463332D01*
X2901832Y1462390D01*
X2901328Y1461408D01*
X2900896Y1460394D01*
X2900540Y1459349D01*
X2900261Y1458283D01*
X2900060Y1457199D01*
X2899939Y1456102D01*
X2899899Y1455000D01*
X2899939Y1453897D01*
X2900060Y1452800D01*
X2900261Y1451716D01*
X2900540Y1450650D01*
X2900896Y1449605D01*
X2901328Y1448591D01*
X2901832Y1447609D01*
X2902407Y1446667D01*
X2903047Y1445770D01*
X2903753Y1444922D01*
X2904519Y1444128D01*
X2905340Y1443393D01*
X2906214Y1442719D01*
X2907133Y1442110D01*
X2908095Y1441570D01*
X2909093Y1441102D01*
X2910124Y1440709D01*
X2911180Y1440390D01*
X2912256Y1440151D01*
X2913347Y1439991D01*
G37*
G36*
X2684449Y1444909D02*
G01*
X2685550Y1444909D01*
X2686652Y1444991D01*
X2687743Y1445151D01*
X2688819Y1445390D01*
X2689875Y1445709D01*
X2690906Y1446102D01*
X2691904Y1446570D01*
X2692866Y1447110D01*
X2693786Y1447719D01*
X2694659Y1448393D01*
X2695481Y1449128D01*
X2696246Y1449922D01*
X2696952Y1450770D01*
X2697592Y1451667D01*
X2698167Y1452609D01*
X2698671Y1453591D01*
X2699103Y1454605D01*
X2699459Y1455650D01*
X2699738Y1456716D01*
X2699939Y1457800D01*
X2700060Y1458897D01*
X2700100Y1460000D01*
X2700060Y1461102D01*
X2699939Y1462199D01*
X2699738Y1463283D01*
X2699459Y1464349D01*
X2699103Y1465394D01*
X2698671Y1466408D01*
X2698167Y1467390D01*
X2697592Y1468332D01*
X2696952Y1469229D01*
X2696246Y1470077D01*
X2695481Y1470871D01*
X2694659Y1471606D01*
X2693786Y1472280D01*
X2692866Y1472889D01*
X2691904Y1473429D01*
X2690906Y1473897D01*
X2689875Y1474290D01*
X2688819Y1474609D01*
X2687743Y1474848D01*
X2686652Y1475009D01*
X2685550Y1475090D01*
X2684449Y1475090D01*
X2683347Y1475009D01*
X2682256Y1474848D01*
X2681180Y1474609D01*
X2680124Y1474290D01*
X2679093Y1473897D01*
X2678095Y1473429D01*
X2677133Y1472889D01*
X2676214Y1472280D01*
X2675340Y1471606D01*
X2674519Y1470871D01*
X2673753Y1470077D01*
X2673047Y1469229D01*
X2672407Y1468332D01*
X2671832Y1467390D01*
X2671328Y1466408D01*
X2670896Y1465394D01*
X2670540Y1464349D01*
X2670261Y1463283D01*
X2670060Y1462199D01*
X2669939Y1461102D01*
X2669899Y1460000D01*
X2669939Y1458897D01*
X2670060Y1457800D01*
X2670261Y1456716D01*
X2670540Y1455650D01*
X2670896Y1454605D01*
X2671328Y1453591D01*
X2671832Y1452609D01*
X2672407Y1451667D01*
X2673047Y1450770D01*
X2673753Y1449922D01*
X2674519Y1449128D01*
X2675340Y1448393D01*
X2676214Y1447719D01*
X2677133Y1447110D01*
X2678095Y1446570D01*
X2679093Y1446102D01*
X2680124Y1445709D01*
X2681180Y1445390D01*
X2682256Y1445151D01*
X2683347Y1444991D01*
G37*
G36*
X2609449Y1454909D02*
G01*
X2610550Y1454909D01*
X2611652Y1454991D01*
X2612743Y1455151D01*
X2613819Y1455390D01*
X2614875Y1455709D01*
X2615906Y1456102D01*
X2616904Y1456570D01*
X2617866Y1457110D01*
X2618786Y1457719D01*
X2619659Y1458393D01*
X2620481Y1459128D01*
X2621246Y1459922D01*
X2621952Y1460770D01*
X2622592Y1461667D01*
X2623167Y1462609D01*
X2623671Y1463591D01*
X2624103Y1464605D01*
X2624459Y1465650D01*
X2624738Y1466716D01*
X2624939Y1467800D01*
X2625060Y1468897D01*
X2625100Y1470000D01*
X2625060Y1471102D01*
X2624939Y1472199D01*
X2624738Y1473283D01*
X2624459Y1474349D01*
X2624103Y1475394D01*
X2623671Y1476408D01*
X2623167Y1477390D01*
X2622592Y1478332D01*
X2621952Y1479229D01*
X2621246Y1480077D01*
X2620481Y1480871D01*
X2619659Y1481606D01*
X2618786Y1482280D01*
X2617866Y1482889D01*
X2616904Y1483429D01*
X2615906Y1483897D01*
X2614875Y1484290D01*
X2613819Y1484609D01*
X2612743Y1484848D01*
X2611652Y1485009D01*
X2610550Y1485090D01*
X2609449Y1485090D01*
X2608347Y1485009D01*
X2607256Y1484848D01*
X2606180Y1484609D01*
X2605124Y1484290D01*
X2604093Y1483897D01*
X2603095Y1483429D01*
X2602133Y1482889D01*
X2601214Y1482280D01*
X2600340Y1481606D01*
X2599519Y1480871D01*
X2598753Y1480077D01*
X2598047Y1479229D01*
X2597407Y1478332D01*
X2596832Y1477390D01*
X2596328Y1476408D01*
X2595896Y1475394D01*
X2595540Y1474349D01*
X2595261Y1473283D01*
X2595060Y1472199D01*
X2594939Y1471102D01*
X2594899Y1470000D01*
X2594939Y1468897D01*
X2595060Y1467800D01*
X2595261Y1466716D01*
X2595540Y1465650D01*
X2595896Y1464605D01*
X2596328Y1463591D01*
X2596832Y1462609D01*
X2597407Y1461667D01*
X2598047Y1460770D01*
X2598753Y1459922D01*
X2599519Y1459128D01*
X2600340Y1458393D01*
X2601214Y1457719D01*
X2602133Y1457110D01*
X2603095Y1456570D01*
X2604093Y1456102D01*
X2605124Y1455709D01*
X2606180Y1455390D01*
X2607256Y1455151D01*
X2608347Y1454991D01*
G37*
G36*
X2459449Y1454909D02*
G01*
X2460550Y1454909D01*
X2461652Y1454991D01*
X2462743Y1455151D01*
X2463819Y1455390D01*
X2464875Y1455709D01*
X2465906Y1456102D01*
X2466904Y1456570D01*
X2467866Y1457110D01*
X2468786Y1457719D01*
X2469659Y1458393D01*
X2470481Y1459128D01*
X2471246Y1459922D01*
X2471952Y1460770D01*
X2472592Y1461667D01*
X2473167Y1462609D01*
X2473671Y1463591D01*
X2474103Y1464605D01*
X2474459Y1465650D01*
X2474738Y1466716D01*
X2474939Y1467800D01*
X2475060Y1468897D01*
X2475100Y1470000D01*
X2475060Y1471102D01*
X2474939Y1472199D01*
X2474738Y1473283D01*
X2474459Y1474349D01*
X2474103Y1475394D01*
X2473671Y1476408D01*
X2473167Y1477390D01*
X2472592Y1478332D01*
X2471952Y1479229D01*
X2471246Y1480077D01*
X2470481Y1480871D01*
X2469659Y1481606D01*
X2468786Y1482280D01*
X2467866Y1482889D01*
X2466904Y1483429D01*
X2465906Y1483897D01*
X2464875Y1484290D01*
X2463819Y1484609D01*
X2462743Y1484848D01*
X2461652Y1485009D01*
X2460550Y1485090D01*
X2459449Y1485090D01*
X2458347Y1485009D01*
X2457256Y1484848D01*
X2456180Y1484609D01*
X2455124Y1484290D01*
X2454093Y1483897D01*
X2453095Y1483429D01*
X2452133Y1482889D01*
X2451214Y1482280D01*
X2450340Y1481606D01*
X2449519Y1480871D01*
X2448753Y1480077D01*
X2448047Y1479229D01*
X2447407Y1478332D01*
X2446832Y1477390D01*
X2446328Y1476408D01*
X2445896Y1475394D01*
X2445540Y1474349D01*
X2445261Y1473283D01*
X2445060Y1472199D01*
X2444939Y1471102D01*
X2444899Y1470000D01*
X2444939Y1468897D01*
X2445060Y1467800D01*
X2445261Y1466716D01*
X2445540Y1465650D01*
X2445896Y1464605D01*
X2446328Y1463591D01*
X2446832Y1462609D01*
X2447407Y1461667D01*
X2448047Y1460770D01*
X2448753Y1459922D01*
X2449519Y1459128D01*
X2450340Y1458393D01*
X2451214Y1457719D01*
X2452133Y1457110D01*
X2453095Y1456570D01*
X2454093Y1456102D01*
X2455124Y1455709D01*
X2456180Y1455390D01*
X2457256Y1455151D01*
X2458347Y1454991D01*
G37*
G36*
X1539449Y1454909D02*
G01*
X1540550Y1454909D01*
X1541652Y1454991D01*
X1542743Y1455151D01*
X1543819Y1455390D01*
X1544875Y1455709D01*
X1545906Y1456102D01*
X1546904Y1456570D01*
X1547866Y1457110D01*
X1548786Y1457719D01*
X1549659Y1458393D01*
X1550480Y1459128D01*
X1551246Y1459922D01*
X1551952Y1460770D01*
X1552592Y1461667D01*
X1553167Y1462609D01*
X1553671Y1463591D01*
X1554103Y1464605D01*
X1554459Y1465650D01*
X1554738Y1466716D01*
X1554939Y1467800D01*
X1555060Y1468897D01*
X1555100Y1470000D01*
X1555060Y1471102D01*
X1554939Y1472199D01*
X1554738Y1473283D01*
X1554459Y1474349D01*
X1554103Y1475394D01*
X1553671Y1476408D01*
X1553167Y1477390D01*
X1552592Y1478332D01*
X1551952Y1479229D01*
X1551246Y1480077D01*
X1550480Y1480871D01*
X1549659Y1481606D01*
X1548786Y1482280D01*
X1547866Y1482889D01*
X1546904Y1483429D01*
X1545906Y1483897D01*
X1544875Y1484290D01*
X1543819Y1484609D01*
X1542743Y1484848D01*
X1541652Y1485009D01*
X1540550Y1485090D01*
X1539449Y1485090D01*
X1538347Y1485009D01*
X1537256Y1484848D01*
X1536180Y1484609D01*
X1535124Y1484290D01*
X1534093Y1483897D01*
X1533095Y1483429D01*
X1532133Y1482889D01*
X1531214Y1482280D01*
X1530340Y1481606D01*
X1529519Y1480871D01*
X1528753Y1480077D01*
X1528047Y1479229D01*
X1527407Y1478332D01*
X1526832Y1477390D01*
X1526328Y1476408D01*
X1525896Y1475394D01*
X1525540Y1474349D01*
X1525261Y1473283D01*
X1525060Y1472199D01*
X1524939Y1471102D01*
X1524899Y1470000D01*
X1524939Y1468897D01*
X1525060Y1467800D01*
X1525261Y1466716D01*
X1525540Y1465650D01*
X1525896Y1464605D01*
X1526328Y1463591D01*
X1526832Y1462609D01*
X1527407Y1461667D01*
X1528047Y1460770D01*
X1528753Y1459922D01*
X1529519Y1459128D01*
X1530340Y1458393D01*
X1531214Y1457719D01*
X1532133Y1457110D01*
X1533095Y1456570D01*
X1534093Y1456102D01*
X1535124Y1455709D01*
X1536180Y1455390D01*
X1537256Y1455151D01*
X1538347Y1454991D01*
G37*
G36*
X1494449Y1474909D02*
G01*
X1495550Y1474909D01*
X1496652Y1474991D01*
X1497743Y1475151D01*
X1498819Y1475390D01*
X1499875Y1475709D01*
X1500906Y1476102D01*
X1501904Y1476570D01*
X1502866Y1477110D01*
X1503786Y1477719D01*
X1504659Y1478393D01*
X1505480Y1479128D01*
X1506246Y1479922D01*
X1506952Y1480770D01*
X1507592Y1481667D01*
X1508167Y1482609D01*
X1508671Y1483591D01*
X1509103Y1484605D01*
X1509459Y1485650D01*
X1509738Y1486716D01*
X1509939Y1487800D01*
X1510060Y1488897D01*
X1510100Y1490000D01*
X1510060Y1491102D01*
X1509939Y1492199D01*
X1509738Y1493283D01*
X1509459Y1494349D01*
X1509103Y1495394D01*
X1508671Y1496408D01*
X1508167Y1497390D01*
X1507592Y1498332D01*
X1506952Y1499229D01*
X1506246Y1500077D01*
X1505480Y1500871D01*
X1504659Y1501606D01*
X1503786Y1502280D01*
X1502866Y1502889D01*
X1501904Y1503429D01*
X1500906Y1503897D01*
X1499875Y1504290D01*
X1498819Y1504609D01*
X1497743Y1504848D01*
X1496652Y1505009D01*
X1495550Y1505090D01*
X1494449Y1505090D01*
X1493347Y1505009D01*
X1492256Y1504848D01*
X1491180Y1504609D01*
X1490124Y1504290D01*
X1489093Y1503897D01*
X1488095Y1503429D01*
X1487133Y1502889D01*
X1486214Y1502280D01*
X1485340Y1501606D01*
X1484519Y1500871D01*
X1483753Y1500077D01*
X1483047Y1499229D01*
X1482407Y1498332D01*
X1481832Y1497390D01*
X1481328Y1496408D01*
X1480896Y1495394D01*
X1480540Y1494349D01*
X1480261Y1493283D01*
X1480060Y1492199D01*
X1479939Y1491102D01*
X1479899Y1490000D01*
X1479939Y1488897D01*
X1480060Y1487800D01*
X1480261Y1486716D01*
X1480540Y1485650D01*
X1480896Y1484605D01*
X1481328Y1483591D01*
X1481832Y1482609D01*
X1482407Y1481667D01*
X1483047Y1480770D01*
X1483753Y1479922D01*
X1484519Y1479128D01*
X1485340Y1478393D01*
X1486214Y1477719D01*
X1487133Y1477110D01*
X1488095Y1476570D01*
X1489093Y1476102D01*
X1490124Y1475709D01*
X1491180Y1475390D01*
X1492256Y1475151D01*
X1493347Y1474991D01*
G37*
G36*
X2924449Y1639909D02*
G01*
X2925550Y1639909D01*
X2926652Y1639991D01*
X2927743Y1640151D01*
X2928819Y1640390D01*
X2929875Y1640709D01*
X2930906Y1641102D01*
X2931904Y1641570D01*
X2932866Y1642110D01*
X2933786Y1642719D01*
X2934659Y1643393D01*
X2935481Y1644128D01*
X2936246Y1644922D01*
X2936952Y1645770D01*
X2937592Y1646667D01*
X2938167Y1647609D01*
X2938671Y1648591D01*
X2939103Y1649605D01*
X2939459Y1650650D01*
X2939738Y1651716D01*
X2939939Y1652800D01*
X2940060Y1653897D01*
X2940100Y1655000D01*
X2940060Y1656102D01*
X2939939Y1657199D01*
X2939738Y1658283D01*
X2939459Y1659349D01*
X2939103Y1660394D01*
X2938671Y1661408D01*
X2938167Y1662390D01*
X2937592Y1663332D01*
X2936952Y1664229D01*
X2936246Y1665077D01*
X2935481Y1665871D01*
X2934659Y1666606D01*
X2933786Y1667280D01*
X2932866Y1667889D01*
X2931904Y1668429D01*
X2930906Y1668897D01*
X2929875Y1669290D01*
X2928819Y1669609D01*
X2927743Y1669848D01*
X2926652Y1670009D01*
X2925550Y1670090D01*
X2924449Y1670090D01*
X2923347Y1670009D01*
X2922256Y1669848D01*
X2921180Y1669609D01*
X2920124Y1669290D01*
X2919093Y1668897D01*
X2918095Y1668429D01*
X2917133Y1667889D01*
X2916214Y1667280D01*
X2915340Y1666606D01*
X2914519Y1665871D01*
X2913753Y1665077D01*
X2913047Y1664229D01*
X2912407Y1663332D01*
X2911832Y1662390D01*
X2911328Y1661408D01*
X2910896Y1660394D01*
X2910540Y1659349D01*
X2910261Y1658283D01*
X2910060Y1657199D01*
X2909939Y1656102D01*
X2909899Y1655000D01*
X2909939Y1653897D01*
X2910060Y1652800D01*
X2910261Y1651716D01*
X2910540Y1650650D01*
X2910896Y1649605D01*
X2911328Y1648591D01*
X2911832Y1647609D01*
X2912407Y1646667D01*
X2913047Y1645770D01*
X2913753Y1644922D01*
X2914519Y1644128D01*
X2915340Y1643393D01*
X2916214Y1642719D01*
X2917133Y1642110D01*
X2918095Y1641570D01*
X2919093Y1641102D01*
X2920124Y1640709D01*
X2921180Y1640390D01*
X2922256Y1640151D01*
X2923347Y1639991D01*
G37*
G36*
X1744449Y1649909D02*
G01*
X1745550Y1649909D01*
X1746652Y1649991D01*
X1747743Y1650151D01*
X1748819Y1650390D01*
X1749875Y1650709D01*
X1750906Y1651102D01*
X1751904Y1651570D01*
X1752866Y1652110D01*
X1753786Y1652719D01*
X1754659Y1653393D01*
X1755480Y1654128D01*
X1756246Y1654922D01*
X1756952Y1655770D01*
X1757592Y1656667D01*
X1758167Y1657609D01*
X1758671Y1658591D01*
X1759103Y1659605D01*
X1759459Y1660650D01*
X1759738Y1661716D01*
X1759939Y1662800D01*
X1760060Y1663897D01*
X1760100Y1665000D01*
X1760060Y1666102D01*
X1759939Y1667199D01*
X1759738Y1668283D01*
X1759459Y1669349D01*
X1759103Y1670394D01*
X1758671Y1671408D01*
X1758167Y1672390D01*
X1757592Y1673332D01*
X1756952Y1674229D01*
X1756246Y1675077D01*
X1755480Y1675871D01*
X1754659Y1676606D01*
X1753786Y1677280D01*
X1752866Y1677889D01*
X1751904Y1678429D01*
X1750906Y1678897D01*
X1749875Y1679290D01*
X1748819Y1679609D01*
X1747743Y1679848D01*
X1746652Y1680009D01*
X1745550Y1680090D01*
X1744449Y1680090D01*
X1743347Y1680009D01*
X1742256Y1679848D01*
X1741180Y1679609D01*
X1740124Y1679290D01*
X1739093Y1678897D01*
X1738095Y1678429D01*
X1737133Y1677889D01*
X1736214Y1677280D01*
X1735340Y1676606D01*
X1734519Y1675871D01*
X1733753Y1675077D01*
X1733047Y1674229D01*
X1732407Y1673332D01*
X1731832Y1672390D01*
X1731328Y1671408D01*
X1730896Y1670394D01*
X1730540Y1669349D01*
X1730261Y1668283D01*
X1730060Y1667199D01*
X1729939Y1666102D01*
X1729899Y1665000D01*
X1729939Y1663897D01*
X1730060Y1662800D01*
X1730261Y1661716D01*
X1730540Y1660650D01*
X1730896Y1659605D01*
X1731328Y1658591D01*
X1731832Y1657609D01*
X1732407Y1656667D01*
X1733047Y1655770D01*
X1733753Y1654922D01*
X1734519Y1654128D01*
X1735340Y1653393D01*
X1736214Y1652719D01*
X1737133Y1652110D01*
X1738095Y1651570D01*
X1739093Y1651102D01*
X1740124Y1650709D01*
X1741180Y1650390D01*
X1742256Y1650151D01*
X1743347Y1649991D01*
G37*
G36*
X3089449Y1659909D02*
G01*
X3090550Y1659909D01*
X3091652Y1659991D01*
X3092743Y1660151D01*
X3093819Y1660390D01*
X3094875Y1660709D01*
X3095906Y1661102D01*
X3096904Y1661570D01*
X3097866Y1662110D01*
X3098786Y1662719D01*
X3099659Y1663393D01*
X3100481Y1664128D01*
X3101246Y1664922D01*
X3101952Y1665770D01*
X3102592Y1666667D01*
X3103167Y1667609D01*
X3103671Y1668591D01*
X3104103Y1669605D01*
X3104459Y1670650D01*
X3104738Y1671716D01*
X3104939Y1672800D01*
X3105060Y1673897D01*
X3105100Y1675000D01*
X3105060Y1676102D01*
X3104939Y1677199D01*
X3104738Y1678283D01*
X3104459Y1679349D01*
X3104103Y1680394D01*
X3103671Y1681408D01*
X3103167Y1682390D01*
X3102592Y1683332D01*
X3101952Y1684229D01*
X3101246Y1685077D01*
X3100481Y1685871D01*
X3099659Y1686606D01*
X3098786Y1687280D01*
X3097866Y1687889D01*
X3096904Y1688429D01*
X3095906Y1688897D01*
X3094875Y1689290D01*
X3093819Y1689609D01*
X3092743Y1689848D01*
X3091652Y1690009D01*
X3090550Y1690090D01*
X3089449Y1690090D01*
X3088347Y1690009D01*
X3087256Y1689848D01*
X3086180Y1689609D01*
X3085124Y1689290D01*
X3084093Y1688897D01*
X3083095Y1688429D01*
X3082133Y1687889D01*
X3081214Y1687280D01*
X3080340Y1686606D01*
X3079519Y1685871D01*
X3078753Y1685077D01*
X3078047Y1684229D01*
X3077407Y1683332D01*
X3076832Y1682390D01*
X3076328Y1681408D01*
X3075896Y1680394D01*
X3075540Y1679349D01*
X3075261Y1678283D01*
X3075060Y1677199D01*
X3074939Y1676102D01*
X3074899Y1675000D01*
X3074939Y1673897D01*
X3075060Y1672800D01*
X3075261Y1671716D01*
X3075540Y1670650D01*
X3075896Y1669605D01*
X3076328Y1668591D01*
X3076832Y1667609D01*
X3077407Y1666667D01*
X3078047Y1665770D01*
X3078753Y1664922D01*
X3079519Y1664128D01*
X3080340Y1663393D01*
X3081214Y1662719D01*
X3082133Y1662110D01*
X3083095Y1661570D01*
X3084093Y1661102D01*
X3085124Y1660709D01*
X3086180Y1660390D01*
X3087256Y1660151D01*
X3088347Y1659991D01*
G37*
G36*
X1174449Y1664909D02*
G01*
X1175550Y1664909D01*
X1176652Y1664991D01*
X1177743Y1665151D01*
X1178819Y1665390D01*
X1179875Y1665709D01*
X1180906Y1666102D01*
X1181904Y1666570D01*
X1182866Y1667110D01*
X1183786Y1667719D01*
X1184659Y1668393D01*
X1185480Y1669128D01*
X1186246Y1669922D01*
X1186952Y1670770D01*
X1187592Y1671667D01*
X1188167Y1672609D01*
X1188671Y1673591D01*
X1189103Y1674605D01*
X1189459Y1675650D01*
X1189738Y1676716D01*
X1189939Y1677800D01*
X1190060Y1678897D01*
X1190100Y1680000D01*
X1190060Y1681102D01*
X1189939Y1682199D01*
X1189738Y1683283D01*
X1189459Y1684349D01*
X1189103Y1685394D01*
X1188671Y1686408D01*
X1188167Y1687390D01*
X1187592Y1688332D01*
X1186952Y1689229D01*
X1186246Y1690077D01*
X1185480Y1690871D01*
X1184659Y1691606D01*
X1183786Y1692280D01*
X1182866Y1692889D01*
X1181904Y1693429D01*
X1180906Y1693897D01*
X1179875Y1694290D01*
X1178819Y1694609D01*
X1177743Y1694848D01*
X1176652Y1695009D01*
X1175550Y1695090D01*
X1174449Y1695090D01*
X1173347Y1695009D01*
X1172256Y1694848D01*
X1171180Y1694609D01*
X1170124Y1694290D01*
X1169093Y1693897D01*
X1168095Y1693429D01*
X1167133Y1692889D01*
X1166214Y1692280D01*
X1165340Y1691606D01*
X1164519Y1690871D01*
X1163753Y1690077D01*
X1163047Y1689229D01*
X1162407Y1688332D01*
X1161832Y1687390D01*
X1161328Y1686408D01*
X1160896Y1685394D01*
X1160540Y1684349D01*
X1160261Y1683283D01*
X1160060Y1682199D01*
X1159939Y1681102D01*
X1159899Y1680000D01*
X1159939Y1678897D01*
X1160060Y1677800D01*
X1160261Y1676716D01*
X1160540Y1675650D01*
X1160896Y1674605D01*
X1161328Y1673591D01*
X1161832Y1672609D01*
X1162407Y1671667D01*
X1163047Y1670770D01*
X1163753Y1669922D01*
X1164519Y1669128D01*
X1165340Y1668393D01*
X1166214Y1667719D01*
X1167133Y1667110D01*
X1168095Y1666570D01*
X1169093Y1666102D01*
X1170124Y1665709D01*
X1171180Y1665390D01*
X1172256Y1665151D01*
X1173347Y1664991D01*
G37*
G36*
X509175Y1668591D02*
G01*
X509279Y1668607D01*
X510439Y1668811D01*
X510587Y1668841D01*
X511734Y1669103D01*
X511878Y1669140D01*
X513013Y1669459D01*
X513159Y1669504D01*
X514274Y1669879D01*
X514412Y1669929D01*
X515509Y1670360D01*
X515648Y1670417D01*
X516720Y1670902D01*
X516857Y1670967D01*
X517905Y1671505D01*
X518034Y1671577D01*
X519054Y1672166D01*
X519182Y1672242D01*
X520171Y1672881D01*
X520295Y1672966D01*
X521251Y1673654D01*
X521370Y1673744D01*
X522292Y1674477D01*
X522408Y1674576D01*
X523290Y1675356D01*
X523398Y1675455D01*
X524241Y1676278D01*
X524348Y1676386D01*
X525149Y1677249D01*
X525246Y1677361D01*
X526003Y1678263D01*
X526095Y1678379D01*
X526808Y1679317D01*
X526896Y1679441D01*
X527559Y1680414D01*
X527640Y1680540D01*
X528254Y1681545D01*
X528328Y1681671D01*
X528892Y1682705D01*
X528962Y1682842D01*
X529090Y1683108D01*
X509175Y1683108D01*
G37*
G36*
X469805Y1668591D02*
G01*
X469805Y1683108D01*
X449890Y1683108D01*
X450018Y1682842D01*
X450086Y1682705D01*
X450650Y1681671D01*
X450725Y1681545D01*
X451338Y1680540D01*
X451419Y1680414D01*
X452082Y1679441D01*
X452172Y1679317D01*
X452883Y1678379D01*
X452975Y1678263D01*
X453733Y1677361D01*
X453831Y1677249D01*
X454632Y1676386D01*
X454738Y1676278D01*
X455581Y1675455D01*
X455689Y1675356D01*
X456572Y1674576D01*
X456687Y1674477D01*
X457609Y1673744D01*
X457728Y1673654D01*
X458683Y1672966D01*
X458807Y1672881D01*
X459798Y1672242D01*
X459924Y1672166D01*
X460945Y1671577D01*
X461075Y1671505D01*
X462123Y1670967D01*
X462258Y1670902D01*
X463332Y1670417D01*
X463470Y1670360D01*
X464567Y1669929D01*
X464704Y1669879D01*
X465821Y1669504D01*
X465967Y1669459D01*
X467100Y1669140D01*
X467244Y1669103D01*
X468393Y1668841D01*
X468541Y1668811D01*
X469701Y1668607D01*
G37*
G36*
X342636Y1668967D02*
G01*
X343227Y1669103D01*
X343371Y1669140D01*
X344506Y1669459D01*
X344652Y1669504D01*
X345767Y1669879D01*
X345904Y1669929D01*
X347002Y1670360D01*
X347141Y1670417D01*
X348213Y1670902D01*
X348350Y1670967D01*
X349398Y1671505D01*
X349528Y1671577D01*
X350547Y1672166D01*
X350675Y1672242D01*
X351664Y1672881D01*
X351788Y1672966D01*
X352744Y1673654D01*
X352863Y1673744D01*
X353784Y1674477D01*
X353901Y1674576D01*
X354783Y1675356D01*
X354891Y1675455D01*
X355734Y1676278D01*
X355841Y1676386D01*
X356642Y1677249D01*
X356739Y1677361D01*
X357496Y1678263D01*
X357588Y1678379D01*
X358301Y1679317D01*
X358389Y1679441D01*
X359052Y1680414D01*
X359133Y1680540D01*
X359747Y1681545D01*
X359821Y1681671D01*
X360385Y1682705D01*
X360455Y1682842D01*
X360583Y1683108D01*
X342636Y1683108D01*
G37*
G36*
X307202Y1668967D02*
G01*
X307202Y1683108D01*
X289256Y1683108D01*
X289385Y1682842D01*
X289454Y1682705D01*
X290018Y1681671D01*
X290091Y1681545D01*
X290706Y1680540D01*
X290787Y1680414D01*
X291449Y1679441D01*
X291538Y1679317D01*
X292251Y1678379D01*
X292343Y1678263D01*
X293099Y1677361D01*
X293198Y1677249D01*
X293998Y1676386D01*
X294104Y1676278D01*
X294947Y1675455D01*
X295055Y1675356D01*
X295938Y1674576D01*
X296055Y1674477D01*
X296975Y1673744D01*
X297094Y1673654D01*
X298051Y1672966D01*
X298175Y1672881D01*
X299164Y1672242D01*
X299292Y1672166D01*
X300311Y1671577D01*
X300441Y1671505D01*
X301489Y1670967D01*
X301626Y1670902D01*
X302698Y1670417D01*
X302838Y1670360D01*
X303935Y1669929D01*
X304072Y1669879D01*
X305187Y1669504D01*
X305333Y1669459D01*
X306467Y1669140D01*
X306612Y1669103D01*
G37*
G36*
X2414449Y1669909D02*
G01*
X2415550Y1669909D01*
X2416652Y1669991D01*
X2417743Y1670151D01*
X2418819Y1670390D01*
X2419875Y1670709D01*
X2420906Y1671102D01*
X2421904Y1671570D01*
X2422866Y1672110D01*
X2423786Y1672719D01*
X2424659Y1673393D01*
X2425481Y1674128D01*
X2426246Y1674922D01*
X2426952Y1675770D01*
X2427592Y1676667D01*
X2428167Y1677609D01*
X2428671Y1678591D01*
X2429103Y1679605D01*
X2429459Y1680650D01*
X2429738Y1681716D01*
X2429939Y1682800D01*
X2430060Y1683897D01*
X2430100Y1685000D01*
X2430060Y1686102D01*
X2429939Y1687199D01*
X2429738Y1688283D01*
X2429459Y1689349D01*
X2429103Y1690394D01*
X2428671Y1691408D01*
X2428167Y1692390D01*
X2427592Y1693332D01*
X2426952Y1694229D01*
X2426246Y1695077D01*
X2425481Y1695871D01*
X2424659Y1696606D01*
X2423786Y1697280D01*
X2422866Y1697889D01*
X2421904Y1698429D01*
X2420906Y1698897D01*
X2419875Y1699290D01*
X2418819Y1699609D01*
X2417743Y1699848D01*
X2416652Y1700009D01*
X2415550Y1700090D01*
X2414449Y1700090D01*
X2413347Y1700009D01*
X2412256Y1699848D01*
X2411180Y1699609D01*
X2410124Y1699290D01*
X2409093Y1698897D01*
X2408095Y1698429D01*
X2407133Y1697889D01*
X2406214Y1697280D01*
X2405340Y1696606D01*
X2404519Y1695871D01*
X2403753Y1695077D01*
X2403047Y1694229D01*
X2402407Y1693332D01*
X2401832Y1692390D01*
X2401328Y1691408D01*
X2400896Y1690394D01*
X2400540Y1689349D01*
X2400261Y1688283D01*
X2400060Y1687199D01*
X2399939Y1686102D01*
X2399899Y1685000D01*
X2399939Y1683897D01*
X2400060Y1682800D01*
X2400261Y1681716D01*
X2400540Y1680650D01*
X2400896Y1679605D01*
X2401328Y1678591D01*
X2401832Y1677609D01*
X2402407Y1676667D01*
X2403047Y1675770D01*
X2403753Y1674922D01*
X2404519Y1674128D01*
X2405340Y1673393D01*
X2406214Y1672719D01*
X2407133Y1672110D01*
X2408095Y1671570D01*
X2409093Y1671102D01*
X2410124Y1670709D01*
X2411180Y1670390D01*
X2412256Y1670151D01*
X2413347Y1669991D01*
G37*
G36*
X1119449Y1704909D02*
G01*
X1120550Y1704909D01*
X1121652Y1704991D01*
X1122743Y1705151D01*
X1123819Y1705390D01*
X1124875Y1705709D01*
X1125906Y1706102D01*
X1126904Y1706570D01*
X1127866Y1707110D01*
X1128786Y1707719D01*
X1129659Y1708393D01*
X1130480Y1709128D01*
X1131246Y1709922D01*
X1131952Y1710770D01*
X1132592Y1711667D01*
X1133167Y1712609D01*
X1133671Y1713591D01*
X1134103Y1714605D01*
X1134459Y1715650D01*
X1134738Y1716716D01*
X1134939Y1717800D01*
X1135060Y1718897D01*
X1135100Y1720000D01*
X1135060Y1721102D01*
X1134939Y1722199D01*
X1134738Y1723283D01*
X1134459Y1724349D01*
X1134103Y1725394D01*
X1133671Y1726408D01*
X1133167Y1727390D01*
X1132592Y1728332D01*
X1131952Y1729229D01*
X1131246Y1730077D01*
X1130480Y1730871D01*
X1129659Y1731606D01*
X1128786Y1732280D01*
X1127866Y1732889D01*
X1126904Y1733429D01*
X1125906Y1733897D01*
X1124875Y1734290D01*
X1123819Y1734609D01*
X1122743Y1734848D01*
X1121652Y1735009D01*
X1120550Y1735090D01*
X1119449Y1735090D01*
X1118347Y1735009D01*
X1117256Y1734848D01*
X1116180Y1734609D01*
X1115124Y1734290D01*
X1114093Y1733897D01*
X1113095Y1733429D01*
X1112133Y1732889D01*
X1111214Y1732280D01*
X1110340Y1731606D01*
X1109519Y1730871D01*
X1108753Y1730077D01*
X1108047Y1729229D01*
X1107407Y1728332D01*
X1106832Y1727390D01*
X1106328Y1726408D01*
X1105896Y1725394D01*
X1105540Y1724349D01*
X1105261Y1723283D01*
X1105060Y1722199D01*
X1104939Y1721102D01*
X1104899Y1720000D01*
X1104939Y1718897D01*
X1105060Y1717800D01*
X1105261Y1716716D01*
X1105540Y1715650D01*
X1105896Y1714605D01*
X1106328Y1713591D01*
X1106832Y1712609D01*
X1107407Y1711667D01*
X1108047Y1710770D01*
X1108753Y1709922D01*
X1109519Y1709128D01*
X1110340Y1708393D01*
X1111214Y1707719D01*
X1112133Y1707110D01*
X1113095Y1706570D01*
X1114093Y1706102D01*
X1115124Y1705709D01*
X1116180Y1705390D01*
X1117256Y1705151D01*
X1118347Y1704991D01*
G37*
G36*
X509175Y1706730D02*
G01*
X529090Y1706730D01*
X528962Y1706997D01*
X528892Y1707134D01*
X528328Y1708168D01*
X528254Y1708294D01*
X527640Y1709299D01*
X527559Y1709425D01*
X526896Y1710398D01*
X526808Y1710522D01*
X526095Y1711460D01*
X526003Y1711577D01*
X525246Y1712478D01*
X525149Y1712590D01*
X524348Y1713454D01*
X524241Y1713562D01*
X523398Y1714384D01*
X523290Y1714484D01*
X522408Y1715264D01*
X522292Y1715362D01*
X521370Y1716095D01*
X521251Y1716185D01*
X520295Y1716873D01*
X520171Y1716957D01*
X519182Y1717597D01*
X519054Y1717674D01*
X518034Y1718263D01*
X517905Y1718333D01*
X516857Y1718872D01*
X516720Y1718937D01*
X515648Y1719421D01*
X515509Y1719479D01*
X514412Y1719909D01*
X514274Y1719960D01*
X513159Y1720336D01*
X513013Y1720381D01*
X511878Y1720700D01*
X511734Y1720736D01*
X510587Y1720999D01*
X510439Y1721028D01*
X509279Y1721233D01*
X509175Y1721248D01*
G37*
G36*
X449890Y1706730D02*
G01*
X469805Y1706730D01*
X469805Y1721248D01*
X469701Y1721233D01*
X468541Y1721028D01*
X468393Y1720999D01*
X467244Y1720736D01*
X467100Y1720700D01*
X465967Y1720381D01*
X465821Y1720336D01*
X464704Y1719960D01*
X464567Y1719909D01*
X463470Y1719479D01*
X463332Y1719421D01*
X462258Y1718937D01*
X462123Y1718872D01*
X461075Y1718333D01*
X460945Y1718263D01*
X459924Y1717674D01*
X459798Y1717597D01*
X458807Y1716957D01*
X458683Y1716873D01*
X457728Y1716185D01*
X457609Y1716095D01*
X456687Y1715362D01*
X456572Y1715264D01*
X455689Y1714484D01*
X455581Y1714384D01*
X454738Y1713562D01*
X454632Y1713454D01*
X453831Y1712590D01*
X453733Y1712478D01*
X452975Y1711577D01*
X452883Y1711460D01*
X452172Y1710522D01*
X452082Y1710398D01*
X451419Y1709425D01*
X451338Y1709299D01*
X450725Y1708294D01*
X450650Y1708168D01*
X450086Y1707134D01*
X450018Y1706997D01*
G37*
G36*
X342636Y1706730D02*
G01*
X360583Y1706730D01*
X360455Y1706997D01*
X360385Y1707134D01*
X359821Y1708168D01*
X359747Y1708294D01*
X359133Y1709299D01*
X359052Y1709425D01*
X358389Y1710398D01*
X358301Y1710522D01*
X357588Y1711460D01*
X357496Y1711577D01*
X356739Y1712478D01*
X356642Y1712590D01*
X355841Y1713454D01*
X355734Y1713562D01*
X354891Y1714384D01*
X354783Y1714484D01*
X353901Y1715264D01*
X353784Y1715362D01*
X352863Y1716095D01*
X352744Y1716185D01*
X351788Y1716873D01*
X351664Y1716957D01*
X350675Y1717597D01*
X350547Y1717674D01*
X349528Y1718263D01*
X349398Y1718333D01*
X348350Y1718872D01*
X348213Y1718937D01*
X347141Y1719421D01*
X347002Y1719479D01*
X345904Y1719909D01*
X345767Y1719960D01*
X344652Y1720336D01*
X344506Y1720381D01*
X343371Y1720700D01*
X343227Y1720736D01*
X342636Y1720871D01*
G37*
G36*
X289256Y1706730D02*
G01*
X307202Y1706730D01*
X307202Y1720871D01*
X306612Y1720736D01*
X306467Y1720700D01*
X305333Y1720381D01*
X305187Y1720336D01*
X304072Y1719960D01*
X303935Y1719909D01*
X302838Y1719479D01*
X302698Y1719421D01*
X301626Y1718937D01*
X301489Y1718872D01*
X300441Y1718333D01*
X300311Y1718263D01*
X299292Y1717674D01*
X299164Y1717597D01*
X298175Y1716957D01*
X298051Y1716873D01*
X297094Y1716185D01*
X296975Y1716095D01*
X296055Y1715362D01*
X295938Y1715264D01*
X295055Y1714484D01*
X294947Y1714384D01*
X294104Y1713562D01*
X293998Y1713454D01*
X293198Y1712590D01*
X293099Y1712478D01*
X292343Y1711577D01*
X292251Y1711460D01*
X291538Y1710522D01*
X291449Y1710398D01*
X290787Y1709425D01*
X290706Y1709299D01*
X290091Y1708294D01*
X290018Y1708168D01*
X289454Y1707134D01*
X289385Y1706997D01*
G37*
G36*
X468328Y1734342D02*
G01*
X469493Y1734362D01*
X470655Y1734463D01*
X471806Y1734643D01*
X472941Y1734902D01*
X474056Y1735239D01*
X475147Y1735653D01*
X476204Y1736140D01*
X477228Y1736700D01*
X478209Y1737328D01*
X479144Y1738022D01*
X480030Y1738780D01*
X480860Y1739596D01*
X481633Y1740468D01*
X482343Y1741392D01*
X482989Y1742363D01*
X483566Y1743375D01*
X484072Y1744425D01*
X484504Y1745507D01*
X484859Y1746617D01*
X485138Y1747748D01*
X485338Y1748895D01*
X485459Y1750055D01*
X485500Y1751219D01*
X485459Y1752384D01*
X485338Y1753544D01*
X485138Y1754692D01*
X484859Y1755823D01*
X484504Y1756932D01*
X484072Y1758015D01*
X483566Y1759065D01*
X482989Y1760077D01*
X482343Y1761046D01*
X481633Y1761970D01*
X480860Y1762842D01*
X480030Y1763659D01*
X479144Y1764416D01*
X478209Y1765111D01*
X477228Y1765740D01*
X476204Y1766300D01*
X475147Y1766786D01*
X474056Y1767199D01*
X472941Y1767537D01*
X471806Y1767797D01*
X470655Y1767977D01*
X469493Y1768076D01*
X468328Y1768096D01*
X467164Y1768036D01*
X466008Y1767896D01*
X464863Y1767676D01*
X463737Y1767377D01*
X462633Y1767002D01*
X461559Y1766552D01*
X460518Y1766028D01*
X459515Y1765435D01*
X458557Y1764773D01*
X457645Y1764045D01*
X456786Y1763258D01*
X455985Y1762413D01*
X455243Y1761514D01*
X454564Y1760567D01*
X453953Y1759576D01*
X453411Y1758544D01*
X452943Y1757476D01*
X452548Y1756381D01*
X452231Y1755259D01*
X451990Y1754119D01*
X451829Y1752964D01*
X451750Y1751803D01*
X451750Y1750637D01*
X451829Y1749475D01*
X451990Y1748321D01*
X452231Y1747179D01*
X452548Y1746059D01*
X452943Y1744962D01*
X453411Y1743895D01*
X453953Y1742863D01*
X454564Y1741871D01*
X455243Y1740925D01*
X455985Y1740025D01*
X456786Y1739180D01*
X457645Y1738393D01*
X458557Y1737667D01*
X459515Y1737004D01*
X460518Y1736410D01*
X461559Y1735886D01*
X462633Y1735437D01*
X463737Y1735061D01*
X464863Y1734762D01*
X466008Y1734542D01*
X467164Y1734403D01*
G37*
G36*
X1114449Y1747330D02*
G01*
X1115550Y1747330D01*
X1116652Y1747411D01*
X1117743Y1747570D01*
X1118819Y1747811D01*
X1119875Y1748128D01*
X1120906Y1748523D01*
X1121904Y1748991D01*
X1122866Y1749531D01*
X1123786Y1750138D01*
X1124659Y1750812D01*
X1125480Y1751549D01*
X1126246Y1752343D01*
X1126952Y1753191D01*
X1127592Y1754088D01*
X1128167Y1755030D01*
X1128671Y1756010D01*
X1129103Y1757026D01*
X1129459Y1758069D01*
X1129738Y1759137D01*
X1129939Y1760221D01*
X1130060Y1761318D01*
X1130100Y1762420D01*
X1130060Y1763521D01*
X1129939Y1764618D01*
X1129738Y1765702D01*
X1129459Y1766770D01*
X1129103Y1767813D01*
X1128671Y1768829D01*
X1128167Y1769810D01*
X1127592Y1770752D01*
X1126952Y1771649D01*
X1126246Y1772496D01*
X1125480Y1773290D01*
X1124659Y1774027D01*
X1123786Y1774701D01*
X1122866Y1775309D01*
X1121904Y1775848D01*
X1120906Y1776316D01*
X1119875Y1776711D01*
X1118819Y1777029D01*
X1117743Y1777269D01*
X1116652Y1777429D01*
X1115550Y1777510D01*
X1114449Y1777510D01*
X1113347Y1777429D01*
X1112256Y1777269D01*
X1111180Y1777029D01*
X1110124Y1776711D01*
X1109093Y1776316D01*
X1108095Y1775848D01*
X1107133Y1775309D01*
X1106214Y1774701D01*
X1105340Y1774027D01*
X1104519Y1773290D01*
X1103753Y1772496D01*
X1103047Y1771649D01*
X1102407Y1770752D01*
X1101832Y1769810D01*
X1101328Y1768829D01*
X1100896Y1767813D01*
X1100540Y1766770D01*
X1100261Y1765702D01*
X1100060Y1764618D01*
X1099939Y1763521D01*
X1099899Y1762420D01*
X1099939Y1761318D01*
X1100060Y1760221D01*
X1100261Y1759137D01*
X1100540Y1758069D01*
X1100896Y1757026D01*
X1101328Y1756010D01*
X1101832Y1755030D01*
X1102407Y1754088D01*
X1103047Y1753191D01*
X1103753Y1752343D01*
X1104519Y1751549D01*
X1105340Y1750812D01*
X1106214Y1750138D01*
X1107133Y1749531D01*
X1108095Y1748991D01*
X1109093Y1748523D01*
X1110124Y1748128D01*
X1111180Y1747811D01*
X1112256Y1747570D01*
X1113347Y1747411D01*
G37*
G36*
X574448Y1749909D02*
G01*
X575551Y1749909D01*
X576651Y1749991D01*
X577743Y1750151D01*
X578818Y1750390D01*
X579875Y1750709D01*
X580906Y1751102D01*
X581903Y1751570D01*
X582865Y1752110D01*
X583786Y1752719D01*
X584659Y1753393D01*
X585480Y1754128D01*
X586246Y1754922D01*
X586952Y1755770D01*
X587593Y1756667D01*
X588168Y1757609D01*
X588672Y1758591D01*
X589104Y1759605D01*
X589459Y1760650D01*
X589738Y1761716D01*
X589938Y1762800D01*
X590059Y1763897D01*
X590100Y1765000D01*
X590059Y1766102D01*
X589938Y1767199D01*
X589738Y1768283D01*
X589459Y1769349D01*
X589104Y1770394D01*
X588672Y1771408D01*
X588168Y1772390D01*
X587593Y1773332D01*
X586952Y1774229D01*
X586246Y1775077D01*
X585480Y1775871D01*
X584659Y1776606D01*
X583786Y1777280D01*
X582865Y1777889D01*
X581903Y1778429D01*
X580906Y1778897D01*
X579875Y1779290D01*
X578818Y1779609D01*
X577743Y1779848D01*
X576651Y1780009D01*
X575551Y1780090D01*
X574448Y1780090D01*
X573348Y1780009D01*
X572256Y1779848D01*
X571181Y1779609D01*
X570124Y1779290D01*
X569094Y1778897D01*
X568096Y1778429D01*
X567134Y1777889D01*
X566214Y1777280D01*
X565340Y1776606D01*
X564519Y1775871D01*
X563753Y1775077D01*
X563047Y1774229D01*
X562406Y1773332D01*
X561831Y1772390D01*
X561327Y1771408D01*
X560895Y1770394D01*
X560540Y1769349D01*
X560261Y1768283D01*
X560061Y1767199D01*
X559940Y1766102D01*
X559899Y1765000D01*
X559940Y1763897D01*
X560061Y1762800D01*
X560261Y1761716D01*
X560540Y1760650D01*
X560895Y1759605D01*
X561327Y1758591D01*
X561831Y1757609D01*
X562406Y1756667D01*
X563047Y1755770D01*
X563753Y1754922D01*
X564519Y1754128D01*
X565340Y1753393D01*
X566214Y1752719D01*
X567134Y1752110D01*
X568096Y1751570D01*
X569094Y1751102D01*
X570124Y1750709D01*
X571181Y1750390D01*
X572256Y1750151D01*
X573348Y1749991D01*
G37*
G36*
X1254449Y1774909D02*
G01*
X1255550Y1774909D01*
X1256652Y1774991D01*
X1257743Y1775151D01*
X1258819Y1775390D01*
X1259875Y1775709D01*
X1260906Y1776102D01*
X1261904Y1776570D01*
X1262866Y1777110D01*
X1263786Y1777719D01*
X1264659Y1778393D01*
X1265480Y1779128D01*
X1266246Y1779922D01*
X1266952Y1780770D01*
X1267592Y1781667D01*
X1268167Y1782609D01*
X1268671Y1783591D01*
X1269103Y1784605D01*
X1269459Y1785650D01*
X1269738Y1786716D01*
X1269939Y1787800D01*
X1270060Y1788897D01*
X1270100Y1790000D01*
X1270060Y1791102D01*
X1269939Y1792199D01*
X1269738Y1793283D01*
X1269459Y1794349D01*
X1269103Y1795394D01*
X1268671Y1796408D01*
X1268167Y1797390D01*
X1267592Y1798332D01*
X1266952Y1799229D01*
X1266246Y1800077D01*
X1265480Y1800871D01*
X1264659Y1801606D01*
X1263786Y1802280D01*
X1262866Y1802889D01*
X1261904Y1803429D01*
X1260906Y1803897D01*
X1259875Y1804290D01*
X1258819Y1804609D01*
X1257743Y1804848D01*
X1256652Y1805009D01*
X1255550Y1805090D01*
X1254449Y1805090D01*
X1253347Y1805009D01*
X1252256Y1804848D01*
X1251180Y1804609D01*
X1250124Y1804290D01*
X1249093Y1803897D01*
X1248095Y1803429D01*
X1247133Y1802889D01*
X1246214Y1802280D01*
X1245340Y1801606D01*
X1244519Y1800871D01*
X1243753Y1800077D01*
X1243047Y1799229D01*
X1242407Y1798332D01*
X1241832Y1797390D01*
X1241328Y1796408D01*
X1240896Y1795394D01*
X1240540Y1794349D01*
X1240261Y1793283D01*
X1240060Y1792199D01*
X1239939Y1791102D01*
X1239899Y1790000D01*
X1239939Y1788897D01*
X1240060Y1787800D01*
X1240261Y1786716D01*
X1240540Y1785650D01*
X1240896Y1784605D01*
X1241328Y1783591D01*
X1241832Y1782609D01*
X1242407Y1781667D01*
X1243047Y1780770D01*
X1243753Y1779922D01*
X1244519Y1779128D01*
X1245340Y1778393D01*
X1246214Y1777719D01*
X1247133Y1777110D01*
X1248095Y1776570D01*
X1249093Y1776102D01*
X1250124Y1775709D01*
X1251180Y1775390D01*
X1252256Y1775151D01*
X1253347Y1774991D01*
G37*
G36*
X2674449Y1779909D02*
G01*
X2675550Y1779909D01*
X2676652Y1779991D01*
X2677743Y1780151D01*
X2678819Y1780390D01*
X2679875Y1780709D01*
X2680906Y1781102D01*
X2681904Y1781570D01*
X2682866Y1782110D01*
X2683786Y1782719D01*
X2684659Y1783393D01*
X2685481Y1784128D01*
X2686246Y1784922D01*
X2686952Y1785770D01*
X2687592Y1786667D01*
X2688167Y1787609D01*
X2688671Y1788591D01*
X2689103Y1789605D01*
X2689459Y1790650D01*
X2689738Y1791716D01*
X2689939Y1792800D01*
X2690060Y1793897D01*
X2690100Y1795000D01*
X2690060Y1796102D01*
X2689939Y1797199D01*
X2689738Y1798283D01*
X2689459Y1799349D01*
X2689103Y1800394D01*
X2688671Y1801408D01*
X2688167Y1802390D01*
X2687592Y1803332D01*
X2686952Y1804229D01*
X2686246Y1805077D01*
X2685481Y1805871D01*
X2684659Y1806606D01*
X2683786Y1807280D01*
X2682866Y1807889D01*
X2681904Y1808429D01*
X2680906Y1808897D01*
X2679875Y1809290D01*
X2678819Y1809609D01*
X2677743Y1809848D01*
X2676652Y1810009D01*
X2675550Y1810090D01*
X2674449Y1810090D01*
X2673347Y1810009D01*
X2672256Y1809848D01*
X2671180Y1809609D01*
X2670124Y1809290D01*
X2669093Y1808897D01*
X2668095Y1808429D01*
X2667133Y1807889D01*
X2666214Y1807280D01*
X2665340Y1806606D01*
X2664519Y1805871D01*
X2663753Y1805077D01*
X2663047Y1804229D01*
X2662407Y1803332D01*
X2661832Y1802390D01*
X2661328Y1801408D01*
X2660896Y1800394D01*
X2660540Y1799349D01*
X2660261Y1798283D01*
X2660060Y1797199D01*
X2659939Y1796102D01*
X2659899Y1795000D01*
X2659939Y1793897D01*
X2660060Y1792800D01*
X2660261Y1791716D01*
X2660540Y1790650D01*
X2660896Y1789605D01*
X2661328Y1788591D01*
X2661832Y1787609D01*
X2662407Y1786667D01*
X2663047Y1785770D01*
X2663753Y1784922D01*
X2664519Y1784128D01*
X2665340Y1783393D01*
X2666214Y1782719D01*
X2667133Y1782110D01*
X2668095Y1781570D01*
X2669093Y1781102D01*
X2670124Y1780709D01*
X2671180Y1780390D01*
X2672256Y1780151D01*
X2673347Y1779991D01*
G37*
G36*
X2544449Y1781170D02*
G01*
X2545550Y1781170D01*
X2546652Y1781251D01*
X2547743Y1781410D01*
X2548819Y1781651D01*
X2549875Y1781968D01*
X2550906Y1782363D01*
X2551904Y1782831D01*
X2552866Y1783371D01*
X2553786Y1783978D01*
X2554659Y1784652D01*
X2555481Y1785389D01*
X2556246Y1786183D01*
X2556952Y1787031D01*
X2557592Y1787928D01*
X2558167Y1788870D01*
X2558671Y1789850D01*
X2559103Y1790866D01*
X2559459Y1791909D01*
X2559738Y1792977D01*
X2559939Y1794061D01*
X2560060Y1795158D01*
X2560100Y1796260D01*
X2560060Y1797361D01*
X2559939Y1798458D01*
X2559738Y1799542D01*
X2559459Y1800610D01*
X2559103Y1801653D01*
X2558671Y1802669D01*
X2558167Y1803649D01*
X2557592Y1804591D01*
X2556952Y1805488D01*
X2556246Y1806336D01*
X2555481Y1807130D01*
X2554659Y1807867D01*
X2553786Y1808541D01*
X2552866Y1809149D01*
X2551904Y1809688D01*
X2550906Y1810156D01*
X2549875Y1810551D01*
X2548819Y1810868D01*
X2547743Y1811109D01*
X2546652Y1811269D01*
X2545550Y1811350D01*
X2544449Y1811350D01*
X2543347Y1811269D01*
X2542256Y1811109D01*
X2541180Y1810868D01*
X2540124Y1810551D01*
X2539093Y1810156D01*
X2538095Y1809688D01*
X2537133Y1809149D01*
X2536214Y1808541D01*
X2535340Y1807867D01*
X2534519Y1807130D01*
X2533753Y1806336D01*
X2533047Y1805488D01*
X2532407Y1804591D01*
X2531832Y1803649D01*
X2531328Y1802669D01*
X2530896Y1801653D01*
X2530540Y1800610D01*
X2530261Y1799542D01*
X2530060Y1798458D01*
X2529939Y1797361D01*
X2529899Y1796260D01*
X2529939Y1795158D01*
X2530060Y1794061D01*
X2530261Y1792977D01*
X2530540Y1791909D01*
X2530896Y1790866D01*
X2531328Y1789850D01*
X2531832Y1788870D01*
X2532407Y1787928D01*
X2533047Y1787031D01*
X2533753Y1786183D01*
X2534519Y1785389D01*
X2535340Y1784652D01*
X2536214Y1783978D01*
X2537133Y1783371D01*
X2538095Y1782831D01*
X2539093Y1782363D01*
X2540124Y1781968D01*
X2541180Y1781651D01*
X2542256Y1781410D01*
X2543347Y1781251D01*
G37*
G36*
X1194449Y1809909D02*
G01*
X1195550Y1809909D01*
X1196652Y1809991D01*
X1197743Y1810151D01*
X1198819Y1810390D01*
X1199875Y1810709D01*
X1200906Y1811102D01*
X1201904Y1811570D01*
X1202866Y1812110D01*
X1203786Y1812719D01*
X1204659Y1813393D01*
X1205480Y1814128D01*
X1206246Y1814922D01*
X1206952Y1815770D01*
X1207592Y1816667D01*
X1208167Y1817609D01*
X1208671Y1818591D01*
X1209103Y1819605D01*
X1209459Y1820650D01*
X1209738Y1821716D01*
X1209939Y1822800D01*
X1210060Y1823897D01*
X1210100Y1825000D01*
X1210060Y1826102D01*
X1209939Y1827199D01*
X1209738Y1828283D01*
X1209459Y1829349D01*
X1209103Y1830394D01*
X1208671Y1831408D01*
X1208167Y1832390D01*
X1207592Y1833332D01*
X1206952Y1834229D01*
X1206246Y1835077D01*
X1205480Y1835871D01*
X1204659Y1836606D01*
X1203786Y1837280D01*
X1202866Y1837889D01*
X1201904Y1838429D01*
X1200906Y1838897D01*
X1199875Y1839290D01*
X1198819Y1839609D01*
X1197743Y1839848D01*
X1196652Y1840009D01*
X1195550Y1840090D01*
X1194449Y1840090D01*
X1193347Y1840009D01*
X1192256Y1839848D01*
X1191180Y1839609D01*
X1190124Y1839290D01*
X1189093Y1838897D01*
X1188095Y1838429D01*
X1187133Y1837889D01*
X1186214Y1837280D01*
X1185340Y1836606D01*
X1184519Y1835871D01*
X1183753Y1835077D01*
X1183047Y1834229D01*
X1182407Y1833332D01*
X1181832Y1832390D01*
X1181328Y1831408D01*
X1180896Y1830394D01*
X1180540Y1829349D01*
X1180261Y1828283D01*
X1180060Y1827199D01*
X1179939Y1826102D01*
X1179899Y1825000D01*
X1179939Y1823897D01*
X1180060Y1822800D01*
X1180261Y1821716D01*
X1180540Y1820650D01*
X1180896Y1819605D01*
X1181328Y1818591D01*
X1181832Y1817609D01*
X1182407Y1816667D01*
X1183047Y1815770D01*
X1183753Y1814922D01*
X1184519Y1814128D01*
X1185340Y1813393D01*
X1186214Y1812719D01*
X1187133Y1812110D01*
X1188095Y1811570D01*
X1189093Y1811102D01*
X1190124Y1810709D01*
X1191180Y1810390D01*
X1192256Y1810151D01*
X1193347Y1809991D01*
G37*
G36*
X2199449Y1809909D02*
G01*
X2200550Y1809909D01*
X2201652Y1809991D01*
X2202743Y1810151D01*
X2203819Y1810390D01*
X2204875Y1810709D01*
X2205906Y1811102D01*
X2206904Y1811570D01*
X2207866Y1812110D01*
X2208786Y1812719D01*
X2209659Y1813393D01*
X2210481Y1814128D01*
X2211246Y1814922D01*
X2211952Y1815770D01*
X2212592Y1816667D01*
X2213167Y1817609D01*
X2213671Y1818591D01*
X2214103Y1819605D01*
X2214459Y1820650D01*
X2214738Y1821716D01*
X2214939Y1822800D01*
X2215060Y1823897D01*
X2215100Y1825000D01*
X2215060Y1826102D01*
X2214939Y1827199D01*
X2214738Y1828283D01*
X2214459Y1829349D01*
X2214103Y1830394D01*
X2213671Y1831408D01*
X2213167Y1832390D01*
X2212592Y1833332D01*
X2211952Y1834229D01*
X2211246Y1835077D01*
X2210481Y1835871D01*
X2209659Y1836606D01*
X2208786Y1837280D01*
X2207866Y1837889D01*
X2206904Y1838429D01*
X2205906Y1838897D01*
X2204875Y1839290D01*
X2203819Y1839609D01*
X2202743Y1839848D01*
X2201652Y1840009D01*
X2200550Y1840090D01*
X2199449Y1840090D01*
X2198347Y1840009D01*
X2197256Y1839848D01*
X2196180Y1839609D01*
X2195124Y1839290D01*
X2194093Y1838897D01*
X2193095Y1838429D01*
X2192133Y1837889D01*
X2191214Y1837280D01*
X2190340Y1836606D01*
X2189519Y1835871D01*
X2188753Y1835077D01*
X2188047Y1834229D01*
X2187407Y1833332D01*
X2186832Y1832390D01*
X2186328Y1831408D01*
X2185896Y1830394D01*
X2185540Y1829349D01*
X2185261Y1828283D01*
X2185060Y1827199D01*
X2184939Y1826102D01*
X2184899Y1825000D01*
X2184939Y1823897D01*
X2185060Y1822800D01*
X2185261Y1821716D01*
X2185540Y1820650D01*
X2185896Y1819605D01*
X2186328Y1818591D01*
X2186832Y1817609D01*
X2187407Y1816667D01*
X2188047Y1815770D01*
X2188753Y1814922D01*
X2189519Y1814128D01*
X2190340Y1813393D01*
X2191214Y1812719D01*
X2192133Y1812110D01*
X2193095Y1811570D01*
X2194093Y1811102D01*
X2195124Y1810709D01*
X2196180Y1810390D01*
X2197256Y1810151D01*
X2198347Y1809991D01*
G37*
G36*
X1964449Y1814909D02*
G01*
X1965550Y1814909D01*
X1966652Y1814991D01*
X1967743Y1815151D01*
X1968819Y1815390D01*
X1969875Y1815709D01*
X1970906Y1816102D01*
X1971904Y1816570D01*
X1972866Y1817110D01*
X1973786Y1817719D01*
X1974659Y1818393D01*
X1975480Y1819128D01*
X1976246Y1819922D01*
X1976952Y1820770D01*
X1977592Y1821667D01*
X1978167Y1822609D01*
X1978671Y1823591D01*
X1979103Y1824605D01*
X1979459Y1825650D01*
X1979738Y1826716D01*
X1979939Y1827800D01*
X1980060Y1828897D01*
X1980100Y1830000D01*
X1980060Y1831102D01*
X1979939Y1832199D01*
X1979738Y1833283D01*
X1979459Y1834349D01*
X1979103Y1835394D01*
X1978671Y1836408D01*
X1978167Y1837390D01*
X1977592Y1838332D01*
X1976952Y1839229D01*
X1976246Y1840077D01*
X1975480Y1840871D01*
X1974659Y1841606D01*
X1973786Y1842280D01*
X1972866Y1842889D01*
X1971904Y1843429D01*
X1970906Y1843897D01*
X1969875Y1844290D01*
X1968819Y1844609D01*
X1967743Y1844848D01*
X1966652Y1845009D01*
X1965550Y1845090D01*
X1964449Y1845090D01*
X1963347Y1845009D01*
X1962256Y1844848D01*
X1961180Y1844609D01*
X1960124Y1844290D01*
X1959093Y1843897D01*
X1958095Y1843429D01*
X1957133Y1842889D01*
X1956214Y1842280D01*
X1955340Y1841606D01*
X1954519Y1840871D01*
X1953753Y1840077D01*
X1953047Y1839229D01*
X1952407Y1838332D01*
X1951832Y1837390D01*
X1951328Y1836408D01*
X1950896Y1835394D01*
X1950540Y1834349D01*
X1950261Y1833283D01*
X1950060Y1832199D01*
X1949939Y1831102D01*
X1949899Y1830000D01*
X1949939Y1828897D01*
X1950060Y1827800D01*
X1950261Y1826716D01*
X1950540Y1825650D01*
X1950896Y1824605D01*
X1951328Y1823591D01*
X1951832Y1822609D01*
X1952407Y1821667D01*
X1953047Y1820770D01*
X1953753Y1819922D01*
X1954519Y1819128D01*
X1955340Y1818393D01*
X1956214Y1817719D01*
X1957133Y1817110D01*
X1958095Y1816570D01*
X1959093Y1816102D01*
X1960124Y1815709D01*
X1961180Y1815390D01*
X1962256Y1815151D01*
X1963347Y1814991D01*
G37*
G36*
X1079449Y1819909D02*
G01*
X1080550Y1819909D01*
X1081652Y1819991D01*
X1082743Y1820151D01*
X1083819Y1820390D01*
X1084875Y1820709D01*
X1085906Y1821102D01*
X1086904Y1821570D01*
X1087866Y1822110D01*
X1088786Y1822719D01*
X1089659Y1823393D01*
X1090480Y1824128D01*
X1091246Y1824922D01*
X1091952Y1825770D01*
X1092592Y1826667D01*
X1093167Y1827609D01*
X1093671Y1828591D01*
X1094103Y1829605D01*
X1094459Y1830650D01*
X1094738Y1831716D01*
X1094939Y1832800D01*
X1095060Y1833897D01*
X1095100Y1835000D01*
X1095060Y1836102D01*
X1094939Y1837199D01*
X1094738Y1838283D01*
X1094459Y1839349D01*
X1094103Y1840394D01*
X1093671Y1841408D01*
X1093167Y1842390D01*
X1092592Y1843332D01*
X1091952Y1844229D01*
X1091246Y1845077D01*
X1090480Y1845871D01*
X1089659Y1846606D01*
X1088786Y1847280D01*
X1087866Y1847889D01*
X1086904Y1848429D01*
X1085906Y1848897D01*
X1084875Y1849290D01*
X1083819Y1849609D01*
X1082743Y1849848D01*
X1081652Y1850009D01*
X1080550Y1850090D01*
X1079449Y1850090D01*
X1078347Y1850009D01*
X1077256Y1849848D01*
X1076180Y1849609D01*
X1075124Y1849290D01*
X1074093Y1848897D01*
X1073095Y1848429D01*
X1072133Y1847889D01*
X1071214Y1847280D01*
X1070340Y1846606D01*
X1069519Y1845871D01*
X1068753Y1845077D01*
X1068047Y1844229D01*
X1067407Y1843332D01*
X1066832Y1842390D01*
X1066328Y1841408D01*
X1065896Y1840394D01*
X1065540Y1839349D01*
X1065261Y1838283D01*
X1065060Y1837199D01*
X1064939Y1836102D01*
X1064899Y1835000D01*
X1064939Y1833897D01*
X1065060Y1832800D01*
X1065261Y1831716D01*
X1065540Y1830650D01*
X1065896Y1829605D01*
X1066328Y1828591D01*
X1066832Y1827609D01*
X1067407Y1826667D01*
X1068047Y1825770D01*
X1068753Y1824922D01*
X1069519Y1824128D01*
X1070340Y1823393D01*
X1071214Y1822719D01*
X1072133Y1822110D01*
X1073095Y1821570D01*
X1074093Y1821102D01*
X1075124Y1820709D01*
X1076180Y1820390D01*
X1077256Y1820151D01*
X1078347Y1819991D01*
G37*
G36*
X739448Y1844909D02*
G01*
X740551Y1844909D01*
X741651Y1844991D01*
X742743Y1845151D01*
X743818Y1845390D01*
X744875Y1845709D01*
X745906Y1846102D01*
X746903Y1846570D01*
X747865Y1847110D01*
X748786Y1847719D01*
X749659Y1848393D01*
X750480Y1849128D01*
X751246Y1849922D01*
X751952Y1850770D01*
X752593Y1851667D01*
X753168Y1852609D01*
X753672Y1853591D01*
X754104Y1854605D01*
X754459Y1855650D01*
X754738Y1856716D01*
X754938Y1857800D01*
X755059Y1858897D01*
X755100Y1860000D01*
X755059Y1861102D01*
X754938Y1862199D01*
X754738Y1863283D01*
X754459Y1864349D01*
X754104Y1865394D01*
X753672Y1866408D01*
X753168Y1867390D01*
X752593Y1868332D01*
X751952Y1869229D01*
X751246Y1870077D01*
X750480Y1870871D01*
X749659Y1871606D01*
X748786Y1872280D01*
X747865Y1872889D01*
X746903Y1873429D01*
X745906Y1873897D01*
X744875Y1874290D01*
X743818Y1874609D01*
X742743Y1874848D01*
X741651Y1875009D01*
X740551Y1875090D01*
X739448Y1875090D01*
X738348Y1875009D01*
X737256Y1874848D01*
X736181Y1874609D01*
X735124Y1874290D01*
X734094Y1873897D01*
X733096Y1873429D01*
X732134Y1872889D01*
X731214Y1872280D01*
X730340Y1871606D01*
X729519Y1870871D01*
X728753Y1870077D01*
X728047Y1869229D01*
X727406Y1868332D01*
X726831Y1867390D01*
X726327Y1866408D01*
X725895Y1865394D01*
X725540Y1864349D01*
X725261Y1863283D01*
X725061Y1862199D01*
X724940Y1861102D01*
X724899Y1860000D01*
X724940Y1858897D01*
X725061Y1857800D01*
X725261Y1856716D01*
X725540Y1855650D01*
X725895Y1854605D01*
X726327Y1853591D01*
X726831Y1852609D01*
X727406Y1851667D01*
X728047Y1850770D01*
X728753Y1849922D01*
X729519Y1849128D01*
X730340Y1848393D01*
X731214Y1847719D01*
X732134Y1847110D01*
X733096Y1846570D01*
X734094Y1846102D01*
X735124Y1845709D01*
X736181Y1845390D01*
X737256Y1845151D01*
X738348Y1844991D01*
G37*
G36*
X1099449Y1869909D02*
G01*
X1100550Y1869909D01*
X1101652Y1869991D01*
X1102743Y1870151D01*
X1103819Y1870390D01*
X1104875Y1870709D01*
X1105906Y1871102D01*
X1106904Y1871570D01*
X1107866Y1872110D01*
X1108786Y1872719D01*
X1109659Y1873393D01*
X1110480Y1874128D01*
X1111246Y1874922D01*
X1111952Y1875770D01*
X1112592Y1876667D01*
X1113167Y1877609D01*
X1113671Y1878591D01*
X1114103Y1879605D01*
X1114459Y1880650D01*
X1114738Y1881716D01*
X1114939Y1882800D01*
X1115060Y1883897D01*
X1115100Y1885000D01*
X1115060Y1886102D01*
X1114939Y1887199D01*
X1114738Y1888283D01*
X1114459Y1889349D01*
X1114103Y1890394D01*
X1113671Y1891408D01*
X1113167Y1892390D01*
X1112592Y1893332D01*
X1111952Y1894229D01*
X1111246Y1895077D01*
X1110480Y1895871D01*
X1109659Y1896606D01*
X1108786Y1897280D01*
X1107866Y1897889D01*
X1106904Y1898429D01*
X1105906Y1898897D01*
X1104875Y1899290D01*
X1103819Y1899609D01*
X1102743Y1899848D01*
X1101652Y1900009D01*
X1100550Y1900090D01*
X1099449Y1900090D01*
X1098347Y1900009D01*
X1097256Y1899848D01*
X1096180Y1899609D01*
X1095124Y1899290D01*
X1094093Y1898897D01*
X1093095Y1898429D01*
X1092133Y1897889D01*
X1091214Y1897280D01*
X1090340Y1896606D01*
X1089519Y1895871D01*
X1088753Y1895077D01*
X1088047Y1894229D01*
X1087407Y1893332D01*
X1086832Y1892390D01*
X1086328Y1891408D01*
X1085896Y1890394D01*
X1085540Y1889349D01*
X1085261Y1888283D01*
X1085060Y1887199D01*
X1084939Y1886102D01*
X1084899Y1885000D01*
X1084939Y1883897D01*
X1085060Y1882800D01*
X1085261Y1881716D01*
X1085540Y1880650D01*
X1085896Y1879605D01*
X1086328Y1878591D01*
X1086832Y1877609D01*
X1087407Y1876667D01*
X1088047Y1875770D01*
X1088753Y1874922D01*
X1089519Y1874128D01*
X1090340Y1873393D01*
X1091214Y1872719D01*
X1092133Y1872110D01*
X1093095Y1871570D01*
X1094093Y1871102D01*
X1095124Y1870709D01*
X1096180Y1870390D01*
X1097256Y1870151D01*
X1098347Y1869991D01*
G37*
G36*
X754448Y1904909D02*
G01*
X755551Y1904909D01*
X756651Y1904991D01*
X757743Y1905151D01*
X758818Y1905390D01*
X759875Y1905709D01*
X760906Y1906102D01*
X761904Y1906570D01*
X762866Y1907110D01*
X763786Y1907719D01*
X764659Y1908393D01*
X765480Y1909128D01*
X766246Y1909922D01*
X766952Y1910770D01*
X767592Y1911667D01*
X768167Y1912609D01*
X768671Y1913591D01*
X769103Y1914605D01*
X769459Y1915650D01*
X769738Y1916716D01*
X769939Y1917800D01*
X770060Y1918897D01*
X770100Y1920000D01*
X770060Y1921102D01*
X769939Y1922199D01*
X769738Y1923283D01*
X769459Y1924349D01*
X769103Y1925394D01*
X768671Y1926408D01*
X768167Y1927390D01*
X767592Y1928332D01*
X766952Y1929229D01*
X766246Y1930077D01*
X765480Y1930871D01*
X764659Y1931606D01*
X763786Y1932280D01*
X762866Y1932889D01*
X761904Y1933429D01*
X760906Y1933897D01*
X759875Y1934290D01*
X758818Y1934609D01*
X757743Y1934848D01*
X756651Y1935009D01*
X755551Y1935090D01*
X754448Y1935090D01*
X753348Y1935009D01*
X752256Y1934848D01*
X751181Y1934609D01*
X750124Y1934290D01*
X749094Y1933897D01*
X748096Y1933429D01*
X747134Y1932889D01*
X746214Y1932280D01*
X745340Y1931606D01*
X744519Y1930871D01*
X743753Y1930077D01*
X743047Y1929229D01*
X742406Y1928332D01*
X741831Y1927390D01*
X741327Y1926408D01*
X740895Y1925394D01*
X740540Y1924349D01*
X740261Y1923283D01*
X740061Y1922199D01*
X739940Y1921102D01*
X739899Y1920000D01*
X739940Y1918897D01*
X740061Y1917800D01*
X740261Y1916716D01*
X740540Y1915650D01*
X740895Y1914605D01*
X741327Y1913591D01*
X741831Y1912609D01*
X742406Y1911667D01*
X743047Y1910770D01*
X743753Y1909922D01*
X744519Y1909128D01*
X745340Y1908393D01*
X746214Y1907719D01*
X747134Y1907110D01*
X748096Y1906570D01*
X749094Y1906102D01*
X750124Y1905709D01*
X751181Y1905390D01*
X752256Y1905151D01*
X753348Y1904991D01*
G37*
G36*
X1104449Y1909909D02*
G01*
X1105550Y1909909D01*
X1106652Y1909991D01*
X1107743Y1910151D01*
X1108819Y1910390D01*
X1109875Y1910709D01*
X1110906Y1911102D01*
X1111904Y1911570D01*
X1112866Y1912110D01*
X1113786Y1912719D01*
X1114659Y1913393D01*
X1115480Y1914128D01*
X1116246Y1914922D01*
X1116952Y1915770D01*
X1117592Y1916667D01*
X1118167Y1917609D01*
X1118671Y1918591D01*
X1119103Y1919605D01*
X1119459Y1920650D01*
X1119738Y1921716D01*
X1119939Y1922800D01*
X1120060Y1923897D01*
X1120100Y1925000D01*
X1120060Y1926102D01*
X1119939Y1927199D01*
X1119738Y1928283D01*
X1119459Y1929349D01*
X1119103Y1930394D01*
X1118671Y1931408D01*
X1118167Y1932390D01*
X1117592Y1933332D01*
X1116952Y1934229D01*
X1116246Y1935077D01*
X1115480Y1935871D01*
X1114659Y1936606D01*
X1113786Y1937280D01*
X1112866Y1937889D01*
X1111904Y1938429D01*
X1110906Y1938897D01*
X1109875Y1939290D01*
X1108819Y1939609D01*
X1107743Y1939848D01*
X1106652Y1940009D01*
X1105550Y1940090D01*
X1104449Y1940090D01*
X1103347Y1940009D01*
X1102256Y1939848D01*
X1101180Y1939609D01*
X1100124Y1939290D01*
X1099093Y1938897D01*
X1098095Y1938429D01*
X1097133Y1937889D01*
X1096214Y1937280D01*
X1095340Y1936606D01*
X1094519Y1935871D01*
X1093753Y1935077D01*
X1093047Y1934229D01*
X1092407Y1933332D01*
X1091832Y1932390D01*
X1091328Y1931408D01*
X1090896Y1930394D01*
X1090540Y1929349D01*
X1090261Y1928283D01*
X1090060Y1927199D01*
X1089939Y1926102D01*
X1089899Y1925000D01*
X1089939Y1923897D01*
X1090060Y1922800D01*
X1090261Y1921716D01*
X1090540Y1920650D01*
X1090896Y1919605D01*
X1091328Y1918591D01*
X1091832Y1917609D01*
X1092407Y1916667D01*
X1093047Y1915770D01*
X1093753Y1914922D01*
X1094519Y1914128D01*
X1095340Y1913393D01*
X1096214Y1912719D01*
X1097133Y1912110D01*
X1098095Y1911570D01*
X1099093Y1911102D01*
X1100124Y1910709D01*
X1101180Y1910390D01*
X1102256Y1910151D01*
X1103347Y1909991D01*
G37*
G36*
X1204449Y1944909D02*
G01*
X1205550Y1944909D01*
X1206652Y1944991D01*
X1207743Y1945151D01*
X1208819Y1945390D01*
X1209875Y1945709D01*
X1210906Y1946102D01*
X1211904Y1946570D01*
X1212866Y1947110D01*
X1213786Y1947719D01*
X1214659Y1948393D01*
X1215480Y1949128D01*
X1216246Y1949922D01*
X1216952Y1950770D01*
X1217592Y1951667D01*
X1218167Y1952609D01*
X1218671Y1953591D01*
X1219103Y1954605D01*
X1219459Y1955650D01*
X1219738Y1956716D01*
X1219939Y1957800D01*
X1220060Y1958897D01*
X1220100Y1960000D01*
X1220060Y1961102D01*
X1219939Y1962199D01*
X1219738Y1963283D01*
X1219459Y1964349D01*
X1219103Y1965394D01*
X1218671Y1966408D01*
X1218167Y1967390D01*
X1217592Y1968332D01*
X1216952Y1969229D01*
X1216246Y1970077D01*
X1215480Y1970871D01*
X1214659Y1971606D01*
X1213786Y1972280D01*
X1212866Y1972889D01*
X1211904Y1973429D01*
X1210906Y1973897D01*
X1209875Y1974290D01*
X1208819Y1974609D01*
X1207743Y1974848D01*
X1206652Y1975009D01*
X1205550Y1975090D01*
X1204449Y1975090D01*
X1203347Y1975009D01*
X1202256Y1974848D01*
X1201180Y1974609D01*
X1200124Y1974290D01*
X1199093Y1973897D01*
X1198095Y1973429D01*
X1197133Y1972889D01*
X1196214Y1972280D01*
X1195340Y1971606D01*
X1194519Y1970871D01*
X1193753Y1970077D01*
X1193047Y1969229D01*
X1192407Y1968332D01*
X1191832Y1967390D01*
X1191328Y1966408D01*
X1190896Y1965394D01*
X1190540Y1964349D01*
X1190261Y1963283D01*
X1190060Y1962199D01*
X1189939Y1961102D01*
X1189899Y1960000D01*
X1189939Y1958897D01*
X1190060Y1957800D01*
X1190261Y1956716D01*
X1190540Y1955650D01*
X1190896Y1954605D01*
X1191328Y1953591D01*
X1191832Y1952609D01*
X1192407Y1951667D01*
X1193047Y1950770D01*
X1193753Y1949922D01*
X1194519Y1949128D01*
X1195340Y1948393D01*
X1196214Y1947719D01*
X1197133Y1947110D01*
X1198095Y1946570D01*
X1199093Y1946102D01*
X1200124Y1945709D01*
X1201180Y1945390D01*
X1202256Y1945151D01*
X1203347Y1944991D01*
G37*
G36*
X468328Y1961903D02*
G01*
X469493Y1961923D01*
X470655Y1962022D01*
X471806Y1962202D01*
X472941Y1962462D01*
X474056Y1962800D01*
X475147Y1963213D01*
X476204Y1963699D01*
X477228Y1964259D01*
X478209Y1964888D01*
X479144Y1965583D01*
X480030Y1966340D01*
X480860Y1967157D01*
X481633Y1968029D01*
X482343Y1968953D01*
X482989Y1969922D01*
X483566Y1970934D01*
X484072Y1971984D01*
X484504Y1973067D01*
X484859Y1974176D01*
X485138Y1975308D01*
X485338Y1976455D01*
X485459Y1977615D01*
X485500Y1978780D01*
X485459Y1979944D01*
X485338Y1981104D01*
X485138Y1982251D01*
X484859Y1983382D01*
X484504Y1984492D01*
X484072Y1985574D01*
X483566Y1986624D01*
X482989Y1987636D01*
X482343Y1988607D01*
X481633Y1989531D01*
X480860Y1990403D01*
X480030Y1991219D01*
X479144Y1991977D01*
X478209Y1992671D01*
X477228Y1993299D01*
X476204Y1993859D01*
X475147Y1994346D01*
X474056Y1994760D01*
X472941Y1995097D01*
X471806Y1995356D01*
X470655Y1995536D01*
X469493Y1995637D01*
X468328Y1995657D01*
X467164Y1995596D01*
X466008Y1995457D01*
X464863Y1995237D01*
X463737Y1994938D01*
X462633Y1994562D01*
X461559Y1994113D01*
X460518Y1993589D01*
X459515Y1992995D01*
X458557Y1992332D01*
X457645Y1991606D01*
X456786Y1990819D01*
X455985Y1989974D01*
X455243Y1989074D01*
X454564Y1988128D01*
X453953Y1987136D01*
X453411Y1986104D01*
X452943Y1985037D01*
X452548Y1983940D01*
X452231Y1982820D01*
X451990Y1981678D01*
X451829Y1980524D01*
X451750Y1979362D01*
X451750Y1978197D01*
X451829Y1977035D01*
X451990Y1975880D01*
X452231Y1974740D01*
X452548Y1973618D01*
X452943Y1972523D01*
X453411Y1971455D01*
X453953Y1970423D01*
X454564Y1969432D01*
X455243Y1968485D01*
X455985Y1967586D01*
X456786Y1966741D01*
X457645Y1965954D01*
X458557Y1965226D01*
X459515Y1964564D01*
X460518Y1963971D01*
X461559Y1963447D01*
X462633Y1962997D01*
X463737Y1962622D01*
X464863Y1962323D01*
X466008Y1962103D01*
X467164Y1961963D01*
G37*
G36*
X1109449Y1983629D02*
G01*
X1110550Y1983629D01*
X1111652Y1983710D01*
X1112743Y1983870D01*
X1113819Y1984110D01*
X1114875Y1984429D01*
X1115906Y1984823D01*
X1116904Y1985291D01*
X1117866Y1985830D01*
X1118786Y1986439D01*
X1119659Y1987112D01*
X1120480Y1987849D01*
X1121246Y1988643D01*
X1121952Y1989490D01*
X1122592Y1990387D01*
X1123167Y1991329D01*
X1123671Y1992310D01*
X1124103Y1993326D01*
X1124459Y1994369D01*
X1124738Y1995437D01*
X1124939Y1996520D01*
X1125060Y1997618D01*
X1125100Y1998719D01*
X1125060Y1999821D01*
X1124939Y2000918D01*
X1124738Y2002002D01*
X1124459Y2003069D01*
X1124103Y2004113D01*
X1123671Y2005129D01*
X1123167Y2006109D01*
X1122592Y2007051D01*
X1121952Y2007948D01*
X1121246Y2008796D01*
X1120480Y2009591D01*
X1119659Y2010327D01*
X1118786Y2011001D01*
X1117866Y2011608D01*
X1116904Y2012148D01*
X1115906Y2012617D01*
X1114875Y2013011D01*
X1113819Y2013328D01*
X1112743Y2013569D01*
X1111652Y2013728D01*
X1110550Y2013809D01*
X1109449Y2013809D01*
X1108347Y2013728D01*
X1107256Y2013569D01*
X1106180Y2013328D01*
X1105124Y2013011D01*
X1104093Y2012617D01*
X1103095Y2012148D01*
X1102133Y2011608D01*
X1101214Y2011001D01*
X1100340Y2010327D01*
X1099519Y2009591D01*
X1098753Y2008796D01*
X1098047Y2007948D01*
X1097407Y2007051D01*
X1096832Y2006109D01*
X1096328Y2005129D01*
X1095896Y2004113D01*
X1095540Y2003069D01*
X1095261Y2002002D01*
X1095060Y2000918D01*
X1094939Y1999821D01*
X1094899Y1998719D01*
X1094939Y1997618D01*
X1095060Y1996520D01*
X1095261Y1995437D01*
X1095540Y1994369D01*
X1095896Y1993326D01*
X1096328Y1992310D01*
X1096832Y1991329D01*
X1097407Y1990387D01*
X1098047Y1989490D01*
X1098753Y1988643D01*
X1099519Y1987849D01*
X1100340Y1987112D01*
X1101214Y1986439D01*
X1102133Y1985830D01*
X1103095Y1985291D01*
X1104093Y1984823D01*
X1105124Y1984429D01*
X1106180Y1984110D01*
X1107256Y1983870D01*
X1108347Y1983710D01*
G37*
G36*
X509175Y2008751D02*
G01*
X509279Y2008766D01*
X510439Y2008971D01*
X510587Y2009000D01*
X511734Y2009263D01*
X511878Y2009299D01*
X513013Y2009618D01*
X513159Y2009663D01*
X514274Y2010039D01*
X514412Y2010090D01*
X515509Y2010520D01*
X515648Y2010578D01*
X516720Y2011062D01*
X516857Y2011127D01*
X517905Y2011666D01*
X518034Y2011736D01*
X519054Y2012325D01*
X519182Y2012402D01*
X520171Y2013042D01*
X520295Y2013126D01*
X521251Y2013814D01*
X521370Y2013904D01*
X522292Y2014638D01*
X522408Y2014735D01*
X523290Y2015515D01*
X523398Y2015616D01*
X524241Y2016437D01*
X524348Y2016545D01*
X525149Y2017409D01*
X525246Y2017521D01*
X526003Y2018422D01*
X526095Y2018539D01*
X526808Y2019477D01*
X526896Y2019601D01*
X527559Y2020574D01*
X527640Y2020700D01*
X528254Y2021705D01*
X528328Y2021831D01*
X528892Y2022865D01*
X528962Y2023002D01*
X529090Y2023269D01*
X509175Y2023269D01*
G37*
G36*
X469805Y2008751D02*
G01*
X469805Y2023269D01*
X449890Y2023269D01*
X450018Y2023002D01*
X450086Y2022865D01*
X450650Y2021831D01*
X450725Y2021705D01*
X451338Y2020700D01*
X451419Y2020574D01*
X452082Y2019601D01*
X452172Y2019477D01*
X452883Y2018539D01*
X452975Y2018422D01*
X453733Y2017521D01*
X453831Y2017409D01*
X454632Y2016545D01*
X454738Y2016437D01*
X455581Y2015616D01*
X455689Y2015515D01*
X456572Y2014735D01*
X456687Y2014638D01*
X457609Y2013904D01*
X457728Y2013814D01*
X458683Y2013126D01*
X458807Y2013042D01*
X459798Y2012402D01*
X459924Y2012325D01*
X460945Y2011736D01*
X461075Y2011666D01*
X462123Y2011127D01*
X462258Y2011062D01*
X463332Y2010578D01*
X463470Y2010520D01*
X464567Y2010090D01*
X464704Y2010039D01*
X465821Y2009663D01*
X465967Y2009618D01*
X467100Y2009299D01*
X467244Y2009263D01*
X468393Y2009000D01*
X468541Y2008971D01*
X469701Y2008766D01*
G37*
G36*
X342636Y2009128D02*
G01*
X343227Y2009263D01*
X343371Y2009299D01*
X344506Y2009618D01*
X344652Y2009663D01*
X345767Y2010039D01*
X345904Y2010090D01*
X347002Y2010520D01*
X347141Y2010578D01*
X348213Y2011062D01*
X348350Y2011127D01*
X349398Y2011666D01*
X349528Y2011736D01*
X350547Y2012325D01*
X350675Y2012402D01*
X351664Y2013042D01*
X351788Y2013126D01*
X352744Y2013814D01*
X352863Y2013904D01*
X353784Y2014638D01*
X353901Y2014735D01*
X354783Y2015515D01*
X354891Y2015616D01*
X355734Y2016437D01*
X355841Y2016545D01*
X356642Y2017409D01*
X356739Y2017521D01*
X357496Y2018422D01*
X357588Y2018539D01*
X358301Y2019477D01*
X358389Y2019601D01*
X359052Y2020574D01*
X359133Y2020700D01*
X359747Y2021705D01*
X359821Y2021831D01*
X360385Y2022865D01*
X360455Y2023002D01*
X360583Y2023269D01*
X342636Y2023269D01*
G37*
G36*
X307202Y2009128D02*
G01*
X307202Y2023269D01*
X289256Y2023269D01*
X289385Y2023002D01*
X289454Y2022865D01*
X290018Y2021831D01*
X290091Y2021705D01*
X290706Y2020700D01*
X290787Y2020574D01*
X291449Y2019601D01*
X291538Y2019477D01*
X292251Y2018539D01*
X292343Y2018422D01*
X293099Y2017521D01*
X293198Y2017409D01*
X293998Y2016545D01*
X294104Y2016437D01*
X294947Y2015616D01*
X295055Y2015515D01*
X295938Y2014735D01*
X296055Y2014638D01*
X296975Y2013904D01*
X297094Y2013814D01*
X298051Y2013126D01*
X298175Y2013042D01*
X299164Y2012402D01*
X299292Y2012325D01*
X300311Y2011736D01*
X300441Y2011666D01*
X301489Y2011127D01*
X301626Y2011062D01*
X302698Y2010578D01*
X302838Y2010520D01*
X303935Y2010090D01*
X304072Y2010039D01*
X305187Y2009663D01*
X305333Y2009618D01*
X306467Y2009299D01*
X306612Y2009263D01*
G37*
G36*
X1564449Y2019909D02*
G01*
X1565550Y2019909D01*
X1566652Y2019991D01*
X1567743Y2020151D01*
X1568819Y2020390D01*
X1569875Y2020709D01*
X1570906Y2021102D01*
X1571904Y2021570D01*
X1572866Y2022110D01*
X1573786Y2022719D01*
X1574659Y2023393D01*
X1575480Y2024128D01*
X1576246Y2024922D01*
X1576952Y2025770D01*
X1577592Y2026667D01*
X1578167Y2027609D01*
X1578671Y2028591D01*
X1579103Y2029605D01*
X1579459Y2030650D01*
X1579738Y2031716D01*
X1579939Y2032800D01*
X1580060Y2033897D01*
X1580100Y2035000D01*
X1580060Y2036102D01*
X1579939Y2037199D01*
X1579738Y2038283D01*
X1579459Y2039349D01*
X1579103Y2040394D01*
X1578671Y2041408D01*
X1578167Y2042390D01*
X1577592Y2043332D01*
X1576952Y2044229D01*
X1576246Y2045077D01*
X1575480Y2045871D01*
X1574659Y2046606D01*
X1573786Y2047280D01*
X1572866Y2047889D01*
X1571904Y2048429D01*
X1570906Y2048897D01*
X1569875Y2049290D01*
X1568819Y2049609D01*
X1567743Y2049848D01*
X1566652Y2050009D01*
X1565550Y2050090D01*
X1564449Y2050090D01*
X1563347Y2050009D01*
X1562256Y2049848D01*
X1561180Y2049609D01*
X1560124Y2049290D01*
X1559093Y2048897D01*
X1558095Y2048429D01*
X1557133Y2047889D01*
X1556214Y2047280D01*
X1555340Y2046606D01*
X1554519Y2045871D01*
X1553753Y2045077D01*
X1553047Y2044229D01*
X1552407Y2043332D01*
X1551832Y2042390D01*
X1551328Y2041408D01*
X1550896Y2040394D01*
X1550540Y2039349D01*
X1550261Y2038283D01*
X1550060Y2037199D01*
X1549939Y2036102D01*
X1549899Y2035000D01*
X1549939Y2033897D01*
X1550060Y2032800D01*
X1550261Y2031716D01*
X1550540Y2030650D01*
X1550896Y2029605D01*
X1551328Y2028591D01*
X1551832Y2027609D01*
X1552407Y2026667D01*
X1553047Y2025770D01*
X1553753Y2024922D01*
X1554519Y2024128D01*
X1555340Y2023393D01*
X1556214Y2022719D01*
X1557133Y2022110D01*
X1558095Y2021570D01*
X1559093Y2021102D01*
X1560124Y2020709D01*
X1561180Y2020390D01*
X1562256Y2020151D01*
X1563347Y2019991D01*
G37*
G36*
X669448Y2044909D02*
G01*
X670551Y2044909D01*
X671651Y2044991D01*
X672743Y2045151D01*
X673818Y2045390D01*
X674875Y2045709D01*
X675906Y2046102D01*
X676903Y2046570D01*
X677865Y2047110D01*
X678786Y2047719D01*
X679659Y2048393D01*
X680480Y2049128D01*
X681246Y2049922D01*
X681952Y2050770D01*
X682593Y2051667D01*
X683168Y2052609D01*
X683672Y2053591D01*
X684104Y2054605D01*
X684459Y2055650D01*
X684738Y2056716D01*
X684938Y2057800D01*
X685059Y2058897D01*
X685100Y2060000D01*
X685059Y2061102D01*
X684938Y2062199D01*
X684738Y2063283D01*
X684459Y2064349D01*
X684104Y2065394D01*
X683672Y2066408D01*
X683168Y2067390D01*
X682593Y2068332D01*
X681952Y2069229D01*
X681246Y2070077D01*
X680480Y2070871D01*
X679659Y2071606D01*
X678786Y2072280D01*
X677865Y2072889D01*
X676903Y2073429D01*
X675906Y2073897D01*
X674875Y2074290D01*
X673818Y2074609D01*
X672743Y2074848D01*
X671651Y2075009D01*
X670551Y2075090D01*
X669448Y2075090D01*
X668348Y2075009D01*
X667256Y2074848D01*
X666181Y2074609D01*
X665124Y2074290D01*
X664094Y2073897D01*
X663096Y2073429D01*
X662134Y2072889D01*
X661214Y2072280D01*
X660340Y2071606D01*
X659519Y2070871D01*
X658753Y2070077D01*
X658047Y2069229D01*
X657406Y2068332D01*
X656831Y2067390D01*
X656327Y2066408D01*
X655895Y2065394D01*
X655540Y2064349D01*
X655261Y2063283D01*
X655061Y2062199D01*
X654940Y2061102D01*
X654899Y2060000D01*
X654940Y2058897D01*
X655061Y2057800D01*
X655261Y2056716D01*
X655540Y2055650D01*
X655895Y2054605D01*
X656327Y2053591D01*
X656831Y2052609D01*
X657406Y2051667D01*
X658047Y2050770D01*
X658753Y2049922D01*
X659519Y2049128D01*
X660340Y2048393D01*
X661214Y2047719D01*
X662134Y2047110D01*
X663096Y2046570D01*
X664094Y2046102D01*
X665124Y2045709D01*
X666181Y2045390D01*
X667256Y2045151D01*
X668348Y2044991D01*
G37*
G36*
X509175Y2046891D02*
G01*
X529090Y2046891D01*
X528962Y2047157D01*
X528892Y2047294D01*
X528328Y2048328D01*
X528254Y2048454D01*
X527640Y2049459D01*
X527559Y2049585D01*
X526896Y2050558D01*
X526808Y2050682D01*
X526095Y2051621D01*
X526003Y2051736D01*
X525246Y2052638D01*
X525149Y2052750D01*
X524348Y2053613D01*
X524241Y2053721D01*
X523398Y2054544D01*
X523290Y2054643D01*
X522408Y2055423D01*
X522292Y2055522D01*
X521370Y2056255D01*
X521251Y2056345D01*
X520295Y2057033D01*
X520171Y2057118D01*
X519182Y2057757D01*
X519054Y2057833D01*
X518034Y2058422D01*
X517905Y2058494D01*
X516857Y2059032D01*
X516720Y2059097D01*
X515648Y2059582D01*
X515509Y2059639D01*
X514412Y2060070D01*
X514274Y2060120D01*
X513159Y2060495D01*
X513013Y2060540D01*
X511878Y2060859D01*
X511734Y2060897D01*
X510587Y2061158D01*
X510439Y2061188D01*
X509279Y2061392D01*
X509175Y2061408D01*
G37*
G36*
X449890Y2046891D02*
G01*
X469805Y2046891D01*
X469805Y2061408D01*
X469701Y2061392D01*
X468541Y2061188D01*
X468393Y2061158D01*
X467244Y2060897D01*
X467100Y2060859D01*
X465967Y2060540D01*
X465821Y2060495D01*
X464704Y2060120D01*
X464567Y2060070D01*
X463470Y2059639D01*
X463332Y2059582D01*
X462258Y2059097D01*
X462123Y2059032D01*
X461075Y2058494D01*
X460945Y2058422D01*
X459924Y2057833D01*
X459798Y2057757D01*
X458807Y2057118D01*
X458683Y2057033D01*
X457728Y2056345D01*
X457609Y2056255D01*
X456687Y2055522D01*
X456572Y2055423D01*
X455689Y2054643D01*
X455581Y2054544D01*
X454738Y2053721D01*
X454632Y2053613D01*
X453831Y2052750D01*
X453733Y2052638D01*
X452975Y2051736D01*
X452883Y2051621D01*
X452172Y2050682D01*
X452082Y2050558D01*
X451419Y2049585D01*
X451338Y2049459D01*
X450725Y2048454D01*
X450650Y2048328D01*
X450086Y2047294D01*
X450018Y2047157D01*
G37*
G36*
X342636Y2046891D02*
G01*
X360583Y2046891D01*
X360455Y2047157D01*
X360385Y2047294D01*
X359821Y2048328D01*
X359747Y2048454D01*
X359133Y2049459D01*
X359052Y2049585D01*
X358389Y2050558D01*
X358301Y2050682D01*
X357588Y2051621D01*
X357496Y2051736D01*
X356739Y2052638D01*
X356642Y2052750D01*
X355841Y2053613D01*
X355734Y2053721D01*
X354891Y2054544D01*
X354783Y2054643D01*
X353901Y2055423D01*
X353784Y2055522D01*
X352863Y2056255D01*
X352744Y2056345D01*
X351788Y2057033D01*
X351664Y2057118D01*
X350675Y2057757D01*
X350547Y2057833D01*
X349528Y2058422D01*
X349398Y2058494D01*
X348350Y2059032D01*
X348213Y2059097D01*
X347141Y2059582D01*
X347002Y2059639D01*
X345904Y2060070D01*
X345767Y2060120D01*
X344652Y2060495D01*
X344506Y2060540D01*
X343371Y2060859D01*
X343227Y2060897D01*
X342636Y2061032D01*
G37*
G36*
X289256Y2046891D02*
G01*
X307202Y2046891D01*
X307202Y2061032D01*
X306612Y2060897D01*
X306467Y2060859D01*
X305333Y2060540D01*
X305187Y2060495D01*
X304072Y2060120D01*
X303935Y2060070D01*
X302838Y2059639D01*
X302698Y2059582D01*
X301626Y2059097D01*
X301489Y2059032D01*
X300441Y2058494D01*
X300311Y2058422D01*
X299292Y2057833D01*
X299164Y2057757D01*
X298175Y2057118D01*
X298051Y2057033D01*
X297094Y2056345D01*
X296975Y2056255D01*
X296055Y2055522D01*
X295938Y2055423D01*
X295055Y2054643D01*
X294947Y2054544D01*
X294104Y2053721D01*
X293998Y2053613D01*
X293198Y2052750D01*
X293099Y2052638D01*
X292343Y2051736D01*
X292251Y2051621D01*
X291538Y2050682D01*
X291449Y2050558D01*
X290787Y2049585D01*
X290706Y2049459D01*
X290091Y2048454D01*
X290018Y2048328D01*
X289454Y2047294D01*
X289385Y2047157D01*
G37*
G36*
X2664449Y2049909D02*
G01*
X2665550Y2049909D01*
X2666652Y2049991D01*
X2667743Y2050151D01*
X2668819Y2050390D01*
X2669875Y2050709D01*
X2670906Y2051102D01*
X2671904Y2051570D01*
X2672866Y2052110D01*
X2673786Y2052719D01*
X2674659Y2053393D01*
X2675481Y2054128D01*
X2676246Y2054922D01*
X2676952Y2055770D01*
X2677592Y2056667D01*
X2678167Y2057609D01*
X2678671Y2058591D01*
X2679103Y2059605D01*
X2679459Y2060650D01*
X2679738Y2061716D01*
X2679939Y2062800D01*
X2680060Y2063897D01*
X2680100Y2065000D01*
X2680060Y2066102D01*
X2679939Y2067199D01*
X2679738Y2068283D01*
X2679459Y2069349D01*
X2679103Y2070394D01*
X2678671Y2071408D01*
X2678167Y2072390D01*
X2677592Y2073332D01*
X2676952Y2074229D01*
X2676246Y2075077D01*
X2675481Y2075871D01*
X2674659Y2076606D01*
X2673786Y2077280D01*
X2672866Y2077889D01*
X2671904Y2078429D01*
X2670906Y2078897D01*
X2669875Y2079290D01*
X2668819Y2079609D01*
X2667743Y2079848D01*
X2666652Y2080009D01*
X2665550Y2080090D01*
X2664449Y2080090D01*
X2663347Y2080009D01*
X2662256Y2079848D01*
X2661180Y2079609D01*
X2660124Y2079290D01*
X2659093Y2078897D01*
X2658095Y2078429D01*
X2657133Y2077889D01*
X2656214Y2077280D01*
X2655340Y2076606D01*
X2654519Y2075871D01*
X2653753Y2075077D01*
X2653047Y2074229D01*
X2652407Y2073332D01*
X2651832Y2072390D01*
X2651328Y2071408D01*
X2650896Y2070394D01*
X2650540Y2069349D01*
X2650261Y2068283D01*
X2650060Y2067199D01*
X2649939Y2066102D01*
X2649899Y2065000D01*
X2649939Y2063897D01*
X2650060Y2062800D01*
X2650261Y2061716D01*
X2650540Y2060650D01*
X2650896Y2059605D01*
X2651328Y2058591D01*
X2651832Y2057609D01*
X2652407Y2056667D01*
X2653047Y2055770D01*
X2653753Y2054922D01*
X2654519Y2054128D01*
X2655340Y2053393D01*
X2656214Y2052719D01*
X2657133Y2052110D01*
X2658095Y2051570D01*
X2659093Y2051102D01*
X2660124Y2050709D01*
X2661180Y2050390D01*
X2662256Y2050151D01*
X2663347Y2049991D01*
G37*
G36*
X2579449Y2049909D02*
G01*
X2580550Y2049909D01*
X2581652Y2049991D01*
X2582743Y2050151D01*
X2583819Y2050390D01*
X2584875Y2050709D01*
X2585906Y2051102D01*
X2586904Y2051570D01*
X2587866Y2052110D01*
X2588786Y2052719D01*
X2589659Y2053393D01*
X2590481Y2054128D01*
X2591246Y2054922D01*
X2591952Y2055770D01*
X2592592Y2056667D01*
X2593167Y2057609D01*
X2593671Y2058591D01*
X2594103Y2059605D01*
X2594459Y2060650D01*
X2594738Y2061716D01*
X2594939Y2062800D01*
X2595060Y2063897D01*
X2595100Y2065000D01*
X2595060Y2066102D01*
X2594939Y2067199D01*
X2594738Y2068283D01*
X2594459Y2069349D01*
X2594103Y2070394D01*
X2593671Y2071408D01*
X2593167Y2072390D01*
X2592592Y2073332D01*
X2591952Y2074229D01*
X2591246Y2075077D01*
X2590481Y2075871D01*
X2589659Y2076606D01*
X2588786Y2077280D01*
X2587866Y2077889D01*
X2586904Y2078429D01*
X2585906Y2078897D01*
X2584875Y2079290D01*
X2583819Y2079609D01*
X2582743Y2079848D01*
X2581652Y2080009D01*
X2580550Y2080090D01*
X2579449Y2080090D01*
X2578347Y2080009D01*
X2577256Y2079848D01*
X2576180Y2079609D01*
X2575124Y2079290D01*
X2574093Y2078897D01*
X2573095Y2078429D01*
X2572133Y2077889D01*
X2571214Y2077280D01*
X2570340Y2076606D01*
X2569519Y2075871D01*
X2568753Y2075077D01*
X2568047Y2074229D01*
X2567407Y2073332D01*
X2566832Y2072390D01*
X2566328Y2071408D01*
X2565896Y2070394D01*
X2565540Y2069349D01*
X2565261Y2068283D01*
X2565060Y2067199D01*
X2564939Y2066102D01*
X2564899Y2065000D01*
X2564939Y2063897D01*
X2565060Y2062800D01*
X2565261Y2061716D01*
X2565540Y2060650D01*
X2565896Y2059605D01*
X2566328Y2058591D01*
X2566832Y2057609D01*
X2567407Y2056667D01*
X2568047Y2055770D01*
X2568753Y2054922D01*
X2569519Y2054128D01*
X2570340Y2053393D01*
X2571214Y2052719D01*
X2572133Y2052110D01*
X2573095Y2051570D01*
X2574093Y2051102D01*
X2575124Y2050709D01*
X2576180Y2050390D01*
X2577256Y2050151D01*
X2578347Y2049991D01*
G37*
G36*
X424448Y2059909D02*
G01*
X425551Y2059909D01*
X426651Y2059991D01*
X427743Y2060151D01*
X428818Y2060390D01*
X429875Y2060709D01*
X430905Y2061102D01*
X431903Y2061570D01*
X432865Y2062110D01*
X433786Y2062719D01*
X434659Y2063393D01*
X435480Y2064128D01*
X436246Y2064922D01*
X436952Y2065770D01*
X437593Y2066667D01*
X438168Y2067609D01*
X438672Y2068591D01*
X439104Y2069605D01*
X439459Y2070650D01*
X439738Y2071716D01*
X439938Y2072800D01*
X440059Y2073897D01*
X440100Y2075000D01*
X440059Y2076102D01*
X439938Y2077199D01*
X439738Y2078283D01*
X439459Y2079349D01*
X439104Y2080394D01*
X438672Y2081408D01*
X438168Y2082390D01*
X437593Y2083332D01*
X436952Y2084229D01*
X436246Y2085077D01*
X435480Y2085871D01*
X434659Y2086606D01*
X433786Y2087280D01*
X432865Y2087889D01*
X431903Y2088429D01*
X430905Y2088897D01*
X429875Y2089290D01*
X428818Y2089609D01*
X427743Y2089848D01*
X426651Y2090009D01*
X425551Y2090090D01*
X424448Y2090090D01*
X423348Y2090009D01*
X422256Y2089848D01*
X421181Y2089609D01*
X420124Y2089290D01*
X419094Y2088897D01*
X418096Y2088429D01*
X417134Y2087889D01*
X416213Y2087280D01*
X415340Y2086606D01*
X414519Y2085871D01*
X413753Y2085077D01*
X413047Y2084229D01*
X412406Y2083332D01*
X411831Y2082390D01*
X411327Y2081408D01*
X410895Y2080394D01*
X410540Y2079349D01*
X410261Y2078283D01*
X410061Y2077199D01*
X409940Y2076102D01*
X409899Y2075000D01*
X409940Y2073897D01*
X410061Y2072800D01*
X410261Y2071716D01*
X410540Y2070650D01*
X410895Y2069605D01*
X411327Y2068591D01*
X411831Y2067609D01*
X412406Y2066667D01*
X413047Y2065770D01*
X413753Y2064922D01*
X414519Y2064128D01*
X415340Y2063393D01*
X416213Y2062719D01*
X417134Y2062110D01*
X418096Y2061570D01*
X419094Y2061102D01*
X420124Y2060709D01*
X421181Y2060390D01*
X422256Y2060151D01*
X423348Y2059991D01*
G37*
G36*
X894449Y2062370D02*
G01*
X895550Y2062370D01*
X896652Y2062451D01*
X897743Y2062611D01*
X898819Y2062851D01*
X899875Y2063168D01*
X900906Y2063562D01*
X901904Y2064031D01*
X902866Y2064571D01*
X903786Y2065178D01*
X904659Y2065853D01*
X905480Y2066588D01*
X906246Y2067382D01*
X906952Y2068231D01*
X907592Y2069128D01*
X908167Y2070070D01*
X908671Y2071051D01*
X909103Y2072065D01*
X909459Y2073110D01*
X909738Y2074176D01*
X909939Y2075261D01*
X910060Y2076358D01*
X910100Y2077460D01*
X910060Y2078562D01*
X909939Y2079659D01*
X909738Y2080743D01*
X909459Y2081810D01*
X909103Y2082854D01*
X908671Y2083868D01*
X908167Y2084850D01*
X907592Y2085792D01*
X906952Y2086689D01*
X906246Y2087537D01*
X905480Y2088330D01*
X904659Y2089067D01*
X903786Y2089740D01*
X902866Y2090349D01*
X901904Y2090889D01*
X900906Y2091356D01*
X899875Y2091750D01*
X898819Y2092069D01*
X897743Y2092309D01*
X896652Y2092469D01*
X895550Y2092550D01*
X894449Y2092550D01*
X893347Y2092469D01*
X892256Y2092309D01*
X891180Y2092069D01*
X890124Y2091750D01*
X889093Y2091356D01*
X888095Y2090889D01*
X887133Y2090349D01*
X886214Y2089740D01*
X885340Y2089067D01*
X884519Y2088330D01*
X883753Y2087537D01*
X883047Y2086689D01*
X882407Y2085792D01*
X881832Y2084850D01*
X881328Y2083868D01*
X880896Y2082854D01*
X880540Y2081810D01*
X880261Y2080743D01*
X880060Y2079659D01*
X879939Y2078562D01*
X879899Y2077460D01*
X879939Y2076358D01*
X880060Y2075261D01*
X880261Y2074176D01*
X880540Y2073110D01*
X880896Y2072065D01*
X881328Y2071051D01*
X881832Y2070070D01*
X882407Y2069128D01*
X883047Y2068231D01*
X883753Y2067382D01*
X884519Y2066588D01*
X885340Y2065853D01*
X886214Y2065178D01*
X887133Y2064571D01*
X888095Y2064031D01*
X889093Y2063562D01*
X890124Y2063168D01*
X891180Y2062851D01*
X892256Y2062611D01*
X893347Y2062451D01*
G37*
G36*
X2299449Y2094909D02*
G01*
X2300550Y2094909D01*
X2301652Y2094991D01*
X2302743Y2095151D01*
X2303819Y2095390D01*
X2304875Y2095709D01*
X2305906Y2096102D01*
X2306904Y2096570D01*
X2307866Y2097110D01*
X2308786Y2097719D01*
X2309659Y2098393D01*
X2310481Y2099128D01*
X2311246Y2099922D01*
X2311952Y2100770D01*
X2312592Y2101667D01*
X2313167Y2102609D01*
X2313671Y2103591D01*
X2314103Y2104605D01*
X2314459Y2105650D01*
X2314738Y2106716D01*
X2314939Y2107800D01*
X2315060Y2108897D01*
X2315100Y2110000D01*
X2315060Y2111102D01*
X2314939Y2112199D01*
X2314738Y2113283D01*
X2314459Y2114349D01*
X2314103Y2115394D01*
X2313671Y2116408D01*
X2313167Y2117390D01*
X2312592Y2118332D01*
X2311952Y2119229D01*
X2311246Y2120077D01*
X2310481Y2120871D01*
X2309659Y2121606D01*
X2308786Y2122280D01*
X2307866Y2122889D01*
X2306904Y2123429D01*
X2305906Y2123897D01*
X2304875Y2124290D01*
X2303819Y2124609D01*
X2302743Y2124848D01*
X2301652Y2125009D01*
X2300550Y2125090D01*
X2299449Y2125090D01*
X2298347Y2125009D01*
X2297256Y2124848D01*
X2296180Y2124609D01*
X2295124Y2124290D01*
X2294093Y2123897D01*
X2293095Y2123429D01*
X2292133Y2122889D01*
X2291214Y2122280D01*
X2290340Y2121606D01*
X2289519Y2120871D01*
X2288753Y2120077D01*
X2288047Y2119229D01*
X2287407Y2118332D01*
X2286832Y2117390D01*
X2286328Y2116408D01*
X2285896Y2115394D01*
X2285540Y2114349D01*
X2285261Y2113283D01*
X2285060Y2112199D01*
X2284939Y2111102D01*
X2284899Y2110000D01*
X2284939Y2108897D01*
X2285060Y2107800D01*
X2285261Y2106716D01*
X2285540Y2105650D01*
X2285896Y2104605D01*
X2286328Y2103591D01*
X2286832Y2102609D01*
X2287407Y2101667D01*
X2288047Y2100770D01*
X2288753Y2099922D01*
X2289519Y2099128D01*
X2290340Y2098393D01*
X2291214Y2097719D01*
X2292133Y2097110D01*
X2293095Y2096570D01*
X2294093Y2096102D01*
X2295124Y2095709D01*
X2296180Y2095390D01*
X2297256Y2095151D01*
X2298347Y2094991D01*
G37*
G36*
X729448Y2114910D02*
G01*
X730551Y2114910D01*
X731651Y2114991D01*
X732743Y2115151D01*
X733818Y2115390D01*
X734875Y2115709D01*
X735906Y2116102D01*
X736903Y2116570D01*
X737865Y2117111D01*
X738786Y2117719D01*
X739659Y2118393D01*
X740480Y2119128D01*
X741246Y2119922D01*
X741952Y2120770D01*
X742593Y2121667D01*
X743168Y2122609D01*
X743672Y2123591D01*
X744104Y2124605D01*
X744459Y2125650D01*
X744738Y2126716D01*
X744938Y2127800D01*
X745059Y2128897D01*
X745100Y2130000D01*
X745059Y2131102D01*
X744938Y2132199D01*
X744738Y2133283D01*
X744459Y2134349D01*
X744104Y2135394D01*
X743672Y2136408D01*
X743168Y2137390D01*
X742593Y2138332D01*
X741952Y2139229D01*
X741246Y2140077D01*
X740480Y2140871D01*
X739659Y2141606D01*
X738786Y2142280D01*
X737865Y2142889D01*
X736903Y2143429D01*
X735906Y2143897D01*
X734875Y2144290D01*
X733818Y2144609D01*
X732743Y2144848D01*
X731651Y2145009D01*
X730551Y2145090D01*
X729448Y2145090D01*
X728348Y2145009D01*
X727256Y2144848D01*
X726181Y2144609D01*
X725124Y2144290D01*
X724094Y2143897D01*
X723096Y2143429D01*
X722134Y2142889D01*
X721214Y2142280D01*
X720340Y2141606D01*
X719519Y2140871D01*
X718753Y2140077D01*
X718047Y2139229D01*
X717406Y2138332D01*
X716831Y2137390D01*
X716327Y2136408D01*
X715895Y2135394D01*
X715540Y2134349D01*
X715261Y2133283D01*
X715061Y2132199D01*
X714940Y2131102D01*
X714899Y2130000D01*
X714940Y2128897D01*
X715061Y2127800D01*
X715261Y2126716D01*
X715540Y2125650D01*
X715895Y2124605D01*
X716327Y2123591D01*
X716831Y2122609D01*
X717406Y2121667D01*
X718047Y2120770D01*
X718753Y2119922D01*
X719519Y2119128D01*
X720340Y2118393D01*
X721214Y2117719D01*
X722134Y2117111D01*
X723096Y2116570D01*
X724094Y2116102D01*
X725124Y2115709D01*
X726181Y2115390D01*
X727256Y2115151D01*
X728348Y2114991D01*
G37*
G36*
X2579449Y2179910D02*
G01*
X2580550Y2179910D01*
X2581652Y2179991D01*
X2582743Y2180151D01*
X2583819Y2180390D01*
X2584875Y2180709D01*
X2585906Y2181102D01*
X2586904Y2181570D01*
X2587866Y2182111D01*
X2588786Y2182719D01*
X2589659Y2183393D01*
X2590481Y2184128D01*
X2591246Y2184922D01*
X2591952Y2185770D01*
X2592592Y2186667D01*
X2593167Y2187609D01*
X2593671Y2188591D01*
X2594103Y2189605D01*
X2594459Y2190650D01*
X2594738Y2191716D01*
X2594939Y2192800D01*
X2595060Y2193897D01*
X2595100Y2195000D01*
X2595060Y2196102D01*
X2594939Y2197199D01*
X2594738Y2198283D01*
X2594459Y2199349D01*
X2594103Y2200394D01*
X2593671Y2201408D01*
X2593167Y2202390D01*
X2592592Y2203332D01*
X2591952Y2204229D01*
X2591246Y2205077D01*
X2590481Y2205871D01*
X2589659Y2206606D01*
X2588786Y2207280D01*
X2587866Y2207889D01*
X2586904Y2208429D01*
X2585906Y2208897D01*
X2584875Y2209290D01*
X2583819Y2209609D01*
X2582743Y2209848D01*
X2581652Y2210009D01*
X2580550Y2210090D01*
X2579449Y2210090D01*
X2578347Y2210009D01*
X2577256Y2209848D01*
X2576180Y2209609D01*
X2575124Y2209290D01*
X2574093Y2208897D01*
X2573095Y2208429D01*
X2572133Y2207889D01*
X2571214Y2207280D01*
X2570340Y2206606D01*
X2569519Y2205871D01*
X2568753Y2205077D01*
X2568047Y2204229D01*
X2567407Y2203332D01*
X2566832Y2202390D01*
X2566328Y2201408D01*
X2565896Y2200394D01*
X2565540Y2199349D01*
X2565261Y2198283D01*
X2565060Y2197199D01*
X2564939Y2196102D01*
X2564899Y2195000D01*
X2564939Y2193897D01*
X2565060Y2192800D01*
X2565261Y2191716D01*
X2565540Y2190650D01*
X2565896Y2189605D01*
X2566328Y2188591D01*
X2566832Y2187609D01*
X2567407Y2186667D01*
X2568047Y2185770D01*
X2568753Y2184922D01*
X2569519Y2184128D01*
X2570340Y2183393D01*
X2571214Y2182719D01*
X2572133Y2182111D01*
X2573095Y2181570D01*
X2574093Y2181102D01*
X2575124Y2180709D01*
X2576180Y2180390D01*
X2577256Y2180151D01*
X2578347Y2179991D01*
G37*
G36*
X2364449Y2184910D02*
G01*
X2365550Y2184910D01*
X2366652Y2184991D01*
X2367743Y2185151D01*
X2368819Y2185390D01*
X2369875Y2185709D01*
X2370906Y2186102D01*
X2371904Y2186570D01*
X2372866Y2187111D01*
X2373786Y2187719D01*
X2374659Y2188393D01*
X2375481Y2189128D01*
X2376246Y2189922D01*
X2376952Y2190770D01*
X2377592Y2191667D01*
X2378167Y2192609D01*
X2378671Y2193591D01*
X2379103Y2194605D01*
X2379459Y2195650D01*
X2379738Y2196716D01*
X2379939Y2197800D01*
X2380060Y2198897D01*
X2380100Y2200000D01*
X2380060Y2201102D01*
X2379939Y2202199D01*
X2379738Y2203283D01*
X2379459Y2204349D01*
X2379103Y2205394D01*
X2378671Y2206408D01*
X2378167Y2207390D01*
X2377592Y2208332D01*
X2376952Y2209229D01*
X2376246Y2210077D01*
X2375481Y2210871D01*
X2374659Y2211606D01*
X2373786Y2212280D01*
X2372866Y2212889D01*
X2371904Y2213429D01*
X2370906Y2213897D01*
X2369875Y2214290D01*
X2368819Y2214609D01*
X2367743Y2214848D01*
X2366652Y2215009D01*
X2365550Y2215090D01*
X2364449Y2215090D01*
X2363347Y2215009D01*
X2362256Y2214848D01*
X2361180Y2214609D01*
X2360124Y2214290D01*
X2359093Y2213897D01*
X2358095Y2213429D01*
X2357133Y2212889D01*
X2356214Y2212280D01*
X2355340Y2211606D01*
X2354519Y2210871D01*
X2353753Y2210077D01*
X2353047Y2209229D01*
X2352407Y2208332D01*
X2351832Y2207390D01*
X2351328Y2206408D01*
X2350896Y2205394D01*
X2350540Y2204349D01*
X2350261Y2203283D01*
X2350060Y2202199D01*
X2349939Y2201102D01*
X2349899Y2200000D01*
X2349939Y2198897D01*
X2350060Y2197800D01*
X2350261Y2196716D01*
X2350540Y2195650D01*
X2350896Y2194605D01*
X2351328Y2193591D01*
X2351832Y2192609D01*
X2352407Y2191667D01*
X2353047Y2190770D01*
X2353753Y2189922D01*
X2354519Y2189128D01*
X2355340Y2188393D01*
X2356214Y2187719D01*
X2357133Y2187111D01*
X2358095Y2186570D01*
X2359093Y2186102D01*
X2360124Y2185709D01*
X2361180Y2185390D01*
X2362256Y2185151D01*
X2363347Y2184991D01*
G37*
G36*
X2919449Y2184910D02*
G01*
X2920550Y2184910D01*
X2921652Y2184991D01*
X2922743Y2185151D01*
X2923819Y2185390D01*
X2924875Y2185709D01*
X2925906Y2186102D01*
X2926904Y2186570D01*
X2927866Y2187111D01*
X2928786Y2187719D01*
X2929659Y2188393D01*
X2930481Y2189128D01*
X2931246Y2189922D01*
X2931952Y2190770D01*
X2932592Y2191667D01*
X2933167Y2192609D01*
X2933671Y2193591D01*
X2934103Y2194605D01*
X2934459Y2195650D01*
X2934738Y2196716D01*
X2934939Y2197800D01*
X2935060Y2198897D01*
X2935100Y2200000D01*
X2935060Y2201102D01*
X2934939Y2202199D01*
X2934738Y2203283D01*
X2934459Y2204349D01*
X2934103Y2205394D01*
X2933671Y2206408D01*
X2933167Y2207390D01*
X2932592Y2208332D01*
X2931952Y2209229D01*
X2931246Y2210077D01*
X2930481Y2210871D01*
X2929659Y2211606D01*
X2928786Y2212280D01*
X2927866Y2212889D01*
X2926904Y2213429D01*
X2925906Y2213897D01*
X2924875Y2214290D01*
X2923819Y2214609D01*
X2922743Y2214848D01*
X2921652Y2215009D01*
X2920550Y2215090D01*
X2919449Y2215090D01*
X2918347Y2215009D01*
X2917256Y2214848D01*
X2916180Y2214609D01*
X2915124Y2214290D01*
X2914093Y2213897D01*
X2913095Y2213429D01*
X2912133Y2212889D01*
X2911214Y2212280D01*
X2910340Y2211606D01*
X2909519Y2210871D01*
X2908753Y2210077D01*
X2908047Y2209229D01*
X2907407Y2208332D01*
X2906832Y2207390D01*
X2906328Y2206408D01*
X2905896Y2205394D01*
X2905540Y2204349D01*
X2905261Y2203283D01*
X2905060Y2202199D01*
X2904939Y2201102D01*
X2904899Y2200000D01*
X2904939Y2198897D01*
X2905060Y2197800D01*
X2905261Y2196716D01*
X2905540Y2195650D01*
X2905896Y2194605D01*
X2906328Y2193591D01*
X2906832Y2192609D01*
X2907407Y2191667D01*
X2908047Y2190770D01*
X2908753Y2189922D01*
X2909519Y2189128D01*
X2910340Y2188393D01*
X2911214Y2187719D01*
X2912133Y2187111D01*
X2913095Y2186570D01*
X2914093Y2186102D01*
X2915124Y2185709D01*
X2916180Y2185390D01*
X2917256Y2185151D01*
X2918347Y2184991D01*
G37*
G36*
X3194449Y2189910D02*
G01*
X3195550Y2189910D01*
X3196652Y2189991D01*
X3197743Y2190151D01*
X3198819Y2190390D01*
X3199875Y2190709D01*
X3200906Y2191102D01*
X3201904Y2191570D01*
X3202866Y2192111D01*
X3203786Y2192719D01*
X3204659Y2193393D01*
X3205481Y2194128D01*
X3206246Y2194922D01*
X3206952Y2195770D01*
X3207592Y2196667D01*
X3208167Y2197609D01*
X3208671Y2198591D01*
X3209103Y2199605D01*
X3209459Y2200650D01*
X3209738Y2201716D01*
X3209939Y2202800D01*
X3210060Y2203897D01*
X3210100Y2205000D01*
X3210060Y2206102D01*
X3209939Y2207199D01*
X3209738Y2208283D01*
X3209459Y2209349D01*
X3209103Y2210394D01*
X3208671Y2211408D01*
X3208167Y2212390D01*
X3207592Y2213332D01*
X3206952Y2214229D01*
X3206246Y2215077D01*
X3205481Y2215871D01*
X3204659Y2216606D01*
X3203786Y2217280D01*
X3202866Y2217889D01*
X3201904Y2218429D01*
X3200906Y2218897D01*
X3199875Y2219290D01*
X3198819Y2219609D01*
X3197743Y2219848D01*
X3196652Y2220009D01*
X3195550Y2220090D01*
X3194449Y2220090D01*
X3193347Y2220009D01*
X3192256Y2219848D01*
X3191180Y2219609D01*
X3190124Y2219290D01*
X3189093Y2218897D01*
X3188095Y2218429D01*
X3187133Y2217889D01*
X3186214Y2217280D01*
X3185340Y2216606D01*
X3184519Y2215871D01*
X3183753Y2215077D01*
X3183047Y2214229D01*
X3182407Y2213332D01*
X3181832Y2212390D01*
X3181328Y2211408D01*
X3180896Y2210394D01*
X3180540Y2209349D01*
X3180261Y2208283D01*
X3180060Y2207199D01*
X3179939Y2206102D01*
X3179899Y2205000D01*
X3179939Y2203897D01*
X3180060Y2202800D01*
X3180261Y2201716D01*
X3180540Y2200650D01*
X3180896Y2199605D01*
X3181328Y2198591D01*
X3181832Y2197609D01*
X3182407Y2196667D01*
X3183047Y2195770D01*
X3183753Y2194922D01*
X3184519Y2194128D01*
X3185340Y2193393D01*
X3186214Y2192719D01*
X3187133Y2192111D01*
X3188095Y2191570D01*
X3189093Y2191102D01*
X3190124Y2190709D01*
X3191180Y2190390D01*
X3192256Y2190151D01*
X3193347Y2189991D01*
G37*
G36*
X2664449Y2189910D02*
G01*
X2665550Y2189910D01*
X2666652Y2189991D01*
X2667743Y2190151D01*
X2668819Y2190390D01*
X2669875Y2190709D01*
X2670906Y2191102D01*
X2671904Y2191570D01*
X2672866Y2192111D01*
X2673786Y2192719D01*
X2674659Y2193393D01*
X2675481Y2194128D01*
X2676246Y2194922D01*
X2676952Y2195770D01*
X2677592Y2196667D01*
X2678167Y2197609D01*
X2678671Y2198591D01*
X2679103Y2199605D01*
X2679459Y2200650D01*
X2679738Y2201716D01*
X2679939Y2202800D01*
X2680060Y2203897D01*
X2680100Y2205000D01*
X2680060Y2206102D01*
X2679939Y2207199D01*
X2679738Y2208283D01*
X2679459Y2209349D01*
X2679103Y2210394D01*
X2678671Y2211408D01*
X2678167Y2212390D01*
X2677592Y2213332D01*
X2676952Y2214229D01*
X2676246Y2215077D01*
X2675481Y2215871D01*
X2674659Y2216606D01*
X2673786Y2217280D01*
X2672866Y2217889D01*
X2671904Y2218429D01*
X2670906Y2218897D01*
X2669875Y2219290D01*
X2668819Y2219609D01*
X2667743Y2219848D01*
X2666652Y2220009D01*
X2665550Y2220090D01*
X2664449Y2220090D01*
X2663347Y2220009D01*
X2662256Y2219848D01*
X2661180Y2219609D01*
X2660124Y2219290D01*
X2659093Y2218897D01*
X2658095Y2218429D01*
X2657133Y2217889D01*
X2656214Y2217280D01*
X2655340Y2216606D01*
X2654519Y2215871D01*
X2653753Y2215077D01*
X2653047Y2214229D01*
X2652407Y2213332D01*
X2651832Y2212390D01*
X2651328Y2211408D01*
X2650896Y2210394D01*
X2650540Y2209349D01*
X2650261Y2208283D01*
X2650060Y2207199D01*
X2649939Y2206102D01*
X2649899Y2205000D01*
X2649939Y2203897D01*
X2650060Y2202800D01*
X2650261Y2201716D01*
X2650540Y2200650D01*
X2650896Y2199605D01*
X2651328Y2198591D01*
X2651832Y2197609D01*
X2652407Y2196667D01*
X2653047Y2195770D01*
X2653753Y2194922D01*
X2654519Y2194128D01*
X2655340Y2193393D01*
X2656214Y2192719D01*
X2657133Y2192111D01*
X2658095Y2191570D01*
X2659093Y2191102D01*
X2660124Y2190709D01*
X2661180Y2190390D01*
X2662256Y2190151D01*
X2663347Y2189991D01*
G37*
G36*
X2749449Y2189910D02*
G01*
X2750550Y2189910D01*
X2751652Y2189991D01*
X2752743Y2190151D01*
X2753819Y2190390D01*
X2754875Y2190709D01*
X2755906Y2191102D01*
X2756904Y2191570D01*
X2757866Y2192111D01*
X2758786Y2192719D01*
X2759659Y2193393D01*
X2760481Y2194128D01*
X2761246Y2194922D01*
X2761952Y2195770D01*
X2762592Y2196667D01*
X2763167Y2197609D01*
X2763671Y2198591D01*
X2764103Y2199605D01*
X2764459Y2200650D01*
X2764738Y2201716D01*
X2764939Y2202800D01*
X2765060Y2203897D01*
X2765100Y2205000D01*
X2765060Y2206102D01*
X2764939Y2207199D01*
X2764738Y2208283D01*
X2764459Y2209349D01*
X2764103Y2210394D01*
X2763671Y2211408D01*
X2763167Y2212390D01*
X2762592Y2213332D01*
X2761952Y2214229D01*
X2761246Y2215077D01*
X2760481Y2215871D01*
X2759659Y2216606D01*
X2758786Y2217280D01*
X2757866Y2217889D01*
X2756904Y2218429D01*
X2755906Y2218897D01*
X2754875Y2219290D01*
X2753819Y2219609D01*
X2752743Y2219848D01*
X2751652Y2220009D01*
X2750550Y2220090D01*
X2749449Y2220090D01*
X2748347Y2220009D01*
X2747256Y2219848D01*
X2746180Y2219609D01*
X2745124Y2219290D01*
X2744093Y2218897D01*
X2743095Y2218429D01*
X2742133Y2217889D01*
X2741214Y2217280D01*
X2740340Y2216606D01*
X2739519Y2215871D01*
X2738753Y2215077D01*
X2738047Y2214229D01*
X2737407Y2213332D01*
X2736832Y2212390D01*
X2736328Y2211408D01*
X2735896Y2210394D01*
X2735540Y2209349D01*
X2735261Y2208283D01*
X2735060Y2207199D01*
X2734939Y2206102D01*
X2734899Y2205000D01*
X2734939Y2203897D01*
X2735060Y2202800D01*
X2735261Y2201716D01*
X2735540Y2200650D01*
X2735896Y2199605D01*
X2736328Y2198591D01*
X2736832Y2197609D01*
X2737407Y2196667D01*
X2738047Y2195770D01*
X2738753Y2194922D01*
X2739519Y2194128D01*
X2740340Y2193393D01*
X2741214Y2192719D01*
X2742133Y2192111D01*
X2743095Y2191570D01*
X2744093Y2191102D01*
X2745124Y2190709D01*
X2746180Y2190390D01*
X2747256Y2190151D01*
X2748347Y2189991D01*
G37*
G36*
X3114449Y2209910D02*
G01*
X3115550Y2209910D01*
X3116652Y2209991D01*
X3117743Y2210151D01*
X3118819Y2210390D01*
X3119875Y2210709D01*
X3120906Y2211102D01*
X3121904Y2211570D01*
X3122866Y2212111D01*
X3123786Y2212719D01*
X3124659Y2213393D01*
X3125481Y2214128D01*
X3126246Y2214922D01*
X3126952Y2215770D01*
X3127592Y2216667D01*
X3128167Y2217609D01*
X3128671Y2218591D01*
X3129103Y2219605D01*
X3129459Y2220650D01*
X3129738Y2221716D01*
X3129939Y2222800D01*
X3130060Y2223897D01*
X3130100Y2225000D01*
X3130060Y2226102D01*
X3129939Y2227199D01*
X3129738Y2228283D01*
X3129459Y2229349D01*
X3129103Y2230394D01*
X3128671Y2231408D01*
X3128167Y2232390D01*
X3127592Y2233332D01*
X3126952Y2234229D01*
X3126246Y2235077D01*
X3125481Y2235871D01*
X3124659Y2236606D01*
X3123786Y2237280D01*
X3122866Y2237889D01*
X3121904Y2238429D01*
X3120906Y2238897D01*
X3119875Y2239290D01*
X3118819Y2239609D01*
X3117743Y2239848D01*
X3116652Y2240009D01*
X3115550Y2240090D01*
X3114449Y2240090D01*
X3113347Y2240009D01*
X3112256Y2239848D01*
X3111180Y2239609D01*
X3110124Y2239290D01*
X3109093Y2238897D01*
X3108095Y2238429D01*
X3107133Y2237889D01*
X3106214Y2237280D01*
X3105340Y2236606D01*
X3104519Y2235871D01*
X3103753Y2235077D01*
X3103047Y2234229D01*
X3102407Y2233332D01*
X3101832Y2232390D01*
X3101328Y2231408D01*
X3100896Y2230394D01*
X3100540Y2229349D01*
X3100261Y2228283D01*
X3100060Y2227199D01*
X3099939Y2226102D01*
X3099899Y2225000D01*
X3099939Y2223897D01*
X3100060Y2222800D01*
X3100261Y2221716D01*
X3100540Y2220650D01*
X3100896Y2219605D01*
X3101328Y2218591D01*
X3101832Y2217609D01*
X3102407Y2216667D01*
X3103047Y2215770D01*
X3103753Y2214922D01*
X3104519Y2214128D01*
X3105340Y2213393D01*
X3106214Y2212719D01*
X3107133Y2212111D01*
X3108095Y2211570D01*
X3109093Y2211102D01*
X3110124Y2210709D01*
X3111180Y2210390D01*
X3112256Y2210151D01*
X3113347Y2209991D01*
G37*
G36*
X659448Y2279910D02*
G01*
X660551Y2279910D01*
X661651Y2279991D01*
X662743Y2280151D01*
X663818Y2280390D01*
X664875Y2280709D01*
X665906Y2281102D01*
X666903Y2281570D01*
X667865Y2282111D01*
X668786Y2282719D01*
X669659Y2283393D01*
X670480Y2284128D01*
X671246Y2284922D01*
X671952Y2285770D01*
X672593Y2286667D01*
X673168Y2287609D01*
X673672Y2288591D01*
X674104Y2289605D01*
X674459Y2290650D01*
X674738Y2291716D01*
X674938Y2292800D01*
X675059Y2293897D01*
X675100Y2295000D01*
X675059Y2296102D01*
X674938Y2297199D01*
X674738Y2298283D01*
X674459Y2299349D01*
X674104Y2300394D01*
X673672Y2301408D01*
X673168Y2302390D01*
X672593Y2303332D01*
X671952Y2304229D01*
X671246Y2305077D01*
X670480Y2305871D01*
X669659Y2306606D01*
X668786Y2307280D01*
X667865Y2307889D01*
X666903Y2308429D01*
X665906Y2308897D01*
X664875Y2309290D01*
X663818Y2309609D01*
X662743Y2309848D01*
X661651Y2310009D01*
X660551Y2310090D01*
X659448Y2310090D01*
X658348Y2310009D01*
X657256Y2309848D01*
X656181Y2309609D01*
X655124Y2309290D01*
X654094Y2308897D01*
X653096Y2308429D01*
X652134Y2307889D01*
X651214Y2307280D01*
X650340Y2306606D01*
X649519Y2305871D01*
X648753Y2305077D01*
X648047Y2304229D01*
X647406Y2303332D01*
X646831Y2302390D01*
X646327Y2301408D01*
X645895Y2300394D01*
X645540Y2299349D01*
X645261Y2298283D01*
X645061Y2297199D01*
X644940Y2296102D01*
X644899Y2295000D01*
X644940Y2293897D01*
X645061Y2292800D01*
X645261Y2291716D01*
X645540Y2290650D01*
X645895Y2289605D01*
X646327Y2288591D01*
X646831Y2287609D01*
X647406Y2286667D01*
X648047Y2285770D01*
X648753Y2284922D01*
X649519Y2284128D01*
X650340Y2283393D01*
X651214Y2282719D01*
X652134Y2282111D01*
X653096Y2281570D01*
X654094Y2281102D01*
X655124Y2280709D01*
X656181Y2280390D01*
X657256Y2280151D01*
X658348Y2279991D01*
G37*
G36*
X444448Y2404910D02*
G01*
X445551Y2404910D01*
X446651Y2404991D01*
X447743Y2405151D01*
X448818Y2405390D01*
X449875Y2405709D01*
X450905Y2406102D01*
X451903Y2406570D01*
X452865Y2407111D01*
X453786Y2407719D01*
X454659Y2408393D01*
X455480Y2409128D01*
X456246Y2409922D01*
X456952Y2410770D01*
X457593Y2411667D01*
X458168Y2412609D01*
X458672Y2413591D01*
X459104Y2414605D01*
X459459Y2415650D01*
X459738Y2416716D01*
X459938Y2417800D01*
X460059Y2418897D01*
X460100Y2420000D01*
X460059Y2421102D01*
X459938Y2422199D01*
X459738Y2423283D01*
X459459Y2424349D01*
X459104Y2425394D01*
X458672Y2426408D01*
X458168Y2427390D01*
X457593Y2428332D01*
X456952Y2429229D01*
X456246Y2430077D01*
X455480Y2430871D01*
X454659Y2431606D01*
X453786Y2432280D01*
X452865Y2432889D01*
X451903Y2433429D01*
X450905Y2433897D01*
X449875Y2434290D01*
X448818Y2434609D01*
X447743Y2434848D01*
X446651Y2435009D01*
X445551Y2435090D01*
X444448Y2435090D01*
X443348Y2435009D01*
X442256Y2434848D01*
X441181Y2434609D01*
X440124Y2434290D01*
X439094Y2433897D01*
X438096Y2433429D01*
X437134Y2432889D01*
X436213Y2432280D01*
X435340Y2431606D01*
X434519Y2430871D01*
X433753Y2430077D01*
X433047Y2429229D01*
X432406Y2428332D01*
X431831Y2427390D01*
X431327Y2426408D01*
X430895Y2425394D01*
X430540Y2424349D01*
X430261Y2423283D01*
X430061Y2422199D01*
X429940Y2421102D01*
X429899Y2420000D01*
X429940Y2418897D01*
X430061Y2417800D01*
X430261Y2416716D01*
X430540Y2415650D01*
X430895Y2414605D01*
X431327Y2413591D01*
X431831Y2412609D01*
X432406Y2411667D01*
X433047Y2410770D01*
X433753Y2409922D01*
X434519Y2409128D01*
X435340Y2408393D01*
X436213Y2407719D01*
X437134Y2407111D01*
X438096Y2406570D01*
X439094Y2406102D01*
X440124Y2405709D01*
X441181Y2405390D01*
X442256Y2405151D01*
X443348Y2404991D01*
G37*
G36*
X2449449Y2409910D02*
G01*
X2450550Y2409910D01*
X2451652Y2409991D01*
X2452743Y2410151D01*
X2453819Y2410390D01*
X2454875Y2410709D01*
X2455906Y2411102D01*
X2456904Y2411570D01*
X2457866Y2412111D01*
X2458786Y2412719D01*
X2459659Y2413393D01*
X2460481Y2414128D01*
X2461246Y2414922D01*
X2461952Y2415770D01*
X2462592Y2416667D01*
X2463167Y2417609D01*
X2463671Y2418591D01*
X2464103Y2419605D01*
X2464459Y2420650D01*
X2464738Y2421716D01*
X2464939Y2422800D01*
X2465060Y2423897D01*
X2465100Y2425000D01*
X2465060Y2426102D01*
X2464939Y2427199D01*
X2464738Y2428283D01*
X2464459Y2429349D01*
X2464103Y2430394D01*
X2463671Y2431408D01*
X2463167Y2432390D01*
X2462592Y2433332D01*
X2461952Y2434229D01*
X2461246Y2435077D01*
X2460481Y2435871D01*
X2459659Y2436606D01*
X2458786Y2437280D01*
X2457866Y2437889D01*
X2456904Y2438429D01*
X2455906Y2438897D01*
X2454875Y2439290D01*
X2453819Y2439609D01*
X2452743Y2439848D01*
X2451652Y2440009D01*
X2450550Y2440090D01*
X2449449Y2440090D01*
X2448347Y2440009D01*
X2447256Y2439848D01*
X2446180Y2439609D01*
X2445124Y2439290D01*
X2444093Y2438897D01*
X2443095Y2438429D01*
X2442133Y2437889D01*
X2441214Y2437280D01*
X2440340Y2436606D01*
X2439519Y2435871D01*
X2438753Y2435077D01*
X2438047Y2434229D01*
X2437407Y2433332D01*
X2436832Y2432390D01*
X2436328Y2431408D01*
X2435896Y2430394D01*
X2435540Y2429349D01*
X2435261Y2428283D01*
X2435060Y2427199D01*
X2434939Y2426102D01*
X2434899Y2425000D01*
X2434939Y2423897D01*
X2435060Y2422800D01*
X2435261Y2421716D01*
X2435540Y2420650D01*
X2435896Y2419605D01*
X2436328Y2418591D01*
X2436832Y2417609D01*
X2437407Y2416667D01*
X2438047Y2415770D01*
X2438753Y2414922D01*
X2439519Y2414128D01*
X2440340Y2413393D01*
X2441214Y2412719D01*
X2442133Y2412111D01*
X2443095Y2411570D01*
X2444093Y2411102D01*
X2445124Y2410709D01*
X2446180Y2410390D01*
X2447256Y2410151D01*
X2448347Y2409991D01*
G37*
G36*
X2379449Y2419910D02*
G01*
X2380550Y2419910D01*
X2381652Y2419991D01*
X2382743Y2420151D01*
X2383819Y2420390D01*
X2384875Y2420709D01*
X2385906Y2421102D01*
X2386904Y2421570D01*
X2387866Y2422111D01*
X2388786Y2422719D01*
X2389659Y2423393D01*
X2390481Y2424128D01*
X2391246Y2424922D01*
X2391952Y2425770D01*
X2392592Y2426667D01*
X2393167Y2427609D01*
X2393671Y2428591D01*
X2394103Y2429605D01*
X2394459Y2430650D01*
X2394738Y2431716D01*
X2394939Y2432800D01*
X2395060Y2433897D01*
X2395100Y2435000D01*
X2395060Y2436102D01*
X2394939Y2437199D01*
X2394738Y2438283D01*
X2394459Y2439349D01*
X2394103Y2440394D01*
X2393671Y2441408D01*
X2393167Y2442390D01*
X2392592Y2443332D01*
X2391952Y2444229D01*
X2391246Y2445077D01*
X2390481Y2445871D01*
X2389659Y2446606D01*
X2388786Y2447280D01*
X2387866Y2447889D01*
X2386904Y2448429D01*
X2385906Y2448897D01*
X2384875Y2449290D01*
X2383819Y2449609D01*
X2382743Y2449848D01*
X2381652Y2450009D01*
X2380550Y2450090D01*
X2379449Y2450090D01*
X2378347Y2450009D01*
X2377256Y2449848D01*
X2376180Y2449609D01*
X2375124Y2449290D01*
X2374093Y2448897D01*
X2373095Y2448429D01*
X2372133Y2447889D01*
X2371214Y2447280D01*
X2370340Y2446606D01*
X2369519Y2445871D01*
X2368753Y2445077D01*
X2368047Y2444229D01*
X2367407Y2443332D01*
X2366832Y2442390D01*
X2366328Y2441408D01*
X2365896Y2440394D01*
X2365540Y2439349D01*
X2365261Y2438283D01*
X2365060Y2437199D01*
X2364939Y2436102D01*
X2364899Y2435000D01*
X2364939Y2433897D01*
X2365060Y2432800D01*
X2365261Y2431716D01*
X2365540Y2430650D01*
X2365896Y2429605D01*
X2366328Y2428591D01*
X2366832Y2427609D01*
X2367407Y2426667D01*
X2368047Y2425770D01*
X2368753Y2424922D01*
X2369519Y2424128D01*
X2370340Y2423393D01*
X2371214Y2422719D01*
X2372133Y2422111D01*
X2373095Y2421570D01*
X2374093Y2421102D01*
X2375124Y2420709D01*
X2376180Y2420390D01*
X2377256Y2420151D01*
X2378347Y2419991D01*
G37*
G36*
X534448Y2434910D02*
G01*
X535551Y2434910D01*
X536651Y2434991D01*
X537743Y2435151D01*
X538818Y2435390D01*
X539875Y2435709D01*
X540906Y2436102D01*
X541903Y2436570D01*
X542865Y2437111D01*
X543786Y2437719D01*
X544659Y2438393D01*
X545480Y2439128D01*
X546246Y2439922D01*
X546952Y2440770D01*
X547593Y2441667D01*
X548168Y2442609D01*
X548672Y2443591D01*
X549104Y2444605D01*
X549459Y2445650D01*
X549738Y2446716D01*
X549938Y2447800D01*
X550059Y2448897D01*
X550100Y2450000D01*
X550059Y2451102D01*
X549938Y2452199D01*
X549738Y2453283D01*
X549459Y2454349D01*
X549104Y2455394D01*
X548672Y2456408D01*
X548168Y2457390D01*
X547593Y2458332D01*
X546952Y2459229D01*
X546246Y2460077D01*
X545480Y2460871D01*
X544659Y2461606D01*
X543786Y2462280D01*
X542865Y2462889D01*
X541903Y2463429D01*
X540906Y2463897D01*
X539875Y2464290D01*
X538818Y2464609D01*
X537743Y2464848D01*
X536651Y2465009D01*
X535551Y2465090D01*
X534448Y2465090D01*
X533348Y2465009D01*
X532256Y2464848D01*
X531181Y2464609D01*
X530124Y2464290D01*
X529094Y2463897D01*
X528096Y2463429D01*
X527134Y2462889D01*
X526214Y2462280D01*
X525340Y2461606D01*
X524519Y2460871D01*
X523753Y2460077D01*
X523047Y2459229D01*
X522406Y2458332D01*
X521831Y2457390D01*
X521327Y2456408D01*
X520895Y2455394D01*
X520540Y2454349D01*
X520261Y2453283D01*
X520061Y2452199D01*
X519940Y2451102D01*
X519899Y2450000D01*
X519940Y2448897D01*
X520061Y2447800D01*
X520261Y2446716D01*
X520540Y2445650D01*
X520895Y2444605D01*
X521327Y2443591D01*
X521831Y2442609D01*
X522406Y2441667D01*
X523047Y2440770D01*
X523753Y2439922D01*
X524519Y2439128D01*
X525340Y2438393D01*
X526214Y2437719D01*
X527134Y2437111D01*
X528096Y2436570D01*
X529094Y2436102D01*
X530124Y2435709D01*
X531181Y2435390D01*
X532256Y2435151D01*
X533348Y2434991D01*
G37*
G36*
X2624449Y2454910D02*
G01*
X2625550Y2454910D01*
X2626652Y2454991D01*
X2627743Y2455151D01*
X2628819Y2455390D01*
X2629875Y2455709D01*
X2630906Y2456102D01*
X2631904Y2456570D01*
X2632866Y2457111D01*
X2633786Y2457719D01*
X2634659Y2458393D01*
X2635481Y2459128D01*
X2636246Y2459922D01*
X2636952Y2460770D01*
X2637592Y2461667D01*
X2638167Y2462609D01*
X2638671Y2463591D01*
X2639103Y2464605D01*
X2639459Y2465650D01*
X2639738Y2466716D01*
X2639939Y2467800D01*
X2640060Y2468897D01*
X2640100Y2470000D01*
X2640060Y2471102D01*
X2639939Y2472199D01*
X2639738Y2473283D01*
X2639459Y2474349D01*
X2639103Y2475394D01*
X2638671Y2476408D01*
X2638167Y2477390D01*
X2637592Y2478332D01*
X2636952Y2479229D01*
X2636246Y2480077D01*
X2635481Y2480871D01*
X2634659Y2481606D01*
X2633786Y2482280D01*
X2632866Y2482889D01*
X2631904Y2483429D01*
X2630906Y2483897D01*
X2629875Y2484290D01*
X2628819Y2484609D01*
X2627743Y2484848D01*
X2626652Y2485009D01*
X2625550Y2485090D01*
X2624449Y2485090D01*
X2623347Y2485009D01*
X2622256Y2484848D01*
X2621180Y2484609D01*
X2620124Y2484290D01*
X2619093Y2483897D01*
X2618095Y2483429D01*
X2617133Y2482889D01*
X2616214Y2482280D01*
X2615340Y2481606D01*
X2614519Y2480871D01*
X2613753Y2480077D01*
X2613047Y2479229D01*
X2612407Y2478332D01*
X2611832Y2477390D01*
X2611328Y2476408D01*
X2610896Y2475394D01*
X2610540Y2474349D01*
X2610261Y2473283D01*
X2610060Y2472199D01*
X2609939Y2471102D01*
X2609899Y2470000D01*
X2609939Y2468897D01*
X2610060Y2467800D01*
X2610261Y2466716D01*
X2610540Y2465650D01*
X2610896Y2464605D01*
X2611328Y2463591D01*
X2611832Y2462609D01*
X2612407Y2461667D01*
X2613047Y2460770D01*
X2613753Y2459922D01*
X2614519Y2459128D01*
X2615340Y2458393D01*
X2616214Y2457719D01*
X2617133Y2457111D01*
X2618095Y2456570D01*
X2619093Y2456102D01*
X2620124Y2455709D01*
X2621180Y2455390D01*
X2622256Y2455151D01*
X2623347Y2454991D01*
G37*
G36*
X3009449Y2474910D02*
G01*
X3010550Y2474910D01*
X3011652Y2474991D01*
X3012743Y2475151D01*
X3013819Y2475390D01*
X3014875Y2475709D01*
X3015906Y2476102D01*
X3016904Y2476570D01*
X3017866Y2477111D01*
X3018786Y2477719D01*
X3019659Y2478393D01*
X3020481Y2479128D01*
X3021246Y2479922D01*
X3021952Y2480770D01*
X3022592Y2481667D01*
X3023167Y2482609D01*
X3023671Y2483591D01*
X3024103Y2484605D01*
X3024459Y2485650D01*
X3024738Y2486716D01*
X3024939Y2487800D01*
X3025060Y2488897D01*
X3025100Y2490000D01*
X3025060Y2491102D01*
X3024939Y2492199D01*
X3024738Y2493283D01*
X3024459Y2494349D01*
X3024103Y2495394D01*
X3023671Y2496408D01*
X3023167Y2497390D01*
X3022592Y2498332D01*
X3021952Y2499229D01*
X3021246Y2500077D01*
X3020481Y2500871D01*
X3019659Y2501606D01*
X3018786Y2502280D01*
X3017866Y2502889D01*
X3016904Y2503429D01*
X3015906Y2503897D01*
X3014875Y2504290D01*
X3013819Y2504609D01*
X3012743Y2504848D01*
X3011652Y2505009D01*
X3010550Y2505090D01*
X3009449Y2505090D01*
X3008347Y2505009D01*
X3007256Y2504848D01*
X3006180Y2504609D01*
X3005124Y2504290D01*
X3004093Y2503897D01*
X3003095Y2503429D01*
X3002133Y2502889D01*
X3001214Y2502280D01*
X3000340Y2501606D01*
X2999519Y2500871D01*
X2998753Y2500077D01*
X2998047Y2499229D01*
X2997407Y2498332D01*
X2996832Y2497390D01*
X2996328Y2496408D01*
X2995896Y2495394D01*
X2995540Y2494349D01*
X2995261Y2493283D01*
X2995060Y2492199D01*
X2994939Y2491102D01*
X2994899Y2490000D01*
X2994939Y2488897D01*
X2995060Y2487800D01*
X2995261Y2486716D01*
X2995540Y2485650D01*
X2995896Y2484605D01*
X2996328Y2483591D01*
X2996832Y2482609D01*
X2997407Y2481667D01*
X2998047Y2480770D01*
X2998753Y2479922D01*
X2999519Y2479128D01*
X3000340Y2478393D01*
X3001214Y2477719D01*
X3002133Y2477111D01*
X3003095Y2476570D01*
X3004093Y2476102D01*
X3005124Y2475709D01*
X3006180Y2475390D01*
X3007256Y2475151D01*
X3008347Y2474991D01*
G37*
G36*
X2704449Y2494910D02*
G01*
X2705550Y2494910D01*
X2706652Y2494991D01*
X2707743Y2495151D01*
X2708819Y2495390D01*
X2709875Y2495709D01*
X2710906Y2496102D01*
X2711904Y2496570D01*
X2712866Y2497111D01*
X2713786Y2497719D01*
X2714659Y2498393D01*
X2715481Y2499128D01*
X2716246Y2499922D01*
X2716952Y2500770D01*
X2717592Y2501667D01*
X2718167Y2502609D01*
X2718671Y2503591D01*
X2719103Y2504605D01*
X2719459Y2505650D01*
X2719738Y2506716D01*
X2719939Y2507800D01*
X2720060Y2508897D01*
X2720100Y2510000D01*
X2720060Y2511102D01*
X2719939Y2512199D01*
X2719738Y2513283D01*
X2719459Y2514349D01*
X2719103Y2515394D01*
X2718671Y2516408D01*
X2718167Y2517390D01*
X2717592Y2518332D01*
X2716952Y2519229D01*
X2716246Y2520077D01*
X2715481Y2520871D01*
X2714659Y2521606D01*
X2713786Y2522280D01*
X2712866Y2522889D01*
X2711904Y2523429D01*
X2710906Y2523897D01*
X2709875Y2524290D01*
X2708819Y2524609D01*
X2707743Y2524848D01*
X2706652Y2525009D01*
X2705550Y2525090D01*
X2704449Y2525090D01*
X2703347Y2525009D01*
X2702256Y2524848D01*
X2701180Y2524609D01*
X2700124Y2524290D01*
X2699093Y2523897D01*
X2698095Y2523429D01*
X2697133Y2522889D01*
X2696214Y2522280D01*
X2695340Y2521606D01*
X2694519Y2520871D01*
X2693753Y2520077D01*
X2693047Y2519229D01*
X2692407Y2518332D01*
X2691832Y2517390D01*
X2691328Y2516408D01*
X2690896Y2515394D01*
X2690540Y2514349D01*
X2690261Y2513283D01*
X2690060Y2512199D01*
X2689939Y2511102D01*
X2689899Y2510000D01*
X2689939Y2508897D01*
X2690060Y2507800D01*
X2690261Y2506716D01*
X2690540Y2505650D01*
X2690896Y2504605D01*
X2691328Y2503591D01*
X2691832Y2502609D01*
X2692407Y2501667D01*
X2693047Y2500770D01*
X2693753Y2499922D01*
X2694519Y2499128D01*
X2695340Y2498393D01*
X2696214Y2497719D01*
X2697133Y2497111D01*
X2698095Y2496570D01*
X2699093Y2496102D01*
X2700124Y2495709D01*
X2701180Y2495390D01*
X2702256Y2495151D01*
X2703347Y2494991D01*
G37*
G36*
X2759449Y2494910D02*
G01*
X2760550Y2494910D01*
X2761652Y2494991D01*
X2762743Y2495151D01*
X2763819Y2495390D01*
X2764875Y2495709D01*
X2765906Y2496102D01*
X2766904Y2496570D01*
X2767866Y2497111D01*
X2768786Y2497719D01*
X2769659Y2498393D01*
X2770481Y2499128D01*
X2771246Y2499922D01*
X2771952Y2500770D01*
X2772592Y2501667D01*
X2773167Y2502609D01*
X2773671Y2503591D01*
X2774103Y2504605D01*
X2774459Y2505650D01*
X2774738Y2506716D01*
X2774939Y2507800D01*
X2775060Y2508897D01*
X2775100Y2510000D01*
X2775060Y2511102D01*
X2774939Y2512199D01*
X2774738Y2513283D01*
X2774459Y2514349D01*
X2774103Y2515394D01*
X2773671Y2516408D01*
X2773167Y2517390D01*
X2772592Y2518332D01*
X2771952Y2519229D01*
X2771246Y2520077D01*
X2770481Y2520871D01*
X2769659Y2521606D01*
X2768786Y2522280D01*
X2767866Y2522889D01*
X2766904Y2523429D01*
X2765906Y2523897D01*
X2764875Y2524290D01*
X2763819Y2524609D01*
X2762743Y2524848D01*
X2761652Y2525009D01*
X2760550Y2525090D01*
X2759449Y2525090D01*
X2758347Y2525009D01*
X2757256Y2524848D01*
X2756180Y2524609D01*
X2755124Y2524290D01*
X2754093Y2523897D01*
X2753095Y2523429D01*
X2752133Y2522889D01*
X2751214Y2522280D01*
X2750340Y2521606D01*
X2749519Y2520871D01*
X2748753Y2520077D01*
X2748047Y2519229D01*
X2747407Y2518332D01*
X2746832Y2517390D01*
X2746328Y2516408D01*
X2745896Y2515394D01*
X2745540Y2514349D01*
X2745261Y2513283D01*
X2745060Y2512199D01*
X2744939Y2511102D01*
X2744899Y2510000D01*
X2744939Y2508897D01*
X2745060Y2507800D01*
X2745261Y2506716D01*
X2745540Y2505650D01*
X2745896Y2504605D01*
X2746328Y2503591D01*
X2746832Y2502609D01*
X2747407Y2501667D01*
X2748047Y2500770D01*
X2748753Y2499922D01*
X2749519Y2499128D01*
X2750340Y2498393D01*
X2751214Y2497719D01*
X2752133Y2497111D01*
X2753095Y2496570D01*
X2754093Y2496102D01*
X2755124Y2495709D01*
X2756180Y2495390D01*
X2757256Y2495151D01*
X2758347Y2494991D01*
G37*
G36*
X2909449Y2499910D02*
G01*
X2910550Y2499910D01*
X2911652Y2499991D01*
X2912743Y2500151D01*
X2913819Y2500390D01*
X2914875Y2500709D01*
X2915906Y2501102D01*
X2916904Y2501570D01*
X2917866Y2502111D01*
X2918786Y2502719D01*
X2919659Y2503393D01*
X2920481Y2504128D01*
X2921246Y2504922D01*
X2921952Y2505770D01*
X2922592Y2506667D01*
X2923167Y2507609D01*
X2923671Y2508591D01*
X2924103Y2509605D01*
X2924459Y2510650D01*
X2924738Y2511716D01*
X2924939Y2512800D01*
X2925060Y2513897D01*
X2925100Y2515000D01*
X2925060Y2516102D01*
X2924939Y2517199D01*
X2924738Y2518283D01*
X2924459Y2519349D01*
X2924103Y2520394D01*
X2923671Y2521408D01*
X2923167Y2522390D01*
X2922592Y2523332D01*
X2921952Y2524229D01*
X2921246Y2525077D01*
X2920481Y2525871D01*
X2919659Y2526606D01*
X2918786Y2527280D01*
X2917866Y2527889D01*
X2916904Y2528429D01*
X2915906Y2528897D01*
X2914875Y2529290D01*
X2913819Y2529609D01*
X2912743Y2529848D01*
X2911652Y2530009D01*
X2910550Y2530090D01*
X2909449Y2530090D01*
X2908347Y2530009D01*
X2907256Y2529848D01*
X2906180Y2529609D01*
X2905124Y2529290D01*
X2904093Y2528897D01*
X2903095Y2528429D01*
X2902133Y2527889D01*
X2901214Y2527280D01*
X2900340Y2526606D01*
X2899519Y2525871D01*
X2898753Y2525077D01*
X2898047Y2524229D01*
X2897407Y2523332D01*
X2896832Y2522390D01*
X2896328Y2521408D01*
X2895896Y2520394D01*
X2895540Y2519349D01*
X2895261Y2518283D01*
X2895060Y2517199D01*
X2894939Y2516102D01*
X2894899Y2515000D01*
X2894939Y2513897D01*
X2895060Y2512800D01*
X2895261Y2511716D01*
X2895540Y2510650D01*
X2895896Y2509605D01*
X2896328Y2508591D01*
X2896832Y2507609D01*
X2897407Y2506667D01*
X2898047Y2505770D01*
X2898753Y2504922D01*
X2899519Y2504128D01*
X2900340Y2503393D01*
X2901214Y2502719D01*
X2902133Y2502111D01*
X2903095Y2501570D01*
X2904093Y2501102D01*
X2905124Y2500709D01*
X2906180Y2500390D01*
X2907256Y2500151D01*
X2908347Y2499991D01*
G37*
G36*
X2854449Y2499910D02*
G01*
X2855550Y2499910D01*
X2856652Y2499991D01*
X2857743Y2500151D01*
X2858819Y2500390D01*
X2859875Y2500709D01*
X2860906Y2501102D01*
X2861904Y2501570D01*
X2862866Y2502111D01*
X2863786Y2502719D01*
X2864659Y2503393D01*
X2865481Y2504128D01*
X2866246Y2504922D01*
X2866952Y2505770D01*
X2867592Y2506667D01*
X2868167Y2507609D01*
X2868671Y2508591D01*
X2869103Y2509605D01*
X2869459Y2510650D01*
X2869738Y2511716D01*
X2869939Y2512800D01*
X2870060Y2513897D01*
X2870100Y2515000D01*
X2870060Y2516102D01*
X2869939Y2517199D01*
X2869738Y2518283D01*
X2869459Y2519349D01*
X2869103Y2520394D01*
X2868671Y2521408D01*
X2868167Y2522390D01*
X2867592Y2523332D01*
X2866952Y2524229D01*
X2866246Y2525077D01*
X2865481Y2525871D01*
X2864659Y2526606D01*
X2863786Y2527280D01*
X2862866Y2527889D01*
X2861904Y2528429D01*
X2860906Y2528897D01*
X2859875Y2529290D01*
X2858819Y2529609D01*
X2857743Y2529848D01*
X2856652Y2530009D01*
X2855550Y2530090D01*
X2854449Y2530090D01*
X2853347Y2530009D01*
X2852256Y2529848D01*
X2851180Y2529609D01*
X2850124Y2529290D01*
X2849093Y2528897D01*
X2848095Y2528429D01*
X2847133Y2527889D01*
X2846214Y2527280D01*
X2845340Y2526606D01*
X2844519Y2525871D01*
X2843753Y2525077D01*
X2843047Y2524229D01*
X2842407Y2523332D01*
X2841832Y2522390D01*
X2841328Y2521408D01*
X2840896Y2520394D01*
X2840540Y2519349D01*
X2840261Y2518283D01*
X2840060Y2517199D01*
X2839939Y2516102D01*
X2839899Y2515000D01*
X2839939Y2513897D01*
X2840060Y2512800D01*
X2840261Y2511716D01*
X2840540Y2510650D01*
X2840896Y2509605D01*
X2841328Y2508591D01*
X2841832Y2507609D01*
X2842407Y2506667D01*
X2843047Y2505770D01*
X2843753Y2504922D01*
X2844519Y2504128D01*
X2845340Y2503393D01*
X2846214Y2502719D01*
X2847133Y2502111D01*
X2848095Y2501570D01*
X2849093Y2501102D01*
X2850124Y2500709D01*
X2851180Y2500390D01*
X2852256Y2500151D01*
X2853347Y2499991D01*
G37*
G36*
X3100448Y2504910D02*
G01*
X3101550Y2504910D01*
X3102651Y2504991D01*
X3103743Y2505151D01*
X3104818Y2505390D01*
X3105874Y2505709D01*
X3106905Y2506102D01*
X3107903Y2506570D01*
X3108865Y2507111D01*
X3109786Y2507719D01*
X3110658Y2508393D01*
X3111481Y2509128D01*
X3112245Y2509922D01*
X3112951Y2510770D01*
X3113593Y2511667D01*
X3114167Y2512609D01*
X3114672Y2513591D01*
X3115104Y2514605D01*
X3115460Y2515650D01*
X3115739Y2516716D01*
X3115938Y2517800D01*
X3116059Y2518897D01*
X3116099Y2520000D01*
X3116059Y2521102D01*
X3115938Y2522199D01*
X3115739Y2523283D01*
X3115460Y2524349D01*
X3115104Y2525394D01*
X3114672Y2526408D01*
X3114167Y2527390D01*
X3113593Y2528332D01*
X3112951Y2529229D01*
X3112245Y2530077D01*
X3111481Y2530871D01*
X3110658Y2531606D01*
X3109786Y2532280D01*
X3108865Y2532889D01*
X3107903Y2533429D01*
X3106905Y2533897D01*
X3105874Y2534290D01*
X3104818Y2534609D01*
X3103743Y2534848D01*
X3102651Y2535009D01*
X3101550Y2535090D01*
X3100448Y2535090D01*
X3099348Y2535009D01*
X3098257Y2534848D01*
X3097181Y2534609D01*
X3096125Y2534290D01*
X3095093Y2533897D01*
X3094095Y2533429D01*
X3093134Y2532889D01*
X3092214Y2532280D01*
X3091341Y2531606D01*
X3090519Y2530871D01*
X3089754Y2530077D01*
X3089048Y2529229D01*
X3088406Y2528332D01*
X3087831Y2527390D01*
X3087327Y2526408D01*
X3086895Y2525394D01*
X3086540Y2524349D01*
X3086261Y2523283D01*
X3086060Y2522199D01*
X3085940Y2521102D01*
X3085900Y2520000D01*
X3085940Y2518897D01*
X3086060Y2517800D01*
X3086261Y2516716D01*
X3086540Y2515650D01*
X3086895Y2514605D01*
X3087327Y2513591D01*
X3087831Y2512609D01*
X3088406Y2511667D01*
X3089048Y2510770D01*
X3089754Y2509922D01*
X3090519Y2509128D01*
X3091341Y2508393D01*
X3092214Y2507719D01*
X3093134Y2507111D01*
X3094095Y2506570D01*
X3095093Y2506102D01*
X3096125Y2505709D01*
X3097181Y2505390D01*
X3098257Y2505151D01*
X3099348Y2504991D01*
G37*
G36*
X3056449Y2509910D02*
G01*
X3057551Y2509910D01*
X3058652Y2509991D01*
X3059742Y2510151D01*
X3060819Y2510390D01*
X3061875Y2510709D01*
X3062906Y2511102D01*
X3063904Y2511570D01*
X3064866Y2512111D01*
X3065785Y2512719D01*
X3066658Y2513393D01*
X3067480Y2514128D01*
X3068245Y2514922D01*
X3068951Y2515770D01*
X3069593Y2516667D01*
X3070168Y2517609D01*
X3070672Y2518591D01*
X3071103Y2519605D01*
X3071459Y2520650D01*
X3071738Y2521716D01*
X3071939Y2522800D01*
X3072060Y2523897D01*
X3072100Y2525000D01*
X3072060Y2526102D01*
X3071939Y2527199D01*
X3071738Y2528283D01*
X3071459Y2529349D01*
X3071103Y2530394D01*
X3070672Y2531408D01*
X3070168Y2532390D01*
X3069593Y2533332D01*
X3068951Y2534229D01*
X3068245Y2535077D01*
X3067480Y2535871D01*
X3066658Y2536606D01*
X3065785Y2537280D01*
X3064866Y2537889D01*
X3063904Y2538429D01*
X3062906Y2538897D01*
X3061875Y2539290D01*
X3060819Y2539609D01*
X3059742Y2539848D01*
X3058652Y2540009D01*
X3057551Y2540090D01*
X3056449Y2540090D01*
X3055348Y2540009D01*
X3054256Y2539848D01*
X3053181Y2539609D01*
X3052124Y2539290D01*
X3051094Y2538897D01*
X3050096Y2538429D01*
X3049134Y2537889D01*
X3048213Y2537280D01*
X3047340Y2536606D01*
X3046518Y2535871D01*
X3045753Y2535077D01*
X3045047Y2534229D01*
X3044407Y2533332D01*
X3043832Y2532390D01*
X3043328Y2531408D01*
X3042896Y2530394D01*
X3042539Y2529349D01*
X3042260Y2528283D01*
X3042061Y2527199D01*
X3041940Y2526102D01*
X3041899Y2525000D01*
X3041940Y2523897D01*
X3042061Y2522800D01*
X3042260Y2521716D01*
X3042539Y2520650D01*
X3042896Y2519605D01*
X3043328Y2518591D01*
X3043832Y2517609D01*
X3044407Y2516667D01*
X3045047Y2515770D01*
X3045753Y2514922D01*
X3046518Y2514128D01*
X3047340Y2513393D01*
X3048213Y2512719D01*
X3049134Y2512111D01*
X3050096Y2511570D01*
X3051094Y2511102D01*
X3052124Y2510709D01*
X3053181Y2510390D01*
X3054256Y2510151D01*
X3055348Y2509991D01*
G37*
G36*
X2960448Y2509910D02*
G01*
X2961550Y2509910D01*
X2962651Y2509991D01*
X2963743Y2510151D01*
X2964818Y2510390D01*
X2965874Y2510709D01*
X2966905Y2511102D01*
X2967903Y2511570D01*
X2968865Y2512111D01*
X2969786Y2512719D01*
X2970658Y2513393D01*
X2971481Y2514128D01*
X2972245Y2514922D01*
X2972951Y2515770D01*
X2973593Y2516667D01*
X2974167Y2517609D01*
X2974672Y2518591D01*
X2975104Y2519605D01*
X2975460Y2520650D01*
X2975739Y2521716D01*
X2975938Y2522800D01*
X2976059Y2523897D01*
X2976099Y2525000D01*
X2976059Y2526102D01*
X2975938Y2527199D01*
X2975739Y2528283D01*
X2975460Y2529349D01*
X2975104Y2530394D01*
X2974672Y2531408D01*
X2974167Y2532390D01*
X2973593Y2533332D01*
X2972951Y2534229D01*
X2972245Y2535077D01*
X2971481Y2535871D01*
X2970658Y2536606D01*
X2969786Y2537280D01*
X2968865Y2537889D01*
X2967903Y2538429D01*
X2966905Y2538897D01*
X2965874Y2539290D01*
X2964818Y2539609D01*
X2963743Y2539848D01*
X2962651Y2540009D01*
X2961550Y2540090D01*
X2960448Y2540090D01*
X2959348Y2540009D01*
X2958257Y2539848D01*
X2957181Y2539609D01*
X2956125Y2539290D01*
X2955093Y2538897D01*
X2954095Y2538429D01*
X2953134Y2537889D01*
X2952214Y2537280D01*
X2951341Y2536606D01*
X2950519Y2535871D01*
X2949754Y2535077D01*
X2949048Y2534229D01*
X2948406Y2533332D01*
X2947831Y2532390D01*
X2947327Y2531408D01*
X2946895Y2530394D01*
X2946540Y2529349D01*
X2946261Y2528283D01*
X2946060Y2527199D01*
X2945940Y2526102D01*
X2945900Y2525000D01*
X2945940Y2523897D01*
X2946060Y2522800D01*
X2946261Y2521716D01*
X2946540Y2520650D01*
X2946895Y2519605D01*
X2947327Y2518591D01*
X2947831Y2517609D01*
X2948406Y2516667D01*
X2949048Y2515770D01*
X2949754Y2514922D01*
X2950519Y2514128D01*
X2951341Y2513393D01*
X2952214Y2512719D01*
X2953134Y2512111D01*
X2954095Y2511570D01*
X2955093Y2511102D01*
X2956125Y2510709D01*
X2957181Y2510390D01*
X2958257Y2510151D01*
X2959348Y2509991D01*
G37*
G36*
X2664449Y2524910D02*
G01*
X2665550Y2524910D01*
X2666652Y2524991D01*
X2667743Y2525151D01*
X2668819Y2525390D01*
X2669875Y2525709D01*
X2670906Y2526102D01*
X2671904Y2526570D01*
X2672866Y2527111D01*
X2673786Y2527719D01*
X2674659Y2528393D01*
X2675481Y2529128D01*
X2676246Y2529922D01*
X2676952Y2530770D01*
X2677592Y2531667D01*
X2678167Y2532609D01*
X2678671Y2533591D01*
X2679103Y2534605D01*
X2679459Y2535650D01*
X2679738Y2536716D01*
X2679939Y2537800D01*
X2680060Y2538897D01*
X2680100Y2540000D01*
X2680060Y2541102D01*
X2679939Y2542199D01*
X2679738Y2543283D01*
X2679459Y2544349D01*
X2679103Y2545394D01*
X2678671Y2546408D01*
X2678167Y2547390D01*
X2677592Y2548332D01*
X2676952Y2549229D01*
X2676246Y2550077D01*
X2675481Y2550871D01*
X2674659Y2551606D01*
X2673786Y2552280D01*
X2672866Y2552889D01*
X2671904Y2553429D01*
X2670906Y2553897D01*
X2669875Y2554290D01*
X2668819Y2554609D01*
X2667743Y2554848D01*
X2666652Y2555009D01*
X2665550Y2555090D01*
X2664449Y2555090D01*
X2663347Y2555009D01*
X2662256Y2554848D01*
X2661180Y2554609D01*
X2660124Y2554290D01*
X2659093Y2553897D01*
X2658095Y2553429D01*
X2657133Y2552889D01*
X2656214Y2552280D01*
X2655340Y2551606D01*
X2654519Y2550871D01*
X2653753Y2550077D01*
X2653047Y2549229D01*
X2652407Y2548332D01*
X2651832Y2547390D01*
X2651328Y2546408D01*
X2650896Y2545394D01*
X2650540Y2544349D01*
X2650261Y2543283D01*
X2650060Y2542199D01*
X2649939Y2541102D01*
X2649899Y2540000D01*
X2649939Y2538897D01*
X2650060Y2537800D01*
X2650261Y2536716D01*
X2650540Y2535650D01*
X2650896Y2534605D01*
X2651328Y2533591D01*
X2651832Y2532609D01*
X2652407Y2531667D01*
X2653047Y2530770D01*
X2653753Y2529922D01*
X2654519Y2529128D01*
X2655340Y2528393D01*
X2656214Y2527719D01*
X2657133Y2527111D01*
X2658095Y2526570D01*
X2659093Y2526102D01*
X2660124Y2525709D01*
X2661180Y2525390D01*
X2662256Y2525151D01*
X2663347Y2524991D01*
G37*
G36*
X2564449Y2644910D02*
G01*
X2565550Y2644910D01*
X2566652Y2644991D01*
X2567743Y2645151D01*
X2568819Y2645390D01*
X2569875Y2645709D01*
X2570906Y2646102D01*
X2571904Y2646570D01*
X2572866Y2647111D01*
X2573786Y2647719D01*
X2574659Y2648393D01*
X2575481Y2649128D01*
X2576246Y2649922D01*
X2576952Y2650770D01*
X2577592Y2651667D01*
X2578167Y2652609D01*
X2578671Y2653591D01*
X2579103Y2654605D01*
X2579459Y2655650D01*
X2579738Y2656716D01*
X2579939Y2657800D01*
X2580060Y2658897D01*
X2580100Y2660000D01*
X2580060Y2661102D01*
X2579939Y2662199D01*
X2579738Y2663283D01*
X2579459Y2664349D01*
X2579103Y2665394D01*
X2578671Y2666408D01*
X2578167Y2667390D01*
X2577592Y2668332D01*
X2576952Y2669229D01*
X2576246Y2670077D01*
X2575481Y2670871D01*
X2574659Y2671606D01*
X2573786Y2672280D01*
X2572866Y2672889D01*
X2571904Y2673429D01*
X2570906Y2673897D01*
X2569875Y2674290D01*
X2568819Y2674609D01*
X2567743Y2674848D01*
X2566652Y2675009D01*
X2565550Y2675090D01*
X2564449Y2675090D01*
X2563347Y2675009D01*
X2562256Y2674848D01*
X2561180Y2674609D01*
X2560124Y2674290D01*
X2559093Y2673897D01*
X2558095Y2673429D01*
X2557133Y2672889D01*
X2556214Y2672280D01*
X2555340Y2671606D01*
X2554519Y2670871D01*
X2553753Y2670077D01*
X2553047Y2669229D01*
X2552407Y2668332D01*
X2551832Y2667390D01*
X2551328Y2666408D01*
X2550896Y2665394D01*
X2550540Y2664349D01*
X2550261Y2663283D01*
X2550060Y2662199D01*
X2549939Y2661102D01*
X2549899Y2660000D01*
X2549939Y2658897D01*
X2550060Y2657800D01*
X2550261Y2656716D01*
X2550540Y2655650D01*
X2550896Y2654605D01*
X2551328Y2653591D01*
X2551832Y2652609D01*
X2552407Y2651667D01*
X2553047Y2650770D01*
X2553753Y2649922D01*
X2554519Y2649128D01*
X2555340Y2648393D01*
X2556214Y2647719D01*
X2557133Y2647111D01*
X2558095Y2646570D01*
X2559093Y2646102D01*
X2560124Y2645709D01*
X2561180Y2645390D01*
X2562256Y2645151D01*
X2563347Y2644991D01*
G37*
G36*
X2623449Y2645909D02*
G01*
X2624551Y2645909D01*
X2625652Y2645990D01*
X2626742Y2646151D01*
X2627818Y2646390D01*
X2628874Y2646709D01*
X2629906Y2647103D01*
X2630904Y2647570D01*
X2631866Y2648110D01*
X2632785Y2648719D01*
X2633658Y2649393D01*
X2634480Y2650129D01*
X2635245Y2650922D01*
X2635951Y2651770D01*
X2636593Y2652667D01*
X2637168Y2653609D01*
X2637672Y2654591D01*
X2638104Y2655605D01*
X2638459Y2656649D01*
X2638738Y2657716D01*
X2638939Y2658800D01*
X2639059Y2659897D01*
X2639099Y2660999D01*
X2639059Y2662102D01*
X2638939Y2663198D01*
X2638738Y2664283D01*
X2638459Y2665349D01*
X2638104Y2666394D01*
X2637672Y2667408D01*
X2637168Y2668389D01*
X2636593Y2669331D01*
X2635951Y2670228D01*
X2635245Y2671077D01*
X2634480Y2671871D01*
X2633658Y2672606D01*
X2632785Y2673281D01*
X2631866Y2673888D01*
X2630904Y2674429D01*
X2629906Y2674897D01*
X2628874Y2675291D01*
X2627818Y2675608D01*
X2626742Y2675848D01*
X2625652Y2676008D01*
X2624551Y2676089D01*
X2623449Y2676089D01*
X2622348Y2676008D01*
X2621256Y2675848D01*
X2620181Y2675608D01*
X2619125Y2675291D01*
X2618094Y2674897D01*
X2617096Y2674429D01*
X2616134Y2673888D01*
X2615213Y2673281D01*
X2614341Y2672606D01*
X2613518Y2671871D01*
X2612754Y2671077D01*
X2612048Y2670228D01*
X2611406Y2669331D01*
X2610832Y2668389D01*
X2610327Y2667408D01*
X2609895Y2666394D01*
X2609539Y2665349D01*
X2609260Y2664283D01*
X2609061Y2663198D01*
X2608940Y2662102D01*
X2608900Y2660999D01*
X2608940Y2659897D01*
X2609061Y2658800D01*
X2609260Y2657716D01*
X2609539Y2656649D01*
X2609895Y2655605D01*
X2610327Y2654591D01*
X2610832Y2653609D01*
X2611406Y2652667D01*
X2612048Y2651770D01*
X2612754Y2650922D01*
X2613518Y2650129D01*
X2614341Y2649393D01*
X2615213Y2648719D01*
X2616134Y2648110D01*
X2617096Y2647570D01*
X2618094Y2647103D01*
X2619125Y2646709D01*
X2620181Y2646390D01*
X2621256Y2646151D01*
X2622348Y2645990D01*
G37*

%LPD*%
D10*
G01*
X615000Y1160000D03*
D11*
G01*
X715000Y1160000D03*
G01*
X815000Y1160000D03*
G01*
X915000Y1160000D03*
G01*
X1015000Y1160000D03*
G01*
X1115000Y1160000D03*
D12*
G01*
X324920Y1694920D03*
G01*
X324920Y2035079D03*
D13*
G01*
X489490Y2035079D03*
G01*
X489490Y1694920D03*
D14*
G01*
X1105000Y1925000D03*
G01*
X2450000Y2425000D03*
G01*
X1110000Y1998719D03*
G01*
X2625000Y2470000D03*
G01*
X1100000Y1885000D03*
G01*
X2760000Y2510000D03*
G01*
X1115000Y1762420D03*
G01*
X2855000Y2515000D03*
G01*
X1120000Y1720000D03*
G01*
X2200000Y1825000D03*
G01*
X1255000Y1790000D03*
G01*
X2300000Y2110000D03*
G01*
X2920000Y2200000D03*
G01*
X2910000Y2515000D03*
G01*
X1195000Y1825000D03*
G01*
X1965000Y1830000D03*
G01*
X1965000Y1830000D03*
G01*
X1080000Y1835000D03*
G01*
X2365000Y2200000D03*
G01*
X2750000Y2205000D03*
G01*
X3115000Y2225000D03*
G01*
X2961000Y2525000D03*
G01*
X3056999Y2525000D03*
G01*
X1205000Y1960000D03*
G01*
X2380000Y2435000D03*
G01*
X2665000Y2540000D03*
G01*
X3101000Y2520000D03*
G01*
X810000Y2200000D03*
G01*
X740000Y1860000D03*
G01*
X2915000Y1455000D03*
G01*
X755000Y1920000D03*
G01*
X2685000Y1460000D03*
G01*
X730000Y2130000D03*
G01*
X670000Y2060000D03*
G01*
X3175000Y1350000D03*
G01*
X2475000Y1340000D03*
G01*
X2405000Y1305000D03*
G01*
X1285000Y1350000D03*
G01*
X1255000Y1385000D03*
G01*
X2460000Y1300000D03*
G01*
X1495000Y1490000D03*
G01*
X2525000Y1270000D03*
G01*
X1540000Y1470000D03*
G01*
X2460000Y1470000D03*
G01*
X1745000Y1665000D03*
G01*
X2280000Y1175000D03*
G01*
X3180000Y1415000D03*
G01*
X3180000Y1415000D03*
G01*
X3180000Y1415000D03*
G01*
X2940000Y1410000D03*
G01*
X1205000Y2605000D03*
G01*
X535000Y2450000D03*
G01*
X660000Y2295000D03*
G01*
X3090000Y1675000D03*
G01*
X2925000Y1655000D03*
G01*
X2415000Y1685000D03*
G01*
X2545000Y1796260D03*
G01*
X2580000Y2065000D03*
G01*
X2580000Y2065000D03*
G01*
X2580000Y2195000D03*
G01*
X2675000Y1795000D03*
G01*
X2665000Y2065000D03*
G01*
X2665000Y2205000D03*
G01*
X3195000Y2205000D03*
G01*
X2630000Y2020000D03*
G01*
X2560000Y1910000D03*
G01*
X535999Y2140000D03*
G01*
X445000Y2420000D03*
G01*
X575000Y1765000D03*
G01*
X425000Y2075000D03*
G01*
X325000Y2415000D03*
G01*
X315000Y2294520D03*
G01*
X1565000Y2035000D03*
G01*
X2623999Y2660999D03*
G01*
X2565000Y2660000D03*
G01*
X2395000Y1400000D03*
G01*
X2610000Y1470000D03*
G01*
X1175000Y1680000D03*
G01*
X1010000Y1320000D03*
G01*
X1055000Y1320000D03*
G01*
X2705000Y2510000D03*
G01*
X3010000Y2490000D03*
G01*
X975000Y1425000D03*
G01*
X910000Y1315000D03*
G01*
X1235000Y1180000D03*
G01*
X1220000Y1225000D03*
G01*
X500000Y1215000D03*
G01*
X1520000Y1165000D03*
G01*
X1370000Y1355000D03*
G01*
X2945000Y2035000D03*
G01*
X2890000Y2035000D03*
G01*
X2890000Y1980000D03*
G01*
X2945000Y1980000D03*
G01*
X2490000Y2375000D03*
G01*
X2350000Y2565000D03*
G01*
X2625000Y2580000D03*
G01*
X785000Y1235000D03*
G01*
X325000Y1590000D03*
G01*
X480000Y1620000D03*
G01*
X640000Y1540000D03*
G01*
X315000Y2110000D03*
G01*
X465999Y2081999D03*
G01*
X1000000Y2390000D03*
G01*
X930000Y1865000D03*
G01*
X915000Y1535000D03*
G01*
X1625000Y2590000D03*
G01*
X710000Y1690000D03*
G01*
X455000Y2290000D03*
G01*
X565000Y2290000D03*
G01*
X610000Y2460000D03*
G01*
X2515000Y1725000D03*
G01*
X895000Y2077460D03*
G01*
X2978999Y1150999D03*
M02*
