G04 Layer: BottomSilkscreenLayer*
G04 EasyEDA v6.5.22, 2023-04-19 21:06:07*
G04 0b1144c6aaf7448fb0b14bab58411d50,0a61cb7f7b51421fbede6d33e3e5ec82,10*
G04 Gerber Generator version 0.2*
G04 Scale: 100 percent, Rotated: No, Reflected: No *
G04 Dimensions in inches *
G04 leading zeros omitted , absolute positions ,3 integer and 6 decimal *
%FSLAX36Y36*%
%MOIN*%

%ADD10C,0.0080*%
%ADD11C,0.0060*%
%ADD12C,0.0100*%
%ADD13C,0.0051*%
%ADD14C,0.0039*%
%ADD15C,0.0121*%

%LPD*%
D10*
X3107727Y1226999D02*
G01*
X3031364Y1226999D01*
X3107727Y1226999D02*
G01*
X3107727Y1259726D01*
X3104090Y1270635D01*
X3100455Y1274272D01*
X3093181Y1277908D01*
X3085909Y1277908D01*
X3078635Y1274272D01*
X3075000Y1270635D01*
X3071364Y1259726D01*
X3071364Y1226999D02*
G01*
X3071364Y1259726D01*
X3067727Y1270635D01*
X3064090Y1274272D01*
X3056818Y1277908D01*
X3045909Y1277908D01*
X3038635Y1274272D01*
X3035000Y1270635D01*
X3031364Y1259726D01*
X3031364Y1226999D01*
X3107727Y1327363D02*
G01*
X3031364Y1327363D01*
X3107727Y1301909D02*
G01*
X3107727Y1352818D01*
X3150726Y2405000D02*
G01*
X3074363Y2405000D01*
X3150726Y2405000D02*
G01*
X3150726Y2437727D01*
X3147091Y2448636D01*
X3143455Y2452273D01*
X3136181Y2455909D01*
X3128909Y2455909D01*
X3121635Y2452273D01*
X3118000Y2448636D01*
X3114363Y2437727D01*
X3114363Y2405000D01*
X3114363Y2430455D02*
G01*
X3074363Y2455909D01*
X3139817Y2530817D02*
G01*
X3147091Y2523544D01*
X3150726Y2512636D01*
X3150726Y2498090D01*
X3147091Y2487181D01*
X3139817Y2479908D01*
X3132545Y2479908D01*
X3125272Y2483544D01*
X3121635Y2487181D01*
X3118000Y2494454D01*
X3110726Y2516273D01*
X3107091Y2523544D01*
X3103455Y2527181D01*
X3096181Y2530817D01*
X3085272Y2530817D01*
X3078000Y2523544D01*
X3074363Y2512636D01*
X3074363Y2498090D01*
X3078000Y2487181D01*
X3085272Y2479908D01*
X3150726Y2580273D02*
G01*
X3074363Y2580273D01*
X3150726Y2554818D02*
G01*
X3150726Y2605727D01*
X2764544Y2176817D02*
G01*
X2812272Y2195000D01*
X2764544Y2176817D02*
G01*
X2812272Y2158636D01*
X2796364Y2188182D02*
G01*
X2796364Y2165455D01*
X2764544Y2143636D02*
G01*
X2812272Y2143636D01*
X2764544Y2143636D02*
G01*
X2764544Y2123182D01*
X2766818Y2116363D01*
X2769090Y2114090D01*
X2773635Y2111817D01*
X2778181Y2111817D01*
X2782727Y2114090D01*
X2785000Y2116363D01*
X2787272Y2123182D01*
X2787272Y2143636D02*
G01*
X2787272Y2123182D01*
X2789544Y2116363D01*
X2791818Y2114090D01*
X2796364Y2111817D01*
X2803181Y2111817D01*
X2807727Y2114090D01*
X2810000Y2116363D01*
X2812272Y2123182D01*
X2812272Y2143636D01*
X2764544Y2096817D02*
G01*
X2812272Y2096817D01*
X2764544Y2096817D02*
G01*
X2764544Y2080909D01*
X2766818Y2074090D01*
X2771364Y2069544D01*
X2775909Y2067273D01*
X2782727Y2065000D01*
X2794090Y2065000D01*
X2800909Y2067273D01*
X2805455Y2069544D01*
X2810000Y2074090D01*
X2812272Y2080909D01*
X2812272Y2096817D01*
X2764544Y2050000D02*
G01*
X2798635Y2050000D01*
X2805455Y2047726D01*
X2810000Y2043182D01*
X2812272Y2036363D01*
X2812272Y2031817D01*
X2810000Y2025000D01*
X2805455Y2020455D01*
X2798635Y2018182D01*
X2764544Y2018182D01*
X2764544Y2003182D02*
G01*
X2812272Y2003182D01*
X2812272Y2003182D02*
G01*
X2812272Y1975909D01*
X2764544Y1960909D02*
G01*
X2812272Y1960909D01*
X2764544Y1960909D02*
G01*
X2764544Y1940455D01*
X2766818Y1933636D01*
X2769090Y1931363D01*
X2773635Y1929090D01*
X2778181Y1929090D01*
X2782727Y1931363D01*
X2785000Y1933636D01*
X2787272Y1940455D01*
X2787272Y1960909D01*
X2787272Y1945000D02*
G01*
X2812272Y1929090D01*
X2764544Y1895909D02*
G01*
X2812272Y1914090D01*
X2764544Y1895909D02*
G01*
X2812272Y1877726D01*
X2796364Y1907273D02*
G01*
X2796364Y1884544D01*
X2764544Y1862726D02*
G01*
X2812272Y1862726D01*
X2764544Y1830909D02*
G01*
X2812272Y1830909D01*
X2787272Y1862726D02*
G01*
X2787272Y1830909D01*
X2764544Y1815909D02*
G01*
X2812272Y1815909D01*
X2764544Y1815909D02*
G01*
X2812272Y1797726D01*
X2764544Y1779544D02*
G01*
X2812272Y1797726D01*
X2764544Y1779544D02*
G01*
X2812272Y1779544D01*
X2764544Y1746363D02*
G01*
X2812272Y1764544D01*
X2764544Y1746363D02*
G01*
X2812272Y1728182D01*
X2796364Y1757726D02*
G01*
X2796364Y1735000D01*
X2764544Y1713182D02*
G01*
X2812272Y1713182D01*
X2764544Y1713182D02*
G01*
X2812272Y1681363D01*
X2764544Y1681363D02*
G01*
X2812272Y1681363D01*
X2859544Y2145000D02*
G01*
X2907272Y2145000D01*
X2859544Y2145000D02*
G01*
X2859544Y2124544D01*
X2861818Y2117727D01*
X2864090Y2115455D01*
X2868635Y2113182D01*
X2873181Y2113182D01*
X2877727Y2115455D01*
X2880000Y2117727D01*
X2882272Y2124544D01*
X2882272Y2145000D02*
G01*
X2882272Y2124544D01*
X2884544Y2117727D01*
X2886818Y2115455D01*
X2891364Y2113182D01*
X2898181Y2113182D01*
X2902727Y2115455D01*
X2905000Y2117727D01*
X2907272Y2124544D01*
X2907272Y2145000D01*
X2859544Y2098182D02*
G01*
X2907272Y2098182D01*
X2859544Y2083182D02*
G01*
X2907272Y2083182D01*
X2859544Y2083182D02*
G01*
X2907272Y2051363D01*
X2859544Y2051363D02*
G01*
X2907272Y2051363D01*
X2859544Y2036363D02*
G01*
X2907272Y2036363D01*
X2859544Y2036363D02*
G01*
X2907272Y2018182D01*
X2859544Y2000000D02*
G01*
X2907272Y2018182D01*
X2859544Y2000000D02*
G01*
X2907272Y2000000D01*
X2859544Y1966817D02*
G01*
X2907272Y1985000D01*
X2859544Y1966817D02*
G01*
X2907272Y1948636D01*
X2891364Y1978182D02*
G01*
X2891364Y1955455D01*
X2859544Y1933636D02*
G01*
X2907272Y1933636D01*
X2859544Y1901817D02*
G01*
X2907272Y1901817D01*
X2882272Y1933636D02*
G01*
X2882272Y1901817D01*
X2859544Y1886817D02*
G01*
X2907272Y1886817D01*
X2859544Y1886817D02*
G01*
X2859544Y1857273D01*
X2882272Y1886817D02*
G01*
X2882272Y1868636D01*
X2859544Y1842273D02*
G01*
X2893635Y1842273D01*
X2900455Y1840000D01*
X2905000Y1835455D01*
X2907272Y1828636D01*
X2907272Y1824090D01*
X2905000Y1817273D01*
X2900455Y1812726D01*
X2893635Y1810455D01*
X2859544Y1810455D01*
X2859544Y1779544D02*
G01*
X2907272Y1779544D01*
X2859544Y1795455D02*
G01*
X2859544Y1763636D01*
X2859544Y1748636D02*
G01*
X2907272Y1748636D01*
X2859544Y1716817D02*
G01*
X2907272Y1716817D01*
X2882272Y1748636D02*
G01*
X2882272Y1716817D01*
X3189727Y2110000D02*
G01*
X3218364Y2110000D01*
X3189727Y2110000D02*
G01*
X3189727Y2092273D01*
X3203364Y2110000D02*
G01*
X3203364Y2099090D01*
X3218364Y2110000D02*
G01*
X3218364Y2092273D01*
X3193818Y2064182D02*
G01*
X3191090Y2066909D01*
X3189727Y2070999D01*
X3189727Y2076455D01*
X3191090Y2080545D01*
X3193818Y2083272D01*
X3196544Y2083272D01*
X3199273Y2081909D01*
X3200636Y2080545D01*
X3201999Y2077818D01*
X3204727Y2069636D01*
X3206090Y2066909D01*
X3207455Y2065545D01*
X3210182Y2064182D01*
X3214273Y2064182D01*
X3216999Y2066909D01*
X3218364Y2070999D01*
X3218364Y2076455D01*
X3216999Y2080545D01*
X3214273Y2083272D01*
X3189727Y2055181D02*
G01*
X3218364Y2055181D01*
X3189727Y2055181D02*
G01*
X3189727Y2042908D01*
X3191090Y2038818D01*
X3192455Y2037455D01*
X3195182Y2036091D01*
X3199273Y2036091D01*
X3201999Y2037455D01*
X3203364Y2038818D01*
X3204727Y2042908D01*
X3204727Y2055181D01*
X3206090Y2027091D02*
G01*
X3206090Y2002545D01*
X3196544Y1973090D02*
G01*
X3193818Y1974454D01*
X3191090Y1977181D01*
X3189727Y1979908D01*
X3189727Y1985363D01*
X3191090Y1988090D01*
X3193818Y1990817D01*
X3196544Y1992181D01*
X3200636Y1993544D01*
X3207455Y1993544D01*
X3211544Y1992181D01*
X3214273Y1990817D01*
X3216999Y1988090D01*
X3218364Y1985363D01*
X3218364Y1979908D01*
X3216999Y1977181D01*
X3214273Y1974454D01*
X3211544Y1973090D01*
X3189727Y1953182D02*
G01*
X3218364Y1964090D01*
X3189727Y1953182D02*
G01*
X3218364Y1942273D01*
X3208818Y1960000D02*
G01*
X3208818Y1946363D01*
X3189727Y1933272D02*
G01*
X3218364Y1933272D01*
X3189727Y1933272D02*
G01*
X3218364Y1922363D01*
X3189727Y1911455D02*
G01*
X3218364Y1922363D01*
X3189727Y1911455D02*
G01*
X3218364Y1911455D01*
X3206090Y1902455D02*
G01*
X3206090Y1877908D01*
X3189727Y1859364D02*
G01*
X3218364Y1859364D01*
X3189727Y1868908D02*
G01*
X3189727Y1849818D01*
X3189727Y1840817D02*
G01*
X3218364Y1840817D01*
X3189727Y1840817D02*
G01*
X3189727Y1823090D01*
X3203364Y1840817D02*
G01*
X3203364Y1829908D01*
X3189727Y1804544D02*
G01*
X3218364Y1804544D01*
X3189727Y1814090D02*
G01*
X3189727Y1795000D01*
X3189727Y1765000D02*
G01*
X3218364Y1754090D01*
X3189727Y1743182D02*
G01*
X3218364Y1754090D01*
X3195182Y1734182D02*
G01*
X3193818Y1731455D01*
X3189727Y1727363D01*
X3218364Y1727363D01*
X1293635Y2009544D02*
G01*
X1289090Y2011817D01*
X1284544Y2016363D01*
X1282272Y2020909D01*
X1280000Y2027726D01*
X1280000Y2039090D01*
X1282272Y2045909D01*
X1284544Y2050455D01*
X1289090Y2055000D01*
X1293635Y2057273D01*
X1302727Y2057273D01*
X1307272Y2055000D01*
X1311818Y2050455D01*
X1314090Y2045909D01*
X1316364Y2039090D01*
X1316364Y2027726D01*
X1314090Y2020909D01*
X1311818Y2016363D01*
X1307272Y2011817D01*
X1302727Y2009544D01*
X1293635Y2009544D01*
X1300455Y2048182D02*
G01*
X1314090Y2061817D01*
X1349544Y2009544D02*
G01*
X1331364Y2057273D01*
X1349544Y2009544D02*
G01*
X1367727Y2057273D01*
X1338181Y2041363D02*
G01*
X1360909Y2041363D01*
X1382727Y2009544D02*
G01*
X1394090Y2057273D01*
X1405455Y2009544D02*
G01*
X1394090Y2057273D01*
X1405455Y2009544D02*
G01*
X1416818Y2057273D01*
X1428181Y2009544D02*
G01*
X1416818Y2057273D01*
X1461364Y2009544D02*
G01*
X1443181Y2057273D01*
X1461364Y2009544D02*
G01*
X1479544Y2057273D01*
X1450000Y2041363D02*
G01*
X1472727Y2041363D01*
X1526364Y2016363D02*
G01*
X1521818Y2011817D01*
X1515000Y2009544D01*
X1505909Y2009544D01*
X1499090Y2011817D01*
X1494544Y2016363D01*
X1494544Y2020909D01*
X1496818Y2025455D01*
X1499090Y2027726D01*
X1503635Y2030000D01*
X1517272Y2034544D01*
X1521818Y2036817D01*
X1524090Y2039090D01*
X1526364Y2043636D01*
X1526364Y2050455D01*
X1521818Y2055000D01*
X1515000Y2057273D01*
X1505909Y2057273D01*
X1499090Y2055000D01*
X1494544Y2050455D01*
X1541364Y2009544D02*
G01*
X1541364Y2057273D01*
X1573181Y2009544D02*
G01*
X1573181Y2057273D01*
X1541364Y2032273D02*
G01*
X1573181Y2032273D01*
X1623181Y2009544D02*
G01*
X1623181Y2057273D01*
X1623181Y2009544D02*
G01*
X1639090Y2009544D01*
X1645909Y2011817D01*
X1650455Y2016363D01*
X1652727Y2020909D01*
X1655000Y2027726D01*
X1655000Y2039090D01*
X1652727Y2045909D01*
X1650455Y2050455D01*
X1645909Y2055000D01*
X1639090Y2057273D01*
X1623181Y2057273D01*
X1670000Y2009544D02*
G01*
X1670000Y2057273D01*
X1670000Y2009544D02*
G01*
X1699544Y2009544D01*
X1670000Y2032273D02*
G01*
X1688181Y2032273D01*
X1670000Y2057273D02*
G01*
X1699544Y2057273D01*
X1746364Y2016363D02*
G01*
X1741818Y2011817D01*
X1735000Y2009544D01*
X1725909Y2009544D01*
X1719090Y2011817D01*
X1714544Y2016363D01*
X1714544Y2020909D01*
X1716818Y2025455D01*
X1719090Y2027726D01*
X1723635Y2030000D01*
X1737272Y2034544D01*
X1741818Y2036817D01*
X1744090Y2039090D01*
X1746364Y2043636D01*
X1746364Y2050455D01*
X1741818Y2055000D01*
X1735000Y2057273D01*
X1725909Y2057273D01*
X1719090Y2055000D01*
X1714544Y2050455D01*
X1761364Y2009544D02*
G01*
X1761364Y2057273D01*
X1810455Y2020909D02*
G01*
X1808181Y2016363D01*
X1803635Y2011817D01*
X1799090Y2009544D01*
X1790000Y2009544D01*
X1785455Y2011817D01*
X1780909Y2016363D01*
X1778635Y2020909D01*
X1776364Y2027726D01*
X1776364Y2039090D01*
X1778635Y2045909D01*
X1780909Y2050455D01*
X1785455Y2055000D01*
X1790000Y2057273D01*
X1799090Y2057273D01*
X1803635Y2055000D01*
X1808181Y2050455D01*
X1810455Y2045909D01*
X1810455Y2039090D01*
X1799090Y2039090D02*
G01*
X1810455Y2039090D01*
X1825455Y2009544D02*
G01*
X1825455Y2057273D01*
X1825455Y2009544D02*
G01*
X1857272Y2057273D01*
X1857272Y2009544D02*
G01*
X1857272Y2057273D01*
X1486364Y1956545D02*
G01*
X1486364Y1955181D01*
X1487727Y1952455D01*
X1489090Y1951091D01*
X1491818Y1949726D01*
X1497272Y1949726D01*
X1500000Y1951091D01*
X1501364Y1952455D01*
X1502727Y1955181D01*
X1502727Y1957908D01*
X1501364Y1960635D01*
X1498635Y1964726D01*
X1485000Y1978364D01*
X1504090Y1978364D01*
X1521273Y1949726D02*
G01*
X1517182Y1951091D01*
X1514454Y1955181D01*
X1513091Y1961999D01*
X1513091Y1966091D01*
X1514454Y1972908D01*
X1517182Y1976999D01*
X1521273Y1978364D01*
X1523999Y1978364D01*
X1528091Y1976999D01*
X1530817Y1972908D01*
X1532182Y1966091D01*
X1532182Y1961999D01*
X1530817Y1955181D01*
X1528091Y1951091D01*
X1523999Y1949726D01*
X1521273Y1949726D01*
X1542545Y1956545D02*
G01*
X1542545Y1955181D01*
X1543909Y1952455D01*
X1545272Y1951091D01*
X1548000Y1949726D01*
X1553455Y1949726D01*
X1556181Y1951091D01*
X1557545Y1952455D01*
X1558909Y1955181D01*
X1558909Y1957908D01*
X1557545Y1960635D01*
X1554817Y1964726D01*
X1541181Y1978364D01*
X1560272Y1978364D01*
X1571999Y1949726D02*
G01*
X1586999Y1949726D01*
X1578818Y1960635D01*
X1582908Y1960635D01*
X1585636Y1961999D01*
X1586999Y1963364D01*
X1588364Y1967455D01*
X1588364Y1970181D01*
X1586999Y1974272D01*
X1584273Y1976999D01*
X1580182Y1978364D01*
X1576090Y1978364D01*
X1571999Y1976999D01*
X1570636Y1975635D01*
X1569273Y1972908D01*
D11*
X2849600Y2353699D02*
G01*
X2845500Y2349600D01*
X2839399Y2347600D01*
X2831199Y2347600D01*
X2825100Y2349600D01*
X2821000Y2353699D01*
X2821000Y2357800D01*
X2823000Y2361900D01*
X2825100Y2364000D01*
X2829200Y2365999D01*
X2841499Y2370100D01*
X2845500Y2372100D01*
X2847600Y2374200D01*
X2849600Y2378299D01*
X2849600Y2384400D01*
X2845500Y2388499D01*
X2839399Y2390500D01*
X2831199Y2390500D01*
X2825100Y2388499D01*
X2821000Y2384400D01*
X2863100Y2347600D02*
G01*
X2873400Y2390500D01*
X2883599Y2347600D02*
G01*
X2873400Y2390500D01*
X2883599Y2347600D02*
G01*
X2893800Y2390500D01*
X2903999Y2347600D02*
G01*
X2893800Y2390500D01*
X2917500Y2355799D02*
G01*
X2921599Y2353699D01*
X2927799Y2347600D01*
X2927799Y2390500D01*
X2772399Y1456300D02*
G01*
X2776499Y1460399D01*
X2782600Y1462399D01*
X2790799Y1462399D01*
X2796899Y1460399D01*
X2801000Y1456300D01*
X2801000Y1452199D01*
X2798999Y1448099D01*
X2796899Y1445999D01*
X2792799Y1444000D01*
X2780500Y1439899D01*
X2776499Y1437899D01*
X2774399Y1435799D01*
X2772399Y1431700D01*
X2772399Y1425599D01*
X2776499Y1421500D01*
X2782600Y1419499D01*
X2790799Y1419499D01*
X2796899Y1421500D01*
X2801000Y1425599D01*
X2758900Y1462399D02*
G01*
X2748599Y1419499D01*
X2738400Y1462399D02*
G01*
X2748599Y1419499D01*
X2738400Y1462399D02*
G01*
X2728199Y1419499D01*
X2718000Y1462399D02*
G01*
X2728199Y1419499D01*
X2702399Y1452199D02*
G01*
X2702399Y1454200D01*
X2700399Y1458299D01*
X2698299Y1460399D01*
X2694200Y1462399D01*
X2686000Y1462399D01*
X2681999Y1460399D01*
X2679899Y1458299D01*
X2677899Y1454200D01*
X2677899Y1450100D01*
X2679899Y1445999D01*
X2683999Y1439899D01*
X2704499Y1419499D01*
X2675799Y1419499D01*
G36*
X649000Y1624000D02*
G01*
X660000Y1615000D01*
X671000Y1624000D01*
G37*
G36*
X660000Y1615000D02*
G01*
X649000Y1606000D01*
X671000Y1606000D01*
G37*
G36*
X389000Y2341000D02*
G01*
X380000Y2330000D01*
X389000Y2319000D01*
G37*
G36*
X371000Y2341000D02*
G01*
X371000Y2319000D01*
X380000Y2330000D01*
G37*
G36*
X599000Y1624000D02*
G01*
X610000Y1615000D01*
X621000Y1624000D01*
G37*
G36*
X610000Y1615000D02*
G01*
X599000Y1606000D01*
X621000Y1606000D01*
G37*
G36*
X2432040Y1752960D02*
G01*
X2432040Y1729340D01*
X2463540Y1741140D01*
G37*
D12*
X2375000Y1250000D02*
G01*
X2375000Y1220000D01*
X600000Y2325000D02*
G01*
X590000Y2325000D01*
X2357118Y2325000D02*
G01*
X2375000Y2325000D01*
X2943046Y2407015D02*
G01*
X2943046Y2421538D01*
X2943046Y2644461D02*
G01*
X2943046Y2658984D01*
X2698954Y2658984D02*
G01*
X2943046Y2658984D01*
X2698954Y2407015D02*
G01*
X2943046Y2407015D01*
X2698954Y2407015D02*
G01*
X2698954Y2421538D01*
X2698954Y2486981D02*
G01*
X2698954Y2579018D01*
X2698954Y2644461D02*
G01*
X2698954Y2658984D01*
X2943046Y2486981D02*
G01*
X2943046Y2579018D01*
X2678953Y1402984D02*
G01*
X2678953Y1388461D01*
X2678953Y1165538D02*
G01*
X2678953Y1151015D01*
X2923046Y1151015D02*
G01*
X2678953Y1151015D01*
X2923046Y1402984D02*
G01*
X2678953Y1402984D01*
X2923046Y1402984D02*
G01*
X2923046Y1388461D01*
X2923046Y1323018D02*
G01*
X2923046Y1230981D01*
X2923046Y1165538D02*
G01*
X2923046Y1151015D01*
X2678953Y1323018D02*
G01*
X2678953Y1230981D01*
D11*
X371093Y1559630D02*
G01*
X342824Y1559630D01*
X342824Y1520369D01*
X371093Y1520369D01*
X388906Y1559630D02*
G01*
X417175Y1559630D01*
X417175Y1520369D01*
X388906Y1520369D01*
X2530370Y2581093D02*
G01*
X2530370Y2552824D01*
X2569629Y2552824D01*
X2569629Y2581093D01*
X2530370Y2598906D02*
G01*
X2530370Y2627175D01*
X2569629Y2627175D01*
X2569629Y2598906D01*
D13*
X679684Y1589409D02*
G01*
X679684Y1640590D01*
X640315Y1589409D02*
G01*
X640315Y1640590D01*
D14*
X669000Y1615000D02*
G01*
X650000Y1615000D01*
D11*
X339987Y2350369D02*
G01*
X371093Y2350369D01*
X388906Y2389630D02*
G01*
X420012Y2389630D01*
X420012Y2350369D02*
G01*
X388906Y2350369D01*
X426012Y2383629D02*
G01*
X426012Y2356370D01*
X371093Y2389630D02*
G01*
X339987Y2389630D01*
X333987Y2383629D02*
G01*
X333987Y2356370D01*
X2480370Y2635012D02*
G01*
X2480370Y2603906D01*
X2519629Y2586093D02*
G01*
X2519629Y2554987D01*
X2480370Y2554987D02*
G01*
X2480370Y2586093D01*
X2513630Y2548987D02*
G01*
X2486369Y2548987D01*
X2519629Y2603906D02*
G01*
X2519629Y2635012D01*
X2513630Y2641012D02*
G01*
X2486369Y2641012D01*
D13*
X354409Y2310315D02*
G01*
X405590Y2310315D01*
X354409Y2349684D02*
G01*
X405590Y2349684D01*
D14*
X380000Y2320999D02*
G01*
X380000Y2340000D01*
D13*
X629684Y1589409D02*
G01*
X629684Y1640590D01*
X590315Y1589409D02*
G01*
X590315Y1640590D01*
D14*
X619000Y1615000D02*
G01*
X600000Y1615000D01*
D11*
X575369Y2041093D02*
G01*
X575369Y2012824D01*
X614630Y2012824D01*
X614630Y2041093D01*
X575369Y2058906D02*
G01*
X575369Y2087175D01*
X614630Y2087175D01*
X614630Y2058906D01*
D12*
X367905Y2044998D02*
G01*
X442561Y2044998D01*
X281929Y1684998D02*
G01*
X219996Y1684998D01*
X219996Y2044998D01*
X281929Y2044998D01*
X442561Y1684998D02*
G01*
X367905Y1684998D01*
X2459605Y2040354D02*
G01*
X2424173Y2040354D01*
X2459605Y2040354D02*
G01*
X2459605Y2083658D01*
X2601337Y2083658D02*
G01*
X2551382Y2083658D01*
X2601337Y2008107D02*
G01*
X2601337Y2083658D01*
X2459605Y1709643D02*
G01*
X2459605Y1666334D01*
X2601337Y1666334D02*
G01*
X2601337Y1741885D01*
X2601337Y1666334D02*
G01*
X2551385Y1666334D01*
X2459605Y1709643D02*
G01*
X2424173Y1709643D01*
X2424173Y1709643D02*
G01*
X2424173Y2040354D01*
D11*
G75*
G01*
X420012Y2389630D02*
G02*
X426012Y2383630I0J-6000D01*
G75*
G01*
X426012Y2356370D02*
G02*
X420012Y2350370I-6000J0D01*
G75*
G01*
X339988Y2389630D02*
G03*
X333988Y2383630I0J-6000D01*
G75*
G01*
X333988Y2356370D02*
G03*
X339988Y2350370I6000J0D01*
G75*
G01*
X2519630Y2554988D02*
G02*
X2513630Y2548988I-6000J0D01*
G75*
G01*
X2486370Y2548988D02*
G02*
X2480370Y2554988I0J6000D01*
G75*
G01*
X2519630Y2635012D02*
G03*
X2513630Y2641012I-6000J0D01*
G75*
G01*
X2486370Y2641012D02*
G03*
X2480370Y2635012I0J-6000D01*
D12*
G75*
G01
X2897320Y2533000D02*
G03X2897320Y2533000I-76320J0D01*
G75*
G01
X2879310Y2533000D02*
G03X2879310Y2533000I-58310J0D01*
G75*
G01
X2877320Y1277000D02*
G03X2877320Y1277000I-76320J0D01*
G75*
G01
X2859310Y1277000D02*
G03X2859310Y1277000I-58310J0D01*
M02*
