G04 Layer: TopLayer*
G04 EasyEDA v6.5.22, 2023-04-19 21:06:07*
G04 0b1144c6aaf7448fb0b14bab58411d50,0a61cb7f7b51421fbede6d33e3e5ec82,10*
G04 Gerber Generator version 0.2*
G04 Scale: 100 percent, Rotated: No, Reflected: No *
G04 Dimensions in inches *
G04 leading zeros omitted , absolute positions ,3 integer and 6 decimal *
%FSLAX36Y36*%
%MOIN*%

%AMMACRO1*21,1,$1,$2,0,0,$3*%
%ADD10C,0.0100*%
%ADD11C,0.0200*%
%ADD12C,0.0060*%
%ADD13C,0.0120*%
%ADD14C,0.0150*%
%ADD15C,0.0300*%
%ADD16R,0.0394X0.0551*%
%ADD17MACRO1,0.0213X0.0223X90.0000*%
%ADD18MACRO1,0.0213X0.0311X0.0000*%
%ADD19R,0.0213X0.0311*%
%ADD20MACRO1,0.0213X0.0311X90.0000*%
%ADD21MACRO1,0.0213X0.0311X-90.0000*%
%ADD22MACRO1,0.068X0.0585X90.0000*%
%ADD23R,0.0591X0.0118*%
%ADD24R,0.1181X0.0787*%
%ADD25R,0.0236X0.0421*%
%ADD26MACRO1,0.0213X0.0223X-90.0000*%
%ADD27MACRO1,0.0213X0.0223X0.0000*%
%ADD28R,0.0213X0.0223*%
%ADD29R,0.0354X0.0787*%
%ADD30R,0.0354X0.0354*%
%ADD31R,0.0433X0.0984*%
%ADD32MACRO1,0.1417X0.0921X0.0000*%
%ADD33R,0.0356X0.0110*%
%ADD34R,0.0110X0.0356*%
%ADD35R,0.1319X0.1319*%
%ADD36R,0.0422X0.0209*%
%ADD37R,0.0669X0.0669*%
%ADD38C,0.0669*%
%ADD39O,0.070866X0.047244*%
%ADD40O,0.07873999999999999X0.047244*%
%ADD41C,0.0240*%
%ADD42C,0.0126*%

%LPD*%
G36*
X2855240Y1925000D02*
G01*
X2853720Y1925300D01*
X2852420Y1926180D01*
X2851560Y1927460D01*
X2851240Y1929000D01*
X2851240Y1937780D01*
X2843460Y1937780D01*
X2841960Y1938060D01*
X2840680Y1938899D01*
X2839800Y1940160D01*
X2839460Y1941639D01*
X2838980Y1956360D01*
X2839260Y1957920D01*
X2840120Y1959259D01*
X2841420Y1960180D01*
X2842980Y1960480D01*
X2851240Y1960480D01*
X2851240Y1992700D01*
X2841680Y1992700D01*
X2840179Y1992980D01*
X2838900Y1993820D01*
X2838039Y1995080D01*
X2837700Y1996560D01*
X2837220Y2011279D01*
X2837480Y2012860D01*
X2838340Y2014199D01*
X2839660Y2015100D01*
X2841220Y2015420D01*
X2851240Y2015420D01*
X2851240Y2047620D01*
X2839920Y2047620D01*
X2838420Y2047920D01*
X2837140Y2048740D01*
X2836259Y2050000D01*
X2835920Y2051480D01*
X2835440Y2066200D01*
X2835720Y2067780D01*
X2836560Y2069120D01*
X2837880Y2070020D01*
X2839440Y2070340D01*
X2851240Y2070340D01*
X2851240Y2076000D01*
X2851560Y2077540D01*
X2852420Y2078820D01*
X2853720Y2079700D01*
X2855240Y2080000D01*
X2869960Y2080000D01*
X2871500Y2079700D01*
X2872799Y2078820D01*
X2873660Y2077540D01*
X2873960Y2076000D01*
X2873960Y2070340D01*
X2906180Y2070340D01*
X2906180Y2076000D01*
X2906480Y2077540D01*
X2907340Y2078820D01*
X2908639Y2079700D01*
X2910179Y2080000D01*
X2924880Y2080000D01*
X2926420Y2079700D01*
X2927720Y2078820D01*
X2928580Y2077540D01*
X2928880Y2076000D01*
X2928880Y2070340D01*
X2961080Y2070340D01*
X2961080Y2076000D01*
X2961400Y2077540D01*
X2962260Y2078820D01*
X2963560Y2079700D01*
X2965080Y2080000D01*
X2979800Y2080000D01*
X2981340Y2079700D01*
X2982640Y2078820D01*
X2983500Y2077540D01*
X2983800Y2076000D01*
X2983800Y2070340D01*
X2991000Y2070340D01*
X2992540Y2070040D01*
X2993820Y2069160D01*
X2994700Y2067860D01*
X2995000Y2066339D01*
X2995000Y2051620D01*
X2994700Y2050080D01*
X2993820Y2048800D01*
X2992540Y2047920D01*
X2991000Y2047620D01*
X2983800Y2047620D01*
X2983800Y2015420D01*
X2991000Y2015420D01*
X2992540Y2015100D01*
X2993820Y2014240D01*
X2994700Y2012940D01*
X2995000Y2011420D01*
X2995000Y1996699D01*
X2994700Y1995160D01*
X2993820Y1993860D01*
X2992540Y1993000D01*
X2991000Y1992700D01*
X2983800Y1992700D01*
X2983800Y1960480D01*
X2991000Y1960480D01*
X2992540Y1960180D01*
X2993820Y1959319D01*
X2994700Y1958020D01*
X2995000Y1956480D01*
X2995000Y1941780D01*
X2994700Y1940240D01*
X2993820Y1938940D01*
X2992540Y1938080D01*
X2991000Y1937780D01*
X2983800Y1937780D01*
X2983800Y1929000D01*
X2983500Y1927460D01*
X2982640Y1926180D01*
X2981340Y1925300D01*
X2979800Y1925000D01*
X2965080Y1925000D01*
X2963560Y1925300D01*
X2962260Y1926180D01*
X2961400Y1927460D01*
X2961080Y1929000D01*
X2961080Y1937780D01*
X2928880Y1937780D01*
X2928880Y1929000D01*
X2928580Y1927460D01*
X2927720Y1926180D01*
X2926420Y1925300D01*
X2924880Y1925000D01*
X2910179Y1925000D01*
X2908639Y1925300D01*
X2907340Y1926180D01*
X2906480Y1927460D01*
X2906180Y1929000D01*
X2906180Y1937780D01*
X2873960Y1937780D01*
X2873960Y1929000D01*
X2873660Y1927460D01*
X2872799Y1926180D01*
X2871500Y1925300D01*
X2869960Y1925000D01*
G37*

%LPC*%
G36*
X2928880Y1960480D02*
G01*
X2961080Y1960480D01*
X2961080Y1992700D01*
X2928880Y1992700D01*
G37*
G36*
X2873960Y1960480D02*
G01*
X2906180Y1960480D01*
X2906180Y1992700D01*
X2873960Y1992700D01*
G37*
G36*
X2928880Y2015420D02*
G01*
X2961080Y2015420D01*
X2961080Y2047620D01*
X2928880Y2047620D01*
G37*
G36*
X2873960Y2015420D02*
G01*
X2906180Y2015420D01*
X2906180Y2047620D01*
X2873960Y2047620D01*
G37*

%LPD*%
D10*
X2980000Y2545000D02*
G01*
X2980000Y2550999D01*
X3115000Y2550999D01*
X3131999Y2534000D01*
X3131999Y2299299D01*
X3125000Y2299299D01*
D11*
X2982700Y2600000D02*
G01*
X3002700Y2620000D01*
X3106000Y2620000D01*
X3175000Y2550999D01*
X3175000Y2299299D01*
D10*
X3056999Y2525000D02*
G01*
X3056999Y2459000D01*
X3025000Y2426999D01*
X3010000Y2490000D02*
G01*
X3010000Y2515000D01*
X2973999Y2550999D01*
X2751000Y2550999D01*
X2710000Y2510000D01*
X2705000Y2510000D01*
D11*
X1912002Y2615000D02*
G01*
X1914002Y2616999D01*
X2020649Y2616999D01*
D12*
X560000Y2193000D02*
G01*
X565000Y2188000D01*
X565000Y2126999D01*
X673600Y2018400D01*
X820799Y2018400D01*
X510000Y2193000D02*
G01*
X510000Y2130000D01*
X660999Y1979000D01*
X820799Y1979000D01*
D10*
X820780Y2077460D02*
G01*
X895000Y2077460D01*
D12*
X715000Y2193499D02*
G01*
X665000Y2193499D01*
X665000Y2151999D01*
X719899Y2097100D01*
X820799Y2097100D01*
X906000Y1781999D02*
G01*
X910000Y1785999D01*
X1138000Y1785999D01*
X1145000Y1793000D01*
X1251999Y1793000D01*
X1255000Y1790000D01*
X820799Y1782100D02*
G01*
X893100Y1782100D01*
X906000Y1781999D01*
D10*
X3075000Y1458000D02*
G01*
X3075000Y1410000D01*
X2935000Y1270000D01*
X2525000Y1270000D01*
X2575000Y2397959D02*
G01*
X2575000Y2299324D01*
X2625000Y2470000D02*
G01*
X2662960Y2432040D01*
X2675000Y2432040D01*
X2855000Y2515000D02*
G01*
X2875000Y2495000D01*
X2875000Y2427040D01*
X2247039Y2140000D02*
G01*
X2252039Y2145000D01*
X2760000Y2145000D01*
X2825000Y2210000D01*
X2825000Y2299326D01*
X2760000Y2510000D02*
G01*
X2770000Y2510000D01*
X2780000Y2500000D01*
X2780000Y2431999D01*
X2200000Y1825000D02*
G01*
X2212960Y1837959D01*
X2212960Y2140000D01*
D12*
X820784Y1998724D02*
G01*
X1110000Y1998724D01*
X820784Y1801894D02*
G01*
X1115000Y1805000D01*
X820784Y1762424D02*
G01*
X1115000Y1762424D01*
D10*
X2910000Y2515000D02*
G01*
X2925000Y2500000D01*
X2925000Y2427040D01*
D12*
X1115000Y1805000D02*
G01*
X1135000Y1825000D01*
X1195000Y1825000D01*
D10*
X2300000Y2110000D02*
G01*
X2315000Y2125000D01*
X2795000Y2125000D01*
X2870000Y2200000D01*
X2920000Y2200000D01*
X2975000Y2397959D02*
G01*
X2975000Y2299324D01*
X2925000Y2392959D02*
G01*
X2925000Y2299324D01*
X2875000Y2392959D02*
G01*
X2875000Y2299324D01*
X2780000Y2397959D02*
G01*
X2775000Y2392959D01*
X2775000Y2299324D01*
X2675000Y2397959D02*
G01*
X2675000Y2299324D01*
D12*
X820784Y1821574D02*
G01*
X935000Y1821574D01*
X935000Y1821574D02*
G01*
X1066575Y1821574D01*
X1080000Y1835000D01*
X820785Y1841244D02*
G01*
X822030Y1840000D01*
X1042943Y1840000D01*
X1075000Y1865000D01*
X1100000Y1885000D01*
X1100000Y1885000D01*
D10*
X2961000Y2525000D02*
G01*
X2975000Y2510999D01*
X2975000Y2432040D01*
D12*
X820784Y1939665D02*
G01*
X1054665Y1939665D01*
X1075000Y1960000D01*
X1205000Y1960000D01*
D10*
X2450000Y2425000D02*
G01*
X2455000Y2430000D01*
X2450000Y2425000D01*
X2456999Y2431999D01*
X2575000Y2431999D01*
X2380000Y2435000D02*
G01*
X2485000Y2540000D01*
X2665000Y2540000D01*
X3101000Y2520000D02*
G01*
X3101000Y2458040D01*
X3070000Y2427040D01*
D12*
X919205Y2221374D02*
G01*
X897830Y2200000D01*
X810000Y2200000D01*
X715000Y2236460D02*
G01*
X718539Y2240000D01*
X760000Y2240000D01*
X800000Y2200000D01*
X810000Y2200000D01*
X660000Y2193000D02*
G01*
X715000Y2193499D01*
X820785Y1860945D02*
G01*
X819840Y1860000D01*
X740000Y1860000D01*
X1050000Y1910000D02*
G01*
X1040294Y1900295D01*
X820784Y1900295D01*
X1105000Y1925000D02*
G01*
X1090000Y1925000D01*
X1085000Y1910000D01*
X1065000Y1910000D01*
X1050000Y1910000D01*
X820785Y1919985D02*
G01*
X820771Y1920000D01*
X755000Y1920000D01*
D10*
X2685000Y1460000D02*
G01*
X2677040Y1467959D01*
X2645000Y1467959D01*
X820785Y2116835D02*
G01*
X743164Y2116835D01*
X730000Y2130000D01*
D12*
X820785Y2038096D02*
G01*
X691903Y2038096D01*
X670000Y2060000D01*
D10*
X3175000Y1350000D02*
G01*
X3125000Y1400000D01*
X3125000Y1457959D01*
X3170000Y1492040D02*
G01*
X3125000Y1492040D01*
X3170000Y1492040D02*
G01*
X3175000Y1497040D01*
X3175000Y1590675D01*
X2405000Y1305000D02*
G01*
X2405000Y1315000D01*
X2505000Y1415000D01*
X2700000Y1415000D01*
X2730000Y1445000D01*
X2730000Y1462959D01*
D12*
X615000Y2193000D02*
G01*
X615000Y2145000D01*
X615000Y2140000D01*
X465000Y2188539D02*
G01*
X469420Y2192959D01*
X510000Y2192959D01*
X581460Y1870000D02*
G01*
X581460Y1920000D01*
X581460Y1920000D01*
D10*
X582040Y1965000D02*
G01*
X587685Y1959355D01*
X820785Y1959355D01*
D12*
X1255000Y1385000D02*
G01*
X1295000Y1385000D01*
X1370000Y1310000D01*
X1426400Y1310000D01*
D10*
X2645000Y1502040D02*
G01*
X2625000Y1522040D01*
X2625000Y1590673D01*
X2820000Y1497040D02*
G01*
X2825000Y1502040D01*
X2825000Y1590675D01*
X2730000Y1497040D02*
G01*
X2735000Y1502040D01*
X2735000Y1530000D01*
X2760000Y1530000D01*
X2775000Y1545000D01*
X2775000Y1590675D01*
X2775000Y1497040D02*
G01*
X2820000Y1497040D01*
X2875000Y1497040D02*
G01*
X2875000Y1590675D01*
X3075000Y1492040D02*
G01*
X3075000Y1590675D01*
X3030000Y1492040D02*
G01*
X3025000Y1497040D01*
X3025000Y1590675D01*
X3030000Y1457959D02*
G01*
X3025000Y1452959D01*
X3025000Y1410000D01*
X2915000Y1300000D01*
X2460000Y1300000D01*
X1540000Y1470000D02*
G01*
X1520000Y1450000D01*
X1520000Y1403600D01*
X1495000Y1490000D02*
G01*
X1500320Y1484679D01*
X1500320Y1403600D01*
X1942399Y1388600D02*
G01*
X1942399Y1387399D01*
X1906999Y1351999D01*
X1816000Y1351999D01*
X1816000Y1317959D02*
G01*
X1813959Y1320000D01*
X1775000Y1320000D01*
X1750000Y1345000D01*
X1720000Y1345000D01*
X1687600Y1377399D01*
X1687600Y1388625D01*
X1867600Y1388625D02*
G01*
X1870000Y1391024D01*
X1870000Y1425000D01*
X1860000Y1435000D01*
X1832039Y1435000D01*
X1797960Y1435000D02*
G01*
X1765000Y1435000D01*
X1760000Y1430000D01*
X1760000Y1415000D01*
X1762399Y1388625D01*
X1762399Y1388625D01*
X1687600Y1388625D02*
G01*
X1636225Y1440000D01*
X1565000Y1440000D01*
X1560000Y1440000D01*
X1550000Y1435000D01*
X1539690Y1429690D01*
X1539690Y1403600D01*
X1831999Y1435000D02*
G01*
X1831999Y1453000D01*
X1810000Y1475000D01*
X1595000Y1475000D01*
X1545000Y1525000D01*
X1470000Y1525000D01*
X1461000Y1515999D01*
X1461000Y1403600D01*
X2460000Y1470000D02*
G01*
X2462040Y1467959D01*
X2530000Y1467959D01*
X2530000Y1502040D02*
G01*
X2575000Y1502040D01*
X2575000Y1502040D02*
G01*
X2575000Y1590675D01*
X1460951Y1216399D02*
G01*
X1457350Y1220000D01*
X1327039Y1220000D01*
X2365000Y2200000D02*
G01*
X2400000Y2165000D01*
X2715000Y2165000D01*
X2750000Y2200000D01*
X2750000Y2205000D01*
X2525000Y1590673D02*
G01*
X2525000Y1560000D01*
X2500000Y1535000D01*
X2400000Y1535000D01*
X2310000Y1445000D01*
X2310000Y1245000D01*
X2280000Y1215000D01*
X2280000Y1175000D01*
X1480630Y1216399D02*
G01*
X1480630Y1175630D01*
X1435000Y1130000D01*
X1327039Y1130000D01*
X2377040Y1190000D02*
G01*
X2394040Y1206999D01*
X2470649Y1206999D01*
X2915000Y1455000D02*
G01*
X2882959Y1455000D01*
X2875000Y1462959D01*
D11*
X2553350Y1206999D02*
G01*
X2966999Y1206999D01*
X3055000Y1295000D01*
X3170000Y1295000D01*
X3240000Y1365000D01*
X3240000Y1400000D01*
X3225000Y1415000D01*
X3180000Y1415000D01*
X3170000Y1457959D02*
G01*
X3180000Y1447959D01*
X3180000Y1415000D01*
X1877960Y2615000D02*
G01*
X1779881Y2516921D01*
X1555550Y2516921D01*
X1465000Y2516921D02*
G01*
X1438540Y2543382D01*
X1438540Y2635000D01*
X1374449Y2516921D02*
G01*
X1332831Y2558539D01*
X1300000Y2558539D01*
X744760Y2515000D02*
G01*
X743299Y2513539D01*
X670000Y2513539D01*
X744760Y2552399D02*
G01*
X740700Y2556460D01*
X670000Y2556460D01*
X670000Y2446460D02*
G01*
X670000Y2513539D01*
X744760Y2477600D02*
G01*
X735000Y2467840D01*
X735000Y2420000D01*
X718539Y2403539D01*
X670000Y2403539D01*
X835240Y2477600D02*
G01*
X871379Y2441460D01*
X920000Y2441460D01*
X835240Y2515000D02*
G01*
X835240Y2477600D01*
X835240Y2552399D02*
G01*
X835240Y2515000D01*
X920000Y2441460D02*
G01*
X978540Y2500000D01*
X1195000Y2500000D01*
X1253540Y2558539D01*
X1300000Y2558539D01*
X670000Y2556460D02*
G01*
X641460Y2556460D01*
X535000Y2450000D01*
X660000Y2295000D02*
G01*
X660000Y2227040D01*
X510000Y2192959D02*
G01*
X505579Y2188539D01*
X465000Y2188539D01*
X581460Y1870000D02*
G01*
X581460Y1920000D01*
X581999Y1965000D02*
G01*
X581500Y1920000D01*
X670000Y2403499D02*
G01*
X583499Y2403499D01*
X510000Y2330000D01*
X510000Y2226999D01*
X1300000Y2601460D02*
G01*
X1291459Y2610000D01*
X1205000Y2610000D01*
X1205000Y2605000D01*
X1160000Y1278539D02*
G01*
X1205000Y1278539D01*
D12*
X1285000Y1350000D02*
G01*
X1305000Y1350000D01*
X1364700Y1290300D01*
X1426400Y1290300D01*
D13*
X1426400Y1250940D02*
G01*
X1426400Y1270630D01*
D11*
X644277Y1278501D02*
G01*
X715000Y1207777D01*
X715000Y1160000D01*
X2103350Y2616999D02*
G01*
X2112848Y2626498D01*
X2765000Y2626498D01*
X1465000Y2516921D02*
G01*
X1465000Y2283072D01*
X1292960Y1130000D02*
G01*
X1220000Y1130000D01*
X1180000Y1170000D01*
X1180000Y1258539D01*
X1160000Y1278539D01*
D10*
X3090000Y1675000D02*
G01*
X3125000Y1640000D01*
X3125000Y1590675D01*
X2925000Y1655000D02*
G01*
X2960000Y1655000D01*
X2975000Y1640000D01*
X2975000Y1590675D01*
X1965000Y1830000D02*
G01*
X2025000Y1770000D01*
X2245299Y1770000D01*
X2335000Y1859699D01*
X2335000Y2050000D01*
X2380000Y2095000D01*
X2810000Y2095000D01*
X2865000Y2150000D01*
X3040000Y2150000D01*
X3115000Y2225000D01*
X2415000Y1685000D02*
G01*
X2475000Y1625000D01*
X2475000Y1590675D01*
X2580000Y2195000D02*
G01*
X2555000Y2220000D01*
X2500000Y2220000D01*
X2475000Y2245000D01*
X2475000Y2299324D01*
X2665000Y2205000D02*
G01*
X2625000Y2245000D01*
X2625000Y2299324D01*
X2545000Y1796300D02*
G01*
X2510000Y1830000D01*
X2510000Y1995000D01*
X2580000Y2065000D01*
X2675000Y1795000D02*
G01*
X2680000Y1800000D01*
X2680000Y2050000D01*
X2665000Y2065000D01*
D11*
X3195000Y2205000D02*
G01*
X3175000Y2225000D01*
X3175000Y2299324D01*
D10*
X3025000Y2392959D02*
G01*
X3025000Y2299324D01*
X3070000Y2392959D02*
G01*
X3075000Y2387959D01*
X3075000Y2299324D01*
D11*
X385000Y2140000D02*
G01*
X385000Y1470000D01*
X576500Y1278499D01*
X1160000Y1278499D01*
X841084Y1278499D02*
G01*
X915000Y1204583D01*
X915000Y1160000D01*
D10*
X1725000Y1291399D02*
G01*
X1766400Y1250000D01*
X1975000Y1250000D01*
X2025000Y1300000D01*
X2025000Y1480000D01*
X1850000Y1655000D01*
X1850000Y1795000D01*
X1610000Y2035000D01*
X1565000Y2035000D01*
D11*
X2640000Y2660000D02*
G01*
X2638999Y2660999D01*
X2623999Y2660999D01*
X2565000Y2660000D02*
G01*
X2553959Y2648960D01*
X2553959Y2626500D01*
X2565000Y2660000D02*
G01*
X2566000Y2660999D01*
X2623999Y2660999D01*
D10*
X2475000Y1340000D02*
G01*
X2475000Y1350000D01*
X2520000Y1395000D01*
X2745000Y1395000D01*
X2775000Y1425000D01*
X2775000Y1463000D01*
X2395000Y1400000D02*
G01*
X2435000Y1440000D01*
X2515000Y1440000D01*
X2530000Y1455000D01*
X2530000Y1467959D01*
X1905000Y1291399D02*
G01*
X1980000Y1366399D01*
X1980000Y1445000D01*
X1760000Y1665000D01*
X1745000Y1665000D01*
D12*
X820801Y1742800D02*
G01*
X1097200Y1742800D01*
X1120000Y1720000D01*
X1115000Y1725000D01*
D10*
X2575000Y1467959D02*
G01*
X2577040Y1470000D01*
X2610000Y1470000D01*
X1175000Y1680000D02*
G01*
X1010000Y1515000D01*
X1010000Y1320000D01*
D11*
X2765000Y2626500D02*
G01*
X2798500Y2660000D01*
X2980000Y2660000D01*
X2982700Y2657300D01*
X2982700Y2600000D01*
D10*
X1205000Y1278499D02*
G01*
X1212899Y1270599D01*
X1426400Y1270599D01*
X1327039Y1180000D02*
G01*
X1327040Y1180000D01*
X1327040Y1220000D01*
X1292960Y1220000D02*
G01*
X1287960Y1225000D01*
X1220000Y1225000D01*
D14*
X1235000Y1180000D02*
G01*
X1292960Y1180000D01*
D11*
X615000Y1160000D02*
G01*
X560000Y1215000D01*
X500000Y1215000D01*
D10*
X1520000Y1216399D02*
G01*
X1520000Y1170000D01*
X1426400Y1329699D02*
G01*
X1390000Y1330000D01*
X1370000Y1350000D01*
X1370000Y1355000D01*
X1520000Y1310000D02*
G01*
X1520000Y1216399D01*
X1520000Y1310000D02*
G01*
X1500320Y1329679D01*
X1426400Y1329679D01*
X2862610Y2058975D02*
G01*
X2886584Y2035000D01*
X2890000Y2035000D01*
X2917520Y2058975D02*
G01*
X2941495Y2035000D01*
X2945000Y2035000D01*
X2972439Y2004054D02*
G01*
X2948384Y1980000D01*
X2945000Y1980000D01*
X2972439Y2058975D02*
G01*
X2948464Y2035000D01*
X2945000Y2035000D01*
X2945000Y2035000D02*
G01*
X2972439Y2007559D01*
X2972439Y2004054D01*
X2945000Y2035000D02*
G01*
X2917529Y2007530D01*
X2917529Y2004045D01*
X2890000Y2035000D02*
G01*
X2913975Y2058975D01*
X2917520Y2058975D01*
X2890000Y2035000D02*
G01*
X2862610Y2007609D01*
X2862610Y2004045D01*
X2890000Y2035000D02*
G01*
X2917529Y2007469D01*
X2917529Y2004045D01*
X2862610Y1949135D02*
G01*
X2890000Y1976525D01*
X2890000Y1980000D01*
X2890000Y1980000D02*
G01*
X2914044Y2004045D01*
X2917529Y2004045D01*
X2890000Y1980000D02*
G01*
X2917520Y1952480D01*
X2917520Y1949135D01*
X2917520Y1949135D02*
G01*
X2945000Y1976615D01*
X2945000Y1980000D01*
X2945000Y1980000D02*
G01*
X2920955Y2004045D01*
X2917529Y2004045D01*
X2945000Y1980000D02*
G01*
X2972439Y1952559D01*
X2972439Y1949135D01*
X2972439Y1949135D02*
G01*
X3225000Y1696574D01*
X3225000Y1590675D01*
X3225000Y2299324D02*
G01*
X3225000Y2145000D01*
X3138975Y2058975D01*
X2972439Y2058975D01*
X2525000Y2299324D02*
G01*
X2525000Y2340000D01*
X2490000Y2375000D01*
D11*
X2857299Y2600000D02*
G01*
X2840839Y2583539D01*
X2765000Y2583539D01*
X2765000Y2583539D02*
G01*
X2761459Y2580000D01*
X2625000Y2580000D01*
X1205000Y1321460D02*
G01*
X1160000Y1321460D01*
X1160000Y1321460D02*
G01*
X1158540Y1320000D01*
X1055000Y1320000D01*
X815000Y1160000D02*
G01*
X785000Y1190000D01*
X785000Y1235000D01*
X920000Y2398539D02*
G01*
X928540Y2390000D01*
X1000000Y2390000D01*
D12*
X820784Y2136514D02*
G01*
X783485Y2136514D01*
X760000Y2160000D01*
X760000Y2185000D01*
X775000Y2200000D01*
X810000Y2200000D01*
D10*
X820784Y1880765D02*
G01*
X914234Y1880765D01*
X930000Y1865000D01*
D11*
X919215Y1638625D02*
G01*
X915000Y1634409D01*
X915000Y1535000D01*
X1465000Y2516900D02*
G01*
X1465000Y2540000D01*
X1365000Y2640000D01*
X525000Y2640000D01*
X385000Y2500000D01*
X385000Y2140000D01*
X405000Y2120000D01*
X480000Y2120000D01*
X550000Y2050000D01*
X550000Y1966999D01*
X548000Y1965000D01*
X1555600Y2516900D02*
G01*
X1555600Y2579400D01*
X1500000Y2635000D01*
X1481499Y2635000D01*
X1555551Y2516921D02*
G01*
X1555551Y2520551D01*
X1625000Y2590000D01*
X1620000Y2590000D01*
X538539Y1920000D02*
G01*
X538539Y1870000D01*
X538499Y1870000D02*
G01*
X538499Y1851500D01*
X700000Y1690000D01*
X710000Y1690000D01*
X575000Y1765000D02*
G01*
X575000Y1720000D01*
X870000Y1425000D01*
X975000Y1425000D01*
X560000Y2227040D02*
G01*
X565000Y2232040D01*
X565000Y2290000D01*
X465000Y2231460D02*
G01*
X455000Y2241460D01*
X455000Y2290000D01*
X670000Y2446460D02*
G01*
X656460Y2460000D01*
X610000Y2460000D01*
D10*
X2342960Y1190000D02*
G01*
X2342960Y1442959D01*
X2410000Y1510000D01*
X2530000Y1510000D01*
X2530000Y1501999D01*
D15*
X1465000Y2283071D02*
G01*
X1890000Y1858071D01*
X1890000Y1700000D01*
X2120000Y1470000D01*
X2120000Y1235000D01*
X2220000Y1135000D01*
X2545000Y1135000D01*
X2553350Y1143350D01*
X2553350Y1206999D01*
D11*
X1465000Y2283071D02*
G01*
X1468071Y2280000D01*
X1710000Y2280000D01*
X1870000Y2440000D01*
X1920000Y2440000D01*
X2015000Y2535000D01*
X2100000Y2535000D01*
X2103350Y2538350D01*
X2103350Y2616999D01*
X1465000Y2283099D02*
G01*
X1463100Y2285000D01*
X1185000Y2285000D01*
X1135000Y2335000D01*
X645000Y2335000D01*
X615000Y2305000D01*
X615000Y2226999D01*
D12*
X615000Y2140000D02*
G01*
X670000Y2085000D01*
X685000Y2085000D01*
X715000Y2055000D01*
X820784Y2057775D01*
X820784Y2057775D01*
D11*
X835200Y2552399D02*
G01*
X840000Y2557199D01*
X802200Y2595000D01*
X550000Y2595000D01*
X445000Y2490000D01*
X445000Y2420000D01*
X575000Y1765000D02*
G01*
X530000Y1765000D01*
X425000Y1870000D01*
X425000Y2075000D01*
X2940000Y1410000D02*
G01*
X2935000Y1415000D01*
X2830000Y1415000D01*
X2820000Y1425000D01*
X2820000Y1462959D01*
X2661300Y2626500D02*
G01*
X2661300Y2638699D01*
X2638999Y2660999D01*
X2623999Y2660999D01*
X2656000Y2629000D01*
X2656000Y2626500D01*
X2631099Y2626500D01*
D16*
G01*
X2020649Y2616999D03*
G01*
X2103350Y2616999D03*
G01*
X2470649Y1206999D03*
G01*
X2553350Y1206999D03*
D17*
G01*
X1912040Y2615000D03*
G01*
X1877959Y2615000D03*
G01*
X2377040Y1190000D03*
G01*
X2342959Y1190000D03*
D18*
G01*
X1205000Y1278541D03*
D19*
G01*
X1205000Y1321460D03*
D20*
G01*
X581458Y1920000D03*
G01*
X538541Y1920000D03*
D18*
G01*
X465000Y2188541D03*
D19*
G01*
X465000Y2231460D03*
D18*
G01*
X2765000Y2626459D03*
D19*
G01*
X2765000Y2583539D03*
D18*
G01*
X1300000Y2558541D03*
D19*
G01*
X1300000Y2601460D03*
D21*
G01*
X1438540Y2635000D03*
G01*
X1481459Y2635000D03*
D18*
G01*
X1160000Y1278541D03*
D19*
G01*
X1160000Y1321460D03*
D18*
G01*
X670000Y2403541D03*
D19*
G01*
X670000Y2446460D03*
D18*
G01*
X670000Y2556459D03*
D19*
G01*
X670000Y2513539D03*
D18*
G01*
X920000Y2441459D03*
D19*
G01*
X920000Y2398539D03*
D18*
G01*
X715000Y2193541D03*
D19*
G01*
X715000Y2236460D03*
D20*
G01*
X581458Y1870000D03*
G01*
X538541Y1870000D03*
D22*
G01*
X2982696Y2600000D03*
G01*
X2857303Y2600000D03*
D23*
G01*
X820780Y2156179D03*
G01*
X820780Y2136509D03*
G01*
X820780Y2116830D03*
G01*
X820780Y2097139D03*
G01*
X820780Y2077460D03*
G01*
X820780Y2057770D03*
G01*
X820780Y2038090D03*
G01*
X820780Y2018400D03*
G01*
X820780Y1998719D03*
G01*
X820780Y1979029D03*
G01*
X820780Y1959349D03*
G01*
X820780Y1939659D03*
G01*
X820780Y1919980D03*
G01*
X820780Y1900290D03*
G01*
X820780Y1880760D03*
G01*
X820780Y1860940D03*
G01*
X820789Y1841239D03*
G01*
X820780Y1821579D03*
G01*
X820780Y1801900D03*
G01*
X820780Y1782120D03*
G01*
X820780Y1762429D03*
G01*
X820780Y1742750D03*
G01*
X820780Y1723060D03*
G01*
X820780Y1703370D03*
D24*
G01*
X919210Y2221370D03*
G01*
X919210Y1638620D03*
D25*
G01*
X1762399Y1388620D03*
G01*
X1687600Y1388620D03*
G01*
X1725000Y1291379D03*
G01*
X1942399Y1388620D03*
G01*
X1867600Y1388620D03*
G01*
X1905000Y1291379D03*
D26*
G01*
X1292959Y1130000D03*
G01*
X1327040Y1130000D03*
D17*
G01*
X1327040Y1220000D03*
G01*
X1292959Y1220000D03*
G01*
X1327040Y1180000D03*
G01*
X1292959Y1180000D03*
D27*
G01*
X3075000Y1457959D03*
D28*
G01*
X3075000Y1492040D03*
D27*
G01*
X3030000Y1457959D03*
D28*
G01*
X3030000Y1492040D03*
D26*
G01*
X1797959Y1435000D03*
G01*
X1832040Y1435000D03*
D27*
G01*
X1815999Y1352040D03*
D28*
G01*
X1816000Y1317959D03*
D27*
G01*
X2775000Y1462959D03*
D28*
G01*
X2775000Y1497040D03*
D27*
G01*
X3125000Y1457959D03*
D28*
G01*
X3125000Y1492040D03*
D27*
G01*
X2730000Y1462959D03*
D28*
G01*
X2730000Y1497040D03*
D27*
G01*
X2675000Y2432040D03*
D28*
G01*
X2675000Y2397959D03*
D27*
G01*
X2645000Y1467959D03*
D28*
G01*
X2645000Y1502040D03*
D27*
G01*
X2780000Y2432040D03*
D28*
G01*
X2780000Y2397959D03*
D27*
G01*
X2925000Y2427040D03*
D28*
G01*
X2925000Y2392959D03*
D27*
G01*
X2975000Y2432040D03*
D28*
G01*
X2975000Y2397959D03*
D27*
G01*
X3025000Y2427040D03*
D28*
G01*
X3025000Y2392959D03*
D27*
G01*
X2875000Y1462959D03*
D28*
G01*
X2875000Y1497040D03*
D27*
G01*
X2575000Y2432040D03*
D28*
G01*
X2575000Y2397959D03*
D27*
G01*
X3070000Y2427040D03*
D28*
G01*
X3070000Y2392959D03*
D27*
G01*
X2875000Y2427040D03*
D28*
G01*
X2875000Y2392959D03*
D26*
G01*
X2212959Y2140000D03*
G01*
X2247040Y2140000D03*
D27*
G01*
X2820000Y1462959D03*
D28*
G01*
X2820000Y1497040D03*
D27*
G01*
X3170000Y1457959D03*
D28*
G01*
X3170000Y1492040D03*
D17*
G01*
X582040Y1965000D03*
G01*
X547959Y1965000D03*
D27*
G01*
X660000Y2192959D03*
D28*
G01*
X660000Y2227040D03*
D27*
G01*
X560000Y2192959D03*
D28*
G01*
X560000Y2227040D03*
D27*
G01*
X615000Y2192959D03*
D28*
G01*
X615000Y2227040D03*
D27*
G01*
X510000Y2192959D03*
D28*
G01*
X510000Y2227040D03*
D27*
G01*
X2575000Y1467959D03*
D28*
G01*
X2575000Y1502040D03*
D27*
G01*
X2530000Y1467959D03*
D28*
G01*
X2530000Y1502040D03*
D29*
G01*
X3225010Y2299330D03*
G01*
X3175010Y2299330D03*
G01*
X3125010Y2299330D03*
G01*
X3075010Y2299330D03*
G01*
X3025010Y2299330D03*
G01*
X2975010Y2299330D03*
G01*
X2925010Y2299330D03*
G01*
X2875010Y2299330D03*
G01*
X2825010Y2299330D03*
G01*
X2775010Y2299330D03*
G01*
X2725010Y2299330D03*
G01*
X2675010Y2299330D03*
G01*
X2625010Y2299330D03*
G01*
X2575010Y2299330D03*
G01*
X2525010Y2299330D03*
G01*
X2475010Y2299330D03*
G01*
X2425010Y2299330D03*
G01*
X2375010Y2299330D03*
G01*
X2325010Y2299330D03*
G01*
X2325010Y1590670D03*
G01*
X2375010Y1590670D03*
G01*
X2425010Y1590670D03*
G01*
X2475010Y1590670D03*
G01*
X2525010Y1590670D03*
G01*
X2575010Y1590670D03*
G01*
X2625010Y1590670D03*
G01*
X2675010Y1590670D03*
G01*
X2725010Y1590670D03*
G01*
X2775010Y1590670D03*
G01*
X2825010Y1590670D03*
G01*
X2875010Y1590670D03*
G01*
X2925010Y1590670D03*
G01*
X2975010Y1590670D03*
G01*
X3025010Y1590670D03*
G01*
X3075010Y1590670D03*
G01*
X3125010Y1590670D03*
G01*
X3175010Y1590670D03*
G01*
X3225010Y1590670D03*
D30*
G01*
X2917529Y2004050D03*
G01*
X2917529Y2058980D03*
G01*
X2917529Y1949130D03*
G01*
X2972439Y2058980D03*
G01*
X2972439Y2004050D03*
G01*
X2972439Y1949130D03*
G01*
X2862610Y2058980D03*
G01*
X2862610Y2004050D03*
G01*
X2862610Y1949130D03*
D31*
G01*
X1555550Y2516930D03*
G01*
X1465000Y2516930D03*
G01*
X1374449Y2516930D03*
D32*
G01*
X1465000Y2283070D03*
D33*
G01*
X1426400Y1369050D03*
G01*
X1426400Y1349369D03*
G01*
X1426400Y1329679D03*
G01*
X1426400Y1310000D03*
G01*
X1426400Y1290309D03*
G01*
X1426400Y1270630D03*
G01*
X1426400Y1250940D03*
D34*
G01*
X1460950Y1216399D03*
G01*
X1480630Y1216399D03*
G01*
X1500320Y1216399D03*
G01*
X1520000Y1216399D03*
G01*
X1539690Y1216399D03*
G01*
X1559369Y1216399D03*
G01*
X1579059Y1216399D03*
D33*
G01*
X1613599Y1250940D03*
G01*
X1613599Y1270630D03*
G01*
X1613599Y1290309D03*
G01*
X1613599Y1310000D03*
G01*
X1613599Y1329679D03*
G01*
X1613599Y1349369D03*
G01*
X1613599Y1369050D03*
D34*
G01*
X1579059Y1403600D03*
G01*
X1559369Y1403600D03*
G01*
X1539690Y1403600D03*
G01*
X1520000Y1403600D03*
G01*
X1500320Y1403600D03*
G01*
X1480630Y1403600D03*
G01*
X1460950Y1403600D03*
D35*
G01*
X1520000Y1310000D03*
D36*
G01*
X835240Y2477600D03*
G01*
X835240Y2515000D03*
G01*
X835240Y2552399D03*
G01*
X744760Y2552399D03*
G01*
X744760Y2515000D03*
G01*
X744760Y2477600D03*
D37*
G01*
X615000Y1160000D03*
D38*
G01*
X715000Y1160000D03*
G01*
X815000Y1160000D03*
G01*
X915000Y1160000D03*
G01*
X1015000Y1160000D03*
G01*
X1115000Y1160000D03*
D39*
G01*
X324920Y1694920D03*
G01*
X324920Y2035079D03*
D40*
G01*
X489490Y2035079D03*
G01*
X489490Y1694920D03*
D41*
G01*
X1105000Y1925000D03*
G01*
X2450000Y2425000D03*
G01*
X1110000Y1998719D03*
G01*
X2625000Y2470000D03*
G01*
X1100000Y1885000D03*
G01*
X2760000Y2510000D03*
G01*
X1115000Y1762420D03*
G01*
X2855000Y2515000D03*
G01*
X1120000Y1720000D03*
G01*
X2200000Y1825000D03*
G01*
X1255000Y1790000D03*
G01*
X2300000Y2110000D03*
G01*
X2920000Y2200000D03*
G01*
X2910000Y2515000D03*
G01*
X1195000Y1825000D03*
G01*
X1965000Y1830000D03*
G01*
X1965000Y1830000D03*
G01*
X1080000Y1835000D03*
G01*
X2365000Y2200000D03*
G01*
X2750000Y2205000D03*
G01*
X3115000Y2225000D03*
G01*
X2961000Y2525000D03*
G01*
X3056999Y2525000D03*
G01*
X1205000Y1960000D03*
G01*
X2380000Y2435000D03*
G01*
X2665000Y2540000D03*
G01*
X3101000Y2520000D03*
G01*
X810000Y2200000D03*
G01*
X740000Y1860000D03*
G01*
X2915000Y1455000D03*
G01*
X755000Y1920000D03*
G01*
X2685000Y1460000D03*
G01*
X730000Y2130000D03*
G01*
X670000Y2060000D03*
G01*
X3175000Y1350000D03*
G01*
X2475000Y1340000D03*
G01*
X2405000Y1305000D03*
G01*
X1285000Y1350000D03*
G01*
X1255000Y1385000D03*
G01*
X2460000Y1300000D03*
G01*
X1495000Y1490000D03*
G01*
X2525000Y1270000D03*
G01*
X1540000Y1470000D03*
G01*
X2460000Y1470000D03*
G01*
X1745000Y1665000D03*
G01*
X2280000Y1175000D03*
G01*
X3180000Y1415000D03*
G01*
X3180000Y1415000D03*
G01*
X3180000Y1415000D03*
G01*
X2940000Y1410000D03*
G01*
X1205000Y2605000D03*
G01*
X535000Y2450000D03*
G01*
X660000Y2295000D03*
G01*
X3090000Y1675000D03*
G01*
X2925000Y1655000D03*
G01*
X2415000Y1685000D03*
G01*
X2545000Y1796260D03*
G01*
X2580000Y2065000D03*
G01*
X2580000Y2065000D03*
G01*
X2580000Y2195000D03*
G01*
X2675000Y1795000D03*
G01*
X2665000Y2065000D03*
G01*
X2665000Y2205000D03*
G01*
X3195000Y2205000D03*
G01*
X2630000Y2020000D03*
G01*
X2560000Y1910000D03*
G01*
X535999Y2140000D03*
G01*
X445000Y2420000D03*
G01*
X575000Y1765000D03*
G01*
X425000Y2075000D03*
G01*
X325000Y2415000D03*
G01*
X315000Y2294520D03*
G01*
X1565000Y2035000D03*
G01*
X2623999Y2660999D03*
G01*
X2565000Y2660000D03*
G01*
X2395000Y1400000D03*
G01*
X2610000Y1470000D03*
G01*
X1175000Y1680000D03*
G01*
X1010000Y1320000D03*
G01*
X1055000Y1320000D03*
G01*
X2705000Y2510000D03*
G01*
X3010000Y2490000D03*
G01*
X975000Y1425000D03*
G01*
X910000Y1315000D03*
G01*
X1235000Y1180000D03*
G01*
X1220000Y1225000D03*
G01*
X500000Y1215000D03*
G01*
X1520000Y1165000D03*
G01*
X1370000Y1355000D03*
G01*
X2945000Y2035000D03*
G01*
X2890000Y2035000D03*
G01*
X2890000Y1980000D03*
G01*
X2945000Y1980000D03*
G01*
X2490000Y2375000D03*
G01*
X2350000Y2565000D03*
G01*
X2625000Y2580000D03*
G01*
X785000Y1235000D03*
G01*
X325000Y1590000D03*
G01*
X480000Y1620000D03*
G01*
X640000Y1540000D03*
G01*
X315000Y2110000D03*
G01*
X465999Y2081999D03*
G01*
X1000000Y2390000D03*
G01*
X930000Y1865000D03*
G01*
X915000Y1535000D03*
G01*
X1625000Y2590000D03*
G01*
X710000Y1690000D03*
G01*
X455000Y2290000D03*
G01*
X565000Y2290000D03*
G01*
X610000Y2460000D03*
G01*
X2515000Y1725000D03*
G01*
X895000Y2077460D03*
G01*
X2978999Y1150999D03*
M02*
