G04 Layer: TopSolderMaskLayer*
G04 EasyEDA v6.5.22, 2023-04-19 21:06:07*
G04 0b1144c6aaf7448fb0b14bab58411d50,0a61cb7f7b51421fbede6d33e3e5ec82,10*
G04 Gerber Generator version 0.2*
G04 Scale: 100 percent, Rotated: No, Reflected: No *
G04 Dimensions in inches *
G04 leading zeros omitted , absolute positions ,3 integer and 6 decimal *
%FSLAX36Y36*%
%MOIN*%

%AMMACRO1*1,1,$1,$2,$3*1,1,$1,$4,$5*1,1,$1,0-$2,0-$3*1,1,$1,0-$4,0-$5*20,1,$1,$2,$3,$4,$5,0*20,1,$1,$4,$5,0-$2,0-$3,0*20,1,$1,0-$2,0-$3,0-$4,0-$5,0*20,1,$1,0-$4,0-$5,$2,$3,0*4,1,4,$2,$3,$4,$5,0-$2,0-$3,0-$4,0-$5,$2,$3,0*%
%ADD10MACRO1,0.004X0.0197X-0.0275X-0.0197X-0.0275*%
%ADD11MACRO1,0.004X-0.0111X-0.0106X-0.0111X0.0106*%
%ADD12MACRO1,0.004X0.0111X-0.0106X0.0111X0.0106*%
%ADD13MACRO1,0.004X-0.0106X0.0156X0.0106X0.0156*%
%ADD14MACRO1,0.004X-0.0106X-0.0156X0.0106X-0.0156*%
%ADD15MACRO1,0.004X-0.0156X-0.0106X-0.0156X0.0106*%
%ADD16MACRO1,0.004X0.0156X-0.0106X0.0156X0.0106*%
%ADD17MACRO1,0.004X0.0106X-0.0156X-0.0106X-0.0156*%
%ADD18MACRO1,0.004X0.0106X0.0156X-0.0106X0.0156*%
%ADD19MACRO1,0.004X0.0156X0.0106X0.0156X-0.0106*%
%ADD20MACRO1,0.004X-0.0156X0.0106X-0.0156X-0.0106*%
%ADD21MACRO1,0.004X-0.0292X-0.034X-0.0292X0.034*%
%ADD22MACRO1,0.004X0.0292X-0.034X0.0292X0.034*%
%ADD23MACRO1,0.004X-0.0335X0.0335X0.0335X0.0335*%
%ADD24C,0.0709*%
%ADD25MACRO1,0.004X0.0295X0.0059X0.0295X-0.0059*%
%ADD26MACRO1,0.004X0.0591X0.0394X0.0591X-0.0394*%
%ADD27MACRO1,0.004X-0.0591X-0.0394X-0.0591X0.0394*%
%ADD28MACRO1,0.004X-0.0118X-0.0211X-0.0118X0.0211*%
%ADD29MACRO1,0.004X0.0111X0.0106X0.0111X-0.0106*%
%ADD30MACRO1,0.004X-0.0111X0.0106X-0.0111X-0.0106*%
%ADD31MACRO1,0.004X-0.0106X0.0111X0.0106X0.0111*%
%ADD32MACRO1,0.004X-0.0106X-0.0111X0.0106X-0.0111*%
%ADD33MACRO1,0.004X0.0106X-0.0111X-0.0106X-0.0111*%
%ADD34MACRO1,0.004X0.0106X0.0111X-0.0106X0.0111*%
%ADD35MACRO1,0.004X0.0177X0.0394X0.0177X-0.0394*%
%ADD36MACRO1,0.004X0.0177X0.0177X0.0177X-0.0177*%
%ADD37MACRO1,0.004X-0.0217X-0.0492X-0.0217X0.0492*%
%ADD38MACRO1,0.004X-0.0709X0.0461X0.0709X0.0461*%
%ADD39MACRO1,0.004X-0.0178X0.0055X0.0178X0.0055*%
%ADD40MACRO1,0.004X-0.0055X0.0178X0.0055X0.0178*%
%ADD41MACRO1,0.004X-0.0659X0.0659X0.0659X0.0659*%
%ADD42MACRO1,0.004X-0.0211X-0.0105X-0.0211X0.0105*%
%ADD43O,0.074866X0.051244000000000005*%
%ADD44O,0.08274000000000001X0.051244000000000005*%
%ADD45O,0.014X0.051244000000000005*%

%LPD*%
D10*
G01*
X2020649Y2617000D03*
G01*
X2103350Y2617000D03*
G01*
X2470649Y1207000D03*
G01*
X2553350Y1207000D03*
D11*
G01*
X1912040Y2615000D03*
D12*
G01*
X1877959Y2615000D03*
D11*
G01*
X2377040Y1190000D03*
D12*
G01*
X2342959Y1190000D03*
D13*
G01*
X1205000Y1278541D03*
D14*
G01*
X1205000Y1321458D03*
D15*
G01*
X581458Y1920000D03*
D16*
G01*
X538541Y1920000D03*
D13*
G01*
X465000Y2188541D03*
D14*
G01*
X465000Y2231459D03*
D17*
G01*
X2765000Y2626459D03*
D18*
G01*
X2765000Y2583541D03*
D13*
G01*
X1300000Y2558541D03*
D14*
G01*
X1300000Y2601459D03*
D19*
G01*
X1438540Y2635000D03*
D20*
G01*
X1481459Y2635000D03*
D13*
G01*
X1160000Y1278541D03*
D14*
G01*
X1160000Y1321458D03*
D13*
G01*
X670000Y2403541D03*
D14*
G01*
X670000Y2446459D03*
D17*
G01*
X670000Y2556459D03*
D18*
G01*
X670000Y2513541D03*
D17*
G01*
X920000Y2441459D03*
D18*
G01*
X920000Y2398541D03*
D13*
G01*
X715000Y2193541D03*
D14*
G01*
X715000Y2236459D03*
D15*
G01*
X581458Y1870000D03*
D16*
G01*
X538541Y1870000D03*
D21*
G01*
X2982696Y2600000D03*
D22*
G01*
X2857303Y2600000D03*
D23*
G01*
X615000Y1160000D03*
D24*
G01*
X715000Y1160000D03*
G01*
X815000Y1160000D03*
G01*
X915000Y1160000D03*
G01*
X1015000Y1160000D03*
G01*
X1115000Y1160000D03*
D25*
G01*
X820783Y2156179D03*
G01*
X820783Y2136510D03*
G01*
X820783Y2116830D03*
G01*
X820783Y2097139D03*
G01*
X820783Y2077460D03*
G01*
X820783Y2057770D03*
G01*
X820783Y2038089D03*
G01*
X820783Y2018399D03*
G01*
X820783Y1998720D03*
G01*
X820783Y1979030D03*
G01*
X820783Y1959349D03*
G01*
X820783Y1939659D03*
G01*
X820783Y1919980D03*
G01*
X820783Y1900290D03*
G01*
X820783Y1880760D03*
G01*
X820783Y1860944D03*
G01*
X820788Y1841245D03*
G01*
X820783Y1821575D03*
G01*
X820783Y1801895D03*
G01*
X820783Y1782124D03*
G01*
X820783Y1762425D03*
G01*
X820783Y1742754D03*
G01*
X820783Y1723055D03*
G01*
X820783Y1703365D03*
D26*
G01*
X919205Y2221369D03*
D27*
G01*
X919209Y1638620D03*
D28*
G01*
X1762399Y1388622D03*
G01*
X1687600Y1388622D03*
G01*
X1725000Y1291377D03*
G01*
X1942399Y1388622D03*
G01*
X1867600Y1388622D03*
G01*
X1905000Y1291377D03*
D29*
G01*
X1292959Y1130000D03*
D30*
G01*
X1327040Y1130000D03*
D11*
G01*
X1327040Y1220000D03*
D12*
G01*
X1292959Y1220000D03*
D11*
G01*
X1327040Y1180000D03*
D12*
G01*
X1292959Y1180000D03*
D31*
G01*
X3075000Y1457959D03*
D32*
G01*
X3075000Y1492040D03*
D31*
G01*
X3030000Y1457959D03*
D32*
G01*
X3030000Y1492040D03*
D29*
G01*
X1797959Y1435000D03*
D30*
G01*
X1832040Y1435000D03*
D33*
G01*
X1815999Y1352040D03*
D34*
G01*
X1815999Y1317959D03*
D31*
G01*
X2775000Y1462959D03*
D32*
G01*
X2775000Y1497040D03*
D31*
G01*
X3125000Y1457959D03*
D32*
G01*
X3125000Y1492040D03*
D31*
G01*
X2730000Y1462959D03*
D32*
G01*
X2730000Y1497040D03*
D33*
G01*
X2675000Y2432040D03*
D34*
G01*
X2675000Y2397959D03*
D31*
G01*
X2645000Y1467959D03*
D32*
G01*
X2645000Y1502040D03*
D33*
G01*
X2780000Y2432040D03*
D34*
G01*
X2780000Y2397959D03*
D33*
G01*
X2925000Y2427040D03*
D34*
G01*
X2925000Y2392959D03*
D33*
G01*
X2975000Y2432040D03*
D34*
G01*
X2975000Y2397959D03*
D33*
G01*
X3025000Y2427040D03*
D34*
G01*
X3025000Y2392959D03*
D31*
G01*
X2875000Y1462959D03*
D32*
G01*
X2875000Y1497040D03*
D33*
G01*
X2575000Y2432040D03*
D34*
G01*
X2575000Y2397959D03*
D33*
G01*
X3070000Y2427040D03*
D34*
G01*
X3070000Y2392959D03*
D33*
G01*
X2875000Y2427040D03*
D34*
G01*
X2875000Y2392959D03*
D29*
G01*
X2212959Y2140000D03*
D30*
G01*
X2247040Y2140000D03*
D31*
G01*
X2820000Y1462959D03*
D32*
G01*
X2820000Y1497040D03*
D31*
G01*
X3170000Y1457959D03*
D32*
G01*
X3170000Y1492040D03*
D11*
G01*
X582040Y1965000D03*
D12*
G01*
X547959Y1965000D03*
D31*
G01*
X660000Y2192959D03*
D32*
G01*
X660000Y2227040D03*
D31*
G01*
X560000Y2192959D03*
D32*
G01*
X560000Y2227040D03*
D31*
G01*
X615000Y2192959D03*
D32*
G01*
X615000Y2227040D03*
D31*
G01*
X510000Y2192959D03*
D32*
G01*
X510000Y2227040D03*
D31*
G01*
X2575000Y1467959D03*
D32*
G01*
X2575000Y1502040D03*
D31*
G01*
X2530000Y1467959D03*
D32*
G01*
X2530000Y1502040D03*
D35*
G01*
X3225005Y2299327D03*
G01*
X3175005Y2299327D03*
G01*
X3125005Y2299327D03*
G01*
X3075005Y2299327D03*
G01*
X3025005Y2299327D03*
G01*
X2975005Y2299327D03*
G01*
X2925005Y2299327D03*
G01*
X2875005Y2299327D03*
G01*
X2825005Y2299327D03*
G01*
X2775005Y2299327D03*
G01*
X2725005Y2299327D03*
G01*
X2675005Y2299327D03*
G01*
X2625005Y2299327D03*
G01*
X2575005Y2299327D03*
G01*
X2525005Y2299327D03*
G01*
X2475005Y2299327D03*
G01*
X2425005Y2299327D03*
G01*
X2375005Y2299327D03*
G01*
X2325005Y2299327D03*
G01*
X2325005Y1590670D03*
G01*
X2375005Y1590670D03*
G01*
X2425005Y1590670D03*
G01*
X2475005Y1590670D03*
G01*
X2525005Y1590670D03*
G01*
X2575005Y1590670D03*
G01*
X2625005Y1590670D03*
G01*
X2675005Y1590670D03*
G01*
X2725005Y1590670D03*
G01*
X2775005Y1590670D03*
G01*
X2825005Y1590670D03*
G01*
X2875005Y1590670D03*
G01*
X2925005Y1590670D03*
G01*
X2975005Y1590670D03*
G01*
X3025005Y1590670D03*
G01*
X3075005Y1590670D03*
G01*
X3125005Y1590670D03*
G01*
X3175005Y1590670D03*
G01*
X3225005Y1590670D03*
D36*
G01*
X2917525Y2004049D03*
G01*
X2917525Y2058978D03*
G01*
X2917525Y1949132D03*
G01*
X2972442Y2058977D03*
G01*
X2972442Y2004050D03*
G01*
X2972442Y1949133D03*
G01*
X2862608Y2058978D03*
G01*
X2862607Y2004049D03*
G01*
X2862608Y1949132D03*
D37*
G01*
X1555550Y2516926D03*
G01*
X1465000Y2516926D03*
G01*
X1374449Y2516926D03*
D38*
G01*
X1465000Y2283070D03*
D39*
G01*
X1426400Y1369049D03*
G01*
X1426400Y1349369D03*
G01*
X1426400Y1329680D03*
G01*
X1426400Y1310000D03*
G01*
X1426400Y1290309D03*
G01*
X1426400Y1270630D03*
G01*
X1426400Y1250940D03*
D40*
G01*
X1460950Y1216399D03*
G01*
X1480630Y1216399D03*
G01*
X1500320Y1216399D03*
G01*
X1520000Y1216399D03*
G01*
X1539690Y1216399D03*
G01*
X1559369Y1216399D03*
G01*
X1579059Y1216399D03*
D39*
G01*
X1613599Y1250940D03*
G01*
X1613599Y1270630D03*
G01*
X1613599Y1290309D03*
G01*
X1613599Y1310000D03*
G01*
X1613599Y1329680D03*
G01*
X1613599Y1349369D03*
G01*
X1613599Y1369049D03*
D40*
G01*
X1579059Y1403600D03*
G01*
X1559369Y1403600D03*
G01*
X1539690Y1403600D03*
G01*
X1520000Y1403600D03*
G01*
X1500320Y1403600D03*
G01*
X1480630Y1403600D03*
G01*
X1460950Y1403600D03*
D41*
G01*
X1520000Y1310000D03*
D42*
G01*
X835240Y2477600D03*
G01*
X835240Y2515000D03*
G01*
X835240Y2552400D03*
G01*
X744759Y2552400D03*
G01*
X744759Y2515000D03*
G01*
X744759Y2477600D03*
D43*
G01*
X324920Y1694920D03*
G01*
X324920Y2035079D03*
D44*
G01*
X489490Y2035079D03*
G01*
X489490Y1694920D03*
M02*
