G04 Layer: BottomLayer*
G04 EasyEDA v6.5.22, 2023-04-19 21:06:07*
G04 0b1144c6aaf7448fb0b14bab58411d50,0a61cb7f7b51421fbede6d33e3e5ec82,10*
G04 Gerber Generator version 0.2*
G04 Scale: 100 percent, Rotated: No, Reflected: No *
G04 Dimensions in inches *
G04 leading zeros omitted , absolute positions ,3 integer and 6 decimal *
%FSLAX36Y36*%
%MOIN*%

%AMMACRO1*21,1,$1,$2,0,0,$3*%
%ADD10C,0.0100*%
%ADD11C,0.0200*%
%ADD12C,0.0060*%
%ADD13C,0.0150*%
%ADD14MACRO1,0.0827X0.0472X0.0000*%
%ADD15MACRO1,0.0213X0.0223X-90.0000*%
%ADD16R,0.0213X0.0223*%
%ADD17MACRO1,0.0213X0.0223X0.0000*%
%ADD18MACRO1,0.0236X0.0236X-90.0000*%
%ADD19MACRO1,0.0236X0.0236X90.0000*%
%ADD20MACRO1,0.0213X0.0311X-90.0000*%
%ADD21R,0.0213X0.0311*%
%ADD22MACRO1,0.0213X0.0311X0.0000*%
%ADD23MACRO1,0.0236X0.0236X0.0000*%
%ADD24MACRO1,0.0118X0.0512X90.0000*%
%ADD25MACRO1,0.0118X0.0354X90.0000*%
%ADD26MACRO1,0.0433X0.0709X90.0000*%
%ADD27R,0.0669X0.0669*%
%ADD28C,0.0669*%
%ADD29O,0.070866X0.047244*%
%ADD30O,0.07873999999999999X0.047244*%
%ADD31C,0.0240*%
%ADD32C,0.0163*%

%LPD*%
D10*
X3115000Y2225000D02*
G01*
X3061999Y2225000D01*
X3061999Y2364000D01*
X3038299Y2387700D01*
X3038299Y2501700D01*
X3015000Y2525000D01*
X2961000Y2525000D01*
X2665000Y2540000D02*
G01*
X2665000Y2569000D01*
X3071999Y2569000D01*
X3101000Y2540000D01*
X3101000Y2520000D01*
D11*
X2702899Y2611700D02*
G01*
X2625000Y2611700D01*
X2625000Y2580000D01*
X2939110Y2611740D02*
G01*
X2702889Y2611740D01*
D10*
X2550000Y2573000D02*
G01*
X2607997Y2515000D01*
X2646000Y2515000D01*
X2707002Y2453998D01*
X2703150Y2453998D01*
X2702889Y2454259D01*
X2702889Y2454259D02*
G01*
X2702889Y2507890D01*
X2705000Y2510000D01*
X3010000Y2490000D02*
G01*
X2974260Y2454259D01*
X2939110Y2454259D01*
X2750000Y2205000D02*
G01*
X2805000Y2150000D01*
X3130000Y2150000D01*
X3140000Y2155000D01*
X3140000Y2250000D01*
X3100000Y2290000D01*
X3100000Y2470000D01*
X3056999Y2513000D01*
X3056999Y2525000D01*
X1100000Y1885000D02*
G01*
X1955000Y1885000D01*
X2310000Y2240000D01*
X2465000Y2240000D01*
X2565000Y2340000D01*
X2705000Y2340000D01*
X2760000Y2395000D01*
X2760000Y2510000D01*
X2920000Y2205000D02*
G01*
X2860000Y2265000D01*
X2860000Y2465000D01*
X2910000Y2515000D01*
X2855000Y2515000D02*
G01*
X2838000Y2515000D01*
X2816999Y2494000D01*
X2816999Y2376999D01*
X2740000Y2300000D01*
X2620000Y2300000D01*
X2515000Y2195000D01*
X2440000Y2195000D01*
X2007399Y1761999D01*
X1115000Y1761999D01*
X2682889Y1355740D02*
G01*
X2668630Y1370000D01*
X2570000Y1370000D01*
X2550000Y1390000D01*
X2395000Y1390000D01*
X2395000Y1400000D01*
D11*
X2722890Y1350740D02*
G01*
X2919110Y1350740D01*
X2919110Y1355740D01*
X2722890Y1193258D02*
G01*
X2919110Y1193258D01*
X2919110Y1198260D01*
D10*
X2460000Y1300000D02*
G01*
X2430000Y1270000D01*
X2365000Y1270000D01*
X2355000Y1280000D01*
X2090000Y1280000D01*
X1870000Y1500000D01*
X1500000Y1501999D01*
X1495000Y1490000D01*
X745000Y2041999D02*
G01*
X745000Y1975000D01*
X710000Y1940000D01*
X710000Y1810000D01*
X865000Y1655000D01*
X1015000Y1655000D01*
X1095000Y1575000D01*
X1970000Y1575000D01*
X2175000Y1370000D01*
X2495000Y1370000D01*
X2580000Y1285000D01*
X3025000Y1285000D01*
X3095000Y1355000D01*
X3175000Y1355000D01*
X895000Y2077460D02*
G01*
X781548Y2077460D01*
X745000Y2040911D01*
X1105000Y1925000D02*
G01*
X1373900Y1925000D01*
X1920000Y1925000D01*
X2225000Y2230000D01*
X2225000Y2325000D01*
X2300000Y2400000D01*
X2430000Y2400000D01*
X2450000Y2425000D01*
X1255000Y1790000D02*
G01*
X1260000Y1795000D01*
X1985000Y1795000D01*
X2300000Y2110000D01*
X1195000Y1825000D02*
G01*
X1965000Y1825000D01*
X1965000Y1830000D01*
X1080000Y1835000D02*
G01*
X1085000Y1840000D01*
X1115000Y1860000D01*
X1995000Y1860000D01*
X2335000Y2200000D01*
X2365000Y2200000D01*
X1110000Y1998699D02*
G01*
X1116300Y2005000D01*
X1890000Y2005000D01*
X2100000Y2215000D01*
X2100000Y2375000D01*
X2195000Y2470000D01*
X2625000Y2470000D01*
X1205000Y1960000D02*
G01*
X1895000Y1960000D01*
X2190000Y2255000D01*
X2190000Y2385000D01*
X2240000Y2435000D01*
X2380000Y2435000D01*
X515070Y1965399D02*
G01*
X515070Y1953580D01*
D12*
X515100Y1894499D02*
G01*
X474499Y1894499D01*
X470000Y1890000D01*
X470199Y1855199D01*
X515100Y1855199D01*
X515100Y1835500D02*
G01*
X550500Y1835500D01*
X555000Y1840000D01*
X555000Y1870000D01*
X549800Y1874800D01*
X515100Y1874800D01*
X515100Y1815799D02*
G01*
X445799Y1815799D01*
X395000Y1765000D01*
X395000Y1635000D01*
D10*
X730000Y2130000D02*
G01*
X715000Y2115000D01*
X715000Y2060000D01*
X685000Y2030000D01*
X685000Y1790000D01*
X850000Y1625000D01*
X1005000Y1625000D01*
X1085000Y1545000D01*
X1930000Y1545000D01*
X2135000Y1340000D01*
X2475000Y1340000D01*
X660000Y1644524D02*
G01*
X919525Y1385000D01*
X1255000Y1385000D01*
X610000Y1644499D02*
G01*
X565000Y1599499D01*
X565000Y1555000D01*
X770000Y1350000D01*
X1285000Y1350000D01*
X2525000Y1270000D02*
G01*
X2470000Y1270000D01*
X2445000Y1245000D01*
X2340000Y1245000D01*
X2325000Y1260000D01*
X2080000Y1260000D01*
X1870000Y1470000D01*
X1540000Y1470000D01*
X670000Y2060000D02*
G01*
X650000Y2040000D01*
X650000Y1790000D01*
X845000Y1595000D01*
X845000Y1590000D01*
X850000Y1585000D01*
X985000Y1585000D01*
X1050000Y1520000D01*
X1905000Y1520000D01*
X2120000Y1305000D01*
X2405000Y1305000D01*
D11*
X535000Y2450000D02*
G01*
X660000Y2325000D01*
X660000Y2295000D01*
D10*
X2613100Y1835599D02*
G01*
X2684399Y1835000D01*
X2864399Y1655000D01*
X2925000Y1655000D01*
X2613100Y1855300D02*
G01*
X2704700Y1855300D01*
X2875000Y1685000D01*
X3090000Y1685000D01*
X3090000Y1675000D01*
X2613145Y1875003D02*
G01*
X2570003Y1875003D01*
X2415000Y1720000D01*
X2415000Y1685000D01*
X2613145Y1796264D02*
G01*
X2545000Y1796264D01*
X2580000Y2065000D02*
G01*
X2580000Y2195000D01*
X2613145Y1815943D02*
G01*
X2654056Y1815943D01*
X2675000Y1795000D01*
X2665000Y2065000D02*
G01*
X2665000Y2205000D01*
X2613100Y1934099D02*
G01*
X2705900Y1934099D01*
X2785000Y1855000D01*
X3105000Y1855000D01*
X3195000Y1945000D01*
X3195000Y2205000D01*
X2613145Y1993114D02*
G01*
X2528504Y2077754D01*
X2506854Y2077754D01*
X2613145Y1993114D02*
G01*
X2630000Y2009969D01*
X2630000Y2020000D01*
X2613145Y1894684D02*
G01*
X2575316Y1894684D01*
X2560000Y1910000D01*
X2613145Y1953744D02*
G01*
X2583743Y1953744D01*
X2560000Y1930000D01*
X2560000Y1910000D01*
X595000Y2032959D02*
G01*
X595000Y1965000D01*
X563899Y1933899D01*
X515079Y1933899D01*
X595000Y2067040D02*
G01*
X595000Y2080999D01*
X535999Y2140000D01*
X560000Y2115999D01*
X560000Y2100000D01*
X1115000Y1160000D02*
G01*
X1140000Y1135000D01*
X2220000Y1135000D01*
X2260000Y1175000D01*
X2280000Y1175000D01*
D12*
X515070Y1953580D02*
G01*
X515070Y1965399D01*
X515100Y1894499D02*
G01*
X555500Y1894499D01*
X620000Y1830000D01*
X620000Y1705000D01*
X660000Y1665000D01*
X660000Y1644499D01*
X555000Y1840000D02*
G01*
X600000Y1795000D01*
X600000Y1705000D01*
X610000Y1695000D01*
X610000Y1644499D01*
X515079Y1776419D02*
G01*
X515079Y1764609D01*
D11*
X425000Y2075000D02*
G01*
X409529Y2090470D01*
X409529Y2330000D01*
X401460Y2370000D02*
G01*
X409524Y2361934D01*
X409524Y2330000D01*
X358539Y2370000D02*
G01*
X325000Y2403539D01*
X325000Y2415000D01*
X350475Y2330000D02*
G01*
X315000Y2294524D01*
X315000Y2290000D01*
X401460Y2370000D02*
G01*
X445000Y2413539D01*
X445000Y2420000D01*
D10*
X1565000Y2035000D02*
G01*
X1575000Y2045000D01*
X1855000Y2045000D01*
X2070000Y2260000D01*
X2070000Y2405000D01*
X2170000Y2505000D01*
X2350000Y2505000D01*
X2418540Y2573539D01*
X2500000Y2573539D01*
X2500000Y2573539D02*
G01*
X2500581Y2572959D01*
X2550000Y2572959D01*
X1745000Y1665000D02*
G01*
X2110000Y1665000D01*
X2305000Y1470000D01*
X2460000Y1470000D01*
X755000Y1920000D02*
G01*
X770000Y1905000D01*
X770000Y1835000D01*
X875000Y1730000D01*
X1045000Y1730000D01*
X1135000Y1640000D01*
X2090000Y1640000D01*
X2285000Y1445000D01*
X2685000Y1445000D01*
X2685000Y1460000D01*
X740000Y1860000D02*
G01*
X740000Y1825000D01*
X865000Y1700000D01*
X1030000Y1700000D01*
X1135000Y1595000D01*
X2085000Y1595000D01*
X2255000Y1425000D01*
X2905000Y1425000D01*
X2915000Y1435000D01*
X2915000Y1455000D01*
X1120000Y1720000D02*
G01*
X2095000Y1720000D01*
X2200000Y1825000D01*
X2610000Y1470000D02*
G01*
X2610000Y1505000D01*
X2575000Y1540000D01*
X2330000Y1540000D01*
X2175000Y1695000D01*
X1425000Y1695000D01*
X1410000Y1680000D01*
X1175000Y1680000D01*
X1010000Y1320000D02*
G01*
X1015000Y1315000D01*
X1015000Y1160000D01*
D13*
X975000Y1425000D02*
G01*
X1305000Y1425000D01*
X1325000Y1405000D01*
X1325000Y1285000D01*
X1235000Y1195000D01*
X1235000Y1180000D01*
D10*
X2500000Y2616460D02*
G01*
X2401459Y2616460D01*
X2350000Y2565000D01*
D12*
X395000Y1635000D02*
G01*
X395000Y1601725D01*
X397040Y1599686D01*
X397040Y1540000D01*
D11*
X325000Y1590000D02*
G01*
X325000Y1590000D01*
X362959Y1552040D01*
X362959Y1540000D01*
X324899Y1694899D02*
G01*
X325000Y1590000D01*
X489490Y1694920D02*
G01*
X480000Y1685430D01*
X480000Y1620000D01*
X610000Y1585475D02*
G01*
X640000Y1555475D01*
X640000Y1540000D01*
X660000Y1585475D02*
G01*
X640000Y1565475D01*
X640000Y1540000D01*
X324920Y2035079D02*
G01*
X315000Y2045000D01*
X315000Y2110000D01*
D10*
X465999Y2081999D02*
G01*
X489490Y2058510D01*
X489490Y2035081D01*
X425000Y2075000D02*
G01*
X425000Y2120000D01*
X500000Y2120000D01*
X560000Y2060000D01*
X560000Y1980000D01*
X545399Y1965399D01*
X515100Y1965399D01*
X489490Y2035079D02*
G01*
X515079Y2009490D01*
X515079Y1996889D01*
X515079Y1985079D02*
G01*
X515079Y1996889D01*
X515081Y1776421D02*
G01*
X526500Y1765000D01*
X575000Y1765000D01*
D11*
X2506854Y1672244D02*
G01*
X2515000Y1680389D01*
X2515000Y1725000D01*
X3180000Y1415000D02*
G01*
X3175000Y1410000D01*
X2940000Y1410000D01*
X2919110Y1198260D02*
G01*
X2931740Y1198260D01*
X2978999Y1150999D01*
X2550000Y2607040D02*
G01*
X2603959Y2660999D01*
X2623999Y2660999D01*
D14*
G01*
X2939110Y2611740D03*
G01*
X2702890Y2611740D03*
G01*
X2939110Y2454259D03*
G01*
X2702890Y2454259D03*
G01*
X2682889Y1198260D03*
G01*
X2919110Y1198260D03*
G01*
X2682889Y1355740D03*
G01*
X2919110Y1355740D03*
D15*
G01*
X397040Y1540000D03*
G01*
X362959Y1540000D03*
D16*
G01*
X2550000Y2607040D03*
D17*
G01*
X2550000Y2572959D03*
D18*
G01*
X660000Y1644529D03*
D19*
G01*
X660000Y1585471D03*
D20*
G01*
X401458Y2370000D03*
G01*
X358541Y2370000D03*
D21*
G01*
X2500000Y2573539D03*
D22*
G01*
X2500000Y2616459D03*
D23*
G01*
X409529Y2330000D03*
G01*
X350471Y2330000D03*
D18*
G01*
X610000Y1644529D03*
D19*
G01*
X610000Y1585471D03*
D16*
G01*
X595000Y2067040D03*
D17*
G01*
X595000Y2032959D03*
D24*
G01*
X515082Y1733109D03*
G01*
X515082Y1744919D03*
G01*
X515082Y1764609D03*
G01*
X515082Y1776419D03*
G01*
X515081Y1796099D03*
G01*
X515081Y1815789D03*
G01*
X515082Y1835469D03*
G01*
X515081Y1855159D03*
G01*
X515082Y1874839D03*
G01*
X515081Y1894529D03*
G01*
X515081Y1933899D03*
G01*
X515073Y1953579D03*
G01*
X515073Y1965399D03*
G01*
X515081Y1985078D03*
G01*
X515081Y1996889D03*
G01*
X515081Y1914199D03*
D25*
G01*
X2613150Y1756890D03*
G01*
X2613150Y1776570D03*
G01*
X2613150Y1796260D03*
G01*
X2613150Y1815940D03*
G01*
X2613150Y1835630D03*
G01*
X2613150Y1855310D03*
G01*
X2613150Y1875000D03*
G01*
X2613150Y1894680D03*
G01*
X2613150Y1914370D03*
G01*
X2613150Y1934050D03*
G01*
X2613150Y1953740D03*
G01*
X2613150Y1973420D03*
G01*
X2613150Y1993110D03*
D26*
G01*
X2506851Y1672245D03*
G01*
X2506851Y2077752D03*
D27*
G01*
X615000Y1160000D03*
D28*
G01*
X715000Y1160000D03*
G01*
X815000Y1160000D03*
G01*
X915000Y1160000D03*
G01*
X1015000Y1160000D03*
G01*
X1115000Y1160000D03*
D29*
G01*
X324920Y1694920D03*
G01*
X324920Y2035079D03*
D30*
G01*
X489490Y2035079D03*
G01*
X489490Y1694920D03*
D31*
G01*
X1105000Y1925000D03*
G01*
X2450000Y2425000D03*
G01*
X1110000Y1998719D03*
G01*
X2625000Y2470000D03*
G01*
X1100000Y1885000D03*
G01*
X2760000Y2510000D03*
G01*
X1115000Y1762420D03*
G01*
X2855000Y2515000D03*
G01*
X1120000Y1720000D03*
G01*
X2200000Y1825000D03*
G01*
X1255000Y1790000D03*
G01*
X2300000Y2110000D03*
G01*
X2920000Y2200000D03*
G01*
X2910000Y2515000D03*
G01*
X1195000Y1825000D03*
G01*
X1965000Y1830000D03*
G01*
X1965000Y1830000D03*
G01*
X1080000Y1835000D03*
G01*
X2365000Y2200000D03*
G01*
X2750000Y2205000D03*
G01*
X3115000Y2225000D03*
G01*
X2961000Y2525000D03*
G01*
X3056999Y2525000D03*
G01*
X1205000Y1960000D03*
G01*
X2380000Y2435000D03*
G01*
X2665000Y2540000D03*
G01*
X3101000Y2520000D03*
G01*
X810000Y2200000D03*
G01*
X740000Y1860000D03*
G01*
X2915000Y1455000D03*
G01*
X755000Y1920000D03*
G01*
X2685000Y1460000D03*
G01*
X730000Y2130000D03*
G01*
X670000Y2060000D03*
G01*
X3175000Y1350000D03*
G01*
X2475000Y1340000D03*
G01*
X2405000Y1305000D03*
G01*
X1285000Y1350000D03*
G01*
X1255000Y1385000D03*
G01*
X2460000Y1300000D03*
G01*
X1495000Y1490000D03*
G01*
X2525000Y1270000D03*
G01*
X1540000Y1470000D03*
G01*
X2460000Y1470000D03*
G01*
X1745000Y1665000D03*
G01*
X2280000Y1175000D03*
G01*
X3180000Y1415000D03*
G01*
X3180000Y1415000D03*
G01*
X3180000Y1415000D03*
G01*
X2940000Y1410000D03*
G01*
X1205000Y2605000D03*
G01*
X535000Y2450000D03*
G01*
X660000Y2295000D03*
G01*
X3090000Y1675000D03*
G01*
X2925000Y1655000D03*
G01*
X2415000Y1685000D03*
G01*
X2545000Y1796260D03*
G01*
X2580000Y2065000D03*
G01*
X2580000Y2065000D03*
G01*
X2580000Y2195000D03*
G01*
X2675000Y1795000D03*
G01*
X2665000Y2065000D03*
G01*
X2665000Y2205000D03*
G01*
X3195000Y2205000D03*
G01*
X2630000Y2020000D03*
G01*
X2560000Y1910000D03*
G01*
X535999Y2140000D03*
G01*
X445000Y2420000D03*
G01*
X575000Y1765000D03*
G01*
X425000Y2075000D03*
G01*
X325000Y2415000D03*
G01*
X315000Y2294520D03*
G01*
X1565000Y2035000D03*
G01*
X2623999Y2660999D03*
G01*
X2565000Y2660000D03*
G01*
X2395000Y1400000D03*
G01*
X2610000Y1470000D03*
G01*
X1175000Y1680000D03*
G01*
X1010000Y1320000D03*
G01*
X1055000Y1320000D03*
G01*
X2705000Y2510000D03*
G01*
X3010000Y2490000D03*
G01*
X975000Y1425000D03*
G01*
X910000Y1315000D03*
G01*
X1235000Y1180000D03*
G01*
X1220000Y1225000D03*
G01*
X500000Y1215000D03*
G01*
X1520000Y1165000D03*
G01*
X1370000Y1355000D03*
G01*
X2945000Y2035000D03*
G01*
X2890000Y2035000D03*
G01*
X2890000Y1980000D03*
G01*
X2945000Y1980000D03*
G01*
X2490000Y2375000D03*
G01*
X2350000Y2565000D03*
G01*
X2625000Y2580000D03*
G01*
X785000Y1235000D03*
G01*
X325000Y1590000D03*
G01*
X480000Y1620000D03*
G01*
X640000Y1540000D03*
G01*
X315000Y2110000D03*
G01*
X465999Y2081999D03*
G01*
X1000000Y2390000D03*
G01*
X930000Y1865000D03*
G01*
X915000Y1535000D03*
G01*
X1625000Y2590000D03*
G01*
X710000Y1690000D03*
G01*
X455000Y2290000D03*
G01*
X565000Y2290000D03*
G01*
X610000Y2460000D03*
G01*
X2515000Y1725000D03*
G01*
X895000Y2077460D03*
G01*
X2978999Y1150999D03*
M02*
